<?xml version="1.0" encoding="utf-8"?>
<!-- Generator: Adobe Illustrator 21.1.0, SVG Export Plug-In . SVG Version: 6.00 Build 0)  -->
<svg version="1.1" id="Layer_1" xmlns="http://www.w3.org/2000/svg" xmlns:xlink="http://www.w3.org/1999/xlink" x="0px" y="0px"
	 viewBox="0 0 779 756" style="enable-background:new 0 0 779 756;" xml:space="preserve">
<style type="text/css">
	.st0{fill:#000000;}
</style>
<title>codenamesLogodarkredblue</title>
<path class="st0" d="M381.9,23.9c-193.3,0-350,156.7-350,350s156.7,350,350,350s350-156.7,350-350S575.2,23.9,381.9,23.9z
	 M381.9,739.8C179.9,739.8,16,575.9,16,373.9S179.9,8,381.9,8s365.9,163.8,365.9,365.9S583.9,739.8,381.9,739.8L381.9,739.8z"/>
<polygon class="st0" points="615.7,412.3 615.7,579.9 168.8,579.9 168.8,412.3 392.2,478 "/>
<path class="st0" d="M599.3,305.8c0,5.4-4.4,9.9-9.8,9.9l0,0H195.1c-5.4,0-9.9-4.4-9.9-9.9c0-5.4,4.4-9.9,9.9-9.9H242l51.6-180.7
	l98.6,65.7l98.6-39.4L548.7,296h40.7C594.9,295.9,599.3,300.3,599.3,305.8C599.3,305.7,599.3,305.8,599.3,305.8z"/>
<path class="st0" d="M533.6,366.3c0,20-16.2,36.1-36.1,36.1c-16.2,0-30.4-10.7-34.8-26.3h-37.5c-5.4-0.2-9.7-4.7-9.5-10.2
	c0.2-5.2,4.3-9.4,9.5-9.5h98.6C529.1,356.4,533.5,360.8,533.6,366.3C533.6,366.2,533.6,366.3,533.6,366.3z"/>
<path class="st0" d="M369.2,364.9c0,20-16.2,36.1-36.1,36.1c-16.2,0-30.4-10.7-34.8-26.3h-37.5c-5.4,0.2-10-4.1-10.2-9.5
	s4.1-10,9.5-10.2c0.2,0,0.4,0,0.6,0h98.6C364.8,355,369.2,359.4,369.2,364.9L369.2,364.9z"/>
</svg>
