<svg xmlns="http://www.w3.org/2000/svg" viewBox="0 0 718 573.5"><defs><style>.cls-1{fill:#e2c78d;}.cls-2{fill:#f9f4d9;}.cls-3{fill:#558962;}.cls-4{fill:#3b6344;}.cls-5{fill:#ccae6a;stroke:#0e0f0f;}.cls-6{isolation:isolate;}.cls-16,.cls-17,.cls-7{fill:#f55;}.cls-7{stroke:#000900;}.cls-22,.cls-7{stroke-width:3px;}.cls-8,.cls-9{fill:#b2371f;}.cls-8{stroke:#0f1111;}.cls-10{fill:#e3dbdb;}.cls-10,.cls-12,.cls-13,.cls-15,.cls-16,.cls-17,.cls-18,.cls-22{stroke:#000;}.cls-11,.cls-14,.cls-15{fill:#ffd42a;}.cls-11,.cls-14{stroke:#0a0a0a;}.cls-11,.cls-31{stroke-miterlimit:10;}.cls-12,.cls-18{fill:none;}.cls-13{fill:#483e37;}.cls-14,.cls-15{stroke-width:2px;}.cls-17{stroke-width:1px;}.cls-18{stroke-width:0.22px;}.cls-19{fill:#f2cec9;}.cls-20{fill:#261d1d;}.cls-21{fill:#3f3030;}.cls-22{fill:#c87137;}.cls-23{fill:#4d587a;}.cls-24{fill:#2d2525;}.cls-25{fill:#423636;}.cls-26{fill:#604233;}.cls-27{fill:#9b1b0a;}.cls-28{fill:#fff;}.cls-29{fill:#d8a095;}.cls-30,.cls-31{fill:#f7e8df;}.cls-31{stroke:#302c29;}.cls-32{fill:#f9f2ed;}.cls-33{fill:#e0ca9d;}.cls-34{fill:#ba956c;}.cls-35{fill:#e8d4d4;}.cls-36{fill:#f9dede;}</style></defs><title>Asset 3</title><g id="Layer_2" data-name="Layer 2"><g id="svg8"><g id="layer1"><rect id="rect888" class="cls-1" width="718" height="573.5"/></g><rect id="rect3240" class="cls-2" x="30.3" y="25" width="660" height="521"/><rect class="cls-3" x="30.3" y="368.8" width="655.7" height="177.1"/><path class="cls-4" d="M258.8,441.3s-22.5,18.9-20.6,27.3c1.5,6.5,19.9,10.1,20.6,16.7,1.3,12.2-28.6,26.1-30.9,38.2-1.2,6.3,12.5,22.2,12.5,22.2l359.2-2.4L578.9,396.9Z"/><polygon class="cls-4" points="30.2 369.5 30.3 428.7 60.4 445.6 287.2 442 310.9 368.8 30.2 369.5"/><g id="layer22"><g id="g6838"><path id="path4501" class="cls-5" d="M202.32,228.1,287.15,442l-19-1.95L199.31,245.86l50.43,191.92-22.45-2.3L190.46,247l6.38,184.93-20.41-5.31,4.07-181.09L131.68,417.37l-14.44-3.19H103.55l71-191.19c3.71-25,26.78-21.23,27.75,5.11Z"/><g id="g4491" class="cls-6"><path id="path4487" class="cls-7" d="M277,230c0,13.48-6.94,24.42-15.5,24.42S246,243.54,246,230s6.94-24.42,15.5-24.42S277,216.56,277,230Z"/><path id="path4489" class="cls-8" d="M266.47,204.7l-76.23.9c-16.6,5-15.71,42.34,1.52,47.92l74.71-.45c-17.49-3.62-18.84-44.09,0-48.38Z"/></g><g id="g6143" class="cls-6"><g id="g5801"><g id="g5168" class="cls-6"><path id="path4163" class="cls-9" d="M193.45,59.45c-3.17,0-6.37.17-9.57.42C102,66.37,43.87,145.5,53.95,236.6s84.63,159.68,166.49,153.17,140-85.63,129.94-176.74c-9.71-87.55-78.91-154.29-156.93-153.59Zm.42,5.84C268,64.62,333.78,129,343,213.46c9.59,87.88-45.7,164.22-123.48,170.5S70.93,324.07,61.34,236.18,107,72,184.79,65.7c3-.25,6.08-.4,9.08-.41Z"/><g id="g4842"><g id="g4208"><g id="g4199"><path id="path4217" class="cls-10" d="M61.29,255.91l-10.14,20.8c-3.56,9.14,9,12.38,10.93,5l2.67-23.28c.45-2.76-2.84-3.63-3.47-2.49ZM61,260l1.86,1.13-2.14,17.74c.5-4.12-5.25-5.5-6.92-3.5L61,260Z"/><path id="path4197" class="cls-11" d="M84.24,269.81,56,270.48c-8.62,4.29-9.44,11.43-5.47,14,11.28,7.2,21.38,5.29,30.56,5.66,7.45,0,13.18-3.81,12.81-9,.11-5.17-1.06-9.81-9.61-11.3Z"/><path id="path4199" class="cls-10" d="M92.51,256l-10.14,20.8c-3.56,9.14,9,12.38,10.93,5L96,258.51c.44-2.76-2.85-3.64-3.47-2.5h0Zm-.26,4.07,1.86,1.12L92,279c.5-4.12-5.25-5.5-6.92-3.5l7.2-15.37Z"/><path id="path4205" class="cls-12" d="M82.88,271.62c-2.23,2.66-4.73,5.2-1.87,12.21l-29.09.45c-4.26-4.38-2.41-8.43,4-12.21l27-.45Z"/><path id="path4211" class="cls-13" d="M81.15,273.42l-4.4.11-1.59,1.29-1.49-1.41-5.07.11-.95,1.34-1.33-1.35-4.94.11-1.07,1.24L59,273.51H54.85l-1.2,1.14v4.87l-3.34.11.26,1.7,29.36-.45-.41-1.81a11,11,0,0,1,1.62-5.65Z"/><path id="path4213" class="cls-12" d="M53.55,279.53l25.75-.45"/><path id="path4215" class="cls-13" d="M51.67,281.45l1.2,1.81-.94.79L81,283.7,80,281l-28.29.46Z"/></g><g id="g4173"><path id="path4222" class="cls-10" d="M82.39,276.73l-1.28-1a4,4,0,0,0-2.41-.88l-31.51.8c-1.35.06-1.76,1.22-.95,2l1.55,1,.29-.8-.95-.64c-.19-.26-.2-.83.85-.76l30.14-.64a3.84,3.84,0,0,1,2.64,1l1.13.88.5-.88Z"/><path id="path4224" class="cls-10" d="M83.48,271l-.57.59L80.69,270c-.75-.42-1.22-.11-1.28.44l-.66,4.31-1,0,.61-4.83c.19-.94,1.55-1.47,2.78-.76Z"/><path id="path4224-1" class="cls-10" d="M77.9,271l-.57.59-2.22-1.52c-.75-.42-1.22-.11-1.28.44l-.66,4.31-1,0,.61-4.83c.19-.94,1.55-1.47,2.78-.76Z"/><path id="path4248" class="cls-10" d="M72.07,271.13l-.57.59-2.22-1.52c-.75-.42-1.22-.11-1.28.44L67.33,275l-1,0,.61-4.83c.19-.94,1.55-1.47,2.78-.76Z"/><path id="path4250" class="cls-10" d="M66,271.25l-.57.59-2.21-1.52c-.75-.42-1.22-.11-1.28.44l-.66,4.31-1,0,.61-4.83c.19-.94,1.55-1.47,2.78-.76Z"/><path id="path4252" class="cls-10" d="M60.38,271.42l-.57.59-2.22-1.52c-.75-.42-1.22-.11-1.28.44l-.66,4.31-1,0,.61-4.83c.19-.94,1.55-1.47,2.78-.76Z"/><path id="path4255" class="cls-10" d="M55.24,271.13l-.13.88-1.65-1.35c-.75-.42-1.18-.17-1.23.41l-.66,4.31-1,0,.61-4.83c.19-.94,1.51-1.35,2.74-.64l1.32,1.19Z"/></g></g><g id="g4227"><g id="g4229"><path id="path4231" class="cls-10" d="M57.56,194.87l-10.14,20.8c-3.56,9.14,9,12.38,10.93,5L61,197.37c.45-2.76-2.84-3.64-3.47-2.5Zm-.28,4.07,1.86,1.12L57,217.81c.5-4.12-5.25-5.5-6.92-3.5l7.2-15.37Z"/><path id="path4233" class="cls-11" d="M80.5,208.77l-28.29.67c-8.62,4.29-9.44,11.43-5.47,14,11.28,7.2,21.38,5.29,30.56,5.66,7.45,0,13.18-3.81,12.81-9,.12-5.17-1-9.81-9.61-11.3Z"/><path id="path4235" class="cls-10" d="M88.77,195l-10.14,20.8c-3.56,9.14,9,12.38,10.93,5l2.7-23.28c.44-2.76-2.85-3.64-3.47-2.5Zm-.26,4.08,1.86,1.12-2.14,17.74c.5-4.12-5.25-5.5-6.92-3.5l7.2-15.37Z"/><path id="path4237" class="cls-12" d="M79.14,210.59c-2.23,2.66-4.73,5.2-1.87,12.21l-29.09.45c-4.26-4.38-2.41-8.43,4-12.21l27-.45Z"/><path id="path4239" class="cls-13" d="M77.42,212.39l-4.4.11-1.59,1.29-1.49-1.41-5.07.11-.94,1.35-1.33-1.35-4.94.11-1.07,1.24-1.33-1.35H51.12l-1.2,1.12v4.87l-3.34.11.26,1.7,29.36-.45L75.8,218a10.75,10.75,0,0,1,1.62-5.64Z"/><path id="path4241" class="cls-12" d="M49.82,218.49,75.57,218"/><path id="path4243" class="cls-13" d="M47.93,220.4l1.2,1.81-.94.79,29.09-.34-1.07-2.72-28.29.46Z"/></g><g id="g4245"><path id="path4247" class="cls-10" d="M78.66,215.68l-1.28-1a4,4,0,0,0-2.41-.88l-31.51.8c-1.35.06-1.76,1.22-.95,2l1.55,1,.29-.8-.95-.64c-.19-.26-.2-.83.85-.76l30.14-.64a3.84,3.84,0,0,1,2.64,1l1.13.88.5-.88Z"/><path id="path4249" class="cls-10" d="M79.74,209.93l-.57.59L76.94,209c-.75-.42-1.22-.11-1.28.44L75,213.76l-1,0,.61-4.83c.19-.94,1.55-1.47,2.78-.76Z"/><path id="path4251" class="cls-10" d="M74.17,210l-.57.59-2.22-1.52c-.75-.42-1.22-.11-1.28.44l-.66,4.31-1,0,.61-4.83c.19-.94,1.55-1.47,2.78-.76Z"/><path id="path4253" class="cls-10" d="M68.32,210.09l-.57.59-2.22-1.52c-.75-.42-1.22-.11-1.28.44l-.66,4.31-1,0,.61-4.83c.19-.94,1.55-1.47,2.78-.76Z"/><path id="path4257" class="cls-10" d="M62.27,210.21l-.57.59-2.22-1.52c-.75-.42-1.22-.11-1.28.44L57.54,214l-1,0,.61-4.83c.19-.94,1.55-1.47,2.78-.76Z"/><path id="path4259" class="cls-10" d="M56.63,210.38l-.57.59-2.22-1.52c-.75-.42-1.22-.11-1.28.44l-.66,4.31-1,0,.61-4.83c.19-.94,1.55-1.47,2.78-.76Z"/><path id="path4261" class="cls-10" d="M51.51,210.09l-.13.88-1.65-1.35c-.75-.42-1.18-.17-1.23.41l-.66,4.31-1,0,.61-4.83c.19-.94,1.51-1.35,2.74-.64l1.32,1.19Z"/></g></g><g id="g4263"><g id="g4265"><path id="path4267" class="cls-10" d="M72.5,141.07l-10.14,20.8c-3.56,9.14,9,12.38,10.93,5L76,143.55c.45-2.76-2.84-3.64-3.47-2.49Zm-.26,4.07,1.86,1.12L72,164c.5-4.12-5.25-5.5-6.92-3.5l7.2-15.37Z"/><path id="path4269" class="cls-11" d="M95.44,155l-28.29.67c-8.62,4.29-9.44,11.43-5.47,14,11.28,7.2,21.38,5.29,30.56,5.66,7.45,0,13.18-3.81,12.81-9,.12-5.18-1-9.81-9.61-11.3Z"/><path id="path4271" class="cls-10" d="M103.71,141.18,93.58,162c-3.56,9.14,9,12.38,10.93,5l2.7-23.28c.44-2.76-2.85-3.64-3.47-2.5h0Zm-.26,4.07,1.86,1.12-2.14,17.74c.5-4.12-5.25-5.5-6.92-3.5l7.2-15.37Z"/><path id="path4273" class="cls-12" d="M94.09,156.77c-2.23,2.66-4.73,5.2-1.87,12.21l-29.09.45c-4.26-4.38-2.41-8.43,4-12.21l27-.45Z"/><path id="path4275" class="cls-13" d="M92.35,158.59l-4.4.11L86.37,160l-1.49-1.41-5.07.11L78.87,160l-1.33-1.35-4.94.11L71.53,160l-1.33-1.35H66.07l-1.2,1.12v4.87l-3.34.11.26,1.7L91.16,166l-.41-1.81a10.84,10.84,0,0,1,1.61-5.64Z"/><path id="path4277" class="cls-12" d="M64.77,164.69l25.75-.45"/><path id="path4279" class="cls-13" d="M62.87,166.6l1.2,1.81-.94.79,29.09-.34-1.07-2.72-28.29.46Z"/></g><g id="g4281"><path id="path4283" class="cls-10" d="M93.6,161.88l-1.28-1a4,4,0,0,0-2.41-.88l-31.51.8c-1.35.06-1.76,1.22-.95,2l1.55,1,.29-.8-.95-.64c-.19-.26-.2-.83.85-.76l30.14-.64a3.84,3.84,0,0,1,2.64,1l1.13.88.5-.88Z"/><path id="path4285" class="cls-10" d="M94.68,156.12l-.57.59-2.22-1.52c-.75-.42-1.22-.11-1.28.44L89.94,160l-1,0,.61-4.83c.19-.94,1.55-1.47,2.78-.76Z"/><path id="path4287" class="cls-10" d="M89.11,156.17l-.57.59-2.22-1.52c-.75-.42-1.22-.11-1.28.44L84.37,160l-1,0L84,155.2c.19-.94,1.55-1.47,2.78-.76Z"/><path id="path4289" class="cls-10" d="M83.26,156.29l-.57.59-2.22-1.52c-.75-.42-1.22-.11-1.28.44l-.66,4.31-1,0,.61-4.83c.19-.94,1.55-1.47,2.78-.76Z"/><path id="path4291" class="cls-10" d="M77.21,156.41l-.57.59-2.22-1.52c-.75-.42-1.22-.11-1.28.44l-.66,4.31-1,0,.61-4.83c.19-.94,1.55-1.47,2.78-.76Z"/><path id="path4293" class="cls-10" d="M71.58,156.58l-.57.59-2.22-1.52c-.75-.42-1.22-.11-1.28.44l-.66,4.31-1,0,.61-4.83c.19-.94,1.55-1.47,2.78-.76Z"/><path id="path4295" class="cls-10" d="M66.44,156.29l-.13.88-1.65-1.35c-.75-.42-1.18-.17-1.23.41l-.66,4.31-1,0,.61-4.83c.19-.94,1.51-1.35,2.74-.64l1.32,1.19Z"/></g></g><g id="g4297"><g id="g4299"><path id="path4301" class="cls-10" d="M102.39,99.46l-10.14,20.8c-3.56,9.14,9,12.38,10.93,5L105.85,102c.44-2.76-2.85-3.63-3.47-2.49Zm-.26,4.07,1.86,1.12-2.14,17.75c.5-4.12-5.25-5.5-6.92-3.5l7.2-15.38Z"/><path id="path4303" class="cls-11" d="M125.33,113.36,97,114c-8.62,4.29-9.44,11.43-5.47,14,11.28,7.2,21.38,5.29,30.56,5.66,7.45,0,13.18-3.81,12.81-9,.12-5.18-1.06-9.81-9.61-11.3Z"/><path id="path4305" class="cls-10" d="M133.6,99.57l-10.14,20.8c-3.56,9.14,9,12.38,10.93,5l2.7-23.28c.44-2.76-2.85-3.64-3.47-2.5h0Zm-.28,4.07,1.86,1.12-2.14,17.74c.5-4.12-5.25-5.5-6.92-3.5l7.2-15.37Z"/><path id="path4307" class="cls-12" d="M124,115.17c-2.23,2.66-4.73,5.2-1.87,12.21L93,127.83c-4.26-4.38-2.41-8.43,4-12.21l27-.45Z"/><path id="path4309" class="cls-13" d="M122.24,117l-4.4.11-1.59,1.29L114.77,117l-5.07.11-.94,1.35-1.33-1.35-4.94.11-1.07,1.24-1.33-1.35H96l-1.2,1.12v4.87l-3.34.11.26,1.7,29.36-.45-.41-1.81a10.89,10.89,0,0,1,1.61-5.64Z"/><path id="path4311" class="cls-12" d="M94.66,123.08l25.75-.45"/><path id="path4313" class="cls-13" d="M92.76,125l1.2,1.81-.94.79,29.09-.34L121,124.55,92.76,125Z"/></g><g id="g4315"><path id="path4317" class="cls-10" d="M123.49,120.27l-1.28-1a4,4,0,0,0-2.41-.88l-31.51.8c-1.35.06-1.76,1.22-.95,2l1.55,1,.29-.8-.95-.64c-.19-.26-.2-.83.85-.76l30.14-.64a3.84,3.84,0,0,1,2.64,1l1.13.88.5-.88Z"/><path id="path4319" class="cls-10" d="M124.57,114.52l-.57.59-2.22-1.52c-.75-.42-1.22-.11-1.28.44l-.66,4.31-1,0,.61-4.83c.19-.94,1.55-1.47,2.78-.76Z"/><path id="path4321" class="cls-10" d="M119,114.56l-.57.59-2.22-1.52c-.75-.42-1.22-.11-1.28.44l-.66,4.31-1,0,.61-4.83c.19-.94,1.55-1.47,2.78-.76Z"/><path id="path4323" class="cls-10" d="M113.15,114.69l-.57.59-2.22-1.52c-.75-.42-1.22-.11-1.28.44l-.66,4.31-1,0,.61-4.83c.19-.94,1.55-1.47,2.78-.76Z"/><path id="path4325" class="cls-10" d="M107.1,114.81l-.57.59-2.22-1.52c-.75-.42-1.22-.11-1.28.44l-.66,4.31-1,0,.61-4.83c.19-.94,1.55-1.47,2.78-.76Z"/><path id="path4327" class="cls-10" d="M101.47,115l-.57.59L98.68,114c-.75-.42-1.22-.11-1.28.44l-.66,4.31-1,0,.61-4.83c.19-.94,1.55-1.47,2.78-.76Z"/><path id="path4329" class="cls-10" d="M96.32,114.69l-.13.88-1.65-1.35c-.75-.42-1.18-.17-1.23.41l-.66,4.31-1,0,.61-4.83c.19-.94,1.51-1.35,2.74-.64l1.32,1.19Z"/></g></g><g id="g4331"><g id="g4333"><path id="path4335" class="cls-10" d="M148.29,69.17,138.15,90c-3.56,9.14,9,12.38,10.93,5l2.67-23.28c.44-2.76-2.85-3.64-3.47-2.49ZM148,73.25l1.86,1.12-2.14,17.74c.5-4.12-5.25-5.5-6.92-3.5L148,73.25Z"/><path id="path4337" class="cls-11" d="M171.23,83.07l-28.29.67c-8.62,4.29-9.44,11.43-5.47,14,11.28,7.2,21.38,5.29,30.56,5.66,7.45,0,13.18-3.81,12.81-9,.12-5.18-1.06-9.81-9.61-11.3Z"/><path id="path4339" class="cls-10" d="M179.5,69.28l-10.14,20.8c-3.56,9.14,9,12.38,10.93,5L183,71.77c.44-2.76-2.85-3.64-3.47-2.5h0Zm-.26,4.07,1.86,1.12L179,92.22c.5-4.12-5.25-5.5-6.92-3.5l7.2-15.37Z"/><path id="path4341" class="cls-12" d="M169.88,84.88c-2.23,2.66-4.73,5.2-1.87,12.21l-29.09.45c-4.26-4.38-2.41-8.43,4-12.21l27-.45Z"/><path id="path4343" class="cls-13" d="M168.15,86.7l-4.4.11-1.59,1.29-1.49-1.41-5.07.11-.94,1.35-1.33-1.35-4.94.11-1.07,1.24L146,86.8h-4.14l-1.2,1.12v4.87l-3.34.11.26,1.7,29.36-.45-.41-1.81a10.75,10.75,0,0,1,1.62-5.64Z"/><path id="path4345" class="cls-12" d="M140.55,92.79l25.75-.45"/><path id="path4347" class="cls-13" d="M138.66,94.71l1.2,1.81-.94.79L168,97l-1.07-2.72-28.29.46Z"/></g><g id="g4349"><path id="path4351" class="cls-10" d="M169.38,90l-1.28-1a4,4,0,0,0-2.41-.88l-31.51.8c-1.35.06-1.76,1.22-.95,2l1.55,1,.29-.8-.95-.64c-.19-.26-.2-.83.85-.76L165.11,89a3.84,3.84,0,0,1,2.64,1l1.13.88.5-.88Z"/><path id="path4353" class="cls-10" d="M170.46,84.23l-.57.59-2.22-1.52c-.75-.42-1.22-.11-1.28.44l-.66,4.31-1,0,.61-4.83c.19-.94,1.55-1.47,2.78-.76Z"/><path id="path4355" class="cls-10" d="M164.89,84.27l-.57.59-2.22-1.52c-.75-.42-1.22-.11-1.28.44l-.66,4.31-1,0,.61-4.83c.19-.94,1.55-1.47,2.78-.76Z"/><path id="path4357" class="cls-10" d="M159.06,84.4l-.57.59-2.22-1.52c-.75-.42-1.22-.11-1.28.44l-.66,4.31-1,0,.61-4.83c.19-.94,1.55-1.47,2.78-.76Z"/><path id="path4359" class="cls-10" d="M153,84.52l-.57.59-2.22-1.52c-.75-.42-1.22-.11-1.28.44l-.66,4.31-1,0,.61-4.83c.19-.94,1.55-1.47,2.78-.76Z"/><path id="path4361" class="cls-10" d="M147.37,84.68l-.57.59-2.22-1.52c-.75-.42-1.22-.11-1.28.44l-.66,4.31-1,0,.61-4.83c.19-.94,1.55-1.47,2.78-.76Z"/><path id="path4363" class="cls-10" d="M142.23,84.4l-.13.88-1.65-1.35c-.75-.42-1.18-.17-1.23.41l-.66,4.31-1,0,.61-4.83c.19-.94,1.51-1.35,2.74-.64l1.32,1.19Z"/></g></g><g id="g4365"><g id="g4367"><path id="path4369" class="cls-10" d="M198.45,59.67l-10.14,20.8c-3.56,9.14,9,12.38,10.93,5l2.67-23.28c.44-2.76-2.85-3.64-3.47-2.49Zm-.26,4.08L200,64.88l-2.14,17.74c.5-4.12-5.25-5.5-6.92-3.5l7.2-15.37Z"/><path id="path4371" class="cls-11" d="M221.38,73.57l-28.29.67c-8.62,4.29-9.44,11.43-5.47,14,11.28,7.2,21.38,5.29,30.56,5.66,7.45,0,13.18-3.81,12.81-9,.13-5.17-1-9.81-9.61-11.3Z"/><path id="path4373" class="cls-10" d="M229.67,59.78l-10.14,20.8c-3.56,9.14,9,12.38,10.93,5l2.7-23.28c.44-2.76-2.85-3.64-3.47-2.5h0Zm-.26,4.07L231.27,65l-2.14,17.74c.5-4.12-5.25-5.5-6.92-3.5l7.2-15.37Z"/><path id="path4375" class="cls-12" d="M220,75.38c-2.23,2.66-4.73,5.2-1.87,12.21L189.08,88c-4.26-4.38-2.41-8.43,4-12.21l27-.45Z"/><path id="path4377" class="cls-13" d="M218.31,77.19l-4.4.11-1.59,1.29-1.49-1.41-5.07.11-.94,1.35-1.33-1.35-4.94.11-1.07,1.24-1.33-1.35H192l-1.2,1.12v4.87l-3.34.11.26,1.7,29.36-.45-.41-1.81a10.77,10.77,0,0,1,1.62-5.64Z"/><path id="path4379" class="cls-12" d="M190.72,83.3l25.75-.45"/><path id="path4381" class="cls-13" d="M188.82,85.22,190,87l-.94.79,29.09-.34-1.07-2.72-28.29.46Z"/></g><g id="g4383"><path id="path4385" class="cls-10" d="M219.54,80.49l-1.28-1a4,4,0,0,0-2.41-.88l-31.51.8c-1.35.06-1.76,1.22-.95,2l1.55,1,.29-.8-.95-.64c-.19-.26-.2-.83.85-.76l30.14-.64a3.84,3.84,0,0,1,2.64,1l1.13.88.5-.88Z"/><path id="path4387" class="cls-10" d="M220.63,74.74l-.57.59-2.22-1.52c-.75-.42-1.22-.11-1.28.44l-.66,4.31-1,0,.61-4.83c.19-.94,1.55-1.47,2.78-.76Z"/><path id="path4389" class="cls-10" d="M215.06,74.77l-.57.59-2.22-1.52c-.75-.42-1.22-.11-1.28.44l-.66,4.31-1,0,.61-4.83c.19-.94,1.55-1.47,2.78-.76Z"/><path id="path4391" class="cls-10" d="M209.22,74.91l-.57.59L206.42,74c-.75-.42-1.22-.11-1.28.44l-.66,4.31-1,0,.61-4.83c.19-.94,1.55-1.47,2.78-.76Z"/><path id="path4393" class="cls-10" d="M203.16,75l-.57.59-2.22-1.52c-.75-.42-1.22-.11-1.28.44l-.66,4.31-1,0L198,74c.19-.94,1.55-1.47,2.78-.76Z"/><path id="path4395" class="cls-10" d="M197.53,75.18l-.57.59-2.22-1.52c-.75-.42-1.22-.11-1.28.44L192.8,79l-1,0,.61-4.83c.19-.94,1.55-1.47,2.78-.76Z"/><path id="path4398" class="cls-10" d="M192.39,74.91l-.13.88-1.65-1.35c-.75-.42-1.18-.17-1.23.41l-.66,4.31-1,0,.61-4.83c.19-.94,1.51-1.35,2.74-.64l1.32,1.19Z"/></g></g><g id="g4400"><g id="g4402"><path id="path4404" class="cls-10" d="M246,71l-10.14,20.8c-3.56,9.14,9,12.38,10.93,5l2.67-23.28c.44-2.77-2.85-3.63-3.47-2.49Zm-.28,4.07,1.86,1.12-2.14,17.74c.5-4.12-5.25-5.5-6.92-3.5l7.2-15.37Z"/><path id="path4406" class="cls-11" d="M268.9,84.87l-28.29.67c-8.62,4.29-9.44,11.43-5.47,14,11.28,7.2,21.38,5.29,30.56,5.66,7.45,0,13.18-3.81,12.81-9,.11-5.17-1.06-9.8-9.61-11.3Z"/><path id="path4410" class="cls-12" d="M267.53,86.69c-2.23,2.66-4.73,5.2-1.87,12.21l-29.09.45c-4.26-4.38-2.41-8.43,4-12.21l27-.45Z"/><path id="path4412" class="cls-13" d="M265.81,88.49l-4.4.11-1.59,1.29-1.49-1.41-5.07.11-.94,1.35L251,88.59,246,88.7,245,89.95l-1.33-1.36h-4.14l-1.2,1.12v4.87l-3.34.11.26,1.7,29.36-.45-.41-1.81a11,11,0,0,1,1.62-5.62Z"/><path id="path4414" class="cls-12" d="M238.21,94.6,264,94.15"/><path id="path4416" class="cls-13" d="M236.33,96.52l1.2,1.81-.94.79,29.09-.34-1.07-2.72-28.29.46Z"/></g><g id="g4418"><path id="path4420" class="cls-10" d="M267.05,91.79l-1.28-1a4,4,0,0,0-2.41-.88l-31.51.8c-1.35.06-1.76,1.22-.95,2l1.55,1,.29-.8-.95-.64c-.19-.26-.2-.83.85-.76l30.14-.64a3.84,3.84,0,0,1,2.64,1l1.13.88.5-.88Z"/><path id="path4422" class="cls-10" d="M268.14,86l-.57.59-2.22-1.52c-.75-.42-1.22-.11-1.28.44l-.66,4.31-1,0,.61-4.83c.19-.94,1.55-1.47,2.78-.76Z"/><path id="path4424" class="cls-10" d="M262.56,86.07l-.57.59-2.22-1.52c-.75-.42-1.22-.11-1.28.44l-.66,4.31-1,0,.61-4.83c.19-.94,1.55-1.47,2.78-.76Z"/><path id="path4426" class="cls-10" d="M256.73,86.21l-.57.59-2.22-1.52c-.75-.42-1.22-.11-1.28.44L252,90l-1,0,.61-4.83c.19-.94,1.55-1.47,2.78-.76Z"/><path id="path4428" class="cls-10" d="M250.66,86.32l-.57.59-2.22-1.52c-.75-.42-1.22-.11-1.28.44l-.66,4.31-1,0,.61-4.83c.19-.94,1.55-1.47,2.78-.76Z"/><path id="path4430" class="cls-10" d="M245,86.48l-.57.59-2.22-1.52c-.75-.42-1.22-.11-1.28.44l-.66,4.31-1,0,.61-4.83c.19-.94,1.55-1.47,2.78-.76Z"/><path id="path4432" class="cls-10" d="M239.9,86.21l-.13.88-1.65-1.35c-.75-.42-1.18-.17-1.23.41l-.66,4.31-1,0,.61-4.83c.19-.94,1.51-1.35,2.74-.64l1.32,1.19Z"/></g></g><g id="g4434"><g id="g4436"><path id="path4438" class="cls-10" d="M283.84,94.48l-10.14,20.8c-3.56,9.14,9,12.38,10.93,5L287.31,97c.44-2.75-2.84-3.63-3.47-2.49Zm-.26,4.07,1.86,1.12-2.14,17.74c.5-4.12-5.25-5.5-6.92-3.5l7.2-15.37Z"/><path id="path4440" class="cls-11" d="M306.78,108.4l-28.29.67c-8.62,4.29-9.44,11.43-5.47,14,11.28,7.2,21.38,5.29,30.56,5.66,7.45,0,13.18-3.81,12.81-9,.12-5.18-1-9.82-9.61-11.3Z"/><path id="path4442" class="cls-10" d="M315.07,94.6l-10.14,20.8c-3.56,9.14,9,12.38,10.93,5l2.7-23.28c.44-2.76-2.85-3.64-3.47-2.5h0Zm-.28,4.07,1.86,1.12-2.14,17.74c.5-4.12-5.25-5.5-6.92-3.5l7.2-15.37Z"/><path id="path4444" class="cls-12" d="M305.43,110.2c-2.23,2.66-4.73,5.2-1.87,12.21l-29.09.45c-4.26-4.38-2.41-8.43,4-12.21l27-.45Z"/><path id="path4446" class="cls-13" d="M303.7,112l-4.4.11-1.58,1.29L296.22,112l-5.07.11-.94,1.35-1.33-1.35-4.94.11-1.07,1.24-1.33-1.35H277.4l-1.2,1.12v4.87l-3.34.11.26,1.7,29.36-.45-.41-1.81A11,11,0,0,1,303.7,112Z"/><path id="path4448" class="cls-12" d="M276.11,118.1l25.75-.45"/><path id="path4450" class="cls-13" d="M274.21,120l1.2,1.81-.94.79,29.09-.34-1.07-2.72-28.29.46Z"/></g><g id="g4452"><path id="path4454" class="cls-10" d="M304.94,115.3l-1.28-1a4,4,0,0,0-2.41-.88l-31.51.8c-1.35.06-1.76,1.22-.95,2l1.55,1,.29-.8-.95-.64c-.19-.26-.2-.83.85-.76l30.14-.64a3.84,3.84,0,0,1,2.64,1l1.13.88.5-.88Z"/><path id="path4456" class="cls-10" d="M306,109.55l-.57.59-2.22-1.52c-.75-.42-1.22-.11-1.28.44l-.66,4.31-1,0,.61-4.83c.19-.94,1.55-1.47,2.78-.76Z"/><path id="path4458" class="cls-10" d="M300.45,109.59l-.57.59-2.22-1.52c-.75-.42-1.22-.11-1.28.44l-.66,4.31-1,0,.61-4.83c.19-.94,1.55-1.47,2.78-.76Z"/><path id="path4460" class="cls-10" d="M294.61,109.7l-.57.59-2.22-1.52c-.75-.42-1.22-.11-1.28.44l-.66,4.31-1,0,.61-4.83c.19-.94,1.55-1.47,2.78-.76Z"/><path id="path4462" class="cls-10" d="M288.55,109.84l-.57.59-2.22-1.52c-.75-.42-1.22-.11-1.28.44l-.66,4.31-1,0,.61-4.83c.19-.94,1.55-1.47,2.78-.76Z"/><path id="path4464" class="cls-10" d="M282.93,110l-.57.59-2.22-1.52c-.75-.42-1.22-.11-1.28.44l-.66,4.31-1,0,.61-4.83c.19-.94,1.55-1.47,2.78-.76Z"/><path id="path4466" class="cls-10" d="M277.79,109.7l-.13.88L276,109.23c-.75-.42-1.18-.17-1.23.41l-.66,4.31-1,0,.61-4.83c.19-.94,1.51-1.35,2.73-.64l1.33,1.19Z"/></g></g><g id="g4468"><g id="g4470"><path id="path4472" class="cls-10" d="M316.94,128.4l-10.14,20.8c-3.56,9.14,9,12.38,10.93,5l2.67-23.28c.44-2.77-2.85-3.63-3.47-2.49Zm-.26,4.07,1.86,1.12-2.14,17.74c.5-4.12-5.25-5.5-6.92-3.5l7.2-15.37Z"/><path id="path4474" class="cls-14" d="M339.87,142.3l-28.29.67c-8.62,4.29-9.44,11.43-5.47,14,11.28,7.2,21.38,5.29,30.56,5.66,7.45,0,13.18-3.81,12.81-9,.12-5.17-1-9.8-9.61-11.3Z"/><path id="path4476" class="cls-10" d="M348.15,128.5,338,149.31c-3.56,9.14,9,12.38,10.93,5l2.7-23.28c.44-2.76-2.85-3.64-3.47-2.5h0Zm-.26,4.07,1.86,1.12-2.14,17.74c.5-4.12-5.25-5.5-6.92-3.5l7.2-15.37Z"/><path id="path4478" class="cls-12" d="M338.52,144.11c-2.23,2.66-4.73,5.2-1.87,12.21l-29.09.45c-4.26-4.38-2.41-8.43,4-12.21l27-.45Z"/><path id="path4480" class="cls-13" d="M336.79,145.92l-4.4.11-1.58,1.29-1.49-1.41-5.07.11-.94,1.35L322,146l-4.94.11L316,147.37,314.63,146H310.5l-1.2,1.12V152l-3.34.11.26,1.7,29.36-.45-.41-1.81a11,11,0,0,1,1.62-5.64Z"/><path id="path4482" class="cls-12" d="M309.21,152l25.75-.45"/><path id="path4484" class="cls-13" d="M307.3,153.94l1.2,1.81-.94.79,29.09-.34-1.07-2.72-28.29.46Z"/></g><g id="g4486"><path id="path4488" class="cls-10" d="M338,149.21l-1.28-1a4,4,0,0,0-2.41-.88l-31.51.8c-1.35.06-1.76,1.22-.95,2l1.55,1,.29-.8-.95-.64c-.19-.26-.2-.83.85-.76l30.14-.64a3.84,3.84,0,0,1,2.64,1l1.13.88.5-.88Z"/><path id="path4490" class="cls-10" d="M339.11,143.46l-.57.59-2.22-1.52c-.75-.42-1.22-.11-1.28.44l-.66,4.31-1,0,.61-4.83c.19-.94,1.55-1.47,2.78-.76Z"/><path id="path4492" class="cls-10" d="M333.53,143.51l-.57.59-2.22-1.52c-.75-.42-1.22-.11-1.28.44l-.66,4.31-1,0,.61-4.83c.19-.94,1.55-1.47,2.78-.76Z"/><path id="path4494" class="cls-10" d="M327.7,143.63l-.57.59-2.22-1.52c-.75-.42-1.22-.11-1.28.44l-.66,4.31-1,0,.61-4.83c.19-.94,1.55-1.47,2.78-.76Z"/><path id="path4496" class="cls-10" d="M321.65,143.74l-.57.59-2.22-1.52c-.75-.42-1.22-.11-1.28.44l-.66,4.31-1,0,.61-4.83c.19-.94,1.55-1.47,2.78-.76Z"/><path id="path4498" class="cls-10" d="M316,143.9l-.57.59L313.21,143c-.75-.42-1.22-.11-1.28.44l-.66,4.31-1,0,.61-4.83c.19-.94,1.55-1.47,2.78-.76Z"/><path id="path4500" class="cls-10" d="M310.87,143.63l-.13.88-1.65-1.35c-.75-.42-1.18-.17-1.23.41l-.66,4.31-1,0,.61-4.83c.19-.94,1.51-1.35,2.73-.64l1.33,1.19Z"/></g></g><g id="g4502"><g id="g4504"><path id="path4506" class="cls-10" d="M336.14,167.29,326,188.09c-3.56,9.14,9,12.38,10.93,5l2.67-23.28c.44-2.76-2.85-3.64-3.47-2.49Zm-.26,4.07,1.86,1.12-2.14,17.74c.5-4.12-5.25-5.5-6.92-3.5l7.2-15.37Z"/><path id="path4508" class="cls-15" d="M359.08,181.19l-28.29.67c-8.62,4.29-9.44,11.43-5.47,14,11.28,7.2,21.38,5.29,30.56,5.66,7.45,0,13.18-3.81,12.81-9,.12-5.17-1.06-9.81-9.61-11.3Z"/><path id="path4510" class="cls-10" d="M367.36,167.4l-10.14,20.8c-3.56,9.14,9,12.38,10.93,5l2.7-23.28c.44-2.76-2.85-3.64-3.47-2.5h0Zm-.28,4.07,1.86,1.12-2.14,17.74c.5-4.12-5.25-5.5-6.92-3.5l7.2-15.37Z"/><path id="path4512" class="cls-12" d="M357.73,183c-2.23,2.66-4.73,5.2-1.87,12.21l-29.09.45c-4.26-4.38-2.41-8.43,4-12.21l27-.45Z"/><path id="path4514" class="cls-13" d="M356,184.81l-4.4.11L350,186.21l-1.49-1.41-5.07.11-.94,1.35-1.33-1.35-4.94.11-1.07,1.24-1.33-1.35H329.7L328.5,186v4.87l-3.34.11.26,1.7,29.36-.45-.41-1.81a11,11,0,0,1,1.62-5.64Z"/><path id="path4516" class="cls-12" d="M328.42,190.92l25.75-.45"/><path id="path4518" class="cls-13" d="M326.51,192.83l1.2,1.81-.94.79,29.09-.34-1.07-2.72-28.29.46Z"/></g><g id="g4520"><path id="path4522" class="cls-10" d="M357.24,188.1l-1.28-1a4,4,0,0,0-2.41-.88L322,187c-1.35.06-1.76,1.22-.95,2l1.55,1,.29-.8-.95-.64c-.19-.26-.2-.83.85-.76l30.14-.64a3.87,3.87,0,0,1,2.64,1l1.13.88.5-.88Z"/><path id="path4524" class="cls-10" d="M358.32,182.36l-.57.59-2.22-1.52c-.75-.42-1.22-.11-1.28.44l-.66,4.31-1,0,.61-4.83c.19-.94,1.55-1.47,2.78-.76Z"/><path id="path4526" class="cls-10" d="M352.75,182.39l-.57.59L350,181.46c-.75-.42-1.22-.11-1.28.44l-.66,4.31-1,0,.61-4.83c.19-.94,1.55-1.47,2.78-.76Z"/><path id="path4528" class="cls-10" d="M346.91,182.52l-.57.59-2.22-1.52c-.75-.42-1.22-.11-1.28.44l-.66,4.31-1,0,.61-4.83c.19-.94,1.55-1.47,2.78-.76Z"/><path id="path4530" class="cls-10" d="M340.84,182.63l-.57.59L338,181.71c-.75-.42-1.22-.11-1.28.44l-.66,4.31-1,0,.61-4.83c.19-.94,1.55-1.47,2.78-.76Z"/><path id="path4532" class="cls-10" d="M335.23,182.8l-.57.59-2.22-1.52c-.75-.42-1.22-.11-1.28.44l-.66,4.31-1,0,.61-4.83c.19-.94,1.55-1.47,2.78-.76Z"/><path id="path4534" class="cls-10" d="M330.08,182.52l-.13.88L328.3,182c-.75-.42-1.18-.17-1.23.41l-.66,4.31-1,0L326,182c.19-.94,1.51-1.35,2.73-.64l1.33,1.19Z"/></g></g><g id="g4536"><g id="g4538"><path id="path4540" class="cls-10" d="M346.29,208.43l-10.14,20.8c-3.56,9.14,9,12.38,10.93,5l2.67-23.28c.44-2.76-2.85-3.63-3.47-2.49ZM346,212.5l1.86,1.12-2.14,17.75c.5-4.12-5.25-5.5-6.92-3.5L346,212.5Z"/><path id="path4542" class="cls-15" d="M369.23,222.33l-28.29.67c-8.62,4.29-9.44,11.43-5.47,14,11.28,7.2,21.38,5.29,30.56,5.66,7.45,0,13.18-3.81,12.81-9,.12-5.17-1.06-9.8-9.61-11.3Z"/><path id="path4544" class="cls-10" d="M377.5,208.54l-10.14,20.8c-3.56,9.14,9,12.38,10.93,5L381,211c.44-2.76-2.85-3.64-3.47-2.5h0Zm-.28,4.08,1.86,1.12L377,231.49c.5-4.12-5.25-5.5-6.92-3.5l7.2-15.37Z"/><path id="path4546" class="cls-12" d="M367.87,224.15c-2.23,2.66-4.73,5.2-1.87,12.21l-29.09.45c-4.26-4.38-2.41-8.43,4-12.21l27-.45Z"/><path id="path4548" class="cls-13" d="M366.14,225.94l-4.4.11-1.58,1.29-1.49-1.41-5.07.11-.94,1.35L351.33,226l-4.94.11-1.07,1.24L344,226h-4.14l-1.2,1.12V232l-3.34.11.26,1.7,29.36-.45-.4-1.81a10.92,10.92,0,0,1,1.61-5.64Z"/><path id="path4550" class="cls-12" d="M338.56,232l25.75-.45"/><path id="path4552" class="cls-13" d="M336.66,234l1.2,1.81-.94.79,29.09-.34-1.07-2.72-28.29.46Z"/></g><g id="g4554"><path id="path4556" class="cls-10" d="M367.39,229.24l-1.28-1a4,4,0,0,0-2.41-.88l-31.51.8c-1.35.06-1.76,1.22-.95,2l1.55,1,.29-.8-.95-.64c-.19-.26-.2-.83.85-.76l30.14-.64a3.84,3.84,0,0,1,2.64,1l1.13.88.5-.88Z"/><path id="path4558" class="cls-10" d="M368.47,223.49l-.57.59-2.22-1.52c-.75-.42-1.22-.11-1.28.44l-.66,4.31-1,0,.61-4.83c.19-.94,1.55-1.47,2.78-.76Z"/><path id="path4560" class="cls-10" d="M362.9,223.54l-.57.59-2.22-1.52c-.75-.42-1.22-.11-1.28.44l-.66,4.31-1,0,.61-4.83c.19-.94,1.55-1.47,2.78-.76Z"/><path id="path4562" class="cls-10" d="M357.05,223.66l-.57.59-2.22-1.52c-.75-.42-1.22-.11-1.28.44l-.66,4.31-1,0,.61-4.83c.19-.94,1.55-1.47,2.78-.76Z"/><path id="path4564" class="cls-10" d="M351,223.78l-.57.59-2.22-1.52c-.75-.42-1.22-.11-1.28.44l-.66,4.31-1,0,.61-4.83c.19-.94,1.55-1.47,2.78-.76Z"/><path id="path4566" class="cls-10" d="M345.37,223.94l-.57.59L342.58,223c-.75-.42-1.22-.11-1.28.44l-.66,4.31-1,0,.61-4.83c.19-.94,1.55-1.47,2.78-.76Z"/><path id="path4568" class="cls-10" d="M340.22,223.66l-.13.88-1.65-1.35c-.75-.42-1.18-.17-1.23.41l-.66,4.31-1,0,.61-4.83c.19-.94,1.51-1.35,2.74-.64l1.32,1.19Z"/></g></g><g id="g4570"><g id="g4572"><path id="path4574" class="cls-10" d="M345.22,255l-10.14,20.8c-3.56,9.14,9,12.38,10.93,5l2.67-23.28c.44-2.77-2.85-3.64-3.47-2.49Zm-.26,4.07,1.86,1.12L344.68,278c.5-4.12-5.25-5.5-6.92-3.5l7.2-15.38Z"/><path id="path4576" class="cls-15" d="M368.16,268.9l-28.29.67c-8.62,4.29-9.44,11.43-5.47,14,11.28,7.2,21.38,5.29,30.56,5.66,7.45,0,13.18-3.81,12.81-9,.11-5.17-1.06-9.8-9.61-11.3Z"/><path id="path4578" class="cls-10" d="M376.43,255.11l-10.14,20.8c-3.56,9.14,9,12.38,10.93,5l2.7-23.28c.44-2.76-2.85-3.64-3.47-2.5h0Zm-.26,4.08,1.86,1.12-2.14,17.74c.5-4.12-5.25-5.5-6.92-3.5l7.2-15.37Z"/><path id="path4580" class="cls-12" d="M366.81,270.72c-2.23,2.66-4.73,5.2-1.87,12.21l-29.09.45c-4.26-4.38-2.41-8.43,4-12.21l27-.45Z"/><path id="path4582" class="cls-13" d="M365.08,272.52l-4.4.11-1.58,1.29-1.49-1.41-5.07.11-.94,1.35-1.33-1.35-4.94.11L344.25,274l-1.33-1.35h-4.14l-1.2,1.12v4.87l-3.34.11.26,1.7,29.36-.45-.41-1.81a10.91,10.91,0,0,1,1.62-5.64Z"/><path id="path4584" class="cls-12" d="M337.48,278.63l25.75-.45"/><path id="path4586" class="cls-13" d="M335.59,280.55l1.2,1.81-.94.79,29.09-.34-1.07-2.72-28.29.46Z"/></g><g id="g4588"><path id="path4590" class="cls-10" d="M366.32,275.81l-1.28-1a4,4,0,0,0-2.41-.88l-31.51.8c-1.35.06-1.76,1.22-.95,2l1.55,1,.29-.8-.95-.64c-.19-.26-.2-.83.85-.76l30.14-.64a3.84,3.84,0,0,1,2.64,1l1.13.88.5-.88Z"/><path id="path4592" class="cls-10" d="M367.4,270.07l-.57.59-2.22-1.52c-.75-.42-1.22-.11-1.28.44l-.66,4.31-1,0,.61-4.83c.19-.94,1.55-1.47,2.78-.76Z"/><path id="path4594" class="cls-10" d="M361.82,270.11l-.57.59L359,269.19c-.75-.42-1.22-.11-1.28.44l-.66,4.31-1,0,.61-4.83c.19-.94,1.55-1.47,2.78-.76Z"/><path id="path4596" class="cls-10" d="M356,270.23l-.57.59-2.22-1.52c-.75-.42-1.22-.11-1.28.44l-.66,4.31-1,0,.61-4.83c.19-.94,1.55-1.47,2.78-.76Z"/><path id="path4598" class="cls-10" d="M349.92,270.36l-.57.59-2.22-1.52c-.75-.42-1.22-.11-1.28.44l-.66,4.31-1,0,.61-4.83c.19-.94,1.55-1.47,2.78-.76Z"/><path id="path4600" class="cls-10" d="M344.3,270.51l-.57.59-2.22-1.52c-.75-.42-1.22-.11-1.28.44l-.66,4.31-1,0,.61-4.83c.19-.94,1.55-1.47,2.78-.76Z"/><path id="path4602" class="cls-10" d="M339.16,270.23l-.13.88-1.65-1.35c-.75-.42-1.18-.17-1.23.41l-.66,4.31-1,0,.61-4.83c.19-.94,1.51-1.35,2.74-.64l1.32,1.19Z"/></g></g><g id="g4604"><g id="g4606"><path id="path4608" class="cls-10" d="M333.48,298.41l-10.14,20.8c-3.56,9.14,9,12.38,10.93,5l2.67-23.28c.44-2.76-2.85-3.63-3.47-2.49Zm-.26,4.07,1.86,1.12-2.14,17.74c.5-4.12-5.25-5.5-6.92-3.5l7.2-15.37Z"/><path id="path4610" class="cls-15" d="M356.42,312.31l-28.29.67c-8.62,4.29-9.44,11.43-5.47,14,11.28,7.2,21.38,5.29,30.56,5.66,7.45,0,13.18-3.81,12.81-9,.12-5.17-1-9.81-9.61-11.3Z"/><path id="path4612" class="cls-10" d="M364.69,298.52l-10.14,20.8c-3.56,9.14,9,12.38,10.93,5l2.7-23.28c.44-2.76-2.85-3.64-3.47-2.5h0Zm-.26,4.08,1.86,1.12-2.14,17.74c.5-4.12-5.25-5.5-6.92-3.5l7.2-15.37Z"/><path id="path4614" class="cls-12" d="M355.06,314.13c-2.23,2.66-4.73,5.2-1.87,12.21l-29.09.45c-4.26-4.38-2.41-8.43,4-12.21l27-.45Z"/><path id="path4616" class="cls-13" d="M353.33,315.93l-4.4.11-1.58,1.29-1.49-1.41-5.07.11-.94,1.35L338.52,316l-4.94.11-1.07,1.24L331.18,316H327l-1.2,1.12V322l-3.34.11.26,1.7,29.36-.45-.41-1.81a11,11,0,0,1,1.62-5.64Z"/><path id="path4618" class="cls-12" d="M325.75,322l25.75-.45"/><path id="path4620" class="cls-13" d="M323.85,323.95l1.2,1.81-.94.79,29.09-.34-1.07-2.72-28.29.46Z"/></g><g id="g4622"><path id="path4624" class="cls-10" d="M354.58,319.23l-1.28-1a4,4,0,0,0-2.41-.88l-31.51.8c-1.35.06-1.76,1.22-.95,2l1.55,1,.29-.8-.95-.64c-.19-.26-.2-.83.85-.76l30.14-.64a3.84,3.84,0,0,1,2.64,1l1.13.88.5-.88Z"/><path id="path4626" class="cls-10" d="M355.66,313.47l-.57.59-2.22-1.52c-.75-.42-1.22-.11-1.28.44l-.66,4.31-1,0,.61-4.83c.19-.94,1.55-1.47,2.78-.76Z"/><path id="path4628" class="cls-10" d="M350.09,313.53l-.57.59-2.22-1.52c-.75-.42-1.22-.11-1.28.44l-.66,4.31-1,0,.61-4.83c.19-.94,1.55-1.47,2.78-.76Z"/><path id="path4630" class="cls-10" d="M344.24,313.64l-.57.59-2.22-1.52c-.75-.42-1.22-.11-1.28.44l-.66,4.31-1,0,.61-4.83c.19-.94,1.55-1.47,2.78-.76Z"/><path id="path4632" class="cls-10" d="M338.19,313.77l-.57.59-2.22-1.52c-.75-.42-1.22-.11-1.28.44l-.66,4.31-1,0,.61-4.83c.19-.94,1.55-1.47,2.78-.76Z"/><path id="path4634" class="cls-10" d="M332.55,313.91l-.57.59L329.76,313c-.75-.42-1.22-.11-1.28.44l-.66,4.31-1,0,.61-4.83c.19-.94,1.55-1.47,2.78-.76Z"/><path id="path4636" class="cls-10" d="M327.41,313.64l-.13.88-1.65-1.35c-.75-.42-1.18-.17-1.23.41l-.66,4.31-1,0,.61-4.83c.19-.94,1.51-1.35,2.74-.64l1.32,1.19Z"/></g></g><g id="g4638"><g id="g4640"><path id="path4642" class="cls-10" d="M310.52,336.4l-10.14,20.8c-3.56,9.14,9,12.38,10.93,5L314,338.88c.45-2.76-2.84-3.64-3.47-2.49Zm-.26,4.07,1.86,1.12L310,359.33c.5-4.12-5.25-5.5-6.92-3.5l7.2-15.37Z"/><path id="path4644" class="cls-15" d="M333.46,350.3l-28.29.67c-8.62,4.29-9.44,11.43-5.47,14,11.28,7.2,21.38,5.29,30.56,5.66,7.45,0,13.18-3.81,12.81-9,.12-5.17-1-9.81-9.61-11.3Z"/><path id="path4646" class="cls-10" d="M341.75,336.51l-10.14,20.8c-3.56,9.14,9,12.38,10.93,5l2.7-23.28c.44-2.76-2.85-3.64-3.47-2.5Zm-.28,4.07,1.86,1.12-2.14,17.74c.5-4.12-5.25-5.5-6.92-3.5l7.2-15.37Z"/><path id="path4648" class="cls-12" d="M332.11,352.1c-2.23,2.66-4.73,5.2-1.87,12.21l-29.08.46c-4.26-4.38-2.41-8.43,4-12.21l27-.46Z"/><path id="path4650" class="cls-13" d="M330.38,353.92,326,354l-1.58,1.29-1.49-1.41-5.07.11-.94,1.35L315.58,354l-4.94.11-1.07,1.24L308.24,354H304.1l-1.2,1.12V360l-3.34.11.26,1.7,29.36-.45-.41-1.81a10.88,10.88,0,0,1,1.61-5.66Z"/><path id="path4652" class="cls-12" d="M302.8,360l25.75-.45"/><path id="path4654" class="cls-13" d="M300.89,361.94l1.2,1.81-.94.79,29.09-.34-1.07-2.72-28.29.46Z"/></g><g id="g4656"><path id="path4658" class="cls-10" d="M331.63,357.21l-1.28-1a4,4,0,0,0-2.41-.88l-31.51.8c-1.35.06-1.76,1.22-.95,2l1.55,1,.29-.8-.95-.64c-.19-.26-.2-.83.85-.76l30.14-.64a3.84,3.84,0,0,1,2.64,1l1.13.88.5-.88Z"/><path id="path4660" class="cls-10" d="M332.71,351.46l-.57.59-2.22-1.52c-.75-.42-1.22-.11-1.28.44l-.66,4.31-1,0,.61-4.83c.19-.94,1.55-1.47,2.78-.76Z"/><path id="path4662" class="cls-10" d="M327.13,351.5l-.57.59-2.22-1.52c-.75-.42-1.22-.11-1.28.44l-.66,4.31-1,0,.61-4.83c.19-.94,1.55-1.47,2.78-.76Z"/><path id="path4664" class="cls-10" d="M321.29,351.63l-.57.59-2.22-1.52c-.75-.42-1.22-.11-1.28.44l-.66,4.31-1,0,.61-4.83c.19-.94,1.55-1.47,2.78-.76Z"/><path id="path4666" class="cls-10" d="M315.24,351.74l-.57.59-2.22-1.52c-.75-.42-1.22-.11-1.28.44l-.66,4.31-1,0,.61-4.83c.19-.94,1.55-1.47,2.78-.76Z"/><path id="path4668" class="cls-10" d="M309.61,351.9l-.57.59L306.82,351c-.75-.42-1.22-.11-1.28.44l-.66,4.31-1,0,.61-4.83c.19-.94,1.55-1.47,2.78-.76Z"/><path id="path4670" class="cls-10" d="M304.47,351.63l-.13.88-1.65-1.35c-.75-.42-1.18-.17-1.23.41l-.66,4.31-1,0,.61-4.83c.19-.94,1.51-1.35,2.73-.64l1.33,1.19Z"/></g></g><g id="g4672"><g id="g4674"><path id="path4676" class="cls-10" d="M270.5,368.5l-10.14,20.8c-3.56,9.14,9,12.38,10.93,5L274,371c.44-2.77-2.85-3.64-3.47-2.5Zm-.26,4.07,1.86,1.12L270,391.43c.5-4.12-5.25-5.5-6.92-3.5l7.2-15.37Z"/><path id="path4678" class="cls-15" d="M293.44,382.4l-28.29.67c-8.62,4.29-9.44,11.43-5.47,14,11.28,7.2,21.38,5.29,30.56,5.66,7.45,0,13.18-3.81,12.81-9,.12-5.17-1.06-9.81-9.61-11.3Z"/><path id="path4680" class="cls-10" d="M301.72,368.61l-10.14,20.8c-3.56,9.14,9,12.38,10.93,5l2.7-23.28c.44-2.76-2.85-3.64-3.47-2.5Zm-.28,4.07,1.86,1.12-2.14,17.74c.5-4.12-5.25-5.5-6.92-3.5l7.2-15.37Z"/><path id="path4682" class="cls-12" d="M292.09,384.2c-2.23,2.66-4.73,5.2-1.87,12.21l-29.09.45c-4.26-4.38-2.41-8.43,4-12.21l27-.45Z"/><path id="path4684" class="cls-13" d="M290.36,386l-4.4.11-1.59,1.29L282.89,386l-5.07.11-.94,1.35-1.33-1.35-4.94.11-1.07,1.24-1.33-1.35h-4.14l-1.2,1.12v4.87l-3.34.11.26,1.7,29.36-.45-.41-1.81a11,11,0,0,1,1.62-5.64Z"/><path id="path4686" class="cls-12" d="M262.78,392.12l25.75-.45"/><path id="path4688" class="cls-13" d="M260.87,394l1.2,1.81-.94.79,29.09-.34-1.07-2.72-28.29.46Z"/></g><g id="g4690"><path id="path4692" class="cls-10" d="M291.6,389.31l-1.28-1a4,4,0,0,0-2.41-.88l-31.51.8c-1.35.06-1.76,1.22-.95,2l1.55,1,.29-.8-.95-.64c-.19-.26-.2-.83.85-.76l30.14-.64a3.84,3.84,0,0,1,2.64,1l1.13.88.5-.88Z"/><path id="path4694" class="cls-10" d="M292.68,383.56l-.57.59-2.22-1.52c-.75-.42-1.22-.11-1.28.44L288,387.4l-1,0,.61-4.83c.19-.94,1.55-1.47,2.78-.76Z"/><path id="path4696" class="cls-10" d="M287.1,383.6l-.57.59-2.22-1.52c-.75-.42-1.22-.11-1.28.44l-.66,4.31-1,0,.61-4.83c.19-.94,1.55-1.47,2.78-.76Z"/><path id="path4698" class="cls-10" d="M281.27,383.73l-.57.59-2.22-1.52c-.75-.42-1.22-.11-1.28.44l-.66,4.31-1,0,.61-4.83c.19-.94,1.55-1.47,2.78-.76Z"/><path id="path4700" class="cls-10" d="M275.22,383.84l-.57.59-2.22-1.52c-.75-.42-1.22-.11-1.28.44l-.66,4.31-1,0,.61-4.83c.19-.94,1.55-1.47,2.78-.76Z"/><path id="path4702" class="cls-10" d="M269.58,384l-.57.59-2.22-1.52c-.75-.42-1.22-.11-1.28.44l-.66,4.31-1,0,.61-4.83c.19-.94,1.55-1.47,2.78-.76Z"/><path id="path4704" class="cls-10" d="M264.44,383.73l-.13.88-1.65-1.35c-.75-.42-1.18-.17-1.23.41l-.66,4.31-1,0,.61-4.83c.19-.94,1.51-1.35,2.73-.64l1.33,1.19Z"/></g></g><g id="g4706"><g id="g4708"><path id="path4710" class="cls-10" d="M218.2,385.68l-10.14,20.8c-3.56,9.14,9,12.38,10.93,5l2.67-23.28c.44-2.75-2.85-3.63-3.47-2.49Zm-.26,4.07,1.86,1.12-2.14,17.75c.5-4.12-5.25-5.5-6.92-3.5l7.2-15.38Z"/><path id="path4712" class="cls-15" d="M241.14,399.59l-28.29.67c-8.62,4.29-9.44,11.43-5.47,14,11.28,7.2,21.38,5.29,30.56,5.66,7.45,0,13.18-3.81,12.81-9,.12-5.18-1-9.82-9.61-11.3Z"/><path id="path4714" class="cls-10" d="M249.42,385.79l-10.14,20.8c-3.56,9.14,9,12.38,10.93,5l2.7-23.28c.44-2.76-2.85-3.64-3.47-2.5Zm-.26,4.08L251,391l-2.14,17.74c.5-4.12-5.25-5.5-6.92-3.5l7.2-15.37Z"/><path id="path4716" class="cls-12" d="M239.79,401.39c-2.23,2.66-4.73,5.2-1.87,12.21l-29.09.45c-4.26-4.38-2.41-8.43,4-12.21l27-.45Z"/><path id="path4718" class="cls-13" d="M238.06,403.2l-4.4.11-1.59,1.29-1.49-1.41-5.07.11-.92,1.36-1.33-1.35-4.94.11-1.07,1.24-1.33-1.35h-4.14l-1.2,1.12v4.87l-3.34.11.26,1.7,29.36-.45-.41-1.81a10.85,10.85,0,0,1,1.61-5.65Z"/><path id="path4720" class="cls-12" d="M210.47,409.3l25.75-.45"/><path id="path4722" class="cls-13" d="M208.57,411.21l1.2,1.81-.94.79,29.09-.34-1.07-2.72-28.29.46Z"/></g><g id="g4724"><path id="path4726" class="cls-10" d="M239.3,406.49l-1.28-1a4,4,0,0,0-2.41-.88l-31.51.8c-1.35.06-1.76,1.22-.95,2l1.55,1,.29-.8-.95-.64c-.19-.26-.2-.83.85-.76l30.15-.63a3.84,3.84,0,0,1,2.64,1l1.13.88.48-.89Z"/><path id="path4728" class="cls-10" d="M240.38,400.75l-.57.59-2.22-1.52c-.75-.42-1.22-.11-1.28.44l-.66,4.31-1,0,.61-4.83c.19-.94,1.55-1.47,2.78-.76Z"/><path id="path4730" class="cls-10" d="M234.81,400.79l-.57.59L232,399.86c-.75-.42-1.22-.11-1.28.44l-.66,4.31-1,0,.61-4.83c.19-.94,1.55-1.47,2.78-.76Z"/><path id="path4732" class="cls-10" d="M229,400.9l-.57.59L226.17,400c-.75-.42-1.22-.11-1.28.44l-.66,4.31-1,0,.61-4.83c.19-.94,1.55-1.47,2.78-.76Z"/><path id="path4734" class="cls-10" d="M222.91,401l-.57.59-2.22-1.52c-.75-.42-1.22-.11-1.28.44l-.66,4.31-1,0,.61-4.83c.19-.94,1.55-1.47,2.78-.76Z"/><path id="path4736" class="cls-10" d="M217.28,401.19l-.57.59-2.22-1.52c-.75-.42-1.22-.11-1.28.44l-.66,4.31-1,0,.61-4.83c.19-.94,1.55-1.47,2.78-.76Z"/><path id="path4738" class="cls-10" d="M212.14,400.9l-.13.88-1.65-1.35c-.75-.42-1.18-.17-1.23.41l-.66,4.31-1,0,.61-4.83c.19-.94,1.51-1.35,2.74-.64l1.32,1.19Z"/></g></g><g id="g4740"><g id="g4742"><path id="path4744" class="cls-10" d="M162.17,377.09,152,397.89c-3.56,9.14,9,12.38,10.93,5l2.67-23.28c.44-2.76-2.85-3.63-3.47-2.49Zm-.26,4.07,1.86,1.12L161.63,400c.5-4.12-5.25-5.5-6.92-3.5l7.2-15.37Z"/><path id="path4746" class="cls-15" d="M185.09,391l-28.29.67c-8.62,4.29-9.44,11.43-5.47,14,11.28,7.2,21.38,5.29,30.56,5.66,7.45,0,13.18-3.81,12.81-9,.13-5.17-1-9.81-9.61-11.3Z"/><path id="path4748" class="cls-10" d="M193.38,377.2,183.24,398c-3.56,9.14,9,12.38,10.93,5l2.7-23.28c.44-2.76-2.85-3.64-3.47-2.5Zm-.26,4.07,1.86,1.12-2.14,17.74c.5-4.12-5.25-5.5-6.92-3.5l7.2-15.37Z"/><path id="path4750" class="cls-12" d="M183.75,392.8c-2.23,2.66-4.73,5.2-1.87,12.21l-29.08.45c-4.26-4.38-2.41-8.43,4-12.21l27-.45Z"/><path id="path4752" class="cls-13" d="M182,394.6l-4.4.11L176,396l-1.49-1.41-5.07.11-.94,1.35-1.33-1.35-4.94.11-1.07,1.24-1.33-1.35h-4.14l-1.2,1.12v4.87l-3.34.11.26,1.7,29.36-.45-.41-1.81A10.8,10.8,0,0,1,182,394.6Z"/><path id="path4754" class="cls-12" d="M154.43,400.71l25.75-.45"/><path id="path4756" class="cls-13" d="M152.53,402.63l1.2,1.81-.94.79,29.09-.34-1.07-2.72-28.29.46Z"/></g><g id="g4758"><path id="path4760" class="cls-10" d="M183.26,397.89l-1.28-1a4,4,0,0,0-2.41-.88l-31.51.8c-1.35.06-1.76,1.22-.95,2l1.55,1,.29-.8-.95-.64c-.19-.26-.2-.83.85-.76l30.14-.64a3.84,3.84,0,0,1,2.64,1l1.13.88.5-.88Z"/><path id="path4762" class="cls-10" d="M184.35,392.14l-.57.59-2.22-1.52c-.75-.42-1.22-.11-1.28.44l-.66,4.31-1,0,.61-4.83c.19-.94,1.55-1.47,2.78-.76Z"/><path id="path4764" class="cls-10" d="M178.76,392.2l-.57.59L176,391.27c-.75-.42-1.22-.11-1.28.44L174,396l-1,0,.61-4.83c.19-.94,1.55-1.47,2.78-.76Z"/><path id="path4766" class="cls-10" d="M172.93,392.31l-.57.59-2.22-1.52c-.75-.42-1.22-.11-1.28.44l-.66,4.31-1,0,.61-4.83c.19-.94,1.55-1.47,2.78-.76Z"/><path id="path4768" class="cls-10" d="M166.88,392.43l-.57.59-2.22-1.52c-.75-.42-1.22-.11-1.28.44l-.66,4.31-1,0,.61-4.83c.19-.94,1.55-1.47,2.78-.76Z"/><path id="path4770" class="cls-10" d="M161.24,392.58l-.57.59-2.22-1.52c-.75-.42-1.22-.11-1.28.44l-.66,4.31-1,0,.61-4.83c.19-.94,1.55-1.47,2.78-.76Z"/><path id="path4772" class="cls-10" d="M156.1,392.31l-.13.88-1.65-1.35c-.75-.42-1.18-.17-1.23.41l-.66,4.31-1,0,.61-4.83c.19-.94,1.51-1.35,2.74-.64l1.32,1.19Z"/></g></g><g id="g4774"><g id="g4776"><path id="path4778" class="cls-10" d="M115.74,349.06l-10.14,20.8c-3.56,9.14,9,12.38,10.93,5l2.67-23.27c.44-2.77-2.85-3.64-3.47-2.5Zm-.26,4.07,1.86,1.12L115.18,372c.5-4.12-5.25-5.5-6.92-3.5l7.21-15.37Z"/><path id="path4780" class="cls-15" d="M138.67,362.95l-28.29.67c-8.62,4.29-9.44,11.43-5.47,14,11.28,7.2,21.38,5.29,30.56,5.66,7.45,0,13.18-3.81,12.81-9,.12-5.16-1.06-9.8-9.61-11.3Z"/><path id="path4782" class="cls-10" d="M147,349.17,136.81,370c-3.56,9.14,9,12.38,10.93,5l2.7-23.28c.44-2.76-2.85-3.64-3.47-2.5Zm-.28,4.07,1.86,1.12L146.4,372.1c.5-4.12-5.25-5.5-6.92-3.5l7.2-15.37Z"/><path id="path4784" class="cls-12" d="M137.32,364.76c-2.23,2.66-4.73,5.2-1.87,12.21l-29.09.45c-4.26-4.38-2.41-8.43,4-12.21l27-.45Z"/><path id="path4786" class="cls-13" d="M135.59,366.57l-4.4.11L129.6,368l-1.49-1.4-5.07.11-.94,1.35-1.33-1.35-4.94.11L114.77,368l-1.33-1.35H109.3l-1.2,1.12v4.87l-3.34.11.26,1.7,29.36-.45-.41-1.81c-.14-2.07.73-3.86,1.62-5.65Z"/><path id="path4788" class="cls-12" d="M108,372.68l25.75-.45"/><path id="path4790" class="cls-13" d="M106.1,374.59l1.2,1.81-.94.79,29.09-.34-1.07-2.72-28.29.46Z"/></g><g id="g4792"><path id="path4794" class="cls-10" d="M136.82,369.87l-1.28-1a4,4,0,0,0-2.41-.88l-31.51.8c-1.35.06-1.76,1.22-.95,2l1.55,1,.29-.8-.95-.64c-.19-.26-.2-.83.85-.76l30.14-.64a3.84,3.84,0,0,1,2.64,1l1.13.88.5-.88Z"/><path id="path4796" class="cls-10" d="M137.9,364.11l-.57.59-2.22-1.52c-.75-.42-1.22-.11-1.28.44l-.66,4.31-1,0,.61-4.83c.19-.94,1.55-1.47,2.78-.76Z"/><path id="path4798" class="cls-10" d="M132.33,364.17l-.57.59-2.21-1.52c-.75-.42-1.22-.11-1.28.44l-.66,4.31-1,0,.61-4.83c.19-.94,1.55-1.47,2.78-.76Z"/><path id="path4800" class="cls-10" d="M126.5,364.28l-.57.59-2.21-1.52c-.75-.42-1.22-.11-1.28.44l-.66,4.31-1,0,.61-4.83c.19-.94,1.55-1.47,2.78-.76Z"/><path id="path4802" class="cls-10" d="M120.45,364.4l-.57.59-2.22-1.52c-.75-.42-1.22-.11-1.28.44l-.66,4.31-1,0,.61-4.83c.19-.94,1.55-1.47,2.78-.76Z"/><path id="path4804" class="cls-10" d="M114.81,364.56l-.57.59L112,363.64c-.75-.42-1.22-.11-1.28.44l-.66,4.31-1,0,.61-4.83c.19-.94,1.55-1.47,2.78-.76Z"/><path id="path4806" class="cls-10" d="M109.67,364.28l-.13.88-1.65-1.35c-.75-.42-1.18-.17-1.23.41l-.66,4.31-1,0,.61-4.83c.19-.94,1.51-1.35,2.73-.64l1.33,1.19Z"/></g></g><g id="g4808"><g id="g4810"><path id="path4812" class="cls-10" d="M83.71,312l-10.14,20.8c-3.56,9.14,9,12.38,10.93,5l2.67-23.28c.45-2.77-2.84-3.64-3.47-2.49Zm-.26,4.07,1.86,1.12-2.14,17.74c.5-4.12-5.25-5.5-6.92-3.5l7.2-15.37Z"/><path id="path4814" class="cls-15" d="M106.64,325.87l-28.29.67c-8.62,4.29-9.44,11.43-5.47,14,11.28,7.2,21.39,5.29,30.56,5.66,7.45,0,13.18-3.81,12.81-9,.12-5.17-1-9.8-9.61-11.3Z"/><path id="path4816" class="cls-10" d="M114.92,312.08l-10.14,20.8c-3.56,9.14,9,12.38,10.93,5l2.7-23.28c.44-2.76-2.85-3.64-3.47-2.5h0Zm-.26,4.07,1.86,1.12L114.38,335c.5-4.12-5.25-5.5-6.92-3.5l7.2-15.37Z"/><path id="path4818" class="cls-12" d="M105.29,327.69c-2.23,2.66-4.73,5.2-1.87,12.21l-29.09.45c-4.26-4.38-2.41-8.43,4-12.21l27-.45Z"/><path id="path4820" class="cls-13" d="M103.56,329.5l-4.4.11-1.59,1.29-1.49-1.41L91,329.6l-.94,1.35-1.32-1.33-4.94.11L82.75,331l-1.34-1.35H77.27l-1.2,1.12v4.87l-3.34.11.26,1.7,29.36-.45-.41-1.81a11,11,0,0,1,1.62-5.66Z"/><path id="path4822" class="cls-12" d="M76,335.6l25.75-.45"/><path id="path4824" class="cls-13" d="M74.09,337.52l1.2,1.81-.94.79,29.09-.34-1.07-2.72-28.29.46Z"/></g><g id="g4826"><path id="path4828" class="cls-10" d="M104.81,332.79l-1.28-1a4,4,0,0,0-2.41-.88l-31.51.8c-1.35.06-1.76,1.22-.95,2l1.55,1,.29-.8-.95-.64c-.19-.26-.2-.83.85-.76l30.14-.64a3.84,3.84,0,0,1,2.64,1l1.13.88.5-.88Z"/><path id="path4830" class="cls-10" d="M105.9,327l-.57.59-2.22-1.52c-.75-.42-1.22-.11-1.28.44l-.66,4.31-1,0,.61-4.83c.19-.94,1.55-1.47,2.78-.76Z"/><path id="path4832" class="cls-10" d="M100.33,327.07l-.57.59-2.22-1.52c-.75-.42-1.22-.11-1.28.44l-.66,4.31-1,0,.61-4.83c.19-.94,1.55-1.47,2.78-.76Z"/><path id="path4834" class="cls-10" d="M94.48,327.21l-.57.59-2.22-1.52c-.75-.42-1.22-.11-1.28.44L89.75,331l-1,0,.61-4.83c.19-.94,1.55-1.47,2.78-.76Z"/><path id="path4836" class="cls-10" d="M88.42,327.32l-.57.59-2.22-1.52c-.75-.42-1.22-.11-1.28.44l-.66,4.31-1,0,.61-4.83c.19-.94,1.55-1.47,2.78-.76Z"/><path id="path4838" class="cls-10" d="M82.78,327.48l-.57.59L80,326.56c-.75-.42-1.22-.11-1.28.44l-.66,4.31-1,0,.61-4.83c.19-.94,1.55-1.47,2.78-.76Z"/><path id="path4840" class="cls-10" d="M77.65,327.21l-.13.88-1.65-1.35c-.75-.42-1.18-.17-1.23.41L74,331.46l-1,0,.61-4.83c.19-.94,1.51-1.35,2.74-.64l1.32,1.19Z"/></g></g></g></g><path id="path5431" class="cls-16" d="M337.83,116.2l-21.22.55c1,3.81-.7,7.93-3,8.79-.32.11.57,1.46,1,1.88l33.76-.62c-3.71-1.87-7.79-9.63-10.57-10.61Z"/><path id="path5509-1" class="cls-9" d="M284.66,73.18l-34.29-.47c1.67,1,8.79,4.12,10.93,5.45l34.51.53c-3.69-1.86-8.38-4.52-11.15-5.5Z"/><path id="path5441" class="cls-16" d="M359,154.38l-9.19,0c-.61,5.21-5.62,8.35-15.49,8.41a9.74,9.74,0,0,0,1.5,2.77l33.76-.62c-3.72-1.86-7.8-9.62-10.58-10.6Z"/><path id="path5443" class="cls-16" d="M368.62,194.64c-1.82,6.1-7.13,7.72-23,7.26-.13,0,.57,2.73.88,4.3l33.76-.62c-3.7-1.88-3.43-10-6.2-11l-5.45,0Z"/><path id="path5445" class="cls-16" d="M372.08,242c-3.61,1.52-17.81.8-23.6.52-.3,0,0,9.82-.77,11.05l31.05.15c-3.7-1.88,1.83-10.9-.95-11.88l-5.73.15Z"/><path id="path5447" class="cls-17" d="M340.7,289.75c-.59-.78-2.33,6.65-3.11,7.86l29.55.35c-.06.13,3.11-7.7,3.23-7.81.32.08-29.39-.25-29.66-.4Z"/><path id="path5449" class="cls-17" d="M321.39,328.94c-.59.56-5.64,6.82-6.43,7.86l29.55.35c-.06.13,6.43-8.21,6.54-8.32.32.08-29.39.25-29.66.11Z"/><path id="path5495" class="cls-9" d="M88,179.5l-28.49.32a71.63,71.63,0,0,0-2.26,12.31l28.67-.32L88,179.5Z"/><path id="path5497" class="cls-9" d="M85.79,239.29l-28.87.48a79.69,79.69,0,0,0,1.93,12.15l28.67-.32-1.73-12.32Z"/><path id="path5499" class="cls-9" d="M101.49,292.67l-29.06.48a68.51,68.51,0,0,0,6.45,12.15l28.67-.32-6.06-12.32Z"/><path id="path5501" class="cls-16" d="M131.08,338.21l-14.78,0c.41,3.42-4.49,6.85-6.7,7.14-.24,0,2.42,2.49,3.14,3.34l28.67-.32-10.32-10.19Z"/><path id="path5503" class="cls-16" d="M148.5,369.17a20.64,20.64,0,0,1,.29,5.05c0,.21,4.64,2.16,6,2.75l32.55,1.38c-5.93-2.88-9.57-4-18.34-9.06l-20.47-.12Z"/><path id="path5505" class="cls-9" d="M107.22,128l-27.92.8a68.81,68.81,0,0,0-5.47,9.43l27.92-.32,5.47-9.92Z"/><path id="path5507" class="cls-9" d="M140.33,88.86l-26.6.32c-2.47,1.93-6.81,5.36-9.34,8.4l26.13.08C133.22,95,136.82,91.76,140.33,88.86Z"/><path id="path5509" class="cls-9" d="M189.18,62.75l-21.27.77c-4.06,1-12,3-15.48,4.66l24.27-1.28a114.81,114.81,0,0,1,12.47-4.15Z"/></g><g id="g5451"><path id="path4170" class="cls-9" d="M225.37,58.14c-3.17,0-6.37.17-9.57.42-81.86,6.51-140,85.63-129.94,176.74S170.49,395,252.35,388.47s140-85.63,129.95-176.74c-9.72-87.55-78.91-154.29-156.93-153.59Zm.42,5.84c74.14-.67,139.91,63.72,149.12,148.17,9.6,87.88-45.69,164.21-123.48,170.5S102.89,322.77,93.26,234.89,139,70.69,216.71,64.41q4.56-.4,9.08-.43Z"/></g></g><path id="path4497" class="cls-5" d="M277.36,228.1l83.76,219.34-19-3.75L273.27,245.86l51,195.55-23-4.12L264.41,247l6.38,184.93-20.41-5.31,4.07-181.09L205.64,417.37l-14.44-3.19H177.51l71-191.19c3.17-27.75,27.85-21.22,28.82,5.11Z"/></g><path id="path4555" class="cls-18" d="M190.4,413.5l-2.1,22.6"/><path id="path4442-2" data-name="path4442" class="cls-10" d="M277.8,70,267.7,90.8c-3.6,9.1,9,12.4,10.9,5l2.7-23.3c.5-2.8-2.8-3.7-3.5-2.5Zm-.2,4,1.9,1.1-2.1,17.7c.5-4.1-5.2-5.5-6.9-3.5L277.6,74Z"/></g><path class="cls-19" d="M461.3,287.6l-37.7,18.6s-44.7,7.3-57.4,14.9c-7.1,4.3-22.2,24.5-22.2,24.5l13.7,32.6s-12.7,26.6-11.1,35.3c3.8,21.4,57.7,60.2,57.7,60.2l38.1,15.6,29.1-6.8,32.4-50.1V362.8Z"/><path class="cls-9" d="M402.3,503.4l-64.1,19.8-19.1,22.3,280.5-.3s-26.6-66.1-45.4-78.8c-9.6-6.5-45.7-6.6-45.7-6.6Z"/><polygon class="cls-19" points="413.9 472.6 497.8 442.3 511.4 475.4 520.2 483.7 500.5 509.3 457.1 515 402.3 502.4 413.9 472.6"/><path class="cls-20" d="M451,248.8c-.4.6-6.3-1-13.2-3.3-11-3.8-13.8-4.3-22.5-3.4-20,2.1-51.6,13.5-64.1,23.2l-6,4.6v-4.6c0-6-3.7-13-7.5-14.2-1.7-.5-5.5-.3-8.6.5-3.7,1-8.2,1-13.4.1-6.7-1.2-8-1-9.7,1.1-3.3,4.5-1.2,21.3,2.9,23.8,1.2.7,1.4-.1.7-2.5-2.3-8.5-2.9-15.6-1.2-13.9,2.4,2.2,4.8,17.5,2.9,18.7-.8.5-.4,1.3.9,1.8a3.79,3.79,0,0,1,2.4,3.2c0,2.7-3.6,2.2-16.4-2.4-4.5-1.6-10-2.8-12.3-2.8-9.1,0-12.9,10.8-8.6,23.9,2.1,6.1,4.1,8.7,9.3,12.3,8.5,5.9,8.6,9.2.6,19.5-6.3,8.2-7.9,14.9-3.7,16.4a32.65,32.65,0,0,0,8.4.9c6.8,0,7.1.7,2.9,5.9-5.7,7.2-2.9,16.8,6.1,21.4h0c2.5,1.2,4.5,1.5,5.7.5,2.9-2.2,2.3-3.7-2.2-4.7-3.9-1-6.4-3.1-6.4-5.7,0-.6,2.6-.7,5.8-.2a16.77,16.77,0,0,0,10.5-1.4c5.1-2.5,11.1-10.8,11-15.3,0-2.2-.8-1.8-3.9,2-2.1,2.6-4.9,4.8-6.1,4.8-3.1,0-2.7-2.1,1.1-5.3,4.8-4.2,7-10.4,8.1-23.7,1.6-17.6,3.3-24.1,9.9-37.4a80.13,80.13,0,0,1,14.8-21c8.2-8.2,10-9.3,27-15.3a332.3,332.3,0,0,1,32-9.2c13.5-2.7,13.9-2.6,25.1.3,16.9,4.4,18.6,3.4,18.6,6.2"/><path class="cls-21" d="M451.6,252.2l-32.5-8.5-61.9,17.5s-17.8,16.1-21.7,22.8C328,297,319,341.6,319,341.6l-9.9,21s-12.9-.6-14.3,2.7c-1.5,3.6,8.9,12.9,8.9,12.9l-13.4,5.9-5.7,9.6,6.9,7s28.7,8.8,38.4,8c6.9-.5,25.6-9.8,25.6-9.8s-1.7-44,.8-58.4c.9-5.3,5.5-16,9.8-19.4,9-7.3,45.3-11.9,45.3-11.9l31.1-10,18.7-11.6Z"/><path id="path3188" class="cls-22" d="M320.5,305l-3.9-9.4"/><polygon class="cls-23" points="620 335.6 690 356.8 690 545.9 589.7 544 554.2 466.2 510.5 457.2 499.5 431.2 524.6 390.4 620 335.6"/><path class="cls-24" d="M629.6,214.8c4.6.9,8.5,8.3,8.3,15.8-.1,8-2.3,12.9-12,26.8-3.6,5.2-7,10.7-7.5,12.3-1,3.1-1.7,3.3-9.1,3.6-4.1.1-4.8,1-7.9,9.1-1.9,4.9-3.4,10.8-3.5,12.9s-.7,4.4-1.5,4.9-2.9,3.8-4.6,7.4c-4.7,9.6-13.1,17.3-27.5,25.1-3.7,2-11,6-16,8.8-12.9,7.2-27.1,13.2-31.1,13.2a65.89,65.89,0,0,1-12.5-2.4c-5-1.3-6.9-1.4-7.1-1.1s2,9.3,3.5,20.8c4.2,31.7.6,49.9-3.7,61.8-6.5,18.1-14.5,31.5-26,43.4-3.8,3.9-7.9,6.3-14.3,8.1-13.3,3.8-16.6,2.8-43.4-12.8-26.4-15.4-34.3-23.8-42.6-45.1-5.1-13.3-9.2-20.2-9.3-15.7,0,1.3,1.3,5.3,2.9,8.9s3,7.7,3,9.1c0,3.2-4.2,3.4-8.7.3-2.9-2-12.6-14.7-12.6-16.5,0-.4,2-3.2,4.4-6.3,7.9-10,9.1-24.5,3.8-45-2.1-8.5-2.6-23.4-.7-29.9.6-2.1,3.5-5.1,6.5-6.7,4.6-2.5,5.2-3.3,3.3-5a6.2,6.2,0,0,0-5.5-1.1c-4.9,1.2-14.3,10.8-15.3,15.5-1.2,5.4,2.3,42.2,3.8,41.2.6-.4,1.2-2.7,1.2-5.1s.7-4.4,1.5-4.4,1.5,2.7,1.5,6,.7,7.4,1.6,9.1c4.7,8.7-4.3,23.6-14.2,23.6-7.6,0-7.9-1.4-1.7-7,3-2.7,5.1-5.4,4.6-5.9s-2.7.6-4.8,2.5-3.8,2.7-3.8,1.8a3.53,3.53,0,0,1,1.5-2.6,3.53,3.53,0,0,0,1.5-2.6c0-.9-2,.2-4.4,2.4a16.31,16.31,0,0,1-9.6,4.4,22.45,22.45,0,0,0-7.1,1.5c-1.2.8-1.9.2-1.9-1.9,0-2.6,1-3.1,6.9-3.1,4.8,0,7.8-.9,9.9-3,3.9-3.8,4.2-9.5.4-8.3-1.4.4-4.6-.2-7.1-1.4-5.2-2.6-6.6-2-3.3,1.2,1.3,1.3,2.3,3,2.3,3.8,0,1.9-5,3.5-7.8,2.4-1.3-.5-3.2,1-4.9,3.7-3.3,5.5-7.6,5.8-12.3.8-3.4-3.6-3.6-3.7-4.4-.8-1,3.6-3.5,3.9-4.7.8-1.6-4.2,2.2-9.4,7.9-10.8,4.6-1.1,5.1-1.6,2.6-2.6-3.9-1.7-10.3,2-12.9,7.3-1.6,3.3-1.7,5.4-.4,9.9,1.6,5.2,2.5,5.9,10.4,8.4,11.7,3.6,11.9,6.2,1.2,13.2-10.1,6.6-16.3,13.6-21.4,24.1-6.1,12.5-4.3,28.1,3.8,33.7,3.8,2.6,2.9,5.1-2.4,7.1-2,.7-5.6,4.9-8.2,9.3-10.1,17.2-2.1,39.5,15.3,42.8h0c3.7.7,8.5.9,10.5.5,4.8-1,17.8-7.3,19-9.3.6-1,2.4-.4,4.8,1.4,4.9,3.8,16.3,5.5,21.4,3.2,3.1-1.4,4.4-1.3,6.3.3a27.53,27.53,0,0,0,7.9,3.9c12.7,4.4,32.3-6.8,40.1-22.9,2.1-4.2,5.5-9.4,7.8-11.4,4.7-4.3,9-12.1,10.5-19,1.2-5.9,3.2-7.3,6.1-4.5,1.2,1.1,6.2,4,11.1,6.5,11.2,5.4,21.6,5.6,34.7.4,8.9-3.5,9.3-3.8,20.1-20.7,16.5-25.7,15.5-24.9,15.6-12.9.1,12.5,2.7,29.7,5.5,35.9,2.1,4.6,2.1,4.5,1.2-2.8a76.49,76.49,0,0,0-1.4-9.3c-1.1-3.5,2.9-3.8,5.6-.5,4.2,5.2,3.6,13.5-1.5,20.4-5.3,7.1-8.4,9.2-22.3,14.7-9.7,3.8-12.4,4.3-30.4,4.4-20.5.1-20.7.1-39.8-8.1-5.1-2.2-8.8-3-10.6-2.2-2.3,1-1.8,1.4,2.9,2.4a62.58,62.58,0,0,1,11.6,4.2c9.8,4.9,27.5,9,38.9,9,29.8,0,60-18.4,60.1-36.7.1-7.4-2.1-10.2-9.5-12.5-4.6-1.4-5.7-2.5-5.7-5.5,0-4.3-1.6-4.3,23.6.1,12.4,2.1,16.2,2.2,14.3.3-1.1-1-30.4-7.1-34.4-7.1-3.2,0-3.4-.5-3.4-11,0-10.9,0-11,6.1-16.4,3.9-3.5,6.7-7.6,7.8-11.5,5.4-19.3,5.9-20.4,10.6-20.4,5.9,0,6.6,2.4,3.7,12.2a28.71,28.71,0,0,1-8.7,14c-6.3,5.9-10.5,13.3-10.4,18.1,0,1.5,1.8-.7,3.9-4.8a64,64,0,0,1,9-12.7,48.74,48.74,0,0,0,7.9-11.8l2.9-6.6,2.1,7.3a64.25,64.25,0,0,0,20,31.8c5,4.4,10,7.5,11.2,7.1s2.3-4.5,2.8-10.9c1.1-14.4,8.4-33.7,18.2-48.5,12.4-18.5,17.2-27.6,21.2-40.1,2-6.1,4-11.8,4.7-12.6s7.5,1.8,16.2,6.3c14.1,7.2,23,9.6,23,6.3,0-1.6-7.9-5.9-12.2-6.7-3.7-.7-15.9-7.7-18.2-10.5a5.46,5.46,0,0,0-5.2-1.3c-4.1,1-7.8-2.7-9.6-9.8-.8-3.1-2.7-5.8-4.8-6.7-3.1-1.4-3.3-2.1-2.4-8.9.6-4.1,1.5-12.9,2-19.4.9-11.5,1.1-11.9,4.9-12.1,5.5-.2,7.1-1.5,9.8-7.7,1.2-3,5.1-8.9,8.5-13.3,5.7-7.3,12-22.4,12-28.8,0-4.4-5.9-16.1-8.6-17.1"/><path class="cls-21" d="M311.2,410.5a1.27,1.27,0,0,1,.6.1c2.2,1.3,1.9,7.3-1,15.8-1.3,4.1-2.1,7.8-1.8,8.1s3.2-2.4,6.2-6.3c3.8-4.8,5.5-8.5,5.5-12,0-5.8-.2-5.7,5.5-2.7,2.4,1.2,5.4,2.3,6.9,2.3,2.1,0,2.4,1.6,2.3,8.3-.2,7.2.3,8.7,3.6,11.1,2.1,1.6,5.1,2.9,6.6,2.9s4.7,2,7.2,4.4c4.2,4.1,4.4,4.5,2.3,9.4a15.4,15.4,0,0,1-7.2,7.5c-3.3,1.7-4.2,2.5-2.4,2.6a21.63,21.63,0,0,0,7.4-2.3c2.6-1.3,5-2,5.4-1.5,1.4,1.4-2.8,5.2-8.6,8-7.1,3.3-2.7,4.5,5,1.3,3-1.2,5.4-1.7,5.4-1,0,1.8-7.6,7.5-10.1,7.5-1.2,0-2.1.7-2.1,1.6,0,1.6,2.4,1.1,10.1-1.7,1.8-.6,4.6-3.6,6.4-6.5s3.9-5.3,4.9-5.3,1.2.6.7,1.5c-2.3,3.7,2.5,13.5,9.5,19.2,3.9,3.3,6.7,6.4,6.2,6.8-.9.9-13.6-5.2-17.5-8.4-3-2.4-2.7.9.4,3.9a119.12,119.12,0,0,0,10.7,8.4c4.6,3.2,8.9,7.5,9.8,9.4,3.9,8.6-4.1,22.4-16.2,27.8-8.6,3.8-16.4,3.6-21.4-.7l-4.1-3.4,4-6.2c3.2-4.9,4.9-6.2,8.3-6.2,3.9,0,9.4,3.8,9.4,6.6,0,.6-2.1.7-4.7.1-6-1.3-5.4,2.3.6,4.4,8.9,3.1,14.2-10.8,7-18.5-2.8-2.9-4.3-3.3-9.6-2.5l-6.3.9-.3-6c-.3-6.7-5.2-14.7-9-14.7-1.9,0-1.3,1.1,1.9,4.5,2.4,2.4,3.7,4.5,2.9,4.5s-2.2-1.3-3.2-2.9c-2.1-3.1-10-5.4-12.9-3.7-1.2.7.4,1.7,4,2.7,8.4,2.3,12,7.8,11.7,17.6-.3,8.8-1.3,13.1-3.2,13.1-.7,0-1.2-1.7-1.2-3.8a10.89,10.89,0,0,0-1.9-5.9c-4.7-5.6-19.9.7-21.3,8.9-1.1,6.1-3.7,4.9-4.3-2-.4-4.5.4-6.8,3.4-10.3,4.5-5.2,4.8-6.6,1.6-5.3-2.6,1-2.9-.6-.8-3.8,2.8-4.3-.4-4.8-4-.6l-3.7,4.3.8-4.8c1-5.9-1.7-6.6-3.1-.8-1.6,6.5-12,27.7-14.8,30.6-2.5,2.4-10.1,3.7-10.1,1.7,0-.5,2.8-3.7,6.2-7,6.9-6.7,13.6-18.5,13.6-23.7,0-2.6-.8-1.9-3.4,3.1-4.7,9.2-16.4,18-23.8,18-3.1,0-6.9-.9-8.3-1.9-4-2.9-4.8-12.7-1.6-19.8l2.7-5.9,1.1,5.8c1.6,8.5,5.6,10.2,13.7,6.1,4.9-2.4,20.3-23.9,27.7-38.4,4.9-9.6,7.9-23.4,5.6-25.6-.8-.9-1.4.4-1.4,3.2,0,5.9-11.2,22.4-17.8,26.2-4.9,2.8-9.6,2.2-9.6-1.3,0-1.3,1.7-2.1,4.5-2.1,6.2,0,14.5-8.9,16.9-17.8a87,87,0,0,1,3.9-11.6c2.1-4.6,2.1-4.8-.8-3.1s-6.1,7.9-9.2,17.8c-4,13-19.8,15.8-19.8,3.5,0-4.7.4-5.2,4.4-5.2,3.3,0,4.6.9,5.3,3.3l.9,3.3,2.4-3.3c1.5-2.1,2.2-5.7,2-9.7-.4-5.3-1.1-6.6-4.6-7.8s-5-.9-8.3,1.6c-9.2,6.7-12.5,20.6-7.4,30.7,2.8,5.4,2.8,5.7,1,5.7-2.9,0-7.8-10.8-7.8-17.3,0-11.8,6.9-20.9,25.9-34.3,4.6-3.3,7.6-6.5,7.6-8.2,0-1.3.4-2.2,1-2.3Z"/><path class="cls-23" d="M605.1,325.1c1.3,0,2.9,2,3.6,5.4a19.14,19.14,0,0,0,2.9,7c1.2,1.4,1.6,4.5,1.2,8-.9,6.8-11.1,27.7-19.8,40.9-12,18.1-20.5,36.3-22.5,48.1-1.2,7.2-2.5,11.1-3.8,11.1-5.7,0-22-23.3-22-31.5,0-5.2-5.2-17.9-7.9-19.3-4-2.1-3.5-3.5,2.8-6.4s43.4-32.5,52.3-41.6c5.1-5.2,8.6-11.2,11.3-19.5.4-1.5,1.1-2.2,1.9-2.2Z"/><path class="cls-25" d="M342.5,518.9c.3-.1.6.7,1.2,2.1a4.35,4.35,0,0,1-1.2,5.4c-5.2,5.1-12.4,4.4-12.4-1.3,0-1.5.7-1.7,3-.4,2.6,1.4,3,1.1,3.1-1.8.1-3.1.2-3.2,2.1-.8s2.1,2.4,3.1-.8c.4-1.5.7-2.3,1.1-2.4Z"/><path class="cls-20" d="M367.4,299.3a46.1,46.1,0,0,0-8.8,2.4c-8.7,3.1-10,3.2-14.6,1.3-2.8-1.1-5.4-2.1-5.6-2.1-1.4,0-.4,7,1.2,8.7,2.2,2.2,3.7,2.3,5,.3a4.48,4.48,0,0,1,3.3-1.5c3.2,0,20.3-7.5,20.3-9A.91.91,0,0,0,367.4,299.3Z"/><path class="cls-20" d="M343.2,318.4c-.6,0-2,1-3.9,3.1-6.2,6.6-7.9,14.2-6.7,29,.8,10.7.6,12.9-1.6,15a8.61,8.61,0,0,1-4.8,2.5c-1.2,0-1.9.7-1.3,1.5,1.4,2.3,7.8,1.7,9.8-.7,1.2-1.4,2-8.7,2.1-20.7.2-16.7.5-19.1,3.7-23.1C343.4,320.9,344.2,318.4,343.2,318.4Z"/><path class="cls-20" d="M397.9,265.4c-1.2-.2-4.8.4-9.7,1.9-3.9,1.1-11.2,3.2-16.2,4.6-11.3,3.1-26.5,12.4-23.5,14.3,1.7,1,1.7,1.7.2,3.1a5.63,5.63,0,0,0-1.9,3.1c0,3.4,20-1.8,26.7-7,2.8-2.1,2.7-2.2-1.4-1.3-3.1.7-4.1.5-3.3-.7a3.73,3.73,0,0,1,2.9-1.7c1,0,4.9-1.4,8.7-3.1,4.8-2.1,6.2-3.4,4.8-4.3-2.6-1.6-.8-2.8,8.9-6.3C398.1,266.4,399.1,265.5,397.9,265.4Z"/><path class="cls-20" d="M403.8,257.2c-7.9-.2-41.9,11-41.9,14.3,0,.8,1.2,1,2.7.3s6.4-2.3,11.1-3.8a122.54,122.54,0,0,0,13.4-5.2,41.18,41.18,0,0,1,11-3.3c3.3-.4,5.6-1.3,5.3-1.9A2.58,2.58,0,0,0,403.8,257.2Z"/><path class="cls-20" d="M424.9,271.2c-1.5,0-3.2.1-5.3.3l-7.8,1,4.6,1.8c4.7,1.9,9.5,7.3,9.5,10.8,0,1-2.4-.4-5.4-3.3s-6.5-5.2-7.9-5.2c-2.1,0-1.9.4.8,2.4,4.2,2.9,4.6,5.9.4,3.7-3.8-2-7.9-2-4.3.1,4.6,2.6,3.1,4.7-2.7,3.7-4.2-.8-5.4-.5-5.4,1.3,0,1.5-.9,1.9-2.6,1.3-1.9-.7-2.3-.3-1.6,1.4s-1,2.7-8.1,4c-5.4,1-10.5,3.1-12.9,5.2-4.8,4.4-4.8,5.1.3,4.2,2.8-.5,3.7-.3,2.9,1a3.94,3.94,0,0,1-3.1,1.7,25.12,25.12,0,0,0-7.1,2.3c-5,2.2-4.8,2.3,7.9,1.6a141.41,141.41,0,0,0,16-1.4,43.08,43.08,0,0,1,6.1-1l3-.2-3-1.1c-2.9-1.1-2.9-1.2.4-2.3a12.66,12.66,0,0,1,6.4-.1c1.9.6,3,.3,3-.8s1.2-1.4,3.2-1c3.1.8,8.7-1.3,10.7-4a2.07,2.07,0,0,1,2.7-.3c1,.6,1.7,0,1.7-1.3a2.61,2.61,0,0,1,2.8-2.4,8.06,8.06,0,0,0,4.6-1.7c1.3-1.3,2.1-.9,3.2,1.8,1.3,3.3,1.5,3.4,2.6.8,1.4-3.6-1.7-15.6-5.1-19.2-3.2-3.7-5.9-5.1-10.5-5.1Z"/><path class="cls-9" d="M334.1,253.7c1.9-.1,2.9,1,5,4.3,4.6,7.3,4,14.6-1.7,23.5-5.8,9.2-8.6,9.6-9.8,1.6-1.1-6.8-2.9-6.6-2.9.4h0c0,5-2.4,6.8-4.9,3.8-2.8-3.3-4.9-13.5-4.9-23.1v-9.3l6.4.1a41,41,0,0,0,10.6-1,5.83,5.83,0,0,1,2.2-.3Z"/><path class="cls-9" d="M287.3,281.7c2.7.1,6.7,1.1,13.1,3,14.1,4.1,18.1,6.1,18.7,9.3.4,2.3-.4,2.4-6.1,1.8l-6.6-.8,5,2.3c5.5,2.5,5.2,4.5-.9,6.9-3.2,1.2-3.6,1.7-1.8,2.8s.8,2.7-5.1,8.4c-6.9,6.6-7.3,6.9-8.2,3.8-.4-1.8-2.8-4.3-5.1-5.5-4.6-2.4-10.6-12.9-10.6-18.9a28.45,28.45,0,0,1,1.7-8.5C282.7,283.1,283.8,281.7,287.3,281.7Z"/><path class="cls-9" d="M328.6,292.3c1.5-.2,1.3,2.4-.9,7.2-3.7,8-5.3,8.7-5.3,2.5a11,11,0,0,1,3-7.8A7.54,7.54,0,0,1,328.6,292.3Z"/><path class="cls-9" d="M320.6,309.2c3,.1,3.4,3.1,2.1,10.2-.9,4.6-2.4,12-3.2,16.4s-2.6,9.4-3.9,11.2c-2.7,3.8-4.5,3.9-9.6,1.1-2.5-1.3-6.6-1.7-12.6-1.2-7.9.7-8.8.5-8.8-2.1,0-6.1,23.6-31.5,32.3-34.7A9.47,9.47,0,0,1,320.6,309.2Z"/><path class="cls-26" d="M471.4,353.3a19.07,19.07,0,0,0-8.3,2.2c-5.6,2.6-13.7,13.2-12,15.9.7,1.1,1.6.6,2.6-1.6,1.7-3.8,4.1-4.4,4.1-1,0,1.2.4,2.3.8,2.3,2.9,0,15.4-3.7,16.7-4.9,1-1,.6-1.2-1.2-.5-2.2.8-2.7.3-2.3-2.4.4-2.4,1.3-3.2,3.6-2.9,11.9,1.9,15.1-1,5.4-4.8A28.86,28.86,0,0,0,471.4,353.3Z"/><path class="cls-26" d="M398.2,357.2c-9.8.3-23.6,5.6-25.3,10.8-.4,1,2,.1,5.1-1.9,5-3.3,7.3-3.8,18.4-3.8,13.3,0,16.2-1.7,7.8-4.4A15.46,15.46,0,0,0,398.2,357.2Z"/><path class="cls-26" d="M479.2,333.1l-4.2.9c-8.9,1.8-28.5,14.6-26.1,17,1.1,1,3.7-.4,17.2-9.1,4.2-2.7,9.4-5.3,11.5-5.8"/><path class="cls-26" d="M443,367.9c-.3-.1-.4.3-.4,1a13.73,13.73,0,0,0,2.4,6.4c3.7,5.2,4,3.1.6-3.5-1.2-2.5-2-3.7-2.6-3.9Z"/><path class="cls-26" d="M419.8,369.6c-.9,0-.8,1.5.1,3.8a26.29,26.29,0,0,1,1.5,7.8c0,2.8.4,3.5,1.6,2.4,1.9-1.9-.8-14-3.2-14Z"/><path class="cls-26" d="M402.1,371.3h-1.5c-9,.3-18.3,5.4-21.3,13.2-1.7,4.4-1.6,4.6,1.5,3.7a14.59,14.59,0,0,0,5.9-3.8c3-3.4,4.8-3.6,7.2-.7,1.4,1.7,1.2,2.4-1,3.7-4.9,2.8,1.2,1.8,8.3-1.3,4.6-2,6.4-3.8,6.4-5.9,0-1.8,1-3.1,2.4-3.1q2.4,0,1.5,2.4c-.6,1.7-.2,2.2,1.6,1.8,4.5-.9,3.9-4-1.2-7.3a20.55,20.55,0,0,0-9.8-2.7Z"/><path class="cls-26" d="M455.6,397c-.8,0-.2,2,1.8,5.9,2.2,4.3,2.9,4.7,3.2,2.3.3-1.7-.7-4.3-2.1-5.9S456.2,397,455.6,397Z"/><path class="cls-26" d="M443.5,407.3c-2.7.2-6.9,1.7-6.9,2.9,0,.8,1.9.9,4.2.3,4.8-1.1,5.8-1.7,4.6-2.9A2.52,2.52,0,0,0,443.5,407.3Z"/><path class="cls-26" d="M422.3,407.9c-.2-.2-.4.4-.5,1.7a11.34,11.34,0,0,0,.2,5.6h0a3.11,3.11,0,0,0,2.8,2c1.5-.1,1.5-.3,0-.9-1.1-.4-2-2.9-2.1-5.5-.1-1.8-.2-2.7-.4-2.9Z"/><path class="cls-26" d="M453.8,408.7c-1.6-.1-5,2.7-5,4.4a1.32,1.32,0,0,0,1.3,1.3c2,0,5.4-4.4,4.3-5.5A1.42,1.42,0,0,0,453.8,408.7Z"/><path class="cls-26" d="M434.2,414.4c-2.1,0-3.7.7-3.7,1.5s2.1,1.5,4.6,1.5c2.7,0,4.3-.6,3.7-1.5S436.3,414.4,434.2,414.4Z"/><path class="cls-27" d="M454.9,429.2c-2.6,0-4.7.4-5.4,1.6-.5.8-3.3,1.5-6.2,1.5-6.1,0-15.2,4.1-19.6,8.9l-3,3.2,5.3,4.3a34.45,34.45,0,0,0,10.6,5.7c5.8,1.5,8,1.2,17.9-2.3,5-1.7,7.3-3.8,10.3-9,2.1-3.7,3.8-7.5,3.8-8.5,0-2.8-8-5.3-13.7-5.4Z"/><path class="cls-28" d="M461.1,434c1.2,0,1.4.4,1.4,1,0,2.1-6.6,5.4-14.5,7.3-11.1,2.7-18.8,3.4-19.9,1.7-1.7-2.6.9-3.8,13.7-6.6C454,435,459,434,461.1,434Z"/><path class="cls-29" d="M456.9,443.1c.8,0,1,.4.7,1.4s-2.7,2.3-5.1,2.5c-5.1.5-3.7-1.7,2.2-3.5a6.85,6.85,0,0,1,2.2-.4Z"/><path class="cls-30" d="M601.6,295.6c1.2.1.8,6.9-.6,21.4-1.2,12.6-1.9,14.5-7.1,21.3-4.9,6.5-16.4,16.8-31,27.5-2.2,1.6-6.7,5.4-9.9,8.4s-10.8,8-16.8,11.1c-12.5,6.6-13.7,8-16.2,17.1-4.1,15.7-6.3,20.9-10.7,25.2-2.6,2.5-5,4.6-5.4,4.6s-.6-2.9-.6-6.4a18.09,18.09,0,0,1,3.8-11.5c2.1-2.8,3.8-4.1,3.8-2.9,0,1.6.7,1.3,2.4-.8,2.9-3.8,2.1-20.3-1.7-36.4-2.5-10.6-2.5-11.2.1-13a13.37,13.37,0,0,1,6.2-2c7.5,0,18.9-5.4,39.7-19,25.3-16.4,35.4-25.6,39.3-35.8,2.5-5.9,3.9-8.9,4.7-8.8Z"/><path class="cls-31" d="M464.1,155c-5.1,3.8-10,16.8-10.9,23.1-2,14,0,56.4,0,56.4s-5.1,14.1-5.1,19c-.1,10,8.4,39.5,14.4,51.5,6.6,13.1,23.5,41.5,37,48.8,5.8,3.2,20.5,3.4,27,1.6,18-5.1,50.8-25.9,63-40.5,7.2-8.6,18.7-38.3,18.7-38.3s6.6.2,9-.8c9.6-4.1,21.9-35.7,21.9-35.7s2.6-12.2,1.6-16.2c-1-3.7-8.7-12.6-8.7-12.6l-29.6,1s-13.9-46.1-26-55.6c-10.6-8.4-39.7-8.3-53.2-9.6C508.4,145.5,476.1,146.2,464.1,155Z"/><path class="cls-32" d="M468.4,164.2c-7.4,3.9-10.5,26-5.9,33,4.4,6.7,31.1,7.8,31.1,7.8l35.9,2.2s36.1,4.2,40.2-5.1c4.2-9.7-14.5-31.4-24.6-34.4-9.2-2.8-28.8,3.7-38.4,3.3C496.9,170.5,477,159.7,468.4,164.2Z"/><path class="cls-32" d="M587.7,250.2c-2.9-4.1-12.8,5.9-24.9,9.4-10.4,3-23.4-1.1-25.7,2.6-4.9,8.1,9.5,37.7,18.6,40.2C570.6,306.5,596.6,262.7,587.7,250.2Z"/><path class="cls-32" d="M462.3,251.4c4.4-3.4,21.8-.7,24.2,5.8,2.8,7.9-11.4,22.2-18.1,20.5C461.9,276,456.1,256.2,462.3,251.4Z"/><path class="cls-32" d="M495.5,328.8c2.1-3,10.4,3.7,16.7,3.8,8.3.1,14.8-5.4,17.3-1.2,2.6,4.5-4.4,16.8-9.2,18.8s-16.8,1.6-20.8-1.7S492.6,333,495.5,328.8Z"/><path class="cls-33" d="M483.4,119.4s-19.9,12.8-24.5,19.1c-1.8,2.4-3.3,9.6-1.3,11.9a41.24,41.24,0,0,0,6.3,4.7s56.4-7,75.2-1.7c12.1,3.4,47.6,26.2,56.8,49,10,24.8,33.6,12.4,33.6,12.4l9.5,5.4s-1.7-42.5-12.5-71c-4.9-12.9-12.6-21.9-21.2-24.5-19.9-6-58.2-22.8-58.2-22.8s-17.6-1.5-25.3.5C513.5,104.7,483.4,119.4,483.4,119.4Z"/><path class="cls-34" d="M456.3,240.6c1.3-6.4,1.2-9.9-.7-17.9-4.4-18.6-1.8-44.9,6.1-61.9,2.5-5.4,3.3-8.5,2.1-9.2a2.44,2.44,0,0,1-1.3-2.4,10.8,10.8,0,0,0,0-3.6c-.2-1.7-.7-1.7-2.4.6-2.1,2.6-2.3,2.6-3.2.3-1.4-3.7,11.2-18.7,19.3-22.9,5.5-2.9,8-4.4,7.2-4.5h0a11.82,11.82,0,0,0-3.1,1c-13,4.9-21.1,12.6-28.4,27.6-6,12.2-7,20.2-4,32.5a55.59,55.59,0,0,1,1.4,18.7,53.2,53.2,0,0,0,1.7,19c2.4,9.4,2.4,26.7,0,30.5"/><path class="cls-34" d="M535.5,101.9c-21.5-.1-33.8,3.5-43.4,12.5-7.2,6.8-8.1,8-15.1,22.3-6.6,13.3-7.1,15.8-.9,4.9s7.6-12.3,10.7-11.4c1.5.4,3.1.2,3.7-.6,1.2-1.8,12.9-9.6,16.4-10.9,3.3-1.2,3.5-4.9.4-6.1-4.4-1.7-2.2-3.4,8.3-6.6,9.6-3.1,11.7-3.2,24-1.7,16,1.9,20.3,3.1,36.1,10.7,6.7,3.1,13,5.8,14.1,5.8a11.42,11.42,0,0,1,4.6,1.4c1.4.8,6.1,2.8,10.3,4.6,9.2,3.9,12.1,6.4,17.1,14.1,4.1,6.3,5.2,9.8,8.7,27.6,1.2,6.1,3.2,15.8,4.5,21.5s1.9,12.3,1.3,14.8c-.6,3.1-.4,4.2.8,3.4,5-3.1,3.2-17.3-6.8-55.1-2.6-9.7-9.3-20.4-15.4-24.7-4.6-3.2-20.9-10.7-23.3-10.7-.9,0-6.8-2.4-13.1-5.3C558.2,102.8,554.4,101.9,535.5,101.9Z"/><path class="cls-34" d="M633.5,212.4c-2.1-.8-2.3-2.4-1.4-10,.8-7,.5-9.9-1.2-12.5a33.09,33.09,0,0,1-3.4-9.7,24.94,24.94,0,0,0-5-10.8c-3.8-4.5-3.9-4.5-.5-3.8,2.9.8,3.4.3,3.4-3.4,0-5.2-2-6.6-6.2-4.4-4,2.1-6.2.3-2.6-2.2,1.4-1,2.7-2.3,2.7-2.7s-7.3-.4-16.2,0c-13.5.7-16.1.4-15.5-1.3.4-1.2,5.1-2.9,11.7-4.2,9.6-1.8,10.8-2.4,8.8-4.3s-3.7-1.9-11.2-.4c-4.9,1-10.1,2.1-11.6,2.4s-2.7,0-2.7-.9.9-1.6,2.1-1.6c3.5,0,22.5-8.9,21.7-10.2-.7-1.1-4.2-1.1-20.7.4a78.1,78.1,0,0,1-18.3-1.3c-5.4-1.1-13.8-2.5-18.7-3.1-10.6-1.3-12.3-3.1-3.9-4.1,11.5-1.5,10.5-4-1.5-4-12.2,0-13.5-2-2.1-3.6,7.1-1,12.4-3.1,11.1-4.4a4.23,4.23,0,0,0-1.6-.2h0c-6.4.1-29.6,3.5-34.8,5.2a58.48,58.48,0,0,0-9.4,4.5c-2.2,1.5-4.6,2.8-5.4,2.8s-5.4,3.6-10.4,8c-6.2,5.4-8.5,8.3-7.1,9.1,1.1.6,3.6.1,5.5-1.2,4.1-2.6,5.4-2.9,5.3-1.2,0,.6-3.7,3.1-8.4,5.4s-7.9,4.9-7.5,5.7,3.2.1,6.1-1.6,5.2-2.3,5.2-1.4,1.1,1.2,2.3.7,3.3-1.3,4.6-1.8,2.3,0,2.3,1.5c0,1.8.9,2.2,3.8,1.5,2.4-.6,3.8-.3,3.8.8s.8,1.3,2.9.2c1.6-.9,3.3-1,3.7-.3s8.3,1.1,17.6,1,16.9.3,16.9,1,2.5.7,5.5.3c3.9-.6,5.3-.3,4.6.8s.9,2.6,3.6,4c2.5,1.3,4.6,3.2,4.6,4.3,0,3,6.9,5.4,15.3,5.4,4.1,0,7.5.7,7.5,1.5s-1.3,1.5-3,1.5-3,.6-3,1.3c0,2.4,7.8,3.3,13.2,1.6,9.2-3,10.1,1.8,1.2,6.6-4.6,2.4-4.6,2.4-.7,2.4,2.6,0,3.9,1,4.1,2.7a58.31,58.31,0,0,0,1.3,7.1L603,196l-4-3.6c-5.3-4.7-5.2-2.3.1,3.1,2.6,2.7,5.6,4.2,8.5,4.2s4,.6,3.3,1.7-3.9,1.4-8.5,1c-6.1-.6-7.1-.3-5.7,1.3a4.5,4.5,0,0,1,.9,3.9c-.4,1,.6,4.6,2.3,7.9a35,35,0,0,1,3.2,12.9c.1,6.2.5,7.1,3.4,7.1,2.2,0,4.8-2.4,8.1-7.4,5.5-8.3,11.8-13.8,15.2-13.1"/><path class="cls-26" d="M492.8,269.7c-1.9,0-3.7,6.8-2.5,9.7.4,1.2,1.3,2.3,1.9,2.3s.5-1,.1-2.3a10.44,10.44,0,0,1,.5-5.9c1-2.4,1-3.8,0-3.8Z"/><path class="cls-26" d="M531,275.7a3.86,3.86,0,0,0-2.1,2.7c-1.1,4.1-22.2,5.9-27.7,2.4-5.8-3.7-8.1-1-2.9,3.3,3.7,3.1,5.4,3.4,11.2,2.6a92.87,92.87,0,0,1,12.4-.8c4.3.2,6.2-.6,8-3.1,1.3-1.8,2.4-4.2,2.4-5.2C532.5,276.1,531.8,275.5,531,275.7Z"/><path class="cls-26" d="M629.6,220.7c-3.5.2-10.4,8.7-10.4,13.3,0,4.9.4,5.1,4.6,2.4,2.5-1.6,3.3-1.5,4.6.3,1.5,2.3,1.3,4.3-.9,9.5-.7,1.7-.6,2.5.4,1.9.8-.5,2.8-5,4.3-10.1,2.9-9.4,2.1-16.2-2-17.5-.2.3-.4.2-.6.2Z"/><path class="cls-26" d="M532.7,282.8c-.2,0-.3.2-.3.5-.1,2.9,6.5,12.7,11.7,17.4,2.4,2.2,3.5,4.5,2.9,6.3-.9,3.5,1.2,3.9,2.6.5,1.9-4.8.7-7.4-5.2-11.5-3.3-2.4-7.4-6.6-9-9.7-1.1-2.2-2.1-3.6-2.7-3.5Z"/><path class="cls-26" d="M617.9,246.7c-1.3.1-4.5,8.3-3.7,10s4.6,1.4,5.7-.3c.5-.8.2-1.5-.8-1.5s-1.4-1.3-.9-3.5c.5-1.9.4-3.9-.1-4.5,0-.2-.1-.2-.2-.2Z"/><path class="cls-26" d="M480.1,296.7c-.2-.1-.6.5-1.5,1.7-1.7,2.2-1.6,3.8.3,9.4,1.2,3.8,2.6,6.5,2.9,6,.4-.3-.1-3.1-1.1-6.1s-1.4-6.9-1-8.7C480.1,297.6,480.3,296.8,480.1,296.7Z"/><path class="cls-26" d="M561,214.1a15,15,0,0,0-2.9.6,15.82,15.82,0,0,1-7.6.7c-2.5-.6-11.1,1.1-13.2,2.7-.3.2,0,1.4.5,2.8,1.2,3.1,6.6,3.1,19.5.2,8.7-2,10.6-2,15.1-.2,2.9,1.1,5.6,2.9,6.2,3.8,1.4,2.3,4.3,2.1,3.6-.2-.4-1-4.9-4-10.2-6.6-5.1-2.5-7.9-3.7-10.1-3.8Z"/><path class="cls-26" d="M485.5,301.2c-2.1.1-1.6,2.8,1.3,8.2,4.6,8.4,7.3,10.8,14.6,13.4h0c7.7,2.7,16,2.7,19.6,0,2.7-2,2.2-2.1-4.6-1.3-8,.9-17.8-.9-18.6-3.3-.3-.9,3.8-1.3,10.5-1.1,10.4.3,10.6.3,3.5-.9-8.5-1.4-16.5-4.2-12.9-4.5,4.9-.5,32.8.3,35.3.9,2.8.8,7.9-3.3,6.6-5.4-.4-.8-2.5-.7-4.6.1a25.52,25.52,0,0,1-18.8-1c-3.7-1.7-7.4-2.2-14-1.7-6.8.6-10.2.2-13.4-1.7-2.2-1.2-3.6-1.7-4.5-1.7Z"/><path class="cls-26" d="M550.9,229.8a22.3,22.3,0,0,0-14.1,5.2c-3.7,3.1-4.8,3.4-6,1.7-1-1.5-1.3-.7-1.4,2.7a12.06,12.06,0,0,0,3,7.9c3.3,3.2,6.1,3.9,6.1,1.5a1.56,1.56,0,0,0-1.6-1.5c-3.6,0-3-4.5.9-8.1,3.7-3.4,6.8-4.8,6.8-3.1a15.92,15.92,0,0,0,.9,3c.7,1.7,0,2.4-2.7,2.4-6.8.1.5,2.6,10.7,3.8,9.5,1,9.6,1,8.6-2.2-1-2.9-.6-3.1,2.9-2.3,2.3.6,4.9.2,6.2-.9,2-1.7,1.5-2.4-3.7-5.2C561.7,231.3,556.1,229.7,550.9,229.8Z"/><path class="cls-26" d="M468.3,207.2c-3.4-.1-5.9.6-6.5,2.2-1.5,3.8.4,5.1,8,5.1,11.6,0,21.1,3.9,25.5,10.5,4.3,6.3,4.4,10.9.1,6.7-3.5-3.4-12.3-6.8-17.4-6.8-4.3,0-14.2,5-14.1,7.1.1,2.4,14.8,8,23.2,8.9,4.8.5,8.7,1.4,8.7,1.9s-1.3,2.3-3,3.8c-5,4.5-2.1,4.5,3.8.1,3-2.3,5.9-3.7,6.4-3.1.8.8-1.6,12.2-5.1,23.3-1.1,3.3-.9,3.5,1.4,1.7,3.4-2.7,7.1-15.5,7.1-24.4,0-7.6-7.1-23.9-12-27.6-6.6-5.6-18.6-9.2-26.1-9.4Z"/><path class="cls-35" d="M474.5,234.5c-1.6-1.9-1.6-2.5.1-3.6a4,4,0,0,1,1.9-.7h.6"/><path class="cls-36" d="M366.8,327.7c9.9-9.9,54.8-11,54.8-11s27.6-20.5,36.1-15.6c5.3,3.1,6.1,19.2,2.9,24.5-5.4,8.9-24.6,20.4-34.7,22.9-12.6,3.2-47.8,14.4-59.1,4.7C361.1,348.4,361.5,333,366.8,327.7Z"/><path class="cls-36" d="M462.5,383.2c1.4-7.8,22.6-16.4,29.3-12.2,6.2,3.9,6,23.2,1.8,29.2-2.3,3.3-10,8.9-14,8.1C472.1,407,461.2,390.7,462.5,383.2Z"/><path class="cls-36" d="M438.1,463.3c1.5-4.8,8.9-2.5,17.2-3.4,4.6-.5,11.1-6.5,13.1-4.5,3.7,3.7,3.8,14.4,0,18-3.2,3-13.3,6.8-17.5,5.4C446.2,477,436.6,468,438.1,463.3Z"/><path class="cls-36" d="M380.1,406.6c1.4-7.8,22.6-16.4,29.3-12.2,6.2,3.9,6,23.2,1.8,29.2-2.3,3.3-10,8.9-14,8.1C389.8,430.3,378.8,414.1,380.1,406.6Z"/></g></g></svg>