<svg xmlns="http://www.w3.org/2000/svg" viewBox="0 0 718 574"><defs><style>.cls-1{fill:#8c2a2a;}.cls-2{fill:#f4e9dc;}.cls-3{fill:#e0620e;}.cls-4,.cls-9{fill:#9da7bb;}.cls-4{stroke:#ff0;stroke-width:0.3px;}.cls-12,.cls-14,.cls-15,.cls-16,.cls-17,.cls-20,.cls-28,.cls-32,.cls-4{stroke-linecap:round;}.cls-5{fill:#f8361b;}.cls-14,.cls-6{fill:#d2dcde;}.cls-7{fill:#558962;}.cls-8{fill:#ebc793;}.cls-10{fill:#595589;}.cls-11{fill:#679cb7;}.cls-12,.cls-17,.cls-19,.cls-27,.cls-28,.cls-32{fill:none;}.cls-12,.cls-14,.cls-15,.cls-16,.cls-17{stroke:#000;}.cls-12,.cls-14,.cls-15,.cls-16{stroke-width:1.3px;}.cls-13{fill:#5d64aa;}.cls-15{fill:#4ca180;}.cls-16{fill:#68b7e7;}.cls-17,.cls-20,.cls-28,.cls-32{stroke-width:3px;}.cls-18{fill:#cbddf1;}.cls-20,.cls-31{fill:#d8b993;}.cls-20{stroke:#473838;}.cls-21{fill:#cc864c;}.cls-22{fill:#473838;}.cls-23{fill:#331b14;}.cls-24{fill:#393a25;}.cls-25{fill:#edd3b0;}.cls-26{fill:#d3b48c;}.cls-27{stroke:#d3b48c;stroke-miterlimit:10;}.cls-28{stroke:#252d22;}.cls-29{fill:#231919;}.cls-30{fill:#161413;}.cls-32{stroke:#7f1914;}</style></defs><title>Asset 1</title><g id="Layer_2" data-name="Layer 2"><g id="svg8"><g id="layer1"><rect id="rect888" class="cls-1" width="718" height="574"/></g><rect id="rect3240" class="cls-2" x="28.4" y="26.1" width="660" height="525"/><path id="path3058" class="cls-3" d="M27.4,26.2v16L181.2,147.4c4.4-5,8.9-9.7,13.8-14.3L65.3,26.3H27.4Zm118.3,0,75.7,85.5c5.5-3.8,11.3-7.5,17.4-10.9L184.5,26.2H145.7Zm93.7,0,30.3,59.9c6.4-2.6,13.1-4.9,19.8-6.9l-20.3-53H239.4Zm76.7,0,8.8,45.1c7-1,14-1.8,21.1-2.3l-3.7-42.8Zm68.7,0-3.7,42.7c7.2.4,14.2,1.2,21.1,2.2l8.6-45-26,.1Zm65.3,0L432.2,77.3c6.8,1.9,13.5,3.9,20.1,6.3l27-57.5H450.1Zm79.6,0L481.9,96.9c6.1,3.2,12.1,6.7,17.8,10.3l66.8-81.1-36.8.1Zm104.7,0L524.8,125.7c5.2,4.4,10,8.9,14.7,13.6L689.4,26.2v-.1h-55Zm55,66.4L560,164c3.7,5.3,7.3,10.8,10.6,16.4l118.9-52.8v-35Zm-662,13.9v34.2l125.1,48.9a183.82,183.82,0,0,1,9.5-16.7L27.4,106.5Zm662,68.8L583.1,206.9a181.77,181.77,0,0,1,5.8,18.1l100.5-21V175.3Zm-662,7.8v29.1l109.9,19.6a164.19,164.19,0,0,1,5.2-18.2L27.4,183.1Zm662,63.4L594.2,254a177.83,177.83,0,0,1,.9,18v.7l94.3.3V246.5Zm-662,13.7v27.3l105.7-4.8c-.3-3.5-.4-7.1-.4-10.7,0-2.7.1-5.4.3-8L27.4,260.2Zm565,43c-1,6.2-2.6,12.4-4.2,18.4l101.1,22.3V316.4l-96.9-13.2ZM138.2,315.7,27.4,337v29.3l116.3-32.5c-2.1-6-3.9-12-5.5-18.1Zm439.3,34.4c-2.7,5.8-5.8,11.4-9,17l120.9,56.1V390.9L577.5,350.1Zm-28.6,44.1a183.89,183.89,0,0,1-13.5,14.4l154,122.6V486.7L548.9,394.2Z"/><path id="path3828" class="cls-1" d="M83.7,26.2,200,128.4c5-4.5,10.3-8.7,15.7-12.7L131.1,26.1H83.7Zm112.3,0,48.7,71.4c6.1-3.2,12.4-6.2,18.8-8.9l-34-62.5H196Zm81.9,0,17.8,51.2c6.7-1.9,13.7-3.4,20.6-4.7L305.2,26.3l-27.3-.1Zm73.7,0,2.1,42.4c3.5-.1,6.8-.2,10.3-.2,3.7,0,7.3.1,11.1.2l2.4-42.4H351.6Zm65,0-9.8,45.6c7.1,1.1,14,2.6,20.7,4.3l16.2-50-27.1.1Zm72,0L458.2,86.1c6.6,2.6,12.9,5.4,19.1,8.4L521,26.2Zm89.2,0-73.2,84.2c5.7,3.8,11.1,7.8,16.4,12.1L622,26.3H577.8ZM689.4,41.3l-145.3,103c4.5,4.9,8.6,9.9,12.6,15.2L689.4,82.1V41.3Zm-662,14V94.7l138.1,72.9c3.6-5.4,7.6-10.6,11.7-15.7L27.4,55.3Zm662,82.8L573.5,185.8a172.41,172.41,0,0,1,8.1,17.4l107.8-34.1v-31ZM27.4,146v31.2l116.3,32.9c2.2-6,4.6-11.8,7.3-17.6L27.4,146Zm662,66.8-98.9,18c1.4,6.1,2.4,12.3,3.3,18.6l95.7-9.5-.1-27.1Zm-662,9.6v27.7l106,7a166.42,166.42,0,0,1,2.6-18.6L27.4,222.4ZM595,279c-.3,6.3-.8,12.6-1.7,18.7l96.1,10.7V281.7L595,279Zm-461.3,9.9L27.4,296.6v27.7l109-16.8a146.24,146.24,0,0,1-2.7-18.6Zm452.8,38.3c-1.9,6-4.2,11.9-6.7,17.8l109.6,37V352.6L586.5,327.2ZM145.9,339.5,27.4,376v31.8l126.3-50.9c-2.9-5.7-5.4-11.5-7.8-17.4Zm419.6,32.4a176.08,176.08,0,0,1-11.3,15.9L689.4,470V433.2L565.5,371.9Z"/><path id="path4101" class="cls-4" d="M28.7,497.8v51.9l153.8,3.2,2.7-50.4L28.7,497.8Z"/><path id="path4097" class="cls-5" d="M134.6,470l-.5,17.6,94.3,7-3.9-17.3-87.6-7"/><path id="path3977" class="cls-6" d="M164.2,390.6V334.9L68.8,317.6V392"/><path id="path3929" class="cls-7" d="M32.3,293.2a35,35,0,0,0-4.5.7v39.2l10.4.5V294.1a16,16,0,0,0-5.9-.9Zm14.9,1.9a21.52,21.52,0,0,0-5,.7v31.9l10.3.6V295.9A14.87,14.87,0,0,0,47.2,295.1ZM63.4,300a36.65,36.65,0,0,0-5.9.7v24.2l9.9,2.1V300.7A11.64,11.64,0,0,0,63.4,300Z"/><path id="path3158" class="cls-8" d="M60.5,321.9l-31.8,5.6V382l31.8-2V321.9Z"/><path id="rect4047" class="cls-7" d="M27.8,326.9v45.7c1.5,0,3,.1,4.4.2s3,.4,4.4.7a22.21,22.21,0,0,1,3.9,1.1,7.93,7.93,0,0,0,.9.4V337.6c0-4.7-5.6-8.8-13.6-10.7Z"/><path id="path4198" class="cls-9" d="M95.3,288.1v10.4a26.29,26.29,0,0,1,4.9.4,22.43,22.43,0,0,1,5,1.1h0l-.5-10a25.85,25.85,0,0,0-9.4-1.9Zm0,10.4h0a45.78,45.78,0,0,0-5.3.3c-1.7.2-3.3.5-5,.7l-.5,12.4v.1a48.09,48.09,0,0,1,5.3-.7,47,47,0,0,1,5.3-.2h.3l-.1-12.6Zm0,12.5v11.6c1.8,0,3.6.1,5.4.2s3.9.4,5.8.7h0l-.5-11a53.51,53.51,0,0,0-5.5-1.1c-1.7-.2-3.4-.3-5.2-.4Zm0,11.7H95c-1.9,0-3.7.1-5.7.2a48.54,48.54,0,0,0-5.5.8l-.4,7.5,23.8,11.7-.4-7.2H95.1l.2-13ZM130,295v10.3c1.3,0,2.6.1,4,.2a53.42,53.42,0,0,1,5.3.9l-.5-9.8A23.48,23.48,0,0,0,130,295Zm0,10.2c-.3,0-.5-.1-.8-.1a31.46,31.46,0,0,0-4.4.3l-4.1.6-.3,12.1a19.83,19.83,0,0,1,4.5-1,25.6,25.6,0,0,1,4.9-.4h.3V305.1H130Zm0,11.7v10.4c.4,0,.8-.1,1-.1a37,37,0,0,1,4.8.6,33.3,33.3,0,0,1,4.5,1.3h0l-.5-10.8a29.87,29.87,0,0,0-5-1.1,25.81,25.81,0,0,0-4.8-.3Zm0,10.4a28.84,28.84,0,0,0-4.1.2,33,33,0,0,0-5.7,1.3l-.3,11.3,12.8,1.9-2.7-.8V327.3Z"/><path id="path4206" class="cls-3" d="M95.3,288.1a26.26,26.26,0,0,0-9.9,1.8l-.4,9.6v.1c1.7-.3,3.3-.5,5-.7a45.33,45.33,0,0,1,5.2-.3h.1V288.1Zm0,10.4V311c1.7.1,3.3.2,5.2.4a53.5,53.5,0,0,1,5.5,1.1l-.6-12.6a44.77,44.77,0,0,0-5-1.1,43.62,43.62,0,0,0-5.1-.3Zm0,12.5H95a30.94,30.94,0,0,0-5.3.2c-1.8.2-3.5.4-5.3.7l-.5,11.7a48.53,48.53,0,0,1,5.5-.8,35.38,35.38,0,0,1,5.7-.2h.3L95.3,311Zm0,11.7v13H107l-.6-12c-1.9-.3-3.9-.5-5.8-.7a30.83,30.83,0,0,0-5.3-.3ZM130,295a29,29,0,0,0-9.1,1.4l-.1,9.6v.1a29,29,0,0,1,4.1-.6,32.53,32.53,0,0,1,4.4-.3c.3,0,.5.1.8.1V295Zm0,10.2v11.7a42.86,42.86,0,0,1,4.9.3,44.76,44.76,0,0,1,5,1.1l-.5-11.9c-1.9-.4-3.6-.7-5.3-.9a31.64,31.64,0,0,0-4.1-.3Zm0,11.7h-.3a38.87,38.87,0,0,0-4.9.4c-1.5.3-3.1.6-4.5,1l-.3,10.5a42.19,42.19,0,0,1,5.7-1.3,28.84,28.84,0,0,1,4.1-.2l.2-10.4Zm0,10.4v13.8l2.7.8,8.5,1.3-.6-14.1c-1.4-.5-3-.9-4.5-1.3a24.23,24.23,0,0,0-4.8-.6c-.6,0-1,.1-1.3.1Z"/><path id="path3957" class="cls-10" d="M60.5,398.5V321.9l93.4,18.9v63.4"/><path id="rect3973" class="cls-3" d="M60.5,321.9l-7.2,1.3v24.2h7.2V321.9Zm-11.3,1.9L42,325.1v23.2h7.2V323.8Z"/><path id="rect4025" class="cls-7" d="M65.1,337.3h4.8c13.1,0,23.8,3.3,23.8,7.4v136c0,4.1-10.7,7.4-23.8,7.4H65.1c-13.1,0-23.8-3.3-23.8-7.4v-136C41.4,340.6,51.9,337.3,65.1,337.3Z"/><path id="path4027" class="cls-11" d="M66.3,337.3c-12.9,0-23.2,3.2-23.7,7H94.9c-.5-4-10.9-7-23.7-7Z"/><path id="rect4029" class="cls-9" d="M94.9,346.1c-19.1.2-34.4,8.4-34.4,18.7v18.3H94.9v-37Z"/><path id="rect4039" class="cls-6" d="M94.4,389.8c-19.3,0-34.9,10.5-34.9,23.5v23.8H94.8V389.8Z"/><path id="rect4041" class="cls-9" d="M92.1,443.3c-19.3,0-34.9,9.6-34.9,21.6v22.7a65.73,65.73,0,0,0,9.1.5h4.8c13.1,0,23.8-3.3,23.8-7.4V443.4a25.28,25.28,0,0,0-2.8-.1Z"/><path id="rect4037" class="cls-11" d="M42.6,433v8.5H94.9V433Z"/><path id="rect4033" class="cls-11" d="M42.6,378.1v10.1H94.9V378.1Z"/><path id="path4043" class="cls-3" d="M83.3,423.1c0,3-4.1,5.4-9.3,5.4s-9.3-2.4-9.3-5.4,4.1-5.4,9.3-5.4S83.3,420.1,83.3,423.1Z"/><path id="path4045" class="cls-3" d="M81,466.2c0,2.7-3.7,4.9-8.4,4.9s-8.4-2.2-8.4-4.9,3.7-4.9,8.4-4.9S81,463.6,81,466.2Z"/><path id="path4081" class="cls-7" d="M42.6,425.5a7.93,7.93,0,0,1-.9.4,26.19,26.19,0,0,1-4,1.1,32.52,32.52,0,0,1-4.5.6,32.91,32.91,0,0,1-4.5.3v64.8c8.2-1.8,13.9-6,13.9-10.8V425.5Z"/><path id="rect4084" class="cls-6" d="M41.5,334.1a52.71,52.71,0,0,0-12.9,2.2v36.5c1.5,0,3.1.1,4.5.2.5.1.9.1,1.4.2h8.1V337.8a6,6,0,0,0-1.1-3.7Z"/><path id="path4079" class="cls-7" d="M27.8,372.7v55.1a37.49,37.49,0,0,0,4.8-.3c1.7-.2,3.2-.4,4.8-.6a23.32,23.32,0,0,0,4.2-1.1,7.93,7.93,0,0,0,.9-.4V375a7.93,7.93,0,0,1-.9-.4,28.76,28.76,0,0,0-4.2-1.1c-1.5-.3-3.1-.5-4.8-.7-1.5-.1-3.1-.1-4.8-.1Z"/><path id="path4093" class="cls-11" d="M28.7,368v10.2H41.3V368Z"/><path id="rect4061" class="cls-6" d="M42.6,433.4a54.82,54.82,0,0,0-13.9,2v57.2c8.2-1.8,13.9-6,13.9-10.8Z"/><path id="rect4063" class="cls-9" d="M41.4,379.1a52.32,52.32,0,0,0-13.5,2v46.6a31.46,31.46,0,0,0,4.4-.3l4.4-.6a22.21,22.21,0,0,0,3.9-1.1,7.93,7.93,0,0,1,.9-.4V379.1Z"/><path id="path4065" class="cls-11" d="M143,384v93.4l104.6,8.1V395.9L143,384Z"/><path id="path4067" class="cls-6" d="M143,390.5V399l104.6,12.6v-7.7L143,390.5Zm0,16.6v8.5l104.6,12.6v-7.7L143,407.1Zm0,16.1v8.5l104.6,12.6v-7.8L143,423.2Zm0,40v2.9l104.6,10.2v-3.4L143,463.2Z"/><path id="path4075" class="cls-12" d="M247.7,465.9,112.9,452.6"/><path id="rect3979" class="cls-7" d="M119.1,345.9h0c13.1,0,23.8,3.3,23.8,7.4v136c0,4.1-10.7,7.4-23.8,7.4h0c-13.1,0-23.8-3.3-23.8-7.4V353.4C95.3,349.2,106,345.9,119.1,345.9Z"/><path id="rect4077" class="cls-8" d="M147.6,432.3v23.9l6.8.6V433.1l-6.8-.8Zm13.4,1.5v23.6l7,.6V434.6l-7-.8Zm13.5,1.6v23.2l6.8.6V436.1l-6.8-.7Z"/><path id="rect4083" class="cls-13" d="M205.4,417.2c-14.6,0-26.1,4.7-26.1,10.5v31.5l52.3,5.1V427.7c0-5.8-11.7-10.5-26.2-10.5Z"/><path id="path4085" class="cls-9" d="M205.4,417.2c-13.9,0-25.2,4.3-26.1,9.8h52.2C230.5,421.5,219.3,417.2,205.4,417.2Z"/><path id="path4091" class="cls-14" d="M210.6,442.5c-10.6,0-19.2,3.9-19.2,8.6,0,.2,0,.5.1.6h38.3v-.6c0-4.7-8.7-8.6-19.2-8.6Z"/><path id="path4089" class="cls-6" d="M202.6,432.5c-7.7,0-13.9,2-13.9,4.3v.1h27.7v-.1c.1-2.3-6.2-4.3-13.8-4.3Z"/><path id="rect4087" class="cls-9" d="M179.2,437v4.2h52.3V437Zm0,14.7v3.2h52.3v-3.2Z"/><path id="path4095" class="cls-14" d="M214.4,456.7c-7.5,0-14,1.7-17.6,4.2l38.3,3.7C234.3,460.2,225.3,456.7,214.4,456.7Z"/><path id="rect4109" class="cls-3" d="M28.7,459.7v24.9c2.6-1.1,4.4-2.8,4.4-4.8V464.5C33.1,462.5,31.3,460.7,28.7,459.7Z"/><path id="rect4148" class="cls-3" d="M28.7,353.7v8.5c2.2-1,3.5-2.5,3.5-4.2S30.8,354.7,28.7,353.7Z"/><path id="path4074" class="cls-11" d="M28.7,326.9v7.6H41.8C39.9,331.1,35,328.4,28.7,326.9Z"/><path id="path3299" class="cls-11" d="M27.4,421.3v12.5H41.3V421.3Z"/><path id="rect4017" class="cls-14" d="M143,452.5c-19.2.1-34.6,8-34.6,17.7v25.7a72,72,0,0,0,10.8.8c13.1,0,23.8-3.3,23.8-7.4V452.5Z"/><path id="rect4009" class="cls-9" d="M142.3,400.3c-18.4.5-33,9.6-33,20.7v24.4a61.23,61.23,0,0,0,9.9.6c13.1,0,23.8,2.3,23.8-1.8V400.3Z"/><path id="rect3983" class="cls-9" d="M143,353.5c-18,.9-32.2,10.8-32.2,23V393H143V353.5Z"/><path id="rect4023" class="cls-11" d="M95.3,388.2v10.1H143V388.2Z"/><path id="rect4019" class="cls-11" d="M95.3,442.6v8.3H143v-8.3Z"/><path id="path3981" class="cls-11" d="M119.1,346c-13.1,0-23.8,3.3-23.8,7.4v.1H143v-.1c0-4.2-10.6-7.4-23.9-7.4Z"/><path id="path4105" class="cls-14" d="M41,498.9v33.3l14.4,15.5,14-6.2-8.9-10.1V498.1Z"/><path id="path4113" class="cls-15" d="M28.7,491.4v9.9l163.2,5.2s2.4-7.5.3-7.5-130.9-6-163.5-7.6Z"/><path id="path4115" class="cls-14" d="M47.7,492.3,34,501.5l37.2,1.2c4.1-2.9,9.3-6.5,12.4-8.7C66.2,493.2,60,493,47.7,492.3Zm48.5,2.3-13.4,8.5,36.6,1.2c4.5-2.7,9.5-5.9,12.9-8-12.6-.5-22.6-1.1-36.1-1.7Zm47.2,2.3-12.6,7.8,34.3,1.1c3.5-2.4,7.7-5.6,10.2-7.4C166.8,497.9,158.2,497.6,143.4,496.9Z"/><path id="path4127" class="cls-14" d="M40.2,490l-11.5.1v7.5c5.6-3.6,11.5-7.6,11.5-7.6Z"/><path id="path4131" class="cls-14" d="M28.7,475.6v19.2l168.6,8.8,12.5-15.4L28.7,475.6Z"/><path id="path4170" class="cls-16" d="M49.2,496l-8.8,5.8,23.7.8,7.3-5.4L49.2,496Zm47.4,2.4-8.2,4.9,21.8.6,7.3-4.5-20.9-1Zm46.5,2.4-6.1,4.1,19.8.6,5.9-3.6-19.6-1.1Z"/><path id="path4301" class="cls-17" d="M185.5,482.6"/><path id="path3906" class="cls-7" d="M642.7,298.3,520.2,316.6v18.3l123.3-18.8"/><path id="path3317" class="cls-6" d="M590.3,265.6a36.21,36.21,0,0,0-9.4,1.8l-.5,15.5a54.68,54.68,0,0,1,8.1-1.2h2.1l-.3-16.1Zm.3,16.1.3,17.6c1.6,0,3.2.1,4.9.2,2.2.2,4.6.5,7.3.9l-.8-17.6h-.2c-3-.5-5.6-.9-7.9-1.1Zm.3,17.8h-1.1a27,27,0,0,0-5.2.5c-1.6.3-3.2.5-4.8.9l-.6,21.4h25.1l-.2-3.3-12.7-.5-.5-19Zm-37.7-25.6a28.27,28.27,0,0,0-10.3,2.3l-.5,13.6c3.5-.5,7-1.1,10.8-1.3h.5l-.5-14.6Zm.5,14.6.5,16.4c.3,0,.8-.1,1.1-.1a65,65,0,0,1,11,.5h0l-.8-15.7a50.67,50.67,0,0,0-6.5-.9,31.33,31.33,0,0,0-5.3-.2Zm.5,16.4a48.74,48.74,0,0,0-5.1.5,65.39,65.39,0,0,0-7,1.3l-.6,18.7,14.1-1.8-.6-.2-.8-18.5Zm-35.6-23.5a41.18,41.18,0,0,0-9.4,1.4l-.3,12.5a79.34,79.34,0,0,1,9.8-1h.2l-.3-12.9Zm.3,12.9.3,16h0a34.91,34.91,0,0,1,5.6.1c1.9.2,3.8.5,5.9.8l-1.1-15.8a38.29,38.29,0,0,0-5.6-.9,29.4,29.4,0,0,0-5.1-.2Zm.3,16c-1.7.1-3.5.3-5.2.5s-3.5.5-5.2.9l-.3,17.9,23.7-.9-.2-1.3-12.2.8-.6-17.9Z"/><path id="path3315" class="cls-3" d="M591.7,265.6h-1.4l.3,16.2a27.68,27.68,0,0,1,4,.1,67.47,67.47,0,0,1,7.9,1.1h.2l-.6-15.5a27.65,27.65,0,0,0-10.4-1.9Zm-1.1,16.1a14.7,14.7,0,0,0-2.1,0,54.68,54.68,0,0,0-8.1,1.2l-.6,17.8a34.08,34.08,0,0,1,4.8-.9,39.92,39.92,0,0,1,5.2-.5h1.1l-.3-17.6Zm.3,17.8.5,18.9,12.7.5-.8-18.3c-2.7-.5-5.1-.7-7.3-.9a46.1,46.1,0,0,0-5.1-.2Zm-36.1-25.7a6.15,6.15,0,0,0-1.4.1l.5,14.7a30.11,30.11,0,0,1,5.2.1c2.1.2,4.1.5,6.5.9l-.8-14.7a39.82,39.82,0,0,0-10-1.1Zm-1.1,14.7h-.5a91.16,91.16,0,0,0-10.8,1.3l-.5,16.8c2.5-.5,4.9-1,7-1.3a46.27,46.27,0,0,1,5.1-.5l-.3-16.3Zm.5,16.4.6,18.4.6.2L567,322l-.8-16.8h0a95.69,95.69,0,0,0-11-.5c-.2.2-.5.2-1,.2Zm-35.6-23.5.3,12.9a45.21,45.21,0,0,1,5.1.2c1.7.2,3.7.5,5.6.9l-1-12.8a31.56,31.56,0,0,0-10-1.2Zm.3,12.9h0a80.63,80.63,0,0,0-10,1l-.3,16.5a47.14,47.14,0,0,1,5.2-.9,30.52,30.52,0,0,1,5.2-.5l-.1-16.1Zm.3,16,.5,18.1,12.2-.8-1.1-16.4a29.88,29.88,0,0,0-5.9-.8,35.73,35.73,0,0,0-5.7-.1Z"/><path id="path3928" class="cls-3" d="M645.9,307.6,477,331.4v43.8l175.1-22.8"/><path id="path3934" class="cls-8" d="M638.9,316.7h-.5L477,339.4v2.9l162.5-22.8c1.3-.2,2.2-.9,1.9-1.6-.1-.7-1.3-1.2-2.5-1.2Zm1.9,13.1a.9.9,0,0,0-.5.1l-163.5,22v2.9l164.6-22.2c1.3-.2,2.2-.9,1.9-1.6s-1.3-1.1-2.4-1.1c0-.1,0-.1-.1-.1Z"/><path id="path3938" class="cls-7" d="M650.3,342.4,469.2,363.8V382l175.1-22.8"/><path id="path5290" class="cls-11" d="M689.4,314.4l-56.9.5V350l56.9-1.3V314.4Z"/><path id="path3940" class="cls-10" d="M689.4,270.3l-56.9,10v34.6l56.9-.5V270.3Z"/><path id="path3946" class="cls-6" d="M689.4,270.3l-5.9,1,2.4,41.4,3.5-.5V270.3Zm-21.6,3.8-8.7,1.5v72.9l8.7-3.2V274.1ZM650.9,277l-7.9,1.4V348l7.6,1.6h.3V277Z"/><path id="path3950" class="cls-3" d="M648.7,349V318.5l14.1-2.2v30.2"/><path id="path3952" class="cls-18" d="M682.7,347.5l-1.4-31.4,7-.8v32.9"/><path id="path3960" class="cls-7" d="M632.5,311.1v13.8l56.9-8.3v-4.8l-56.9-.7Z"/><path id="path3968" class="cls-11" d="M674,437.4V352.6L499.7,372.1v-9.6l-7.9-7.1-9.2,4.6.8,88.4"/><path id="path3972" class="cls-7" d="M689.4,350.6,674,352.7v45.4l15.4-.7V350.6Z"/><path id="path3962" class="cls-6" d="M676.5,342.3,499.7,362.5v9.7L676,352.4l13.3,1.4v-9.7l-12.8-1.8Z"/><path id="path3964" class="cls-12" d="M676,342.3"/><path id="path3964-2" data-name="path3964" class="cls-12" d="M676,352.4"/><path id="path3974" class="cls-6" d="M504.3,434.6l-.5-49.9c0-9.3,31.1-9.5,31.1-3.4v51l12.9-.5V378.7c0-8.8,32.4-9.9,32.6-2.1l1.3,55.1,10.3-.2V375.3c0-11.4,32.2-11.1,32.2-3.3v57.4l11-1.2V370.4c0-9,30.5-11.9,30.5-2.3v60.8"/><path id="path3976" class="cls-7" d="M451.3,377.3,315.5,390.9l-2.1,24.7,145.7-16.2"/><path id="path3978" class="cls-3" d="M452,384.4l-130.4,11-4.9,32.3,162.2-14.3"/><path id="path3982" class="cls-11" d="M361.7,413l30.5,12.9,1.3,20.6-33,.3,1.6-32.3"/><path id="path3986" class="cls-7" d="M382.3,443.6l.5-29.7,19.5,9.8-.5,21.9-21.4-.4"/><path id="path3988" class="cls-11" d="M396.3,442.2l.2-29.7,18.4,9.3,1.3,23.7-19.1-.1"/><path id="path3990" class="cls-7" d="M409.2,441.1l.8-30,23.2,11.2-.5,20.7-24.1-.7"/><path id="path3992" class="cls-11" d="M426.8,442.8l-.6-33.3,35.7,14.6-3,18"/><path id="path3984" class="cls-7" d="M369.1,445.8l-.5-32.6-45.8,4-1.3,30.3Z"/><path id="path3980" class="cls-10" d="M449.2,393.1l-119.3,6.8-6.2,20,130.7-13.1"/><path id="path3966" class="cls-6" d="M445.2,439.7l-2.1-79,48.8-5.3v81.9"/><path id="path3994" class="cls-3" d="M631.2,423.5,317.9,445.4l-.8,19.1,312.8-20"/><path id="path3996" class="cls-6" d="M621.1,433.7,324.7,453.3l2.9,18.3,304.7-16.3"/><path id="path3998" class="cls-7" d="M353.2,485.5,343.8,455l276.6-17.3,1.9,38.5"/><path id="path4000" class="cls-6" d="M624.1,450l-262,11.5,6,34.6,261-9.1"/><path id="path4002" class="cls-3" d="M624.1,450l-11.3.5c-7.1,4-34.8,19.6-36.2,20.3l22.1,3.6,26.4-17.8-1-6.6Zm-25.4,1.1-29.9,1.4-59.4,26.9,14.6,4,74.7-32.3Zm-48.2,2-26.1,1.2-65.5,30.5,1.1,8,5.1-.2,85.4-39.5Zm-43.6,2-30,1.4-47.3,24.7,4.6,5.8,72.7-31.9Zm-45.3,2-21,.9-39.2,20.7,11.8,3.8,48.4-25.4Zm-39.3,1.7-19.4.8L366,483.7l.3,1.6,3.8,3.8,52.2-30.3Zm-29,1.3-20.2.9-9.8,6.6,1.7,10.3,28.3-17.8Z"/><path id="path4016" class="cls-7" d="M482.2,489.8c-2.2-7.7,1.4-11.8,14-11,5.4-5.1,11.9-9.4,28.8-5.2,3.8-3.8,7.8-7.3,22.2-3.8,5.6-1.6,11.1-3.3,16.7.9a24.3,24.3,0,0,1,21.6-2.4c-2.1-9.8,17.5-9.3,35.7-9.4l.5,27.2"/><path id="path4018" class="cls-3" d="M546.6,488.6c-2.9-12.7,22.2-12.3,35.7-11,2.9-4.8,8.9-5.4,17.2-3.6,3.8-8.1,12.1-8.3,20.8-7.9l3,19.5"/><path id="path4020" class="cls-11" d="M689.4,398.7l-82.9,5.8v5.1l8.3,4,2.5,72.5,72.3-1.6-.2-85.8Z"/><path id="path4022" class="cls-6" d="M689.4,392.3l-83.1,7.5.2,9.8,82.9-6.7V392.3Z"/><path id="path4024" class="cls-6" d="M689.4,409.9c-7.8.9-16.7,4.2-16.5,8.3l2.9,66.7-12.9.7-2.2-67.4c-.3-7.8-35.7-5.3-35.7,2.3l1,65.7,63.4-1V409.9h0Z"/><path id="path4026" class="cls-10" d="M689.4,482.3l-234,5.2-.8,15.3,234.8,3.6V482.3Z"/><path id="path4028" class="cls-6" d="M679.4,488.2c-5.4.3-10.3,2.3-15.6,2.3-4.9.1-9.7-1.5-14.6-1.5-5.9,0-11.4,1.8-17.3,1.7-4.9,0-9.7-1.7-14.6-1.7s-9.5,1.5-14.5,1.6c-6.4.1-12.6-1.9-18.9-1.6-7.5.3-14,3.5-21.4,3.6-4.4.1-8.6-1.8-13-1.7-5.6.1-11,1.4-16.4,2.6-8.1,1.7-23.5,6.1-23.5,6.1l7,9.7,172.8.7V489.1a62.3,62.3,0,0,0-8.9-.9Z"/><path id="path4030" class="cls-3" d="M689.4,492.3l-180.3,2.8,15.3,18.8,165.1-4.7V492.3Z"/><path id="path4032" class="cls-6" d="M640,496.2c-5.2.1-9.7,2.5-14.9,2.6-3.8.1-7.3-1.6-11.1-1.6-4.4,0-8.6,1.6-13,1.6-3.8,0-7.1-1.5-11-1.5-3.3,0-6.2,1.5-9.5,1.5-3.7,0-6.7-1.7-10.3-1.7-4.9,0-9.2,2.3-14,2.3-2.9,0-8.1-1.4-11-1-5.9.8-10.5,1.6-10.5,2.1-.5,2.2.2,6.4.2,6.4H689.3v-8.5c-1,.1-1.9.2-2.7.2-6.7.2-13-1.6-19.5-1.6-4.4,0-8.7,1.3-13.2,1.2C649.2,497.9,644.7,496.1,640,496.2Z"/><path id="path4034" class="cls-7" d="M689.4,500.8l-160.5,1.1.8,36.9,159.7.8V500.8Z"/><path id="path4036" class="cls-6" d="M689.4,509.5l-123,.5v42.3l123,.2v-43Z"/><path id="path4038" class="cls-3" d="M571.7,512s4.1,36.7,5.2,36.7,80.1-2.1,112.3-3V512.5L571.7,512Z"/><path id="path4040" class="cls-6" d="M581.4,515.8l6.7,30.9L689.3,539V517l-107.9-1.2Z"/><path id="path4042" class="cls-11" d="M593.9,518.6l6.4,24.2,89-.5v-22l-95.4-1.7Z"/><path id="path4044" class="cls-6" d="M604.7,527.9l3.8,20.6,80.7,4.2V529.6l-84.5-1.7Z"/><path id="path3964-3" data-name="path3964" class="cls-19" d="M679.9,349.4v-7.2"/><polygon class="cls-11" points="676.5 342.3 689.4 344 689.4 353.7 674.8 352.4 676.5 342.3"/><path id="path4264" class="cls-20" d="M159.8,376.3l5.5-74.5,50.1-59.5,99.6-7.5s4.8,11.3,3,16.7-9.3,5.7-10.1,11.2c-.4,3.1,3.2,3.8,2.8,6.9-.4,2.7-5.8,5.1-6.1,7.8-1.3,12.5,24.2,18.9,22,31.2-1.2,6.5-9.8,4.7-11.3,9-2.8,7.7,2.7,10.3,2.3,13.5-.3,2.7-4.9,3.4-3.7,5.9,5.9,11.3-2.9,9.2-4,12.7-1.6,5.1,5.2,11.5,4.6,16.7-.6,5.6-3,10.8-8.3,13.6-7.6,4-27.2.3-27.2.3l-9.5,37.9-103.6-.3Z"/><path id="path4229" class="cls-21" d="M314.9,234.7l-99.6,7.5-35.1,41.7,8.3,62.5,6.9-10.6c3-4.5,5-4.5,8.2-4.1,10.6,1.5,15.6,1.5,16.4-9.4-11,8.4-14,7.7-19.4-3.3-1.8-3.7-7.5-6.7-6-10.6,1.3-3.4,5-5.9,8.6-5.3,0,0,14.3,3.2,21.3,1.8,10.1-2.1,16.1-12.4,25.8-14.9,7.1-1.8,16.5-3.7,22,.8,3.8,3.1,3.5,9.3,2.6,13.9-1.7,8.2-10.2,13.5-14.1,21-5.5,10.7-1,26.4-11.7,32.9-7.5,4.5-27.4-1.7-27.4-1.7-.1,16.9-3.5,28.2-9,43.7l53.2,14.3,4.6-.8,8.5-34s19.6,3.7,27.2-.3c5.2-2.7,7.6-8,8.3-13.6.5-5.3-6.1-11.7-4.6-16.7,1.1-3.4,10-1.2,4-12.7-1.3-2.5,3.3-3.2,3.7-5.9.4-3.2-4.9-5.8-2.1-13.5,1.5-4.2,10.1-2.5,11.3-9,2.1-12.3-23.3-18.8-22-31.2.3-2.7,5.7-5.2,6.1-7.8.4-3.1-3.1-3.8-2.8-6.9.8-5.6,8.4-5.9,10.1-11.2s-3.3-16.6-3.3-16.6Z"/><path id="path4231" class="cls-22" d="M279.2,262c-5.9.1-11.5,2-17.6,6.1a23.59,23.59,0,0,0-3.4,3.7s4.5,1.2,6,0c8.9-7.1,31,2.3,35.2-.4,1.4-.8,2.8-3.9,1.3-4.5C292.7,263.8,285.7,261.8,279.2,262Zm15,15.1H293c-6.7.3-12.9,3.7-19.3,7.6,6.4,1.8,12.5,4.6,19.2,2.8l-1.2-1.9a5.31,5.31,0,0,0-.1-4.1c1.5-2.2,3.8-3,6.1-4.2-1.1-.1-2.3-.2-3.5-.2Zm-7,4.9a9.31,9.31,0,0,0,.3,3.7l-5.4-1.5Zm12.8,2.9c-2.4-.1-5,2.8-4.3,5.3,1.7,6.3,2.9,12.4,5.4,19,4.9-6.2,6.9-5,14.8-5.1-5.7-6.7-9.2-12.2-13.8-18.1A2.92,2.92,0,0,0,300,284.9Zm11.3,23.8c-3,0-5.6.9-5,3.1.4,1.9,8.6-1,12.7-.7C317.7,309.6,314.3,308.7,311.3,308.7Zm-1,21.5c-4,.2-7.3,3-14.3,4.4-3.9.7-5.6-.5-5.4,2.3,1.9,1.7,12-.1,18.6-.2a28.73,28.73,0,0,1,4.4.4c-.9-2,2.3-2.8,3.3-4.6a10.17,10.17,0,0,0-6.6-2.3ZM238.4,369c12.2,6.6,26.1,10.2,40.4,12.1l.2-.6s19.6,3.7,27.2-.3a14.6,14.6,0,0,0,6.8-7.5c-16.4,12.2-51,2.2-74.6-3.7Z"/><path id="path4241" class="cls-23" d="M143.3,236s1.9,42.4,1,63.6c-.3,7.7-3.9,15.5-2.5,23.1,1.3,6.6,5.9,12.3,9.5,18.2,2.9,4.8,9.8,14.1,9.8,14.1,7.1-1.1,8.6-1.2,12.6-6.4,4.3,2.2,4.8-.8,7.3-4,.6,2.5,3.8,2.7,7.6,2.1,3.5-6.6,6.7-13.7,11-19.6,4.3,3.6,7.4,3.7,12.8,3.7-7.7-2.8-8.5-5.3-12.2-11.9-2.8-4.8-5.4-4.8-7.3-7.8-7.1-11-7.4-29.7,7-31,8.8-.7,14.6,6,17.1,13.4,1.3,1.8,3.2,1.8,4.3,3.6a56.14,56.14,0,0,1,3,6.9s4-2.8,4.9-5c.3-.8-.2-1.8,0-2.6.4-1.5,2.6-2.5,2.8-4,.2-1.9-2.1-3.6-1.8-5.5.5-2.8,5-3.8,5.5-6.6.2-1.5-2.1-2.8-1.8-4.3s2.7-1.9,3.3-3.2.3-4.3.3-4.3l5.2-4.3,1.5-2.9,15.6-5.5c.1,2,0,3.9-1.5,5.2,1.8-.1,3.7-.3,4.3-1.1l.3,1.4a13.77,13.77,0,0,0,4.3-1.8v1.4a34.62,34.62,0,0,0,5.2-2.1v1.8a15,15,0,0,0,5.8-1.4c-.1.7-.2,1.5-.3,2.3,10.5-2.4,18.5-8.9,24.5-15.1-2.8,5.9-7.3,9-12.6,12.7,4.5-1.7,8.9-3,12.2-6.4-1.4,4-3.4,5.6-7,7.8a53,53,0,0,0,13.1-4.3c-2,2.7-1.7,4.6-1.5,7.8,3.7-4.3,10.1-6.7,15.9-7.2,1.2,0,3.7-13.6,3.7-13.6l-5.5-10.9-177.2,7.2"/><path id="path4243" class="cls-22" d="M199.7,313.2s-6.1-5.8-7.3-9.5a18.39,18.39,0,0,1,1-14,10,10,0,0,1,6.1-5.1c2.8-.6,5.9.7,8.4,2.1,2.3,1.2,4.7,2.9,5.7,5.2.9,2.1-.2,4.3-.3,6.5s-.5,4.3,0,6.4c.3,1.1,1.5,1.9,1.8,3,.4,1.5.8,3.6-.3,5a4.92,4.92,0,0,1-4.9,1.4c-1.6-.5-1.6-3-3-3.7s-3.2.3-4.3-.6c-1.3-1-1.4-2.9-1.4-4.4a12.54,12.54,0,0,1,2.5-7.2c1.1-1.4,3.4-1.7,4.3-3.2.4-.8.8-2.2,0-2.8-1-.7-2.5.3-3.5.8a32.36,32.36,0,0,0-4.9,3.7s-.2-3.5,1.1-4.4c4.2-3.3.5-4.1-1.9-2.8-2.1,1.2-2.9,4-3.2,6.4-.4,3,.9,6,1.8,8.8.8,2.1,2.7,3.7,3,5.9-.2.8-.7,2.5-.7,2.5Z"/><path id="path4257" class="cls-24" d="M154.4,286c46.9-18.2,98.2-15.7,153-24.2,19.3-3,35.6-6.4,44.8-23.1,6.4-11.7-33.8-14.4-33.8-14.4l-7.7-21.1s14-53.4,10.4-63.2c-11.2-31.1-167.2,74.8-167.2,74.8s-28,23.9-34.1,56.6c-1.3,7,12.1,24.7,11.7,25.9-.5,1.8,13.5,8,13.5,8Z"/><path id="path4273" class="cls-25" d="M162.7,352.5c-1.6,0-4.3.4-4.7,3.6-1.9,16.6-2.7,24.6-4.1,36.7l-10,158.3H335.5L287,422.1l-7.1-2.4c1.8-19.6,5.4-21.8,6.7-28.7.4-2.4,1.6-7.2-1.5-8.8-1.7-.8-4.2-2.7-4.8-.4l-1.9,3.9c-2.6,7.7-8.9,9.4-15,10-13.8,1.3-30.6-1.7-41.3-4.3-19.6-5-31-13.9-48.2-24.1-11.1-6.5-2.7-14.9-10.4-14.9a2.81,2.81,0,0,1-.8.1Z"/><path id="path4275" class="cls-26" d="M162,400l-.9,5.5s12.5,12.2,20.1,16.3c10.2,5.6,21.9,8.3,33.3,11a121.35,121.35,0,0,0,18.2,3.1c23.7,1.8,25.9,4.2,43-8.6,2.1-1.7,4.7-3.5,6.6-5l-5-1c-4.2,3.3-9.6,7.3-14.1,8.6-15,4.1-31.7,1.1-47.1-1.7-11.7-2.2-23.4-5.7-33.7-11.5-8-4.1-20.4-16.7-20.4-16.7Z"/><path id="path4279" class="cls-27" d="M161.5,387.9l4-15.5c.3-1.2,2.3-3.3,3.5-3.1,1,.2,2.4,1.1,2.1,2.1s-3.1,1.5-3.3,2.7l-4.2,17.7"/><path id="path4281" class="cls-27" d="M165.6,397.7l5.2-20c.3-1.1,3.2-1.9,3.2-1.9,2.7-1.5,4.4,1.8,1.7,2.7,0,0-2.1.8-2.4,1.7l-6,21"/><path id="path4283" class="cls-27" d="M169.9,403.2l6.4-19a6.16,6.16,0,0,1,3.7-3.7,2.23,2.23,0,0,1,2.1,0,1.93,1.93,0,0,1,.4,1.7c-.5,2-3.7,2.4-4.3,4.3l-6.4,18.6"/><path id="path4285" class="cls-27" d="M176.3,406.8l7.6-20.4c.8-.9,1.6-2.4,2.8-2.4,2,.1,3.9.7,2.7,2.2-.6.7-1.8,1.3-2.5,2.3l-7.4,20.4C178.2,412.6,175.5,409,176.3,406.8Z"/><path id="path4287" class="cls-27" d="M183.1,410.8l7.8-21.3c.8-1,1.6-2.5,2.9-2.5,2,.1,3.9.7,2.8,2.3-.6.8-1.9,1.3-2.5,2.4L186.6,413c-1.5,3.8-4.3.1-3.5-2.2Z"/><path id="path4289" class="cls-27" d="M191.3,414.4l7.8-21.3c.8-1,1.6-2.5,2.9-2.5,2,.1,3.9.7,2.8,2.3-.6.8-1.9,1.3-2.5,2.4l-4.1,11.5"/><path id="path4291" class="cls-27" d="M202.6,411.2l4.9-14.8c.4-1.1,1.6-2.5,2.9-2.5,2,.1,3.2.7,2.1,2.3a11.56,11.56,0,0,0-1.8,2.4"/><path id="path4293" class="cls-27" d="M212.8,410.1l3.4-11.2a3.57,3.57,0,0,1,2.9-2.5c2,.1,2.1.7,2.1,2.3"/><path id="path4305" class="cls-24" d="M286.1,393.8s-5.6,15.4-6.9,23.3a35,35,0,0,0-.4,10.2c4.4,37.5,27.2,103.4,34.2,123H479.6c-5.8-24.2-14.1-48.5-27-72.7l1.7-4.5c-9.5-10-17.6-17.8-25.9-25.7-56.4-22.9-96.2-27.4-124-33.9C296.5,402.1,290,395.4,286.1,393.8Z"/><path id="path4303" class="cls-28" d="M304.3,416.3l60.1,66.1c-22.8-6.8-36.3-16-59.6-13.9,18.7,1.7,29.7,11.1,45.3,20.4l-1.3,61.7"/><path id="path4307" class="cls-28" d="M330.3,444.9c37,2.4,82.2,12.6,117.1,25"/><path id="path4311" class="cls-16" d="M320.8,499.3l-19.6,4.3-44,15.8L255.7,551H370.3l-2.1-16.1-47.4-35.6Z"/><path id="path4295" class="cls-24" d="M158.3,366.1c-14.7,3.6-18.7,23.8-30.3,38.4-31,11.9-71.2,18.8-100.6,30.6V551l198.9,3.2c-21.5-61.5-55.5-122.8-65.7-161.6-2.7-10.3-3.4-19.4-2.3-26.5Z"/><path id="path4297" class="cls-28" d="M127.1,406.9l-10.9,83.4,36.3-10.2-18.2,27.8,38.4,42.9"/><path id="path4299" class="cls-28" d="M33,462.3c32.6-14.2,60.9-17.4,91.1-32.2"/><path id="path4245" class="cls-29" d="M144.9,269.7c-2.9,5,3.8,21.1,3.8,21.1l175.2-66-12.4-24.7s-71.1,16.1-119.4,43.2C172.1,254.7,151.5,258.1,144.9,269.7Z"/><path id="path4313" class="cls-11" d="M309.9,501.8l-20.6,10.1,24.5-2.7,16.3,27.9,5.5,14.8h42.9l-3.2-19.5-45.6-29.6-19.8-1Z"/><path class="cls-30" d="M320,224.7c-30.1,3.8-70.5,25.7-70.5,25.7l-53.8,23.1,60.4-5.3s55.4-3.4,73.1-9c4.6-1.4,13-6.9,16.8-10.1,3.4-2.9,10.1-11.8,8.6-16.1C351.5,224.1,328.8,223.6,320,224.7Z"/><path id="path4315" class="cls-6" d="M313.8,498.8l-19.1,6.3,21.3,2.4,30.5,44.4,43.4-.9-2-18.5-51.2-32.9-22.9-.8Z"/><path id="path4317" class="cls-11" d="M322.1,499.6c-4.9,0-13.8,1-13.8,1l-14.5,5.7,23.8-.4,33.1,46h49.6l-3.4-33.6c.1,0-69.8-18.7-74.8-18.7Z"/><path id="path4319" class="cls-6" d="M324.1,499.5l-17.4,2-12.9,4.6,25.9-2.7,33.9,37.9L360,552h59.1l-8.6-24.6-86.4-27.9Z"/><path id="path4321" class="cls-11" d="M324.6,497.9c-6.8,0-12,1.2-18.3,1.7L293.2,505l27.1-5.1,39.4,39,7.8,12.1,174.1,1.4v-1.8l-24.5-11.5c-25.1-6-50.3-12.3-75-19.8L397,509.6l-58-10.1a57.36,57.36,0,0,0-14.4-1.6Z"/><path id="path4325" class="cls-21" d="M280.9,493.8h-1.6c-11.2.5-20.8,7.9-31.6,11-4.7,1.3-10,1-14.3,3.3a17.73,17.73,0,0,0-5.6,5.3c-2.5,3.2-3.1,7.4-5.6,10.6-4.5,5.9-11,10.1-16.4,15.2-5,4.6-14.7,13.2-15.6,13.9H337.8c-.8-.6-1.6-1.2-2.7-2s.3-1.8.3-1.8c11.8-3,11.2-12.9,5-15.9-5.2-2.6-8.3-5-13-6.1-5.6-1.4-11.6-.5-17.3-1.2-8.3-1-16.3-4.1-24.6-4.5-3.9-.1-11.7,1.2-11.7,1.2s5.7-3.7,9-4.1c4.4-.4,9,1.7,13.4,2.1,4.6.4,6.7,1.2,11.3,1.7,5,.5,16.9,2.1,16.9,2.1,11.8-3.1,9.3-17.8-6-22.5-7.8-2.4-10.1-1-15.1-2.1-7.5-1.6-14.7-6-22.4-6.2Z"/><path id="path4327" class="cls-31" d="M280.2,493.5h-1.6c-9.8.7-16,6.4-25.5,9-4.7,1.2-12.2,1.4-16,4.5s-4.8,9.1-4.3,13.9c.3,2.9,4.1,4.8,4.3,7.7.3,4.3-4.8,7.9-4.3,12.3.3,2.8,2.7,6.5,4.9,9.4h16.1a11.5,11.5,0,0,1,3.7-4.1c1.5-.8,3.4-.3,5.2-.4,4.2-.3,8.5.1,12.6-.8s8.7-2.1,11.7-5c1.5-1.4,2.6-5.7,2.6-5.7a34.68,34.68,0,0,0,5.6,3.7,47.64,47.64,0,0,0,13.4,3.7c4.4.6,13.4,0,13.4,0s-2.9-5.3-3-8.2c-.1-1.7,1.3-5,1.3-5a52.22,52.22,0,0,0-5.2-1.7c-3.9-.6-7.8.5-11.7,0-5.6-.7-10.7-4-16.4-4.1-4.6-.1-8.8,2.4-13.4,2.9-3.8.4-7.5,0-11.3,0-2.3,0-4.6.4-6.9,0a29.23,29.23,0,0,1-5.6-2.1s3.5-2.7,5.6-3.3,4.4.5,6.4,0c2.5-.5,4.6-2.1,6.9-3.3,4.1-2.2,10-3,12.1-6.9.9-1.7.1-4.7-.4-6.5.6,1.8,1.8,4.6,3.4,5.7,4,2.5,9.5.9,14.3,1.2,3.3.2,6.8,1.4,10,.4,1.6-.5,3.9-3.3,3.9-3.3s.9,3.8,2.1,5.3,3.2,3.2,5.2,2.9,2.1-3.5,3.9-4.5,6.4-.8,6.4-.8a24.15,24.15,0,0,0-4.3-2.1,5.11,5.11,0,0,0-3,0c-1.6.7-3.4,3.7-3.4,3.7s-.5-3.3.4-4.5c1.5-1.8,6.9-2.1,6.9-2.1s-7.3-3.5-11.3-4.5c-3.8-.9-7.8-.5-11.7-1.2-7.7-1.1-15-6.1-23-6.2Z"/><path class="cls-32" d="M124.9,281.6c0-30.7,43.2-65.4,72-83.7,22.9-14.5,89.9-58.1,122.2-58.1"/><polygon class="cls-8" points="320.5 157.1 313 172.5 294.6 172.5 308.5 179.1 304.3 190 315.4 183.7 320.5 157.1"/></g></g></svg>