<?xml version="1.0" encoding="utf-8"?>
<!-- Generator: Adobe Illustrator 21.1.0, SVG Export Plug-In . SVG Version: 6.00 Build 0)  -->
<svg version="1.1" id="Layer_1" xmlns="http://www.w3.org/2000/svg" xmlns:xlink="http://www.w3.org/1999/xlink" x="0px" y="0px"
	 viewBox="0 0 1280 1024" style="enable-background:new 0 0 1280 1024;" xml:space="preserve">
<style type="text/css">
	.st0{fill:#527993;}
	.st1{fill:#8E4A4A;}
	.st2{fill:none;stroke:#527993;stroke-width:3;stroke-miterlimit:10;}
	.st3{fill:none;stroke:#8E4A4A;stroke-width:3;stroke-miterlimit:10;}
	.st4{opacity:0.54;fill:#8E6632;stroke:#000000;stroke-width:0.75;stroke-miterlimit:10;enable-background:new    ;}
</style>
<g>
	<polygon class="st0" points="0,1024 0,0 1083,0 148,1024 	"/>
	<g>
		<polygon class="st1" points="148,1024 1280,1024 1280,0 1083,0 		"/>
	</g>
	<line class="st2" x1="1096" y1="0" x2="768" y2="363"/>
	<line class="st3" x1="494.3" y1="628" x2="135" y2="1020"/>
</g>
<path class="st4" d="M633.7,355.9c-67.8,0-122.7,55-122.7,122.7s55,122.7,122.7,122.7s122.7-55,122.7-122.7S701.5,355.9,633.7,355.9
	z M633.7,606.9c-70.8,0-128.3-57.4-128.3-128.3s57.4-128.3,128.3-128.3S762,407.8,762,478.6S704.5,606.9,633.7,606.9z"/>
<polygon class="st4" points="715.6,492.1 715.6,550.8 558.9,550.8 558.9,492.1 637.3,515.2 "/>
<path class="st4" d="M709.9,454.7c0,1.9-1.6,3.5-3.5,3.5H568.1c-1.9,0-3.5-1.6-3.5-3.5s1.6-3.5,3.5-3.5h16.5l18.1-63.4l34.5,23
	l34.5-13.8l20.3,54.2h14.3C708.3,451.3,709.9,452.8,709.9,454.7z"/>
<path class="st4" d="M686.9,475.9c0,6.9-5.7,12.7-12.7,12.7c-5.8,0-10.7-3.9-12.2-9.2h-13.2c-1.9,0-3.5-1.6-3.5-3.5s1.6-3.5,3.5-3.5
	h34.5C685.3,472.5,686.9,474,686.9,475.9z"/>
<path class="st4" d="M629.2,475.5c0,6.9-5.7,12.7-12.7,12.7c-5.8,0-10.7-3.9-12.2-9.2h-13.2c-1.9,0-3.5-1.6-3.5-3.5
	c0-1.9,1.6-3.5,3.5-3.5h34.5C627.7,472,629.2,473.6,629.2,475.5z"/>
<path class="st4" d="M746.1,673.7c7.2,0,11-4.3,11-11.8c0-5.7-1.9-9.5-8-14.9c-4.8-4.2-6.3-6.7-6.3-10c0-3.2,1.3-4.5,3.6-4.5
	c2.3,0,3.6,1.3,3.6,4.6v2.4h6.9v-1.9c0-7.4-3.5-11.7-10.6-11.7c-7.1,0-10.9,4.3-10.9,11.6c0,5.3,2,9.1,8.1,14.5
	c4.8,4.2,6.2,6.7,6.2,10.5c0,3.5-1.5,4.6-3.8,4.6c-2.3,0-3.8-1.2-3.8-4.5v-3.2h-6.9v2.6C735.4,669.4,739,673.7,746.1,673.7z"/>
<polygon class="st4" points="712.5,673 732.4,673 732.4,666.4 719.8,666.4 719.8,652.1 729.8,652.1 729.8,645.4 719.8,645.4 
	719.8,633.2 732.4,633.2 732.4,626.6 712.5,626.6 "/>
<polygon class="st4" points="676.7,673 683.1,673 683.1,637.8 683.2,637.8 688.6,673 694.7,673 700,637.8 700.1,637.8 700.1,673 
	707,673 707,626.6 696.6,626.6 692,659.8 691.8,659.8 687.1,626.6 676.7,626.6 "/>
<path class="st4" d="M655.8,626.6h9.9l7.6,46.5h-7.3l-1.3-9.2v0.1h-8.3l-1.3,9.1h-6.7L655.8,626.6z M663.7,657.6l-3.3-23h-0.1
	l-3.2,23H663.7z"/>
<polygon class="st4" points="621.8,673 628.3,673 628.3,639 628.4,639 637.2,673 644.7,673 644.7,626.6 638.2,626.6 638.2,654.4 
	638.1,654.4 631,626.6 621.8,626.6 "/>
<polygon class="st4" points="597.7,673 617.6,673 617.6,666.4 605,666.4 605,652.1 615,652.1 615,645.4 605,645.4 605,633.2 
	617.6,633.2 617.6,626.6 597.7,626.6 "/>
<path class="st4" d="M570.8,626.6h11.1c7.3,0,10.9,4,10.9,11.5v23.5c0,7.4-3.6,11.5-10.9,11.5h-11.1V626.6z M581.8,666.4
	c2.3,0,3.7-1.2,3.7-4.5v-24.2c0-3.3-1.4-4.5-3.7-4.5h-3.7v33.2L581.8,666.4L581.8,666.4z"/>
<path class="st4" d="M543.7,662v-24.4c0-7.4,3.9-11.7,11.1-11.7s11.1,4.3,11.1,11.7V662c0,7.4-3.9,11.7-11.1,11.7
	S543.7,669.4,543.7,662z M558.6,662.5v-25.3c0-3.3-1.5-4.6-3.8-4.6c-2.3,0-3.8,1.3-3.8,4.6v25.3c0,3.3,1.5,4.6,3.8,4.6
	C557.1,667,558.6,665.8,558.6,662.5z"/>
<path class="st4" d="M529,673.7c7,0,10.8-4.3,10.8-11.4v-6.6h-6.9v7.1c0,3-1.5,4.3-3.6,4.3c-2.2,0-3.6-1.2-3.6-4.3v-25.9
	c0-3,1.5-4.3,3.6-4.3c2.2,0,3.6,1.3,3.6,4.3v5.4h6.9v-4.9c0-7.2-3.7-11.4-10.8-11.4c-7,0-10.8,4.3-10.8,11.4v25
	C518.2,669.4,522,673.7,529,673.7z"/>
</svg>
