<svg xmlns="http://www.w3.org/2000/svg" viewBox="0 0 715.3 574"><defs><style>.cls-1{fill:#a0a0a0;}.cls-2{fill:#9c6456;}.cls-3{fill:#e8d3b0;}.cls-4{fill:#e0ce6b;}.cls-5{fill:#f4dfd7;}.cls-6{fill:#4c4238;}</style></defs><title>Asset 4</title><g id="Layer_2" data-name="Layer 2"><g id="svg8"><g id="layer1"><rect id="rect888" width="715.3" height="574"/></g><rect id="rect3240" class="cls-1" x="30" y="26.5" width="660" height="525"/><path id="path14253" class="cls-2" d="M31.3,547.2l-.9-73.1,30.8-12.2,52.4-18.7,45.9-19.7,23.4-26.2L358,430.1l22.5,17.8L408.6,461l45,20.6,27.2,6.6L507,501.3l20.6,15,15,27.2Z"/><path id="path14255" class="cls-3" d="M214.8,547.2l-22.4-50.6L184,440.4l-.9-31.8,168.6,39.3,7.5,26.2,4.7,45.9.9,25.3Z"/><path id="path14257" class="cls-4" d="M289.8,547.2l-7.5-46.8,23.4-3.7,10.3,14v33.7Z"/><path id="path14259" class="cls-5" d="M183,405.7l-2.8-52.4L168,344.9v-14L160.5,315l-4.7-28.1L151.1,270l121.8,1.9,52.4,4.7,58.1.9-11.2,34.6.9,35.6L366.5,373l-5.6,43.1L344,455.4l-11.2,16.9-25.3,22.5-24.4,2.8-49.6-24.4-32.8-32.8Z"/><path id="path14261" class="cls-6" d="M122.1,243.7l47.8-2.8,12.2-87.1,27.2-30.9,25.3-21.5,29-11.2,44,15.9L331,93.9l20.6,1.9,12.2,32.8,7.5,59,8.4,44,32.8,6.6,34.7,12.2,23.4,15-12.2,11.2-133-2.8-99.3-1.9-97.4-6.6L95,262.5l-9.4-10.3,23.4-6.6Z"/><path id="path14237" d="M218.3,114.7c0,.3-8.3,8.8-18.5,18.9-32.1,32.1-36.5,43.5-37.5,98.2l-.2,10.6-7.9.3c-18.2.8-58.3,7.1-66,10.4-5.6,2.4-.9,2.3,9.6-.2a66.43,66.43,0,0,1,9.2-1.8,9.42,9.42,0,0,0,3.3-.8c1.3-.6,2.7-.7,3.1-.3s1.9.2,3.2-.5c1.8-1,2.5-.9,2.5.3s.4,1.3,1.6,0c2.3-2.3,3.8-1.9,2.7.7-.7,1.8-.3,1.8,2.1-.5,3.1-2.9,12.5-4.3,9.6-1.5a5.18,5.18,0,0,0-1.5,2.8c0,.7,1.1-.1,2.5-1.7,2-2.3,4.4-3,10.9-3.5a93.89,93.89,0,0,0,11.3-1.3c1.6-.4,3-.2,3,.5,0,1.5-14.5,5.6-16.2,4.6-.8-.5-.9-.2-.4.7s.1,1.5-1.1,1.5-2.1.6-2.1,1.4,1,1.1,2.3.7,5-1.4,8.3-2.3l6.6-1.8c.4-.1,3-.6,5.9-1.2s7.7-1.5,10.6-2.1,9.1-1.5,13.9-2c14.7-1.4,19.2-1.8,19.2-2.1s6.3-1.1,17.7-1.8c6.1-.4,12-1,13.2-1.3,7.5-2.3,118.7-3.5,137.5-1.5,18.5,2,23.6,3,25.9,5.3s5.8,2.7,5.8.8c0-.7,1.6-.8,3.6-.2s3.5,1.6,3.4,2.3,1.6,1,3.8.7c3-.4,3.8-.2,3.1,1s-.3,1.4,1.7.8a4.61,4.61,0,0,1,4.5,1c1,1,2.5,1.6,3.4,1.3s1.6.5,1.6,1.7c0,1.8.4,1.9,1.9.7s3.2-.9,7.9,1.3c3.3,1.6,5.8,3.3,5.4,3.9s.1,1,1,1c4.8-.2,6.5.5,5.8,2.3-.5,1.3-.1,1.7,1.5,1.2s1.3.2-.9,2c-2.7,2.4-4.9,2.8-15.8,2.9-7,.1-20,.3-28.9.6-11.9.4-16.2.1-16.2-1.1s-.3-1.1-1-.1c-1.2,1.7-.6,1.7-46.5,1.8-37.1.1-60.6-.5-83.7-2-8.7-.6-12.7-.4-12.2.5,1.5,2.4-17.4,1.6-19.8-.8-1.7-1.7-2.3-1.7-3.1-.4s-5.9,1.5-23.3.8c-12.3-.5-25.1-1.1-28.5-1.4s-15-.8-25.8-1.3c-19.3-.8-26.9-1.3-46.8-2.8-10.1-.8-11.1-1.5-8.5-5.7.9-1.5.4-1.7-2.7-.9a54.05,54.05,0,0,1-6.1,1.1c-3.1.3-3,.5,2,5.5,12.7,12.6,28.9,19.1,53.2,21.2,10.4.9,10.7,1,12.4,5.1.9,2.3,2.1,9.6,2.6,16.3.8,10.6,1.5,13,5.3,19.2,3.4,5.5,4.6,9,5.3,16.1.7,7.6,1.4,9.6,4.3,12.1a25.87,25.87,0,0,0,5.2,3.6c1.3.4,1.9,5.2,2.2,18.7.4,15.6.1,18.6-1.9,21.7-3.6,5.6-15.1,18.9-21.4,24.8-6.5,6.1-31.8,19.2-52.1,26.9-7.4,2.8-22.5,8.5-33.4,12.6-30.8,11.6-34.1,13-37.5,15.3l-3.1,2.2-.6,36.4-.4,36.5,4.4.4c2.4.2,11.5.3,20.2.2s89.3-.6,179-1c239.5-1.2,310.8-1.9,312-3.1.6-.6-.1-4.3-1.7-8.3-5.1-13.3-19.1-27.8-34.1-35.2-5.5-2.7-12.8-6.6-16-8.5-6.4-3.8-17.4-7.9-36.3-13.7-25.7-7.9-78.1-32.5-87.3-41.1a85.1,85.1,0,0,0-8.5-7.1l-3.1-2.1,2.8-8.5c3.1-9.3,3.9-13.2,5-23,2-18.1,4.8-31.3,7.8-37,2.4-4.6,2.8-7.4,2.7-22.5-.1-10.5-.7-18.3-1.7-20.1-1.3-2.4-1-4.2,1.8-10.5,1.9-4.2,3.1-8.8,2.8-10.3-.5-2.6-.6-2.6-1.5.3-.5,1.6-1.4,3-2,3s-2,2.2-3.2,5c-2,4.4-2.1,6.8-.8,20.8,1.5,17.1.5,26.3-4,35.1-2.7,5.3-4.7,15.7-5.9,30.3-1.1,13.8-1.9,18.3-4,24.8a45.45,45.45,0,0,0-1.9,7.1,22.35,22.35,0,0,1-1.8,5.6c-1,2.3-2.6,6.5-3.5,9.4s-4.9,10.1-8.8,16.1-7.1,11.3-7.1,11.9c-.1,2.2-5.1,7.1-8.7,8.5-4,1.6-38.5,2.8-40.7,1.4a13.38,13.38,0,0,0-3.7-1.2c-3.2-.5-20.4-9.2-21.4-10.9-.4-.7-3-2.3-5.7-3.6-12.3-5.7-36.7-21.8-41.5-27.5-3.7-4.4-11.2-20.8-12.1-26.5-.5-2.9-1.7-11.8-2.8-19.8-2.4-17.9-4.7-28.4-6.1-28.4s-1.4.9.1,6.6a96.86,96.86,0,0,1,2,13.9c.4,5.1,1.7,15.1,2.7,22.3a79.24,79.24,0,0,0,17.1,39.1c29.2,35.6,31.1,39.4,11.4,22.4-9.6-8.2-22-24.3-29.1-37.6-2.3-4.4-4.7-8.8-5.4-9.9-4.9-8.3-6.3-14.5-6.9-31.3-.4-10.3-.1-17.2.6-16.7,2.1,1.3,5-2.3,5-6,0-4.2-2.8-7.3-9.2-10.4-2.5-1.2-4.4-2.8-4.2-3.5s-.8-1.7-2.3-2.3c-2.2-.8-2.7-2.2-2.7-6.5,0-4.7.3-5.3,2-3.8,2.9,2.4,2.6-1.4-.4-4.7a82,82,0,0,1-6.6-9.3c-3.7-5.8-4.3-7.9-4.3-15.5a49,49,0,0,0-2.7-16.1c-4.2-11.1-1.9-17.3,5.9-16.1,4.1.6,8.3,5.7,13.6,16.2,2.7,5.5,6.3,11,7.9,12.3s2.6,2.6,2.3,3,.9,1.1,2.8,1.6,3.8.6,4.2.2-.3-.7-1.5-.7c-2.5,0-2.5-.2-1.4-3.2a3.24,3.24,0,0,1,2.6-2.1c1,0,1.8-.2,1.8-.6a15.75,15.75,0,0,1,.9-2.9c.6-1.5.4-2-.6-1.4a1.55,1.55,0,0,1-2.2-.3c-.8-1.3,2.2-2.8,5.7-2.8,1.3,0,3.4-1.2,4.7-2.6s3.2-2.6,4.1-2.6a3.72,3.72,0,0,0,2.5-1.2c.5-.7-1.2-.9-4.1-.5-3.5.6-4.6.4-3.9-.7.5-.8,2.7-1.5,4.8-1.5a10.46,10.46,0,0,0,6.8-2.9c2.6-2.6,4.6-3,16.8-3.5,31.5-1.2,34.5-1,43.2,2.6,5.6,2.3,8.6,3,9.5,2s3.6-.8,8.5.2a88,88,0,0,0,16.2,1.6c14.2-.1,42.4-1.2,53-2.1,11.6-1,16.6,1.2,15.9,7-.3,2.8.2,3.6,2.8,4.3,8,1.9,41.3-3.6,60.6-10,21.7-7.2,34.4-15.1,24.3-15.1-2.4,0-4.2-.8-4.7-2.1-.7-1.7-.1-1.9,3.2-1.2,2.2.5,4,.6,4,.3,0-1.2-15.5-10.1-26.4-15.2-9.7-4.6-25.8-10.5-30.8-11.4-19.8-3.5-28.3-5.5-29.4-6.9-1.3-1.5-3.4-11.6-5.1-23.6-.3-2.2-1.2-8.1-2.1-13.2-5.1-30.7-7.9-49.8-7.9-53a78.93,78.93,0,0,0-2-12.3c-8.6-36.9-17.3-42.3-48.4-30.2l-10.2,4-11.1-4.8c-6.1-2.6-12.1-4.8-13.3-4.8l-14.9-3.2c-11.5.3-25.4,5-36.9,12.5l-12.4,10.3ZM264.8,97c6.4.2,17.8,2.8,20.4,4.9,2.8,2.3,23.6,8.9,24.3,7.7.4-.6,2.7-1.5,5.2-1.9s4.9-1.2,5.2-1.7c1.2-1.6,10.6-5.5,13.3-5.5,1.4,0,2.6-.7,2.6-1.7s.9-.5,2,.9,1.9,1.9,1.9,1a1.56,1.56,0,0,1,1.5-1.6c.8,0,1.1.8.8,1.8s0,1.8.8,1.8c4.9-.1,6.3,1,9.5,7.6,1.9,4,3.1,7.9,2.5,8.8-.7,1.1-.4,1.2.8.5s1.5-.5.9,1c-.4,1.2-.3,2.3.4,2.5s1.4,3.2,1.6,6.7.9,6.3,1.5,6.3.8.8.5,1.7.2,4,1.2,6.8c2.2,6.4,2.3,12.3.1,13.2-1,.4-.8.7.6.8,2.3.1,4.7,8.6,5.7,20.3a65.23,65.23,0,0,0,1.4,8.8c.8,2.8.6,3.1-1.6,2.2-4.9-2-34-4.9-49.6-5-4.6,0-15,.4-23,.9s-17.8,1.1-21.8,1.3-13.5,1.7-21.2,3.2-15.7,3-17.8,3.3a33.1,33.1,0,0,0-7.2,1.9c-1.8.7-6.9,2.4-11.2,3.7s-12.2,3.9-17.4,5.9l-9.5,3.5,2.1-3.1c1.8-2.8,2.6-3.3,5.1-3.1a8.55,8.55,0,0,0,2.8-2c3.6-3.6.6-4.1-5-.8-7.3,4.2-7.6,3-.4-1.8,3.2-2.2,5.9-4.4,5.9-5,0-1.1-.3-1-8.6,4.2-5.7,3.5-5.4,2.7,1.9-5.6,3.1-3.5,3.1-3.7.5-2.3a11,11,0,0,0-3.7,2.8,3,3,0,0,1-2.3,1.3c-.8,0-.5-1.1.7-2.4s2.2-3,2.2-3.8.9-2.1,2-3.1,1.7-2,1.3-2.4-1.9.4-3.3,1.7c-2.3,2-2.7,2.1-2.7.3,0-1.1,1.8-3.6,4-5.4,4.8-4,5.2-5.7.7-2.7-4.2,2.8-4.2,1.3.1-3.7,4.1-4.9,3.1-6.6-1.4-2.3-4.9,4.6-5.6,2.1-.8-2.7,5.3-5.3,5.4-8.3.2-3.3-5.4,5.2-6.8,3-1.6-2.4,5-5.1,5.7-8.1.9-3.5-1.8,1.7-3.3,2.7-3.3,2.2s1.5-2.6,3.3-4.5c3.7-4,4.5-6.9,1.1-4.1-1.2,1-.5-.9,1.5-4.1s4.4-6.3,5.2-6.8a76.18,76.18,0,0,0,6.2-5.3c25.9-24,37-32.8,41.5-32.8a6.52,6.52,0,0,0,4.1-1.4c1.4-1.4,4.5-2.2,12.9-3.3A4.29,4.29,0,0,1,264.8,97Zm-1.9,6a22,22,0,0,0-9.3,2.2c-4.4,2.2-11.5,8.3-11.5,9.8,0,.5,3.6.8,8,.7,7.3-.1,8.3.2,11.2,3.6a13.1,13.1,0,0,1,3.2,7.3c0,4.2-5.7,16.6-9.7,21-3.2,3.5-12.5,8.6-14.1,7.6-.6-.4-1.3-.1-1.6.7s-4.8,2.1-10,3c-8.6,1.5-9.4,1.8-7.5,3.7s3.4,1.8,13.5.3c6.3-1,13.8-2,16.5-2.4,5.6-.8,17.6-5.5,20.8-8.2a7,7,0,0,1,3.4-1.8c5.1,0,17.3-19.9,15.6-25.5-1.3-4.4-6-11.8-9.7-15.3-4.4-4.2-11.1-6.6-17.5-6.8a4.89,4.89,0,0,1-1.3.1Zm-6.9,4.5a.6.6,0,0,1,.4.1c.4.4,0,1.5-.9,2.4-1.3,1.3-1.5,1.1-.7-.7.3-1,.8-1.7,1.2-1.8Zm79.7,1.2a16.38,16.38,0,0,0-4.4.9c-8.8,2.9-13.2,13.9-9.3,23.2,2.7,6.5,15.1,18.5,20.8,20.2,9.4,2.7,15.3.6,7.3-2.5-5.6-2.2-8.6-4.8-12.4-10.8-5.1-8-3.6-14.5,3.1-13.4,7,1.1,9.3-7.8,3.4-13.3C340.8,109.9,338.6,108.6,335.7,108.7Zm-58,3.1a.6.6,0,0,1,.4.1c.7.4-.7,2-3.2,3.4s-4.6,3.2-4.8,3.8a2.15,2.15,0,0,1-2,1.1c-.9,0,.8-2.1,3.6-4.6,2.5-2.2,5-3.8,6-3.8Zm-11,.8c.2.1,0,.5-.3,1.5-.5,1.2-1.4,2.2-2,2.2-1.7,0-1.5-.8.8-2.7A6.35,6.35,0,0,1,266.7,112.6Zm16.1,5.6a.94.94,0,0,1,.8.6c.9,1.4-6.6,6.7-9.5,6.7-.9,0-1.7.6-1.7,1.3a1.32,1.32,0,0,1-1.3,1.3c-2.8,0-1.1-2.7,3-4.7a35.15,35.15,0,0,0,6.5-4.1A3.69,3.69,0,0,1,282.8,118.2Zm43.1,70.5a18.72,18.72,0,0,1,5.9,1c3,.9,3,1.1.8,2.7s-2.2,1.8-.2,2.6a6.72,6.72,0,0,0,4.2.1c1.1-.4,2-.3,2,.3s-1.6,1.7-3.6,2.5l-3.6,1.4,3.7.1c4.3.2,3.6,2.7-.8,2.9-2.8.1-2.8.1-.3,1.2a6,6,0,0,0,3.8.4c.7-.4.8,0,.2.8s-1.4,1.3-1.9,1-2.1-.1-3.5.5c-2.5,1-2.5,1.1.7,2.4,2.5,1,2.7,1.4.9,1.5-1.3,0-2,.7-1.6,1.4a1.64,1.64,0,0,0,2.1.6c.7-.4,1.2-.1,1.2.6s-1.2,1.4-2.6,1.4-2.6.6-2.6,1.3a1.32,1.32,0,0,0,1.3,1.3,1.35,1.35,0,0,1,1.3,1.4c0,.8-.7,1-1.5.5s-1.2-.4-.6.6c.5.8,2.8,1.6,5.2,1.6l4.2.1-3.8,1.7c-2.6,1.2-3.3,1.9-2,2.4,1.6.6,1.5,1-.1,2.3s-1.1,1.4,2.2,1c2.3-.3,3.9,0,3.6.6A3.27,3.27,0,0,1,338,230a2.5,2.5,0,0,0-2.3,1.4c-.3.8-2.7,1.6-5.5,1.9-4.2.4-4.7.2-3.4-1.4s.9-1.9-1.6-1.9-2.7-.3-1.2-1.3,1.3-1.3-1.3-1.4c-3.3-.1-3.3-.1-.4-1.5,3.7-1.8,3.4-8.5-.4-8-2.1.3-2.1,0,.5-1.8,3.3-2.4,4-5.2,1-4-2.3.9-2.7-1.2-.5-2.5,1-.6.9-1.3-.3-2.2-1.4-1-1.4-1.4-.1-1.9,2.4-1,2-3.2-.3-2.2-2.6,1-2.5-.7.1-3.6,1.9-2.2,1.9-2.3-.7-1.6-2,.5-2.8.1-2.8-1.6,0-1.5.7-2,2-1.5,2.7,1,2.5-1.4-.1-2.9-1.9-1.1-1.9-1.3.3-2.2a8.88,8.88,0,0,1,4.9-1.1Zm39.9,5.9c.2,0,.3.1.5.2.7.4,1.3,1.1,1.3,1.4s-.6.6-1.3.6a1.35,1.35,0,0,1-1.3-1.4A.74.74,0,0,1,365.8,194.6Zm5.7,9a1.25,1.25,0,0,1,1.1.4c.4.4-.3.8-1.7.7s-1.9-.4-.8-.8A3.19,3.19,0,0,1,371.5,203.6Zm-5.3,4a1.25,1.25,0,0,1,1.1.4c.4.4-.3.8-1.7.7s-1.9-.4-.8-.8A1.74,1.74,0,0,1,366.2,207.6Zm-25.1,1.3a1.25,1.25,0,0,1,1.1.4c.4.4-.3.8-1.7.7s-1.9-.4-.8-.8A2.23,2.23,0,0,1,341.1,208.9Zm31.7,2.6a1.25,1.25,0,0,1,1.1.4c.4.4-.3.8-1.7.7s-1.9-.4-.8-.8A3.19,3.19,0,0,1,372.8,211.5Zm.2,3.8a1.24,1.24,0,0,1,1.2,1.3c0,.7-.9,1.3-2.1,1.3s-1.7-.6-1.2-1.3A2.84,2.84,0,0,1,373,215.3Zm-36.4,1.3c1.1,0,2,.2,2,.5s-.9.9-2,1.3-2,.2-2-.5S335.5,216.6,336.6,216.6ZM101.7,254a4,4,0,0,0-1.3.4,3.46,3.46,0,0,0-2.2,2.7c0,1,1.2,1.8,2.6,1.8s2.6-.7,2.6-1.5-1-1.1-2.2-.6c-1.8.7-1.9.5-.5-1.2C101.7,254.5,102,254.1,101.7,254Zm-10.9,3.6c1.1,0,2.1.6,2.1,1.3a1.31,1.31,0,0,1-1.2,1.3,3,3,0,0,1-2.1-1.3C89.1,258.2,89.7,257.6,90.8,257.6Zm133.4,6.9c-1.8,0-3.5.4-3.8.9s.9,1,2.6,1.1,3.5-.2,3.8-.9S226.1,264.5,224.2,264.5Zm15.2,1c-3.7,0-6.4.4-6.1,1,.8,1.3,12.8,1.3,12.8,0,0-.5-3-1-6.7-1Zm10.1,0c-.3,0-1,.6-1.4,1.3s-.2,1.3.6,1.3a1.35,1.35,0,0,0,1.4-1.3C250,266.1,249.8,265.5,249.5,265.5Zm5.9,2.7c.8,0,1,.6.6,1.3s-1.1,1.3-1.4,1.3-.6-.6-.6-1.3A1.29,1.29,0,0,1,255.4,268.2Zm200.7,0a1.3,1.3,0,1,1-1.3,1.3A1.26,1.26,0,0,1,456.1,268.2Zm-195.6.1a1.25,1.25,0,0,1,1.1.4c.4.4-.3.8-1.7.7s-1.9-.4-.8-.8A3.19,3.19,0,0,1,260.5,268.3Zm8,1.3a8,8,0,0,1,2.3.3c1.3.3.2.6-2.3.6s-3.6-.3-2.3-.6A8.53,8.53,0,0,1,268.5,269.6Zm182.3.3c1.2.1.7.3-1.3.8-6.5,1.6-22.5,2.4-22.5,1.1,0-.6,1.9-1.1,4.3-1.1s8.5-.3,13.5-.6c1.7-.1,3.1-.2,4.2-.2Zm-118.1,1.4c.2,0,.3.1.5.2.7.4,1.3,1.1,1.3,1.4s-.6.6-1.3.6a1.35,1.35,0,0,1-1.3-1.4C331.9,271.5,332.3,271.2,332.7,271.3Zm7.9.1c.9,0,1.9.6,1.9,1.4,0,.3-.9.6-2.1.6s-1.7-.6-1.2-1.3A1.51,1.51,0,0,1,340.6,271.4Zm-21.9.1a7.92,7.92,0,0,1,2.9.6c2.7,1.1,2.4,1.2-2.2,1.3-4,0-4.8-.3-3.1-1.2A4,4,0,0,1,318.7,271.5Zm98.8.2c4.1.1,7.4.3,7.7.7.4.6-5.1,1-12.2,1s-12.5-.3-12.1-.7C401.6,272,410.7,271.6,417.5,271.7Zm-22.3.6a8.52,8.52,0,0,1,2.5.3c1.3.3-.1.6-3,.6s-3.9-.3-2.3-.6A8.32,8.32,0,0,1,395.2,272.3Zm-117.9,6.1h.7a18.16,18.16,0,0,1,3.1.7c2.5.8,4.6,1.9,4.6,2.5,0,1.5-2.6,1.2-6.3-.5-3-1.5-3.6-2.6-2.1-2.7Zm-21.7,3.7c-9.9.1-10.6.3-16.3,5-3.3,2.7-6.8,4.9-7.8,4.9-2,0-6.5,3.1-6.5,4.4,0,1.9,5.7.6,15.8-3.8,5.9-2.5,11.6-4.6,12.5-4.6,3.3,0,15.9,4.5,19.4,6.8,1.9,1.3,4.4,2.4,5.4,2.4a4.62,4.62,0,0,1,2.9,1,19.18,19.18,0,0,0,5.2,2.5,30.35,30.35,0,0,0,7.9,1.7c5.1.1,12.8-3.3,12.8-5.7,0-1.7-.4-1.7-3.6-.1-5.2,2.7-8,2.4-13-1.4-2.4-1.8-5.5-3.3-7-3.3a4.4,4.4,0,0,1-3.5-1.4,9,9,0,0,0-4.1-2.6c-1.8-.7-2.9-1.8-2.4-2.5s-.1-1-1.2-.5-2.1.1-2.1-.8c0-1.3-.4-1.3-2,0s-2,1.3-2-.2-2.5-1.9-10.4-1.8Zm-96,.6c-1.3,0-.8,2.8,1.5,7.5,1.9,4.1,2.6,4.5,6,3.9s4.2-.1,7.4,5.2c4,6.6,5.5,7.5,4.6,2.6C178,296.1,164.4,282.7,159.6,282.7ZM372.5,287a68,68,0,0,0-18,3.1,123.32,123.32,0,0,0-13,5.3c-4.2,2-8.5,3.1-10.4,2.8-4.2-.8-3.4,2,.9,3.1,3.3.9,7,.5,13.9-1.6,2.3-.7,5.2-1.4,6.6-1.7s4.9-.9,7.8-1.5,5.9-1.2,6.6-1.3,3.3-.3,5.8-.4c3.3-.2,4.2-.7,3.7-2.1-.4-1.1-.2-2.3.5-2.7a1.58,1.58,0,0,0,.5-2.1c-.3-.4-1.3-.7-2.9-.7a6.47,6.47,0,0,0-2-.2Zm-76.4,1.1a23,23,0,0,0-2.8.2c-1.6.3-.6.6,2.3.6s4.3-.2,3-.6A15.75,15.75,0,0,0,296.1,288.1Zm32.6,3c-3.9.1-6.4.6-5.6,1.1,2.1,1.4,11.1,1.2,12-.2C335.5,291.4,332.7,291,328.7,291.1Zm-10,2.2c-.4,0-.8.4-1,1a26,26,0,0,1-3.8,5.5c-1.7,2.1-3.2,4.1-3.2,4.6s.5.8,1.1.8c1.8,0,8.6-10.5,7.5-11.6A.6.6,0,0,0,318.7,293.3Zm-60.2,10.5c-1.4,0-5.8,4.2-5.8,5.5a1,1,0,0,0,1,1.1C255,310.3,259.7,303.8,258.5,303.8Zm23.9,2.1c-1.2-.1-.8,1.1,1.9,3.2,1.8,1.3,3.8,2.1,4.4,1.7s-.5-1.8-2.6-3.1A8.54,8.54,0,0,0,282.4,305.9Zm-106.1.6c-.6,0-2.1,2.1-3.3,4.7a15.82,15.82,0,0,0,2.9,18c1.9,2,4.2,3.6,5.1,3.6,2.9.1,1.8-3.3-3.1-9.8-4.8-6.3-4.8-6.3-2.6-10.8C177.7,307.1,177.8,306.5,176.3,306.5Zm185.9,0c-.7,0-.3,1.9.9,4.3s2.5,3.6,2.8,2.7C366.6,311.5,364,306.5,362.2,306.5Zm-28.9,1.4c-2.2.3-7.5,5.2-9.8,9.4-2.5,4.5-2.5,5-.3,16.1a140.48,140.48,0,0,0,5,18.7c2.8,7.5,6.3,10.3,4.5,3.6-1.6-6.1-4.5-19.1-6.1-27-1.7-9.1-.2-12.1,6.7-12.7,6.6-.5,17.2,2.2,17.2,4.5,0,1.3,1.7,1.8,5.9,1.8,3.5,0,5.9-.6,5.9-1.5s1.2-1.2,2.6-.8c3.1.8,4.9-1.1,2-2.2-4.6-1.8-30.6-4.9-34.3-4.1l-4.1.9,3.1-2.9c1.7-1.6,2.7-3.3,2.3-3.7A.56.56,0,0,0,333.3,307.9Zm-32.4,4.2a1,1,0,0,0-.3.1c-.5.5,1,2.6,3.5,4.6,3.9,3.2,4.3,4,3,6.4a23.31,23.31,0,0,1-4.8,5.4c-1.8,1.4-3.3,3-3.3,3.4,0,1.1.4,1,4.9-1.2,5.3-2.6,8.7-6.6,8.1-9.3S303,311.9,300.9,312.1Zm-58,2.3a3.52,3.52,0,0,0-2.7,1.3c-.4.7.4,1.3,1.9,1.3s2.7-.6,2.7-1.3S243.9,314.4,242.9,314.4Zm16.1.6c-9.8,0-12.8.8-12.2,2.5.4,1-1,1.7-3.7,1.9-4.8.4-5.7.9-4.5,2.7,1,1.7,10.3-1,11.8-3.4,1.7-2.8,24.7.5,24.7,3.6,0,1.2,2.8.5,12.5-3.1,7.2-2.7,4.7-3.3-16.5-4C266.3,315.1,262.3,315,259,315Zm73.5,7.5c-.8,0-.3.6,1.1,2a27,27,0,0,0,7.5,4.4c6.1,2.4,16.4,3.3,15.2,1.3-.4-.7-2.3-1.3-4.1-1.3a22.68,22.68,0,0,1-8.2-2.5,45.63,45.63,0,0,0-8.9-3.4A17.43,17.43,0,0,0,332.5,322.5Zm-45.9,2.8c-.3,0-.9.5-2,1.4-1.3,1.2-5.7,2.5-9.9,3s-7.2,1.4-6.7,2.2c1,1.6,15,0,17.3-1.9a5.08,5.08,0,0,0,1.7-3.4C287,325.7,287,325.2,286.6,325.3Zm-90.8,1c-1.4,0-1.6,2.2-.2,2.9s8.9,11.8,11.5,17.3c1.3,2.8,2.6,4.7,3,4.3C211.5,349.4,197.9,326.3,195.8,326.3ZM207,337.2c-.3.3,2,6.2,5.1,13.3,3.8,8.8,5.8,12.1,6.4,10.5s1.4,0,2.6,4.6c2,7.9,3.5,9,3.4,2.4-.1-2.5-.5-4.3-.9-4s-1.7-2.3-2.9-5.7c-1.5-4.6-2.1-5.4-2.2-2.9s-1.6.3-5.5-7.7C209.9,341.6,207.3,336.9,207,337.2Zm-20.9,4.1c-.4,0-.9.4-1.8,1.3-1.1,1.1-1.5,2.6-1,3.5,1.4,2.2,4.7-.9,3.7-3.4C186.7,341.7,186.5,341.3,186.1,341.3Zm119.2,20.6c-1.7,0-1.2,2.4.6,3.1a10.48,10.48,0,0,0,3.6.7c1.5,0,1.3-.4-.6-1.9A10.41,10.41,0,0,0,305.3,361.9Zm35.7,7.3c-.6,0-1.2,1.2-1.4,2.9-.2,2-1.2,3.8-2.1,4.1s-1.4-.2-.8-1.5c.4-1.2.1-2.1-.7-2.1s-2.1,1.7-2.9,3.9c-1.5,4.3-6.5,6.7-13.8,6.7-6.6,0-6.9,2.5-.8,8.1,3,2.8,6.5,5.1,7.8,5.1,4.1,0,12.2-6.4,13-10.3a25.41,25.41,0,0,1,2-5.9c1.6-3,1.6-9.9,0-10.9a.37.37,0,0,0-.3-.1Zm-47.3.7c-.6.1-1.5,1.2-2.5,3.3-1.1,2.4-4.8,4.9-12.6,8.4-14.7,6.7-16.7,9-16.7,18.9,0,4.8.5,7.4,1.3,6.9s1.3-3.1,1.3-5.9c0-4.1.8-5.8,4.1-8.5,2.2-1.9,4.7-3.4,5.4-3.4s4-1.8,7.2-4,6.3-4,6.8-4c1.3,0,4.7-5.3,5.7-8.9C294.4,370.8,294.3,369.9,293.7,369.9Zm9,5.2c-5.1,0-4.4,3,1,4.1,6,1.3,8.3,1.3,9.1-.2C313.8,377.4,308,375.1,302.7,375.1Zm41.4,3.5a1.33,1.33,0,0,0-.7.3c-1.3,1.3,1.7,14.9,4.5,20.3.7,1.3,1.6,5.9,2,10.2s1.4,7.9,2,7.9c1.4,0,.5-7.8-2.4-22.5C347.4,383.6,345.6,378.6,344.1,378.6Zm-95.6,11.1c-.6.1-.9.9-.5,2.2s1.1,8,1.6,14.9,1.4,13.6,2.1,14.9a7.5,7.5,0,0,0,1.5,2.3c1,0-.9-31.4-2-32.7S249.1,389.6,248.5,389.7Zm22.3,9.3c-.6,0-.9.7-.9,2.2,0,3,9.2,12,13,12.8a15.45,15.45,0,0,1,4.3,1.4c.8.5,6.5,1.2,12.9,1.7,13,1,40.7.7,42.6-.5.7-.4,1.2,0,1.2.9s.3,1.3.8.9c1-1-2.2-11.6-3.6-11.6-.6,0-.7,1.8-.3,4,.7,3.7.6,4-2.3,3.4s-13.6-1.4-36.8-2.8c-17.7-1.1-23.3-2.8-27.1-8.6C272.8,400.3,271.5,399.1,270.8,399Zm41.8,3c-.2,0-.3.5-.4,1.4-.1,1.4.3,2.2.7,1.7a2.66,2.66,0,0,0,.1-2.5C312.9,402.2,312.7,402,312.6,402Zm-131.7,2.5c.4,0,.4,1,.4,3.2s-.9,4.9-1.9,5.8c-2.5,2-2.6,4.5-.2,3.6,1.4-.5,1.8,1.3,2,7.7.2,7.3-.1,8.6-2.7,10.4-1.6,1.1-2.5,2.5-2,3s1.8-.2,2.8-1.6c1.9-2.5,1.9-2.5,2.1.1.1,1.5.4,4.7.7,7.3s.8,7,1.1,9.9c.8,7.8,4.6,27.9,6.8,36.8,1.1,4.3,1.7,8.1,1.3,8.5s-.7-.3-.7-1.6-.5-1.9-1.2-1.5c-1.9,1.2,0,6.3,2,5.5,1.5-.6,1.5-.2.2,1.9-2.2,3.5-3.3,3.3-3.3-.8s-1.4-5.7-3-3.2c-1,1.6-1.2,1.5-1.2-.4,0-1.3-.6-2-1.4-1.5s-1,1.9-.6,3.2-.3,3.3-1.9,4.7-2.7,2.9-2.7,3.6,1.9-.6,4.3-2.8c4.2-3.9,4.3-3.9,5.3-1.2.6,1.5.6,3.2.2,3.6s-1.2,0-1.5-1c-.4-1.2-3,.5-7.7,5.2-3.9,3.8-7.4,6.7-7.8,6.3s.8-2.2,2.6-3.9,3.3-3.6,3.3-4.2-1.7.7-3.9,2.8c-2.8,2.8-3.7,4.7-3.1,6.8.7,2.7,1.3,2.4,7.7-4.4,3.8-4.1,7.2-7.4,7.6-7.4s.9,1.4,1.2,3.1c.4,2.1-.4,4.1-2.5,6.1-1.7,1.7-2.9,3.3-2.5,3.6s2.3-1.2,4.5-3.5c4.2-4.4,5.9-5.2,4.7-2.1-.4,1.1-.1,2,.7,2a1.44,1.44,0,0,0,1.5-1.3,1.48,1.48,0,0,1,1.6-1.3c.9,0,0,1.6-1.9,3.7-2.5,2.6-3.3,4.5-2.7,6.6.5,1.7.2,2.9-.7,2.9a1.56,1.56,0,0,0-1.5,1.6c0,.9,2.1-.4,4.6-2.9,3.9-3.8,4.6-4.1,4.6-1.9,0,1.9.3,2.1,1.2.8.7-1.1.3-4.4-.9-8.3s-2.4-5.9-3.1-4.9c-1.2,1.9-1.8,1.4-3-2.6-1-3.1,1.1-4.2,2.4-1.3.4.9.4.3,0-1.3s-.2-3,.4-3c1.3,0,9.9,23.1,10.1,27.3.1,1.6.6,2.5,1.3,2.2s.9.4.7,1.7c-.8,4.1-3.5,3.6-4.4-.8-.7-3.1-1.2-3.7-2.1-2.4-1,1.5-1.4,1.5-2.4-.1-.8-1.3-1.1,0-.7,4l.5,5.9-1.9-5.8c-2.4-7.3-3.9-8.8-2.7-2.8,2,10,1.9,11-.3,4.8l-2.4-6.4-3.6,3.6c-4.5,4.5-4.8,7.4-.3,3.2,1.8-1.7,3.3-2.8,3.3-2.5s.6,2.5,1.2,4.9c.8,2.7.8,4,0,3.5s-1.2-1.9-1.2-3.3c0-3.3-1.1-3.2-4,.1l-2.4,2.7-.9-2.8a5,5,0,0,1,.5-4.4c1-1.2.9-3.1-.1-6.6-1-3.2-1.9-4.3-2.5-3.3s-1.4,1.2-1.9.7-.2-1.8.7-2.9,1.3-2.5.8-3.2.1-2.2,1.2-3.3c3-3,2.4-4.3-.7-1.5-1.6,1.5-2.4,3.3-1.9,4.8.4,1.3.1,2.4-.6,2.4A1.48,1.48,0,0,1,175,523c0-.9-1.5-.2-3.3,1.6-2.9,2.7-3.3,2.8-3.3.7s-.3-2.1-2-.7-2,1.2-2-.7c0-1.3-.3-2-.8-1.6s-.4,2.1.1,3.7c.7,2.3,1.2,2.5,2.1,1.1.6-1,1.2-1.4,1.3-.8s.3,1.6.5,2.3a23.24,23.24,0,0,1,.5,3.3c.1,1.1.8,2,1.5,2s1-1.4.5-3.3c-.5-2.2-.3-3.3.8-3.3.9,0,1.3.9.8,2s-.1,2,.7,2,1.1.9.7,2-.2,2,.5,2,1.3-.7,1.3-1.7.4-1,1.3.3a8.79,8.79,0,0,1,1.2,4c-.1,1.3-.3,1.5-.8.3a2.75,2.75,0,0,0-2-1.7c-1.2,0-.8,2.3,1.2,7.6.3.9-.1,1.7-.9,1.7s-1.2-.6-.8-1.2a1.64,1.64,0,0,0-.6-2.1,1.73,1.73,0,0,1-.5-2.3c.5-.9.3-1.1-.7-.5s-1.2,2.1-.8,3.5.2,2.5-.5,2.5c-2.3,0-2.7-5.3-.6-7.4,1.1-1.1,1.7-2.4,1.2-2.8s-2,.6-3.5,2.3-3,2.7-3.5,2.2,0-1.9,1.1-3.2c2-2.3,1.8-7.5-.2-6.3-.6.4-.8,1.9-.4,3.3.4,1.6,0,2.6-.9,2.6s-1.3,1.1-.9,2.9c.8,2.9-1,6.3-3.3,6.3a1.34,1.34,0,0,1-1.2-1.4c0-.8.6-1,1.3-.6s1.3-.1,1.3-1.2c0-1.3-.8-1.7-2-1.3-3.1,1.2-2.3-.7,1.7-4.1,2-1.7,3.2-3.6,2.6-4.2s-1.6-.2-2.3.9q-1.2,2-1.2.3a1.65,1.65,0,0,0-1.4-1.7c-.8,0-1.1,1.1-.6,2.6s.2,2.6-.6,2.6c-1.2,0-2-2.8-1.6-5.6.1-.5-.5-1-1.3-1s-1,1.2-.5,3a30.68,30.68,0,0,1,1.1,5,4.45,4.45,0,0,0,1.4,2.9,1.22,1.22,0,0,1,.1,2c-.6.6-1.4.3-1.7-.6a2.47,2.47,0,0,0-1.9-1.7c-.7,0-1.1.8-.7,1.7.4,1.1-.4,1.8-2.2,1.8-1.6.1-2.1-.2-1.2-.5a2.89,2.89,0,0,0,1.7-2.5c0-1,.6-1.9,1.3-1.9s1.3-.7,1.3-1.7-1.2-.2-2.7,1.5-3,2.8-3.5,2.3-.2-1.6.7-2.4c3.1-3.1,1.5-4.1-1.7-1-3.9,3.7-4.5,2.5-.7-1.3,2.7-2.7,3.7-9.2,1.3-9.2-.8,0-1,1.4-.5,3.3.5,2.2.3,3.3-.8,3.3-.9,0-1.3-.9-.8-2s.2-2-.4-2-1.4.7-1.8,1.7-1,1.3-1.5.8,0-1.8,1.1-2.9a4.56,4.56,0,0,0,1.3-4.1,4.48,4.48,0,0,1,1.2-4.1c2.4-2.4,3.7-2.6,3.4-.4-.5,3.6.2,6.3,1.5,6.3.8,0,1.1-1.2.6-3-.5-1.6-1.1-4-1.5-5.3s-.1-2.3.7-2.3,1.7,1.9,2.3,4.3,1.2,3.5,1.5,2.6a2.47,2.47,0,0,1,1.9-1.7c.7,0,1,.9.6,2s-.2,2,.5,2,.9.9.5,2,0,2,.8,2c1.1,0,1.3-1.1.8-3.3-.5-1.9-.3-3.3.5-3.3s1.3,1.5,1.3,3.3.6,3.3,1.3,3.3c1.6,0,1.6,0-.2-5.2-1-2.7-2.1-4-3.3-3.5s-1.8-.2-1.8-1.6c0-1.9-.2-2-1.3-.3-.7,1.1-1.6,1.5-2.1,1s-.3-1.7.5-2.7c1.3-1.6.9-10-.6-11.5-.3-.3-1.2.3-1.8,1.3-.8,1.2-1.2,1.3-1.2.4a2.91,2.91,0,0,1,1.4-2.4c.8-.5,1.1-2.1.7-3.7s-.4-2.1.1-1.2c1.1,2.5,3.6,2,2.6-.5-.5-1.2.1-3.2,1.4-4.6s1.6-2.5.7-2.5-2.3,1.2-3.2,2.6c-2.1,3.4-3.2,3.3-4.1-.3a5.78,5.78,0,0,1,1.4-5.3c1.2-1.3,1.5-2.4.8-2.4s-1.3-1.5-1.2-3.3.6-3.3,1.2-3.3c1,0,1.5,2,1.1,5-.4,2.8,2,1.8,3.9-1.7s4-4.4,3.9-1.7c0,.9-2.1,3.4-4.6,5.6s-4.6,4.5-4.6,5.2,1.4-.1,3.1-1.7l3.1-2.9,1.5,5.1c1.8,6.1,2,8.5.4,7.6-1.4-.9-4.8,2.9-3.6,4.1.5.5.8.2.8-.7a1.37,1.37,0,0,1,1.2-1.5c1.6,0,1.5,7.1-.2,8.1-.9.6-.8,2.1.2,4.6,1.4,3.6,1.5,3.6.8.3-.5-2.6.2-4.1,2.6-5.9s3-3.2,2.5-5.5c-.5-1.9-.2-3,.8-3s1.3.9.8,2-.3,2,.2,2c1.4,0,1.6,7.1.2,8-.6.4-.8,2-.4,3.6s1.3,2.6,2,2.1.7-1.4-.1-2.4c-1-1.2-.1-2.8,3.2-6.1,4.4-4.2,6.6-8.6,2.8-5.4-1.5,1.2-2,.8-2.8-2.1-.5-2-1.1-4.9-1.3-6.3s-.8-4.3-1.3-6.3q-.9-3.6.6-3.6c.9,0,1.2-1.2.7-3.3s-.3-3.3.7-3.3a1.4,1.4,0,0,0,1.3-1.7c-.4-3.1.1-4.5,2.9-7.4,4.2-4.6,2.3-4.5-2.6,0-5.9,5.5-6.6,4.1-.8-1.5,2.5-2.5,4.6-5,4.6-5.8s-1.5.1-3.3,1.8c-3.1,2.9-3.3,2.9-3.3.6,0-2.5-.1-2.5-2,0-1.4,1.8-1.9,2-1.9.7a9.33,9.33,0,0,1,1.9-4.3c1.8-2.3,1.9-2.3,3.4,0s1.5,2.3.8,0a17.81,17.81,0,0,1-.8-3.7c0-.7-.7-.8-1.7-.3s-.6-.6.7-2.5a13.87,13.87,0,0,0,2.3-6.4c0-2.4-.3-2.6-2-1.2-3.5,2.9-3.6.4,0-3.1,3.7-3.7,4.2-4.9,1.7-4.3-.9.2-1.2.2-.7-.2a2.56,2.56,0,0,0,1-1.9,4.93,4.93,0,0,1,2-2.9,4.14,4.14,0,0,0,1.2-4.5c-.6-2.4-1.2-2.7-2.6-1.5-2.4,2-2.3-.1.2-3.4,1.7-2.3,2.5-1.9,2.1.9-.2,1.6.9,1.2,3.8-1.3,1.9-1.6,2.2-2.5,1-3.2s-1.3-1.3,0-2.6a5.46,5.46,0,0,0,1.6-2.8c0-.6-.9-.2-2.1,1s-1.8,3-1.4,4a2.31,2.31,0,0,1-.4,2.6c-1.7,1-2.6-3.9-1.2-6.4a6.6,6.6,0,0,0,.4-4.8c-.6-1.9-.2-2.6,1.3-2.6s1.9-.8,1.4-2.4a6.47,6.47,0,0,1,1.2-5c.6-.6,1.1-1.1,1.4-1.1Zm119.2,9.1a1.25,1.25,0,0,1,1.1.4c.4.4-.3.8-1.7.7s-1.9-.4-.8-.8A3.53,3.53,0,0,1,300.1,413.6Zm-114.8,1.9,6.1,11.8A153.51,153.51,0,0,0,235,479.7c10.2,7.9,30.9,18.8,39.8,20.9,3.8.9,6.9,2.1,6.9,2.6s-2.1,1.3-4.8,1.8c-10.4,1.9-21.6,18.3-23.9,34.6l-.8,5.8h-39l-.9-4.3a57.77,57.77,0,0,0-3.3-9.6,263.47,263.47,0,0,1-13-37c-5.5-21.8-10.8-56.6-10.8-71.4l.1-7.6Zm96.3,7.3c-1,0-.8.8,1,2.3a13.9,13.9,0,0,1,3.7,5.2c.9,2.8,6.2,5.1,14,5.9,9,1,26-.8,27.7-2.8a20.39,20.39,0,0,1,3.2-2.2,7.22,7.22,0,0,0,3.1-3.2c.4-1.3-.3-1.1-2.5.4-1.9,1.4-5.6,2.2-9.8,2.1-11.2-.1-30.2-3.2-34.6-5.6A16.92,16.92,0,0,0,281.6,422.8Zm-115,6.6c.2,0,.2.6.3,1.5,0,1.3-.6,2.3-1.4,2.3s-1.1,1-.6,2.1a3.93,3.93,0,0,1-.7,3.9c-.8,1-1.1,3.3-.6,5.2s.3,4.1-.4,5a14.51,14.51,0,0,0-1.9,4.8c-.5,2.7-.7,2.8-.9.7a16.94,16.94,0,0,1-.1-3.8c.1-.6-.7-.8-1.8-.4-2.6,1-2.6-.1-.1-2.6,1.8-1.8,2-1.7,2,.2,0,1.2.5,1.8,1.1,1.4s.8-2.3.5-4.2c-.5-2.4-1-2.9-1.7-1.7-.6,1-1.5,1.3-2,.8s-.2-1.8.6-2.8a5,5,0,0,0,1.4-3c-.5-2.6.2-3.6,1.3-1.9.8,1.3,1.1.9,1-1.6-.1-1.9-.7-3.5-1.3-3.5s-.7-.7-.2-1.5q.9-1.5,2.1.3c1,1.5,1.4,1.5,2.5-.2C166.1,429.8,166.4,429.4,166.6,429.4Zm13,.6a5.92,5.92,0,0,0-2.2.9c-1.5.9-2.6,2.1-2.6,2.7s1.2.3,2.6-.6,2.6-2.1,2.6-2.7C180,430.1,179.9,430,179.6,430Zm-23.2,1.9-2.7,2.8c-2,2.2-2.5,4.1-2,7.9.4,3.1.1,5.1-.8,5.1s-1.1,1.1-.6,2.6c.9,2.8-1.3,3.7-2.4,1-.5-1.3-.7-1.3-.8,0-.1.9-.7,1.7-1.4,1.7-2.2,0-1.5-2,1.8-5.1,2-1.9,2.9-3.9,2.5-5.6-.7-2.6-.7-2.6-3.6.1s-5.5,3.7-4.1,1.5a1.54,1.54,0,0,0-.6-2.1c-.7-.5-1.4-.1-1.4.9s-.6.5-1.2-.9c-1.6-3.7-1.5-5.6.1-3.3,1.1,1.6,1.6,1.6,2.1.3s1.2-1.1,2.6.7c1.8,2.2,1.9,2.1,1.2-.9-.4-1.8-.4-2.6,0-1.7,1.1,2.5,3.6,2,2.6-.6s1.3-4.3,5.6-4.4Zm201,3.8c.3,0,1.6,1.2,3.3,3.3,2.3,2.8,3.8,5.9,3.4,6.9s-.1,1.9.7,1.9a1.56,1.56,0,0,0,1.5-1.6c0-.9.9-.4,1.9,1,1.7,2.2,1.7,2.7,0,4-2.1,1.6-2.6,4.5-.7,4.5.6,0,1.5-.9,1.9-2a2.89,2.89,0,0,1,2.2-2c.8,0,.5,1-.7,2.2-1.7,1.7-1.8,2.4-.5,3.2.9.6,1.2,1.5.7,2.1s-1.5.3-2.1-.7c-2-3.2-4.3,2-4.6,10-.1,4.2-1,8.4-1.9,9.4s-1.7,1.2-1.7.4a16.58,16.58,0,0,0-.8-3.7c-.7-2-.5-2.1.6-.4s1.4,1.5,1.4-1c0-1.6-.5-3-1.2-3s-.9-1.3-.5-2.8c.5-2.1.3-2.6-.9-1.8s-1.4.3-.7-1.9c.5-1.6.4-2.7-.2-2.3s-1.1-1.3-.9-3.8-.4-4.5-1.1-4.5-.9,1.3-.5,3c.8,2.9.8,2.9-1.2.4-2.3-2.9-2.8-8.7-.6-8.7.8,0,1.1-1.1.6-2.6a4.88,4.88,0,0,1,1.2-4.7,4.46,4.46,0,0,0,1.2-4.3c.1-.3.1-.5.2-.5Zm-203.8,1.5a1.3,1.3,0,1,1-1.3,1.3A1.32,1.32,0,0,1,153.6,437.2Zm21.3,1.3c-.6,0-1.5.9-1.9,2s-.2,2,.4,2c2,0,2.3,4.5.5,6.7-1.5,1.7-1.2,3.6,1.3,11.2,1.7,5.1,3.4,8.3,3.8,7.2s1.2-1.5,1.9-.9-1.1,3.1-3.9,5.7c-3.3,3-4.8,5.4-4.3,6.7.4,1.1-.2,3.2-1.4,4.5s-1.6,2.5-.8,2.5a2.31,2.31,0,0,0,2-1.7c.3-.9,1.1-1.2,1.8-.5s-.4,2.4-2.4,4.2c-2.5,2.1-3.3,3.9-2.8,5.8.4,1.5,1.3,2.8,1.9,2.8s.8-1.5.4-3.3c-.5-2-.3-3.3.6-3.3s1,1,.6,2.3c-.8,2-.6,2.1,1.4.5,3.8-3.1,4.1-.5.4,2.9-1.9,1.8-3.4,3.7-3.4,4.3,0,1.1,5.9-3.8,8.8-7.3a5.35,5.35,0,0,0,.8-4.6,18.89,18.89,0,0,1-.9-5c0-2.4-2.1-3.4-2.1-1a1.24,1.24,0,0,1-1.2,1.3c-2.8,0-.8-6.9,3.4-11.4,2.5-2.7,4-5.2,3.2-5.4s-1-1.3-.6-2.4,0-1.9-.8-1.9-1.2-.5-.8-1.2c1.3-2.1-2.1-9.6-4-8.9-2.5,1-2.3-.2.8-3.5,1.5-1.6,2.6-3.5,2.6-4.2s-.6-.5-1.3.5-1.7,1.5-2.2,1,.1-2.1,1.5-3.6,1.7-2.6.9-2.6a1.44,1.44,0,0,0-1.5,1.3,1.44,1.44,0,0,1-1.5,1.3c-.8,0-1.1-.9-.7-2S175.5,438.5,174.9,438.5ZM360,439.8c-.5-.1-1.5.7-2.4,1.9-1,1.4-1.5,2.9-1,3.3s1.1,0,1.4-.9c.9-2.5,2.9-2,2.7.7a20.36,20.36,0,0,0,.8,5.6c.7,2.4.6,2.8-.4,1.4-2.2-3.2-2.8-.9-1.2,4.3,1.5,5,3.2,6.9,2,2.2-.4-1.5-.2-3,.5-3.4s1.2.2,1.2,1.4.5,1.8,1.2,1.4c1.1-.7-2.9-16.2-4.6-17.8C360.1,439.9,360.1,439.8,360,439.8Zm-224.4.1c.3,0,.8,1.2,1.2,2.6s.2,2.6-.5,2.6-1.2-1.2-1.2-2.6S135.4,439.9,135.6,439.9Zm-6.7,2.9h0c.3.1.6.4,1,1a7.89,7.89,0,0,1,1.3,3,1.23,1.23,0,0,1-1.3,1c-.7,0-1.3-1.3-1.3-3,0-1.3,0-2,.3-2Zm4.1,1.5c.4-.1.9.5,1.3,1.5.9,2.3.1,2.7-1.2.6-.5-.8-.6-1.7-.1-2.1Zm14.8,0c.1,0,.2,0,.2.1.3.3-.9,2.1-2.8,4-3.6,3.6-4.8,4.1-4.8,2.2,0-1.5,6-6.4,7.4-6.3Zm-7.4.8a1.3,1.3,0,1,1-1.3,1.3A1.32,1.32,0,0,1,140.4,445.1Zm-14.6.7c.1,0,.1,0,.2.1,1.9,1.2,1.4,5.4-.8,7.2-1.6,1.4-2,1.2-2-.8s-.5-1.9-3.3,1.2c-2.2,2.5-3.3,3.1-3.3,1.7,0-1.1-.6-2.1-1.4-2.1s-1.1,1.3-.7,3,.4,2.2,0,1.3c-1.4-3-3.2-1.7-2.4,1.7.5,2.2.3,3.3-.8,3.3-.9,0-1.3-.9-.9-1.9s.2-2.3-.5-2.7a1.46,1.46,0,0,1-.5-2c.4-.7.1-1.2-.8-1.2s-1.2,1.2-.7,3.3c.5,1.8.3,3.3-.4,3.3s-1.5-1.3-2-3c-1-3.6,2.9-7.4,4.7-4.6.8,1.2,1.7.9,3.6-1.3,2.4-2.9,5-4.2,3.4-1.7a1.65,1.65,0,0,0,.8,2.2c1.1.7,1.3-.1.7-2.6-.5-2.1-.3-3.5.5-3.5a1.58,1.58,0,0,1,1.4,1.7c0,1.2.3,1.2,1.2-.2s1.4-1.3,2.7.7c1.4,2.3,1.5,2.2.9-.5C125.1,446.7,125.3,445.7,125.8,445.8Zm46.3.7a1.3,1.3,0,1,0,1.3,1.3A1.32,1.32,0,0,0,172.1,446.5Zm186.7.3c-1.3.2-4.4,3-4.4,4.2s1.5.8,3.6-1.3c1.1-1.1,1.7-2.4,1.3-2.8A.9.9,0,0,0,358.8,446.8ZM138.1,448a.75.75,0,0,1,.5.1c.4.4-.4,2.1-2,3.8-3.1,3.4-3.7,1.8-.8-2A4.56,4.56,0,0,1,138.1,448Zm-25.3,1.1c.8,0,1,.6.6,1.3s-1.1,1.3-1.4,1.3-.6-.6-.6-1.3A1.35,1.35,0,0,1,112.8,449.1Zm238.4,1.7,3.1,12.9c1.7,7.1,2.8,14.1,2.4,15.7s-.2,2.4.3,2.1,1.1,1.3,1.1,3.6.4,6.4.7,8.9,1,9.7,1.4,15.8c.6,8.4.4,10.7-.7,9.2s-1.3-1.5-.5.7c.6,1.5,1.2,7.5,1.4,13.5l.4,10.9h-5.2c-5.1,0-5.3-.1-9.9-9.4-2.6-5.2-4.5-9.7-4.2-10s-3-4.3-7.3-8.9c-6.8-7.3-16.9-13.8-22.9-14.8-.7-.1-1.7-.3-2.2-.4-.8-.1,11.8-13,21.3-21.7a46.22,46.22,0,0,0,7.3-9.9,82.3,82.3,0,0,1,8.3-12.2Zm-211.3.9c.5,0-.7,1.8-2.8,3.9s-3.4,4.3-2.9,4.8,2.1-.5,3.5-2.2,3-2.8,3.3-2.4-.2,1.4-1.3,2.4c-3,2.5-2.4,4.3.7,2.4,1.9-1.2,2.5-2.5,2-4.6-.4-1.6-.1-3,.6-3a1.32,1.32,0,0,1,1.3,1.3c0,.7,1,.9,2.3.5,1.5-.5,1,.6-1.6,3.3-2.1,2.3-3.4,4.6-2.9,5.1s1.5.1,2.2-1c.8-1.3,1.2-1.4,1.3-.3,0,.9-1.2,2.4-2.6,3.3s-2.6,2.4-2.6,3.3c0,2.4,1.2,2,4-1.3,1.4-1.6,2.5-2.3,2.5-1.4a3.23,3.23,0,0,1-1.3,2.4,2.84,2.84,0,0,0-1.3,2.1c0,.7.6,1,1.3.5s1,.1.5,1.2c-.9,2.4-3.1,2.8-3.1.5,0-.9-1.1-.5-2.6.9s-2.3,2.7-1.9,3.1,1.3-.1,1.9-1.2,1.6-1.5,2.1-1-.2,2.2-1.6,3.8c-2.3,2.6-2.3,2.8-.2,2,3-1.1,2.9-.1-.4,3.4-1.5,1.6-2.4,3.7-2,4.7a4,4,0,0,1-.7,3.6,3,3,0,0,0-.5,3.2c.5.8-.3,2.6-1.9,4.1-2.3,2.1-2.8,2.2-2.8.6,0-1.1-.6-2-1.3-2s-1,1.4-.5,3.3.3,3.3-.6,3.3a1.44,1.44,0,0,0-1.5,1.3c0,.7.9.9,2,.5,2.5-1,2.6.5.1,2.9s-3,2.4-3.8-.7a4.56,4.56,0,0,1,1.2-4.2c1.6-1.3,1.4-5.7-.3-7.6-.6-.7-4.5,3.3-4.6,4.7,0,.6-1.6,2.2-3.4,3.6-2.8,2.1-3.6,2.2-4.6.7a5,5,0,0,1-.6-3.5c.3-.9.1-1.7-.6-1.7s-1.4.7-1.8,1.7c-.9,2.5-2.3.5-2.9-4.1a54.15,54.15,0,0,0-2.1-8.9c-.8-2.6-1.2-5-.8-5.5,1.3-1.3,2.2.3,2.8,5.7.4,2.8.9,5.3,1.3,5.7s3-2,5.9-5.1,5.7-5.3,6.2-4.9-1.3,2.8-4,5.2l-4.9,4.3,2.1,5.3,2.1,5.3-.6-5.9c-.3-3.3-.3-4.9.1-3.6.5,1.9,1,2.1,2.5.8,1.2-1,1.9-1.1,1.9-.1a2.85,2.85,0,0,1-1.3,2.2,3,3,0,0,0-1.3,2.3c0,.8,1.2.4,2.7-1s2.4-3.3,1.9-4.8c-.4-1.3-.1-2.4.6-2.4a1.45,1.45,0,0,1,1.4,1.5c0,1,.6,1,2-.1a4.7,4.7,0,0,0,1.3-4.5c-.5-1.9.2-3.3,2-4.5,1.6-1,2.7-1.1,2.7-.3a1.44,1.44,0,0,1-1.5,1.3c-.9,0-1.2,1.2-.7,2.9a5.78,5.78,0,0,1-1.4,5.3c-3.2,3.5-.8,2.9,3.2-.9,1.9-1.8,3.1-3.7,2.6-4.2s-.9-.2-.9.7-.6,1.2-1.4.8-.1-2.4,1.9-4.7,3-4.8,2.5-6.5c-.4-1.5-.9-2.7-1.2-2.7-1.3,0-9.1,9.9-9.2,11.8-.4,4.4-.7,4.6-1.9,1.5-1-2.5-.8-3.6.7-4.8,1.7-1.2,1.8-2.2.6-5.7-.8-2.3-1.1-4.6-.7-5s.8-.1.8.7c0,2.5,2.3,1.8,5.8-1.8,1.8-1.8,3.7-3.3,4.3-3.3s-1.3,2.4-4.1,5.3-4.7,5.7-4.3,6.1c1.4,1.4,10.2-9.2,9.5-11.2-.4-1,.4-3,1.7-4.5,2.2-2.5,2.2-2.6,0-1.8-1.3.5-2.3.3-2.3-.4a1.32,1.32,0,0,0-1.3-1.3c-.8,0-1,1.4-.5,3.3.5,2.2.3,3.3-.8,3.3-.9,0-1.3-.9-.8-2s.2-2-.5-2-.9-1-.4-2.3c.5-1.5-.6-1-3.4,1.6-2.3,2.2-3.9,4.7-3.6,5.6a1.86,1.86,0,0,1-.5,2.3c-.6.4-1.5-.6-1.9-2.2-.5-1.9-.1-3.3,1.2-4,1.1-.6,1.6-1.7,1.1-2.5s-.3-1.1.6-.5c1.4.8,2.1-.7,1.7-3.5-.1-.5.7-.6,1.6-.3s3.3-1.1,5.2-3.3S139.4,451.7,139.9,451.7Zm-37.8.7,1.8,4.6c1.6,4,1.6,4.9-.2,6.9-1.1,1.3-1.6,2.7-1.2,3.2s2.1-.5,3.5-2.2,3.1-2.6,3.6-2,.2,1.3-.7,1.6a2.58,2.58,0,0,0-1.7,2.1c0,.9-1.3,2.2-3,2.9-2,.9-2.9,2.3-2.7,4.3.4,3.5-.3,3.8-1.5.8a4,4,0,0,1,.5-3.7,5.55,5.55,0,0,0,.6-4.3c-.4-1.5-.1-3.1.6-3.6s1.1-3.1.8-5.8Zm55.9,0,1.4,4.1c1.4,4.2,3,3.9,5.2-.9.5-1.1.5-.1.1,2s-1.6,4.4-2.5,5a3.28,3.28,0,0,0-1.4,3.3c.2,1.3.1,1.6-.2.6s-1.1-1.4-1.7-1-.5,2.7.3,5.3c1.1,3.6,1.8,4.3,3.2,3.1,2.2-1.8,2.2.2,0,2.8-3.3,4-8.8,8.3-8.8,6.9a13.27,13.27,0,0,0-.8-3.5c-.4-1.2-.1-2.1.7-2.1s1.2.6.8,1.2a1.65,1.65,0,0,0,.8,2.2c1.1.7,1.3-.1.7-2.6-.5-2.1-.3-3.5.5-3.5a1.35,1.35,0,0,1,1.3,1.4c0,.8.6,1,1.4.5,1-.6,1-1.4,0-2.5-.8-.9-1-2-.5-2.5s.3-.9-.4-.9-2.1,1.2-3.2,2.6c-2.4,3.4-4.5,3.4-2.7.1a12.68,12.68,0,0,0,1.4-5.3c0-1.5.6-2.7,1.3-2.7s1-1.4.5-3.5c-.6-2.5-.4-3.2.7-2.5a1.75,1.75,0,0,1,.8,2.2c-.4.7-.1,1.2.8,1.2s1.2-.9.7-2.1a13.57,13.57,0,0,1-.8-3.4c0-.7-.7-.9-1.5-.4s-.8-.3.2-2.2Zm223,.6c.5-.1,1.4.5,2.8,2,1.1,1.1,2.2,1.6,2.5,1.3s.6,1.2.6,3.4-.1,3.9-.1,3.9-1.7-2.4-3.7-5.3C380.9,455.1,380.3,453.1,381,453Zm-8.1,1.4a1.3,1.3,0,1,1-1.3,1.3A1.32,1.32,0,0,1,372.9,454.4ZM95.5,455.7c1.3,0,2.7,3.6,3.4,9,.5,3.6-.2,5.1-3.4,8.1-2.2,2-4,4.3-4,5s-.9,1.7-2,2.1a2.28,2.28,0,0,0-1.2,3.1c.6,2,.5,2-.7.4-1.3-1.8-2-1-1.7,1.6.1.5-.7,2.4-1.7,4.3l-1.8,3.4-.6-3.2c-.5-2.4-.1-3,1.3-2.5s1.7.1,1.1-1.8.8-4.2,5.4-8.8c3.4-3.4,5.8-6.6,5.3-7.1s-2,.4-3.4,2c-3,3.4-4.4,3.7-3.2.7.6-1.5.3-1.9-.8-1.2a2.92,2.92,0,0,0-.9,3.3c.5,1.5-.6,3.3-3.3,5.2-2.2,1.6-3.9,2.5-3.7,1.9s-.4-2.4-1.4-4-1.2-3.7-.7-4.5c.6-1,1.3-.7,2.1,1s.8,1.3.3-1.4a36.16,36.16,0,0,1-.9-5.6c-.1-1.9-2.3-2.3-2.3-.3a1.32,1.32,0,0,1-1.3,1.3c-2.2,0-1.5-1.9,1.2-3.6,2.3-1.5,2.8-.9,5.3,6,1.5,4.2,2.5,6,2.1,4.2a4.4,4.4,0,0,1,2-5c1.6-1,2.6-1.1,2.6-.3a1.32,1.32,0,0,0,1.3,1.3c.8,0,1-1.4.5-3.3-.5-2.2-.3-3.3.8-3.3.9,0,1.3-.9.8-2.1C91.5,459.4,93.5,455.7,95.5,455.7Zm3.9,0a1.35,1.35,0,0,1,1.4,1.3c0,.7-.3,1.3-.6,1.3s-1-.6-1.4-1.3S98.6,455.7,99.4,455.7Zm77.1.2c.3-.1.9.7,1.6,2.5A51.37,51.37,0,0,1,180,464c.2,2.4-2.3.7-3-2C175.9,458.4,175.9,456,176.5,455.9Zm-4.9.3c-.5,0-.8.5-.8,1.4,0,2.3.8,2.7,1.9.8a1.54,1.54,0,0,0-.6-2.1A4.32,4.32,0,0,0,171.6,456.2Zm-77.2,1.5-.1,3.4a8.07,8.07,0,0,1-1.7,5c-.9.9-1.1,1.6-.6,1.6,2.7,0,4.7-3.9,3.5-6.8Zm279,.6c.6-.1,2.1,1.6,3.1,4.3s1.2,4.7.3,5.5-1.3.5-1.3-1.1c0-2.1-.3-2-2.5.7-1.9,2.4-2.2,3.9-1.3,7q1.8,6.15-.6,3.9c-.5-.5-.9-2.3-.9-4,0-3.1-2.6-4.5-2.7-1.4-.1.9-.7,0-1.5-2.1-1.1-3-.9-4,1-5.4,1.6-1.2,1.9-2,.8-2.6-1.8-1.1-2-3.4-.4-3.4,2.3,0,2.7,5.8.6,8.2-1.2,1.3-1.7,2.4-1.1,2.4,2.2,0,7.2-7.3,6.5-9.6-.5-1.6-.4-2.3,0-2.4Zm-225,.1c.8,0,1,.6.6,1.3s-1.1,1.3-1.4,1.3-.6-.6-.6-1.3A1.34,1.34,0,0,1,148.4,458.4Zm-60.8.7a2.91,2.91,0,0,1,2.5,1.1c1,1.3.7,2.3-1.2,4.1-1.5,1.3-2.6,1.7-2.6,1a10.87,10.87,0,0,0-.7-3.3C84.9,460.4,86.2,459.2,87.6,459.1Zm.7.6c-.3,0-1,.6-1.4,1.3s-.2,1.3.6,1.3a1.35,1.35,0,0,0,1.4-1.3C88.9,460.3,88.6,459.7,88.3,459.7Zm12.5,0a1.3,1.3,0,1,1-1.3,1.3A1.32,1.32,0,0,1,100.8,459.7ZM371.6,461a1.3,1.3,0,1,1-1.3,1.3A1.21,1.21,0,0,1,371.6,461Zm-247.8,1.5h.2c.3.3-.9,2.3-2.7,4.3-2.4,2.8-2.8,4.1-1.6,4.8.9.6,1.3,1.4.8,1.9s-.2,2.6.5,4.8c1.3,3.6,1,4.3-3.6,8.5a44.26,44.26,0,0,1-5.4,4.5c-1.2,0-.2-1.4,4.4-5.9,2.9-2.9,4.3-5.2,3.5-5.7a4,4,0,0,1-1.4-2.9,21.2,21.2,0,0,0-.8-4.6c-.5-1.8.3-3.9,2.5-6.4,1.5-1.8,3-3.2,3.6-3.3Zm266.4.6c.6.1,1.4,1.4,2.2,3.9.8,2.7.9,4.9.2,5.3s-1.2.6-1.2.3a43.69,43.69,0,0,0-1.2-4.7C389.2,464.7,389.5,463,390.2,463.1Zm3.8.5c.6,0,1.4.7,1.7,1.7.4,1.3,1.1,1.2,2.8-.2,1.9-1.6,2.1-1.6,1.4.3-.5,1.2-1.4,2.2-2,2.2-1.6,0-1.5,6.3.2,7.3a1.6,1.6,0,0,1,.5,2.2c-.5.9.2,1,2,.5s2.8-.3,2.8.7.3,1.3.7,1-.2-3.2-1.3-6.3c-2.4-6.7-2.4-6.6-.7-6.6.7,0,1.7,1.4,2.1,3.2s1.5,2.9,2.5,2.5c1.8-.7,2.7,1.2,4,8.7.8,4.8,1.5,6.2,2.6,5.2.3-.3-.2-3.4-1.3-6.8s-1.5-6.2-1.1-6.2.1-.8-.8-1.9c-1.1-1.3-1.1-2.1-.2-2.7s1.4.1,1.4,1.2.8,1.7,1.8,1.3c1.2-.5,2.3.8,3.3,3.5,1.8,5.1,1.8,5.2.4,5.2-.6,0-1.8-1.6-2.6-3.6l-1.5-3.6.8,4c.4,2.2.8,4.7.9,5.6.1,2.1,2.3,2.2,2.3.1,0-1.2.4-1.2,1.5,0,1.4,1.4,1.9,3.7,2.3,9.2A1.73,1.73,0,0,0,422,493c.8,0,1-1.4.5-3.3-.5-2.2-.3-3.3.8-3.3s1.3-1.1.8-3.3c-1.3-5.1,1.2-3.9,2.8,1.3.8,2.7.9,4.9.2,5.4s-1.2.1-1.2-.7-.6-1.1-1.3-.6a1.51,1.51,0,0,0-.5,2.1,3,3,0,0,1-.6,3c-1.8,2.2.7,11.9,2.7,10.6.9-.6,1-.1.1,1.6s-.4,5.2,1.7,11.6c1.6,5,3.2,8.3,3.5,7.3s-.5-5.3-1.8-9.6c-2.3-7.4-2.3-7.9-.1-9.5,1.3-.9,2.6-1.4,3-1s-.1,1-1,1.3a2.81,2.81,0,0,0-1.5,2.8c.1,1.4.4,1.6.8.6,1.2-3,3.1-1.7,3.1,2,0,2.8-.3,3.2-1.3,1.7-2.4-3.7-2.7-.4-.5,5.8,1.8,5.3,1.9,6.5.3,7.5-2.7,1.7-3.8,1.5-4-.8a15.39,15.39,0,0,0-1.2-5.3,16.19,16.19,0,0,1-.6-1.7c-.1-.5-.7-2.9-1.3-5.3s-1.6-4.3-2.4-4.3-1,.9-.5,2.1c1.8,4.6,2.3,8.5,1.3,8.5-.6,0-1.2-1.5-1.3-3.4-.2-4.3-1.6-5.7-3.2-3.2-.7,1.1-1.2,1.3-1.2.4a13.91,13.91,0,0,0-.8-3.6c-.4-1.2-.1-2.1.7-2.1s1.2.6.7,1.3-.1,1.3.7,1.3,1.2-1.1.7-2.5-.2-2.9.6-3.4c1.6-1,1.8-6.4.4-7.8-1-1-1.2-1.7-1.5-5.4-.1-1.1-.8-2-1.6-2s-1.1,1.1-.6,2.6a4.88,4.88,0,0,1-1.3,4.8c-2.8,2.8-4.3,1.2-1.8-1.8,2-2.3,1.8-7.5-.2-6.3-.6.4-.8,1.9-.4,3.3s0,2.6-.7,2.6-1.1-.9-.7-2,.1-2-.7-2a1.54,1.54,0,0,0-1.5,1.5c0,.8-.4,1.2-.8.7s-.2-1.7.7-2.7c1.1-1.4.9-3.5-1.2-8.9-1.5-3.9-2.4-5.8-2.1-4.2a3.87,3.87,0,0,1-1.5,4.1c-1.7,1-1.8,1.9-.5,5.5,1.1,3.2,1.1,4.8,0,6.1-.9,1-1.1,3.6-.6,6,1.1,5.6.2,4.4-2.3-2.9-1.5-4.3-1.6-6.3-.6-7.3s1.2-.6.6,1.1c-.5,1.5-.3,2.2.6,1.9,1.6-.5,1.6-.8.5-7-.5-2.5-1.5-4.6-2.2-4.6s-1,1.4-.5,3.2.2,3.6-.6,4.1-1.3.1-1.2-.9c.6-4.5-.1-6.7-2.1-5.9-1.1.4-2,.2-2-.5a1.32,1.32,0,0,1,1.3-1.3,1.44,1.44,0,0,0,1.3-1.5c0-.8-.9-1.1-2-.7s-2,.2-2-.4a2.28,2.28,0,0,1,1.5-1.7c1-.3,1.1-1.9.1-5.4-1-2.8-1.1-5-.5-5ZM72.1,465c.6,0-.4,1.4-2.3,3.3-3.3,3.3-4.7,4-4.7,2.5C65.1,469.7,70.8,465.1,72.1,465Zm59.5.3c.2,0,.3,0,.4.1.4.4-.2,1.7-1.3,2.8-2.1,2.1-3.6,2.6-3.6,1.3S130.3,465.5,131.6,465.3Zm-47.2,1c.3,0,.6.6.6,1.3a1.35,1.35,0,0,1-1.4,1.3c-.8,0-1-.6-.6-1.3S84,466.3,84.4,466.3Zm12.4,0a1.3,1.3,0,1,0,1.3,1.3A1.21,1.21,0,0,0,96.8,466.3Zm59.5,1.3a1.35,1.35,0,0,0-1.4,1.3c0,.7.3,1.3.6,1.3s.9-.6,1.4-1.3S157.1,467.6,156.3,467.6Zm-82.4.1c.3.1.5.4.5.9s-1.2,1.7-2.6,2.7c-3.1,1.9-3.5,1-.8-1.8C72.3,468.2,73.3,467.6,73.9,467.7Zm-11.3,1.2c.8,0,1,.6.6,1.3s-.2,1.3.5,1.3,1,.9.6,2-.2,2,.4,2,1.2,1,1.2,2.3a23.22,23.22,0,0,0,1,5.3c.6,1.8.5,3-.4,3s-1.4-1.5-1.4-3.3-.3-3.3-.7-3.3c-1.7,0-7.3,6.8-6.8,8.3.3.9-.5,3-1.9,4.8s-2.4,4-2.4,5c0,1.8-5,8.1-9.6,12.2-2.8,2.5-3.1,5.1-.3,2.8,1.4-1.1,2-1.2,2-.2a1.44,1.44,0,0,1-1.3,1.5c-.7,0-1.3,1.3-1.3,2.9s-.4,2.5-.9,2c-1-1-4.4,1.5-4.4,3.4,0,.7.9.6,2-.3,2.9-2.4,2.4.4-.7,3.7-3.4,3.7-3.7,3.6-3.4-.7a13.08,13.08,0,0,1,3-6.7c2.4-2.7,2.6-3.7,1.4-7.6-1-3.3-2-4.3-3.5-3.7-1.1.4-.3-1,1.8-3.2s4.2-3.7,4.6-3.2,0,1.1-.9,1.4a3,3,0,0,0-1.6,2.8c0,1.9.2,1.9,1.2.3.7-1.1,1.7-1.5,2.3-.9s-.1,1.9-1.5,2.9-2.2,2.2-1.7,2.7,2.7-1.1,5-3.6,3.5-4.6,2.8-4.9-1.1-1.3-.7-2.4.1-1.9-.6-1.9a2.31,2.31,0,0,0-1.9,1.7c-.3.9-1,1.2-1.6.7s.7-2.4,2.8-4.2,3.3-3.7,2.8-4.2-2.1.3-3.5,1.9l-2.5,2.9-.8-2.9c-.4-1.6-.5-3.2-.2-3.5s.6.1.6.9a1.45,1.45,0,0,0,1.4,1.5c.8,0,1.1-1.1.6-2.6-.8-2.5,1.1-3.8,2.3-1.7.3.5.4.2.1-.8s-.8-3.2-1.2-5-.2-3.2.4-3.2c1.5,0,4.5,9.2,3.5,10.8-.4.6-.1,1.1.7,1.1s1,.9.6,2c-1,2.6.5,2.5,3,0,1.1-1.1,1.7-2.9,1.2-4s.6-3.2,2.8-5.1c2-1.7,3.1-3.6,2.6-4.2s-1.6-.2-2.3.9-1.2,1.3-1.2.4a13.91,13.91,0,0,0-.8-3.6c-.4-1.2-.1-2.1.7-2.1s1.2.6.7,1.3c-1.1,1.8,1.1,1.7,3-.3,2.2-2.2,2-3.8-.4-2.9-1.1.4-2,.1-2-.8s.6-1.2,1.3-.7,1.3.2,1.3-.6A1.82,1.82,0,0,1,62.6,468.9Zm59.3,0a1.3,1.3,0,1,1-1.3,1.3A1.32,1.32,0,0,1,121.9,468.9Zm10.7,0c.8,0,1,.6.6,1.3s-1.1,1.3-1.4,1.3-.6-.6-.6-1.3A1.35,1.35,0,0,1,132.6,468.9Zm241.6,0a1.3,1.3,0,1,1-1.3,1.3A1.32,1.32,0,0,1,374.2,468.9Zm4.8,0c1.8,0,1.8.4.5,2a8.05,8.05,0,0,1-2.1,2c-.3,0-.5-.9-.5-2A2,2,0,0,1,379,468.9Zm20.4,0c.8,0,1.1.9.7,1.9a1.82,1.82,0,0,0,.8,2.4c1.1.4,1.1.8.1,1.4-.8.5-1.8,0-2.2-1.2C397.6,470.3,397.8,468.9,399.4,468.9Zm-322,.3a.76.76,0,0,1,.5.2c.5.5.2,1.5-.8,2.1s-1.4,2-.8,3.6c1.9,4.8,1.9,10,.1,11.8h0a6.6,6.6,0,0,1-2.6,1.8c-1.5,0-.7-1.7,1.6-3.4,1.3-.9,1.8-2.2,1.2-2.7s-1.6-.2-2.3.9-1.2,1.3-1.2.6a5.1,5.1,0,0,1,1.3-2.8c.9-.9.9-2.5-.1-5.1-1.1-3-1-4.2.6-5.7A3.39,3.39,0,0,1,77.4,469.2Zm34,1c.8,0,1,.6.6,1.3s-1.1,1.3-1.4,1.3-.6-.6-.6-1.3A1.42,1.42,0,0,1,111.4,470.2Zm-56,.5c.3,0,.5.2.5.6a1.92,1.92,0,0,1-1.4,1.8c-.9.3-.9,1.8.1,4.7,1.2,3.5,1.1,4.6-.5,6.3-3.1,3.1-3.8,2.4-1.4-1.3,1.2-1.8,1.6-3.3.9-3.3-2,0-1.6-6.3.5-8.1A2.34,2.34,0,0,1,55.4,470.7Zm362.7,1.1h.1a3,3,0,0,1,.9,1,7.89,7.89,0,0,1,1.3,3c0,.6-.6,1-1.3,1s-1.3-1.3-1.3-3c0-1.2.1-1.9.3-2Zm-234.8.2a1.69,1.69,0,0,0-.5.2c-.7.4-.9,1.9-.5,3.4s1.3,2.6,2,2.6.9-.9.5-2.1a14.62,14.62,0,0,1-.8-3.4C184,472.2,183.7,471.9,183.3,472Zm-115.5.9c1.2,0,1.6,1,1.8,5.6a54.77,54.77,0,0,0,1.8,6.8,49.56,49.56,0,0,1,1.7,6c0,.5-1.2,1.6-2.6,2.5-3.1,2-3.8-.5-.8-2.9,1.4-1.1,1.5-2.2.5-4.8a32.57,32.57,0,0,1-1.8-5.2c-.2-1-.7-3.3-1.1-5C66.7,474.2,67,472.9,67.8,472.9Zm40.3,0c.3,0,.6.6.6,1.3a1.35,1.35,0,0,1-1.4,1.3c-.8,0-1-.6-.6-1.3S107.8,472.9,108.1,472.9Zm266.2.7c.6,0,1.4,1,1.7,2.5.4,1.7,1.2,4.1,1.6,5.3s.1,2.1-.7,2.1-1.5-.9-1.6-2c-.3-3.1-.5-3.9-1.5-5.5-.5-.9-.5-1.9.2-2.3a.37.37,0,0,1,.3-.1Zm-303.8.6a8,8,0,0,1,1.2,1.7,5.8,5.8,0,0,1,.9,4c-.5,1.2-.7,1.2-.8.1a21.39,21.39,0,0,0-.9-4C70.6,474.8,70.4,474.2,70.5,474.2Zm355.1.3.1.1a14.83,14.83,0,0,1-2.5,3.4c-2.5,2.9-4.2,3.6-4.1,1.9C419.2,478.9,424.9,474.3,425.6,474.5Zm-245.1,0c-1.3.2-4.4,3-4.4,4.2s1.5.8,3.6-1.3c1.1-1.1,1.7-2.4,1.3-2.8A.9.9,0,0,0,180.5,474.5Zm-57.9.1c.4.2,1.1,1.7,1.9,3.7.8,2.3,1.2,4.5,1,4.8s-1.2-1.4-2-3.7-1.2-4.5-.9-4.8Zm-77.1.9c.7,0,.4,1-.8,2.1-1.5,1.5-1.7,2.6-.8,3.7s.4,2.5-1.9,4.7c-2.1,2-3,3.9-2.5,5.5.4,1.3.5,2.4.1,2.4-1.9,0-2.1-5.5-.3-7.3,1.5-1.5,1.7-2.8.8-5.4-1.6-4.3-1.6-5.7.1-3.2,1.2,1.7,1.5,1.7,2.7-.3.6-1.1,1.8-2.2,2.6-2.2Zm17,0a1.3,1.3,0,1,0,1.3,1.3A1.32,1.32,0,0,0,62.5,475.5Zm304.7,0c.7,0,1.9,2,2.6,4.5,1.3,4.1,1.1,4.8-2.4,8.2-2.1,2-3.8,3-3.8,2.2a2.39,2.39,0,0,1,1.5-2c1.2-.4,1.2-1.6.1-4.7-.9-2.6-1-4.5-.2-5s1.3.2,1.4,1.3c.3,3.9.5,4.5,1.7,5.6s.4-3.6-1.3-8c-.4-1.1-.2-2.1.4-2.1Zm-251,.4c.3,0,.5.2.5.7a3,3,0,0,1-1.4,2.3c-.8.5-1,2-.6,3.4s.2,2.5-.6,2.5-1.4-1-1.4-2.3c0-1.8-.3-1.9-1.1-.5s-1.3,1.4-1.9-.3c-.5-1.2-.2-2,.8-1.8s1.5-.8,1.3-2.3,0-1.9.5-.9c.6,1.3,1.2,1.3,2.6.2A2.46,2.46,0,0,1,116.2,475.9Zm311.5.8c.1,0,.1.2.2.5.5,1.9,1,2.1,2.5.8s1.9-1.1,1.9.7c0,1.6.7,2,2.3,1.4,1.9-.7,2-.5.7.8-2.2,2.2-2.1,4.5.1,2.6,1.4-1.2,2.1-.4,3.3,3.4,1.1,3.6,1.1,5.3,0,6.3s-1.3.7-.7-1c.4-1.3.2-2.3-.6-2.3s-1.1-.9-.7-2,.1-2-.7-2-1.1,1.2-.7,2.6.2,2.9-.3,3.3-1.4-1.2-1.9-3.5-1.1-3.8-1.5-3.5,0,3.8.8,7.6c1.1,5,2,6.7,3.3,6.2s2.1.5,2.7,2.5c.4,1.8,1.3,2.9,1.9,2.5s.6-2.2-.1-4c-1.6-4.2-1.6-4.5,0-4.5.7,0,1.3.4,1.2,1-.4,2.8.3,5.6,1.5,5.6.8,0,1-1.6.7-3.6s.6-.2,2.1,4,2.6,7.8,2.3,7.9-2.7,2.3-5.4,4.8-4.9,3.8-4.9,3a1.63,1.63,0,0,1,1.5-1.6c.9,0,1.1-1.3.6-3.3s-.3-3.3.5-3.3,1.3,1,1.3,2.2c0,1.7.5,1.6,2.7-.9,1.5-1.7,2.3-3.4,1.8-3.8s-1.1,0-1.4.9a1.34,1.34,0,0,1-1.9.9c-.7-.4-.2-1.6,1.1-2.5s1.9-2.2,1.4-2.7-2.2.4-3.6,2.1c-3,3.5-4.3,2.9-4.3-1.9,0-3.5-1.6-4.5-2.8-1.7-.4,1-.7.7-.8-.7s-.5-2.3-.9-2.3a6,6,0,0,0-2.6,2.3c-1.5,2-1.7,2-1,.1a2.77,2.77,0,0,0-.7-3.1c-.8-.5-1.4-.1-1.4.9,0,1.3-.4,1.2-1.3-.3a8.79,8.79,0,0,1-1.2-4c.1-1.4.3-1.3,1,.4.9,2.3,1,2.3,3.2-.1,1.9-2.1,2-3.2.8-6.4a38.4,38.4,0,0,1-1.9-9.1c-.3-1.9-.3-3.2-.1-3.2Zm-246.3,1.5a1.3,1.3,0,1,0,1.3,1.3A1.32,1.32,0,0,0,181.4,478.2Zm198.1,0a1.3,1.3,0,1,1-1.3,1.3A1.32,1.32,0,0,1,379.5,478.2ZM51.3,479.5c.3,0,.6.6.6,1.3a1.35,1.35,0,0,1-1.4,1.3c-.8,0-1-.6-.6-1.3S51,479.5,51.3,479.5Zm65.3,0a1.3,1.3,0,1,1-1.3,1.3A1.32,1.32,0,0,1,116.6,479.5Zm69,.1c-1.3.1-4.2,2.8-4.2,4.2,0,.8,1.2.3,2.7-1s2.4-2.7,2-3A.55.55,0,0,0,185.6,479.6Zm198.2.3c.2-.1.5.4,1,1.6a18.07,18.07,0,0,1,1.2,3.6c.1.5-.5,1-1.2,1s-1.3-1.6-1.2-3.6C383.6,480.8,383.6,480,383.8,479.9Zm-287.5.9c.6,0,.3.7-.6,1.6a5.65,5.65,0,0,0-1.6,3.3c0,1-1.3,3.8-3,6.3-2.9,4.4-5,5.9-5,3.4,0-.6.9-1.5,2.1-2,1.4-.5,1.8-1.7,1.2-3.8s-.5-2.4.4-1.2c1.4,2.1,3.6-.3,2.2-2.5C91.4,484.7,94.5,480.8,96.3,480.8Zm7.1,0c.7,0,.9.9.5,2s-1,2-1.3,2-.5-.9-.5-2S102.7,480.8,103.4,480.8Zm259.7,0c.3,0,.6.6.6,1.3a1.35,1.35,0,0,1-1.4,1.3c-.8,0-1-.6-.6-1.3S362.7,480.8,363.1,480.8Zm9.6,0a1.74,1.74,0,0,1,1.6,1.7,17.8,17.8,0,0,0,1.1,5c1.2,2.5,1.3,7.9.1,7.9a1.45,1.45,0,0,0-1.4,1.5c0,.8.8,1.1,1.9.7s2.2.5,2.7,2.6c.9,3.6,3.3,3.2,2.8-.5-.2-1.3-.1-1.5.2-.6.4,1.3,1,1.4,2.5.2,3-2.5,2.4,1-.8,4.4a10,10,0,0,0-2.7,5.6c-.1,2.6-.1,2.6-1.1.2-.8-2-1.2-2.2-2.1-.7s-1.3,1.3-2.2-.7-.9-1.6-.4,1.1c.4,2,.2,3.6-.5,3.6-1.6,0-2.9-5.4-1.8-7.2,1.4-2.1,1.2-7.4-.2-7.4-.7,0-.2-1.2,1.1-2.6s2.1-2.9,1.7-3.3-1.7.5-3.1,2c-3.2,3.5-4,3.3-4.2-1-.1-2,.1-2.6.5-1.4.5,1.9,1,2,3.2.7,2.7-1.7,3.5-4.9,1.2-4.9a1.44,1.44,0,0,0-1.3,1.5c0,.8-.4,1.2-.8.7s-.2-1.7.7-2.7a4.43,4.43,0,0,0,.7-4C371.6,481.8,371.9,480.8,372.7,480.8Zm58.4,0a1.35,1.35,0,0,0-1.4,1.3c0,.7.3,1.3.6,1.3s.9-.6,1.4-1.3S431.8,480.8,431.1,480.8Zm8.2.4a16.34,16.34,0,0,1,1.3,2.6c1.3,2.8,2.1,3.3,3.3,2,.9-.9,1.6-1.1,1.6-.6a5.62,5.62,0,0,1-1.9,2.9c-2.3,2.3-3,2.4-3,.2a26.69,26.69,0,0,0-.9-5A8.65,8.65,0,0,1,439.3,481.2Zm-273.9.1c.1,0,.2.1.2.3a10.35,10.35,0,0,1-1.9,3.9c-1.1,1.4-1.9,2-1.9,1.2a9.71,9.71,0,0,1,1.9-3.9C164.4,481.8,165.1,481.2,165.4,481.3Zm215.4.8a1.24,1.24,0,0,1,1.3,1.2,9.82,9.82,0,0,0,.7,3c.4,1-.5,2.5-1.9,3.3-2.1,1.3-2.7,1.2-3.4-.6a3.57,3.57,0,0,1,.7-3.6c1.1-1,1.3-1,.7.1a1.82,1.82,0,0,0,.7,2.5c1.1.7,1.3-.1.7-2.6-.5-1.8-.3-3.3.5-3.3Zm41,0a1.3,1.3,0,1,1-1.3,1.3A1.26,1.26,0,0,1,421.8,482.1ZM37.5,483.4c.8,0,1,.6.6,1.3S37,486,36.7,486s-.6-.6-.6-1.3A1.35,1.35,0,0,1,37.5,483.4Zm24.5.3c1.1-.1,3,2.1,3.1,3.8,0,.4-1.5,2.2-3.3,3.9-4,3.7-4.3,2.9-.6-1.4,2-2.3,2.3-3.3,1-4.1-.9-.6-1.2-1.5-.6-2A.76.76,0,0,1,62,483.7Zm80.6.3c.3.1.3.9-.4,2.5-.5,1.2-1.4,2.2-2,2.2s-.5-1.2.4-2.6S142.3,484,142.6,484Zm43.7.1a2.68,2.68,0,0,0-1.6,1.1,7,7,0,0,0-2,2.9c0,.5.9.2,2-.7a5.23,5.23,0,0,0,2-2.9C186.6,484.2,186.5,484.1,186.3,484.1Zm130.8.5c1.4-.1,1.2,1-1.7,3.5-2.2,1.8-6.2,4.8-9,6.7-3.9,2.6-7.3,3.5-15.2,4-6,.4-11,.1-12.1-.7-1.5-1-.3-1.4,4.8-1.4,8.8,0,19.7-3.5,25.8-8.2C312.8,486,315.7,484.7,317.1,484.6Zm-205.7.2a1.3,1.3,0,1,1-1.3,1.3A1.21,1.21,0,0,1,111.4,484.8Zm305.1,0a1.3,1.3,0,1,0,1.3,1.3A1.32,1.32,0,0,0,416.5,484.8Zm31.7,0c.7,0,1.3.9,1.3,2s-.2,2-.5,2-.9-.9-1.3-2S447.5,484.8,448.2,484.8Zm-270.1,0c.6,0,.7.6.2,1.8a1.82,1.82,0,0,0,.8,2.4c1.1.4,1.1.8-.1,1.5-.9.5-1.6.4-1.6-.4s-.9-1-2-.6c-2.5,1-2.5-.5-.1-2.9,1.2-1.2,2.2-1.8,2.8-1.8Zm-77,.9c.1,0,.2,0,.2.1.3.5-1.1,2.9-3.2,5.3-3.7,4.2-5.2,5.1-5.2,3.5S99.7,485.8,101.1,485.7Zm286.4,1.1c.6,0,.8.4.4,1.4s-1.3,1.9-1.9,1.9c-1.9,0-1.4-2.3.7-3.1A1.34,1.34,0,0,1,387.5,486.8Zm-334.3.6a1.3,1.3,0,1,1-1.3,1.3A1.32,1.32,0,0,1,53.2,487.4Zm400,.6a.22.22,0,0,1,.2.2c0,1.5-3.8,4.5-4.5,3.5-.4-.6.5-1.8,1.9-2.7A5.22,5.22,0,0,1,453.2,488Zm3.8.3c.6-.1.2,1.2-1.5,3.4s-3.4,3.1-3.4,1.7c0-.4,1.2-1.8,2.6-3.3A8,8,0,0,1,457,488.3Zm-269.3.1c-.4-.1-1.6.7-3.7,2.5s-4,4-4,4.6c0,1.9,1.4,1.2,4.6-2.5C187.2,490.2,188.2,488.5,187.7,488.4Zm-64.2.4a.9.9,0,0,1,.5.1c.4.4-.6,1.7-2,3s-2.7,1.8-2.7,1C119.3,491.6,122.2,488.9,123.5,488.8Zm266.3.6c.5.1.3,1.3-.9,3.1-.7,1.2-.2,4.5,1.3,9.1,1.4,4,2.5,7.5,2.5,7.7s-.6.5-1.4.5-1.1-.6-.6-1.2a1.46,1.46,0,0,0-.5-2c-.7-.4-1.9-3.8-2.7-7.4-1.2-5.5-1.1-7,.6-8.7A3.16,3.16,0,0,1,389.8,489.4Zm-247.5.9c.1,0,.1,0,.2.1.3.3-.6,1.7-2,3s-2.7,2-2.7,1.4c0-1.3,3.5-4.7,4.5-4.5Zm321.9,0a8.75,8.75,0,0,1,1.1,2.3c.9,2.1.9,3.5.1,4-1.1.7-1.1,6.5,0,9.3a4.58,4.58,0,0,1,.1,1.7c-.3,1.6,1.2,1.1,3.4-1,1.1-1.1,1.7-2.9,1.3-3.9a2.16,2.16,0,0,1,.5-2.6c.7-.4,1.6,1.5,2.2,4.3s1.1,5.4,1.2,6,.3,1.9.4,3,.8,2,1.6,2,1.2-1.2.8-2.6-.2-3,.5-3.4,1.2,0,1.2.9.3,1.3.7.9.1-2.2-.6-4.1-.8-3.7-.2-4.1,1.7,1.5,2.5,4c1.3,4.4,1.2,5-2.4,8.5-2.7,2.6-3.9,3.2-3.9,1.8,0-1.1-.5-1.7-1.2-1.3s-.9,1.9-.5,3.4,0,2.6-.9,2.6c-1.1,0-1.3,1.1-.8,3.3,1.3,5.2-1.3,3.8-2.9-1.6-1.6-5.1-1-7.6,1.1-4.4s2.6.8,1.1-4.3c-1.1-3.7-1.9-4.5-3.1-3.5s-1.9.4-2.5-2.7c-.9-4-3.2-5.6-3.4-2.4-.1.9-.9-.6-2-3.5s-1.6-5.6-1.2-6.2-.1-1.3-1-1.7c-1.3-.5-1.3-1-.1-2.2s1.7-.7,2.4,2.5c.5,2.3,1.5,3.7,2.2,3.3s.7-1.4-.2-2.5-1-2-.1-2.6,1.4.1,1.4,1.3.5,1.8,1.2,1.4.9-2.1.6-3.7c-.6-1.5-.7-2.2-.6-2.2Zm-362.4.6c.2,0,.4.1.4.3,0,.9.8,1.4,1.9,1a2,2,0,0,1,2.6,1.3c1.1,2.9.9,4.4-.6,4.4-.7,0-1.3-1-1.3-2.2,0-1.8-.4-1.7-2.5.7-3,3.4-4.3,3.7-3.2.5.5-1.4.3-1.9-.4-1.2-1.6,1.4-1.7,7.5-.1,7.5.7,0,.9.9.4,2s-.2,2,.5,2a1.32,1.32,0,0,0,1.3-1.3,1.44,1.44,0,0,1,1.5-1.3c.8,0,1.1.9.7,2s-.1,2,.6,2,.5,1.2-.6,2.7a7.08,7.08,0,0,0-1.2,5.3c.4,1.4.3,2.6-.1,2.6s-.8-.9-.8-2.1c0-1.5-.8-1.8-3-1.2-2.9.9-2.9.8-.3-1.1,1.5-1.1,2.2-2.5,1.7-3s-2.2.4-3.6,2.1-2.7,2.5-2.7,1.8,1.2-2.5,2.6-4.1c2.3-2.5,2.4-3.3.9-7.6l-1.7-4.8-2.6,2.9-2.5,2.8c0-.1,0-.1-.1-.2a3.23,3.23,0,0,1,.6-3.3,3.18,3.18,0,0,0,.8-3.2,1.58,1.58,0,0,1,.5-2.1c.7-.5,1.3-.1,1.3.8s2.1-.4,4.6-2.8C99.4,492.2,101,491,101.8,490.9Zm281.1.1c.4.1.7.7,1.1,2.1.4,1.6.5,3.1.1,3.5s-.6-.2-.6-1.1-.9-1.4-2-.9c-2.5,1-2.5-.1-.1-2.5a4,4,0,0,1,1.3-1c0-.1.1-.1.2-.1Zm60,.4a1.3,1.3,0,1,1-1.3,1.3A1.32,1.32,0,0,1,442.9,491.4Zm-282.2.5c.5,0,.8.5.8,1.4,0,2.3-.8,2.7-1.9.8a1.54,1.54,0,0,1,.6-2.1A1.09,1.09,0,0,1,160.7,491.9Zm28.2,0A6.28,6.28,0,0,0,186,494c-1.3,1.5-1.8,2.6-1,2.6,1.7,0,5-3.8,4.1-4.7Zm-108.4.3a.75.75,0,0,1,.5.1c.4.4-.1,1-1,1.3a2.47,2.47,0,0,0-1.7,1.9c0,.7.7.8,1.6.3s.2.9-1.4,3.2a23.82,23.82,0,0,1-4.2,4.9c-.7.4-.9,2.2-.5,4,.5,2.1.2,3.2-.8,3.2s-1.4-1.4-.9-4.7c.4-2.8.2-4.3-.5-3.9-1.9,1.2-1.5-.7.6-2.8,1.4-1.4,2-1.5,2.5-.2s1,1.2,2-.3.9-2.2-.2-2.9-.8-1.5,1.1-2.9A7.65,7.65,0,0,1,80.5,492.2Zm20.3.5a1.3,1.3,0,1,0,1.3,1.3A1.32,1.32,0,0,0,100.8,492.7Zm305.1,0a1.3,1.3,0,1,1-1.3,1.3A1.32,1.32,0,0,1,405.9,492.7Zm40.9,0a1.3,1.3,0,1,1-1.3,1.3A1.32,1.32,0,0,1,446.8,492.7Zm-56.6,0a8,8,0,0,1,1.2,1.7,5.8,5.8,0,0,1,.9,4c-.5,1.2-.7,1.2-.8.1a21.39,21.39,0,0,0-.9-4C390.3,493.3,390.1,492.7,390.2,492.7Zm-25,.1c.5,0,1,1,1.6,3.1.4,1.7,1.2,4.1,1.6,5.3s.1,2.1-.7,2.1-1.5-1-1.5-2.3c0-1.6-.3-1.8-1.1-.7-.6,1-1-.2-1-3C364.2,494.3,364.6,492.8,365.2,492.8Zm44.6,1.1c.6-.1,1.2,1,2,3.7.5,1.7.4,3-.4,3-1.6,0-3.4-5.1-2.3-6.3A2.51,2.51,0,0,1,409.8,493.9ZM49,494c-.7,0-.9.9-.5,2.1a13.57,13.57,0,0,1,.8,3.4c0,.7.5,1,1.2.5C52,499.1,50.7,494,49,494Zm13.6,0c.8,0,1,.6.6,1.3s-1.1,1.3-1.4,1.3-.6-.6-.6-1.3A1.35,1.35,0,0,1,62.6,494Zm388.2,0a1.3,1.3,0,1,1-1.3,1.3A1.32,1.32,0,0,1,450.8,494Zm29.4.2c.2,0,.4.1.7.4,1,1,1.2,1.7,1.5,5.5a1.43,1.43,0,0,0,2.1,1.4,1.88,1.88,0,0,1,2.5.9c.5,1.2,1,1.1,1.9-.3,1.5-2.1,5.5-1,5.5,1.5,0,1.2-.4,1.1-1.3-.3-2.6-4.1-2.6-.2,0,7.3l2.7,7.8-2.7,2.7c-1.5,1.5-2.7,2.2-2.7,1.6s.9-1.9,2-3c1.6-1.6,1.6-2.3.3-3.8s-2.1-1.5-4.6.1c-1.6,1.1-3,1.4-3,.7a2,2,0,0,1,1.5-1.7c1.1-.4,1.1-1.5.1-4.4-.8-2.1-1.5-3.2-1.5-2.2a1.73,1.73,0,0,1-1.5,1.7c-.8,0-1.2-.7-.9-1.7s-.2-4-1.2-6.8c-1.6-4.8-2.1-7.4-1.4-7.4Zm-3.7.2a3.93,3.93,0,0,1,.6.2c2,1.3,1.8,4.5-.4,6.8s-3.4,2.4-3.4.7c0-.6.9-1.5,2.1-2q2.1-.75,1.2-3.6C476.1,495.1,476.1,494.4,476.5,494.4Zm-341.9.9c-.3,0-1,.6-1.4,1.3s-.2,1.3.6,1.3a1.35,1.35,0,0,0,1.4-1.3C135.1,495.9,134.9,495.3,134.6,495.3Zm319.9,0c.7,0,1.6,1.2,2,2.6s.2,3-.5,3.4-1.2.2-1.2-.5a14.62,14.62,0,0,0-.8-3.4C453.5,496.3,453.8,495.3,454.5,495.3Zm-389.1.2a8.81,8.81,0,0,1,1.2,2.1c1.2,2.4,1,3.4-1.3,5.9-1.5,1.6-2.8,3.7-2.8,4.5a1.79,1.79,0,0,1-1.9,1.5c-2.3,0-.9-3.1,3.1-6.7a5.48,5.48,0,0,0,2.1-5.3C65.5,496.1,65.3,495.5,65.4,495.5Zm18.8.1q.3,0,.9.6c1,1,.4,2.4-2.1,5-1.9,1.9-3.2,3.9-2.7,4.4s1.7-.5,2.9-2.1,2.5-2.9,3.1-2.9c1.6,0,2.7,5.1,1.3,6-.7.4-1.2-.2-1.2-1.4s-.6-1.8-1.4-1.3-1,2-.5,3.5c.6,1.7-.1,3.4-1.9,5-1.5,1.3-2.8,2.9-2.8,3.5s1.4-.3,3.1-1.9l3.1-2.9.8,3c.5,2-.1,3.9-1.8,5.8-1.4,1.5-2.6,3.3-2.6,3.9s1.2-.3,2.7-1.9,3-2.7,3.5-2.2-.1,2-1.3,3.3-1.8,2.8-1.3,3.4c1.6,1.6,1.9,7.4.4,7.4-.8,0-1.3-.7-1.2-1.7.5-3.6-.2-6.3-1.5-6.3-.8,0-1.1,1-.8,2.3s1,3.6,1.5,5.3.3,3-.6,3a1.35,1.35,0,0,1-1.4-1.3c0-.7-1-.9-2.3-.4-2.1.8-2,.5.2-2,1.4-1.6,2-3.3,1.5-3.9s-1.3-.2-1.6.7a2.46,2.46,0,0,1-2,1.7c-.8,0-.3-1.2,1-2.6s2-3,1.5-3.5c-1.4-1.4-4.8,4-4,6.5.4,1.3.1,2.3-.7,2.3a1.35,1.35,0,0,1-1.4-1.3c0-.7-1-.9-2.3-.5-1.9.7-2,.5-.7-1a6,6,0,0,0,1.6-3.2c0-.8-.6-.5-1.3.6s-1.7,1.5-2.2,1,.1-2.1,1.5-3.6,1.8-2.6,1.2-2.6-2.1,1.2-3.1,2.6c-2.2,3-4.6,3.6-3.5.8a3.39,3.39,0,0,0-.8-3.3c-.8-.8-1.1-1.5-.6-1.5s.3-1.5-.4-3.3a5.86,5.86,0,0,1,.4-5.9c1.9-3,4.3-3.5,3.1-.6-.4,1.1-.2,2,.5,2s.9.9.5,2c-1.1,2.9.7,2.4,3.7-1,1.7-2,2.8-2.4,3.3-1.4,1.2,3,5.4-.9,4.7-4.5-.5-2.7-.9-2.9-2.7-1.5-1.2.9-.7-.4,1.1-2.9a33.89,33.89,0,0,1,4.2-5.1c.6-.2,1-1.4,1-2.6C83.6,496,83.8,495.5,84.2,495.6Zm346.3.2c-.5,0-.8.5-.8,1.4,0,2.3.8,2.7,1.9.8a1.54,1.54,0,0,0-.6-2.1C430.8,495.9,430.7,495.8,430.5,495.8Zm54.2,0a.55.55,0,0,1,.5.2,1.64,1.64,0,0,1,.6,2.1c-1.1,1.8-1.9,1.5-1.9-.8C483.8,496.4,484.2,495.9,484.7,495.8Zm-14.5.1c.1,0,.1,0,.2.1.3.3-.3,1.5-1.4,2.6-3,3-4.4,2.5-1.6-.6C468.5,496.7,469.7,495.8,470.2,495.9ZM41,496c.6.1.2,1.1-1.6,2.8-2.1,2.1-3.4,2.4-3.4.9,0-.6,1.2-1.7,2.6-2.7C39.9,496.2,40.6,495.9,41,496Zm71.8.7a1.35,1.35,0,0,0-1.4,1.3c0,.7.3,1.3.6,1.3s.9-.6,1.4-1.3S113.5,496.7,112.8,496.7Zm27.7,0c.8,0,1,.6.6,1.3s-1.1,1.3-1.4,1.3-.6-.6-.6-1.3A1.35,1.35,0,0,1,140.5,496.7Zm25,0a1.3,1.3,0,1,1-1.3,1.3A1.32,1.32,0,0,1,165.5,496.7Zm12.9,0c-.7,0-.9.9-.5,2.1a14.62,14.62,0,0,1,.8,3.4c0,.7.5,1,1.2.5C181.4,501.7,180.2,496.7,178.4,496.7Zm269.8,0a1.3,1.3,0,1,1-1.3,1.3A1.26,1.26,0,0,1,448.2,496.7Zm-30.7,0c1.1,0,2.9,2.8,2.9,4.9,0,2.4-1,2-2.7-1.1-.8-1.5-1.1-3.1-.6-3.6A.76.76,0,0,1,417.5,496.7Zm-358,.3c.3.1.4.8.4,2.2,0,1.8-.6,2.6-1.5,2s-1.2,0-.6,1.9c.5,1.7.3,2.8-.5,2.8s-1.4.9-1.4,2a2,2,0,0,1-2,2c-1.5,0-1.8.9-1.2,3.3.5,2,.3,3.3-.6,3.3s-1-1-.6-2.2c.6-1.5.3-1.9-.8-1.2-.9.5-1.2,2.1-.8,3.5s-.2,3.5-1.9,5.2c-2.9,2.9-3.6,4.7-1.2,3.3a2,2,0,0,1,2.6.9c.9,1.4,1.2,1.3,1.2-.5,0-1.3.6-2.3,1.3-2.3s1.3-1,1.4-2.3c.1-2.9,3.2-7.2,4.4-6,.5.5.9-.2.9-1.4s.6-1.9,1.4-1.4.8,1.6-.5,3.1c-1,1.2-1.6,2.9-1.3,3.8s-.1,1.7-.9,1.7-1.1-.6-.7-1.3.1-1.3-.7-1.3c-1.5,0-1.1,3.2.9,8.5.4,1.2.1,2.1-.7,2.1a1.54,1.54,0,0,1-1.5-1.5c0-.9-1-.6-2.5.7a5.91,5.91,0,0,0-2,5.2c.5,2.6.4,2.6-.6.3-1.4-3.2-2.9-1-1.6,2.5.9,2.4,1.3,2.3,5.2-1.8,4.6-4.7,4.9-4.8,5.6-.8.3,2-.3,2.6-2.4,2.6-4,0-4.5.9-3.2,5.7.7,2.6.7,4.2,0,4.2s-1.2-.7-1.2-1.7-.4-1-1.3.3c-1.1,1.7-1.3,1.6-1.3-.3,0-1.3-.6-2.3-1.3-2.3s-.9-1-.5-2.3c.7-1.9.5-2-1-.7-2.4,2.3-4.3,2.1-3.4-.3.4-1.1.2-2-.5-2s-.9-.9-.5-2,.1-2-.7-2a1.44,1.44,0,0,0-1.5,1.3,1.48,1.48,0,0,1-1.6,1.3c-.9,0,0-1.7,2-3.7s3.3-4.6,2.8-5.7.5-3,1.9-4.4a8.12,8.12,0,0,0,2.7-4.9c0-1.4,1.8-4.4,4-6.7s3.8-5.2,3.4-6.5.6-3.3,1.9-4.5C58.5,497.4,59.2,496.9,59.5,497Zm346.9.2c.4.1,1.2,1.2,1.9,2.8.8,1.8,1,3.3.3,3.3-1.3,0-3.3-5.1-2.4-6,.1-.1.1-.1.2-.1ZM89.6,498c.3,0,.6.6.6,1.3a1.35,1.35,0,0,1-1.4,1.3c-.8,0-1-.6-.6-1.3S89.3,498,89.6,498Zm280.6,0a1.3,1.3,0,1,1-1.3,1.3A1.32,1.32,0,0,1,370.2,498Zm82.7,0c.3.1.5.4.5.9s-1.2,1.7-2.6,2.7c-3.1,1.9-3.5,1-.8-1.8C451.4,498.6,452.4,497.9,452.9,498Zm-349,.3c.2,0,.3,0,.4.1.4.4-.2,1.7-1.3,2.8-2.1,2.1-3.6,2.6-3.6,1.3S102.6,498.5,103.9,498.3Zm311.2.9c.6,0,1.1,1.2,1.9,3.8.5,1.6.4,3-.3,3-1.3,0-3.2-5.4-2.2-6.4C414.8,499.3,414.9,499.1,415.1,499.2Zm-307.9.1c1.7,0,2.9,5.6,1.5,7.2-1,1.2-1,3.3-.1,7.1.1.2,1-.5,2.2-1.6a4.65,4.65,0,0,0,1.2-4.7c-.5-1.5-.2-2.6.5-2.6,1.2,0,3.6,5.2,2.6,5.7-.3.1-2.9,2.5-5.9,5.3l-5.4,5v-4.4c0-2.4.2-3.3.6-2.1s1.1,2.3,1.8,2.3c1.2,0,.5-4.4-1.6-10.2-.6-1.6-.6-3.2.1-3.6s1.4,0,1.7.9.3.3.1-1.3.1-3,.7-3Zm40.9,0c2.2,0,2.8,5.1.8,6.7a4,4,0,0,0-1.2,3.8,4,4,0,0,1-1.3,3.9c-1.3,1-2,1.1-2,.3a2.85,2.85,0,0,1,1.3-2.2c.7-.4.9-1.7.5-2.7a4.38,4.38,0,0,1,.7-3.8,4.59,4.59,0,0,0,.7-3.9C147.1,500.3,147.3,499.3,148.1,499.3Zm227.9,0c-.3,0-.5.9-.5,2s.6,2,1.3,2,.9-.9.5-2S376.3,499.3,376,499.3Zm-199.4.2c-1-.2-4.5,3.2-4.5,4.5,0,.5,1.2-.1,2.7-1.4s2.4-2.7,2-3c0-.1-.1-.1-.2-.1ZM45.3,500.6a1.3,1.3,0,1,1-1.3,1.3A1.32,1.32,0,0,1,45.3,500.6Zm121.5,0a1.3,1.3,0,1,1-1.3,1.3A1.32,1.32,0,0,1,166.8,500.6Zm227.4,0c.7,0,1,.6.5,1.3a2.84,2.84,0,0,1-2.1,1.3c-.7,0-1-.6-.5-1.3A2.67,2.67,0,0,1,394.2,500.6Zm-267.1.7a.1.1,0,0,1,.1.1c0,.6-2.6,3.7-5.9,6.8-3.4,3.3-5.6,6.5-5.2,7.5s-.2,2.8-1.3,3.9c-2.3,2.3-4.1,2.7-2.9.7s-1.4-1.6-3.2.5a4.43,4.43,0,0,0-.8,3.8,3.34,3.34,0,0,1-1.2,3.5,4.49,4.49,0,0,0-1.2,4.2c1.4,5.5-.6,2.3-2.6-4.3-2.1-6.4-2-10.1.1-6.7.6,1,3.1-.6,7.2-4.4,3.4-3.3,6.3-6.3,6.4-6.8.3-1.3,9.4-8.9,10.5-8.8Zm244.5.6a1.3,1.3,0,1,1-1.3,1.3A1.21,1.21,0,0,1,371.6,501.9Zm40.8,0c.6,0,1.5,1.2,1.9,2.6.8,3.2-1.1,4.8-2.2,1.9S411,501.9,412.4,501.9Zm-25.7.4c.4-.1.7.2.7.7a14.62,14.62,0,0,0,.8,3.4c.4,1.1.2,2.1-.5,2.1-1.7,0-3-5.1-1.5-6C386.4,502.4,386.5,502.4,386.7,502.3Zm65.7,0a26.59,26.59,0,0,1,1.4,3.3c1.3,3.4,2,4,3.3,2.7s1.6-1.3,1.6,0a1.48,1.48,0,0,1-1.3,1.6c-.7,0-1.3,1-1.3,2.1,0,1.8.4,1.8,2,.5,1.1-.9,2-1.2,2-.7a6.77,6.77,0,0,1-1.9,2.8c-2,2-3.2,1.1-4-3.1-.3-1.3-.8-4.1-1.3-6.3a12.82,12.82,0,0,1-.5-2.9Zm16.4.1a.67.67,0,0,1,.5.7,2.84,2.84,0,0,1-1.3,2.1c-.7.4-1.3.2-1.3-.5a2.84,2.84,0,0,1,1.3-2.1,1.69,1.69,0,0,1,.5-.2Zm-166.6.2c1.6-.1,2.5.6,3.7,2.5,1.9,3,1.8,3.3-2.2,7.2l-4.2,4.1-5.6-4.7c-6.7-5.6-7.1-7.7-1.3-7.8a31.37,31.37,0,0,0,7.8-1A6.72,6.72,0,0,1,302.2,502.6Zm-163,.7c.7,0,.2,1.5-1.1,3.3-3.1,4.2-4,4.2-4-.1,0-2.1.4-2.8,1-1.8s1.3,1.2,1.9.1A2.9,2.9,0,0,1,139.2,503.3Zm225.7,0a1.4,1.4,0,0,1,1.3,1.7c-.5,3.6.2,6.3,1.4,6.3.8,0,1-1.4.5-3.3-.5-2.1-.3-3.3.7-3.3.8,0,1.1.7.6,1.5a1.86,1.86,0,0,0,.7,2.5c1.2.7,1,1.5-.6,3.2-1.2,1.2-1.9,3.1-1.5,4.1s.2,2.3-.5,2.7-1.3-.3-1.3-1.6c0-2-.2-2.1-1.3-.4s-1.3,1.6-1.3-.3c0-1.3.6-2.3,1.4-2.3s1.1-.9.7-2.1C363.8,506.5,363.4,503.3,364.9,503.3Zm92.5,0a1.3,1.3,0,1,1-1.3,1.3A1.32,1.32,0,0,1,457.4,503.3Zm27.7,0a1.3,1.3,0,1,0,1.3,1.3A1.26,1.26,0,0,0,485.1,503.3ZM95,503.5c.6.1-.4,1-3,3.6-4.6,4.5-7.5,5.6-3.8,1.5,1.1-1.3,1.8-2.8,1.5-3.7l3.2-.9a10.15,10.15,0,0,1,1.8-.4.37.37,0,0,1,.3-.1Zm309.8.3c.2-.1.7.7,1.2,2,.7,1.7,1,3.4.7,3.7-.7.7-2.2-3.2-2.1-5.3C404.7,503.9,404.7,503.8,404.8,503.8Zm44.8.1,1.7,4.6c1,2.5,2.2,6,2.7,7.6.6,1.9.4,3-.5,3s-1.2-.5-.7-1.2a1.14,1.14,0,0,0-.6-1.7c-.8-.3-1.6-3.1-1.9-6.4Zm48.8.1a1.18,1.18,0,0,1,1.3,1.2c0,.2-.9.8-1.9,1.2q-2,.75-1.2-1.2A1.92,1.92,0,0,1,498.4,504Zm-330.2.6c.9,0,1.3.4.8.9s-.2,1.6.5,2.5c1,1.1.9,1.9,0,2.5s-1.4.3-1.4-.4a14.62,14.62,0,0,0-.8-3.4c-.4-1.3-.1-2.1.9-2.1Zm266.7,0a1.35,1.35,0,0,1,1.4,1.3c0,.7-.3,1.3-.6,1.3s-1-.6-1.4-1.3S434.1,504.6,434.9,504.6Zm41.7,0c.3,0,.6.6.6,1.3a1.35,1.35,0,0,1-1.4,1.3c-.8,0-1-.6-.6-1.3S476.3,504.6,476.6,504.6Zm12.4,0c-1.5,0-1.5.4.2,4.7.7,2,1.6,3.3,1.9,3.1C491.9,511.4,490.1,504.6,489,504.6Zm-79.9.4c.4.1,1,1.5,1.4,3.5.7,3.4,1.2,3.8,2.8,2.6,1.3-1.1,1.9-1.1,1.9-.1a1.44,1.44,0,0,1-1.3,1.5c-.7,0-1.3.9-1.3,2,0,2.4,2.2,2.6,3.1.3.5-1.3.7-1.3.8,0,.1.9,1,1.3,2.1.8s2-.2,2,.6a12.66,12.66,0,0,0,.8,3.4c.4,1.1.2,2.1-.6,2.1a2.2,2.2,0,0,1-1.9-1.7c-.3-.9-.3-.3-.1,1.3.7,4.2-1.7,3.7-2.8-.5-.5-1.9-1.1-3.2-1.4-2.9s0,2.5.6,4.8h0c.7,2.5.7,4.2,0,4.2s-1.9-2.7-2.7-5.9c-.9-3.7-2-5.6-3-5.1s-1.1.4,0-.8,1.2-2.8.2-5.5c-.7-2.1-1-4.2-.6-4.6Zm-14.9.2c.6,0,1.2,1.1,1.6,2.6.4,1.7,1.2,4.1,1.6,5.3s.2,2.1-.4,2.1c-1.6,0-4.4-9-3-9.9C394.1,505.2,394.1,505.2,394.2,505.2Zm104.3,1.4,1.6,4.2c1.4,3.8,1.8,4,4.1,2.4,1.6-1.1,2.2-2.7,1.6-4.1-.7-1.9-.5-2,1.2-.5s1.7,2.1-1.3,5.2c-3.6,3.8-4.6,6.7-1.4,4,1.4-1.1,2-1.2,2-.2a1.44,1.44,0,0,1-1.3,1.5c-.7,0-1.3.9-1.3,2s-.7,2-1.5,2-1.1-.8-.8-1.9a3,3,0,0,0-.2-2.8,4.27,4.27,0,0,1-1.1-2.1,4.82,4.82,0,0,0-.4-1.5,21.15,21.15,0,0,1-.8-4.3Zm-403.4.1c.2.1.3.3.3.7,0,1.2-1.1,3.2-2.6,4.5-1.6,1.5-2.4,3.3-1.9,4.8.4,1.3.2,2.4-.5,2.4-3.1,0-2.4-5.3,1.2-9.5,1.6-1.9,2.7-2.8,3.3-3,.1,0,.2,0,.2.1Zm-26,.5a1.3,1.3,0,1,1-1.3,1.3A1.32,1.32,0,0,1,69.1,507.2Zm13.3,0a1.35,1.35,0,0,0-1.4,1.3c0,.7.3,1.3.6,1.3s.9-.6,1.4-1.3S83.2,507.2,82.4,507.2Zm27.7,0c.8,0,1,.6.6,1.3s-1.1,1.3-1.4,1.3-.6-.6-.6-1.3A1.42,1.42,0,0,1,110.1,507.2Zm29,0c.7,0,1.3.9,1.3,2s-.6,2-1.3,2-1.3-.9-1.3-2S138.4,507.2,139.1,507.2Zm258,.2a4.05,4.05,0,0,1,1,.8c.9.9,1.3,2,.9,2.4s-1.1-.3-1.6-1.6S396.8,507.3,397.1,507.4Zm-272,.3c1-.1.3,1.8-2.6,4.8-2.1,2.2-3.3,3.9-2.7,3.9s2.2-1.3,3.6-2.9,2.9-2.4,3.5-1.9-.2,1.8-1.7,2.9c-2,1.5-2.2,2.2-.9,3a2.94,2.94,0,0,1,1.5,2.3c-.5,2.9.2,5.9,1.3,5.2.7-.4.9-1.9.5-3.2-.4-1.6.4-3.2,2.2-4.5,2.1-1.5,2.6-2.8,2-4.8-.5-1.6-.3-2.8.5-2.8a1.37,1.37,0,0,1,1.4,1.4c0,.8.7,1,1.5.5,3.2-1.9,5.4,7.9,2.4,10.8-.9.9-.9,2.5,0,5,1.1,2.8.9,4-.7,5.6-1.4,1.4-1.6,2.5-.7,3.6s.5,2.3-1.3,3.8c-2.3,2-2.6,2-2.6.1,0-1.7-.4-1.8-2-.5-1.4,1.1-2,1.2-2,.2a1.54,1.54,0,0,1,1.5-1.5c.9,0,1.1-1.3.7-3.2s-.2-3.6.5-4,1.3.2,1.3,1.4c0,2.1.2,2.1,2.6-.1,2-1.8,2.3-2.8,1.2-4.2-.8-1-1-1.8-.5-1.8s.3-.8-.5-1.8c-1.2-1.4-1.1-2.3.5-3.9,2.6-2.6,2.6-4.4,0-2.2-1.1.9-2,1.1-2,.3a5.41,5.41,0,0,1,2-3c1.1-.9,1.8-1.9,1.5-2.2-.7-.7-8.8,7.1-8.8,8.4,0,.5.7.3,1.6-.6,2.6-2.6,4.3-1.8,1.9.8a8.72,8.72,0,0,0-2.2,3.6c0,.6.6.3,1.2-.7,1.4-2.2,2-1.8,3.3,2.3.6,1.8.4,3-.5,3a1.35,1.35,0,0,1-1.4-1.3c0-.7-1.8.2-3.9,2.2s-3.6,4.1-3.1,4.8,1.3.5,1.9-.5,1.1-1.2,1.2-.3a4.86,4.86,0,0,1-1.8,3c-1.5,1.2-2,.9-2.7-1.8-.6-2.2-1.5-3-2.8-2.5-2.7,1-2.5-.4.6-3.8,2.5-2.7,3.2-9,1.1-9-.6,0-1,.6-1,1.3a1.23,1.23,0,0,1-1.1,1.3c-.6,0-1.5-2.4-1.9-5.3-.6-4.5-.2-5.9,2.6-8.7,2-1.6,3.2-2.4,3.8-2.5Zm345.6,0a.76.76,0,0,0-.4.2c-.4.7-.1,2.7.6,4.5s1.6,2.7,1.9,1.9C473.4,512.7,471.8,507.9,470.7,507.7Zm-34.4.7c.6,0,1.1,1.2,1.9,3.8.5,1.6.4,3-.3,3-1.3,0-3.2-5.4-2.2-6.4A.72.72,0,0,1,436.3,508.4Zm-334.8.1c-.3,0-1,.6-1.4,1.3s-.2,1.3.6,1.3a1.35,1.35,0,0,0,1.4-1.3C102.1,509.1,101.9,508.5,101.5,508.5Zm54.8,0a1.35,1.35,0,0,0-1.4,1.3c0,.7.3,1.3.6,1.3s.9-.6,1.4-1.3S157.1,508.5,156.3,508.5Zm228.5,0a1.31,1.31,0,0,1,1.3,1.2,3.24,3.24,0,0,1-1.3,2.1c-.7.4-1.3-.1-1.3-1.2S384,508.5,384.8,508.5Zm76.9.3a7.57,7.57,0,0,1,1.1,2.2c1.3,3.2,1,4.8-.6,3.2-.5-.5-.8-2.1-.8-3.6C461.5,509.4,461.5,508.7,461.7,508.8ZM36.6,509c.1,0,.3.2.4.6a2.62,2.62,0,0,1-.1,2.5c-.4.4-.8-.3-.7-1.7C36.2,509.4,36.4,509,36.6,509Zm41.2.9c.3,0,.6.6.6,1.3a1.35,1.35,0,0,1-1.4,1.3c-.8,0-1-.6-.6-1.3S77.4,509.9,77.8,509.9Zm110.2,0a1.3,1.3,0,1,1-1.3,1.3A1.26,1.26,0,0,1,188,509.9Zm200.9,0c.8,0,1.1.9.7,2s-.2,2,.4,2,1.4-.7,1.8-1.7,1.1-1.2,1.6-.7.2,2-.9,3.3c-2,2.4-1.8,6.9.3,6.9.7,0,.9-1.5.4-3.3s-.3-3.3.5-3.3,1.6,1.3,1.8,3,1.2,2.8,2.1,2.6,1.6.3,1.6,1a1.32,1.32,0,0,1-1.3,1.3c-.7,0-1.3,1-1.3,2.1,0,1.8.4,1.8,2,.5,1.4-1.1,2-1.2,2-.2a1.54,1.54,0,0,1-1.5,1.5c-.9,0-1.1,1.3-.6,3.3s.3,3.3-.5,3.3-1.3-1.5-1.3-3.3c0-4-1.4-4.2-4.6-.7-1.3,1.5-2.6,2.4-2.9,2.1s1.1-2.1,3-4.1,3.2-3.9,2.7-4.3-1.9.5-3.2,2-2.8,2.5-3.3,2,.1-1.5,1.2-2.3c1.8-1.3,1.8-2.1,0-7.2C387,511.1,386.9,509.9,388.9,509.9ZM70.4,511.2a1.3,1.3,0,1,1-1.3,1.3A1.32,1.32,0,0,1,70.4,511.2Zm94.5,0c-.4-.1-1.5.5-2.9,1.9a4.6,4.6,0,0,0-1.1,4.6c.5,1.5,1.2,2.6,1.6,2.6s.3-1-.1-2.2.1-3.2,1.4-4.6S165.3,511.3,164.9,511.2Zm320.7.3c.2,0,.3,0,.4.1.4.4-.2,1.7-1.3,2.8-2.1,2.1-3.6,2.6-3.6,1.3S484.3,511.7,485.6,511.5Zm-334,.1c.4-.1.7.2.7.7a14.62,14.62,0,0,0,.8,3.4c.4,1.1.2,2.1-.5,2.1-1.7,0-3-5.1-1.5-6C151.3,511.7,151.4,511.6,151.6,511.6Zm138.8.8c.8,0,2,.7,3.6,2.2,4.1,3.8,4.2,4.3,1.6,7.7-2.2,2.9-8.6,6.5-8.6,4.8a2.85,2.85,0,0,1,1.2-1.9c.7-.4,1-3,.8-5.8C288.6,514.7,289,512.5,290.4,512.4Zm157.6.1c.8,0,1.8,2.1,2.3,4.7,1,5.4,0,7.6-1.3,2.8a50.13,50.13,0,0,0-1.6-5.3C447,513.6,447.2,512.5,448,512.5Zm-317.7.4c.9,0,1,1.2-.4,2.9-1.6,2-4,2.7-4,1.3a7.63,7.63,0,0,1,2-2.8A3.82,3.82,0,0,1,130.3,512.9Zm177.3.3c.1,0,0,.2-.1.4a2.17,2.17,0,0,0,.8,3c1.5,1,1.5,1.2,0,1.2s-1.3.7.6,2.7c2.1,2.4,2.2,2.6.2,1.8-1.2-.5-2.2-.3-2.2.5a2.39,2.39,0,0,0,1.5,1.9,1.82,1.82,0,0,1,.8,2.4c-.4,1.1-.8,1.3-.9.5s-1.6-3.1-3.5-5.1l-3.4-3.7,3.6-3.4c1.4-1.5,2.4-2.3,2.6-2.2Zm73.7.2c.1-.1.4.4,1,1.5,1.3,2.5,1.3,3.3-.1,4.2s-1.4,2-.2,5.4c.8,2.4,1.5,4.5,1.5,4.8,0,1.4-2.7.2-2.7-1.2-.1-.9-.4-3.1-.7-4.8s0-3.9.8-4.8a5.2,5.2,0,0,0,.6-4.1C381.3,513.8,381.2,513.5,381.3,513.4Zm-315.4.4c-.3,0-1,.6-1.4,1.3s-.2,1.3.6,1.3a1.35,1.35,0,0,0,1.4-1.3C66.5,514.4,66.2,513.8,65.9,513.8Zm82.4,0a1.3,1.3,0,1,1-1.3,1.3A1.32,1.32,0,0,1,148.3,513.8Zm360.7,0c.8,0,1,.6.6,1.3s-1.1,1.3-1.4,1.3-.6-.6-.6-1.3A1.35,1.35,0,0,1,509,513.8Zm-108.3.2c.5,0,.9.4,1.4,1.2a6.79,6.79,0,0,1,1.2,2.8,2.56,2.56,0,0,1-1.3,1.7c-.7.4-1.3-.2-1.3-1.4,0-1.8-.4-1.9-2-.6-1.1.9-2,1.1-2,.3a5.16,5.16,0,0,1,2.1-3A3.17,3.17,0,0,1,400.7,514Zm-82.9.2a12.08,12.08,0,0,1,1.8,1.1c1.4,1,5.6,4.1,9.3,6.8a53.71,53.71,0,0,1,10.2,9.9c1.9,2.7,4.7,6.6,6.2,8.5l2.7,3.6-15.4.4c-8.5.2-15.6.1-15.9-.4s.1-6,.8-12.2.9-13,.4-14.9C317.4,514.9,317.2,514.1,317.8,514.2Zm56.8.1q.15-.15.9,1.5a18.07,18.07,0,0,1,1.2,3.6.92.92,0,0,1-.9,1c-.5,0-1.1-1.6-1.2-3.6A8.37,8.37,0,0,1,374.6,514.3ZM38,514.4c.5.1.6.4.4,1-.7,2-3.7,3.1-3.7,1.3,0-.7.9-1.7,2.1-2.1A3,3,0,0,1,38,514.4Zm332.7,0a13.3,13.3,0,0,1,1.6,3.1c1.1,2.4,1.6,4.9,1.2,5.6s-.1,1.2.6,1.2,1.4,1.6,1.4,3.6c0,2.8-.3,3.2-1.3,1.7-1.2-1.8-1.4-1.8-2.6,0-.8,1.2-1.3,1.4-1.3.4a3.23,3.23,0,0,1,1.3-2.4c.7-.5,1-2.3.7-4s-.9-4.9-1.3-6.9C370.7,515.1,370.6,514.3,370.7,514.4Zm14.6.4c.1-.1.5.4,1.1,1.5,1.3,2.5,1.3,3.3,0,3.7a2.24,2.24,0,0,0-1.6,1.7c0,.6.9.8,2,.4s2-.1,2,.8-.7,1.1-1.5.6c-1.1-.7-1.3.2-.7,3.2.5,2.4.3,4.2-.5,4.2-1.2,0-1.8-2.3-1.6-6.3,0-.9-.6-1.7-1.3-1.7s-.4-1.1.8-2.5a6.1,6.1,0,0,0,1.5-5c-.2-.2-.3-.5-.2-.6Zm-271.3.3a1.3,1.3,0,1,0,1.3,1.3A1.32,1.32,0,0,0,114,515.1Zm332.1.3c.1,0,.1,0,.2.1.3.3-.6,1.7-2,3s-2.7,2-2.7,1.4c0-1.3,3.5-4.7,4.5-4.5Zm66.6.1a.22.22,0,0,1,.2.2,7,7,0,0,1-2,2.9c-1.1,1.1-2,1.4-2,.7a5.23,5.23,0,0,1,2-2.9C511.7,515.8,512.4,515.4,512.7,515.5Zm-78.8.2c.5.3,1.9,3.7,3.6,9.3,1.6,5.4,2.7,10.9,2.5,12.1s-1.2-.7-2.1-4.3-2.3-8.7-3.1-11.5C433.7,517.2,433.5,515.5,433.9,515.7Zm27.1.1c.6.1.2,1.1-1.6,2.8-2.1,2.1-3.4,2.4-3.4.9,0-.6,1.2-1.7,2.6-2.7C459.9,516.1,460.7,515.7,461,515.8Zm-387.2.5c0-.1-.1,0,0,0a5.22,5.22,0,0,0-.3,2.5c0,4.9.6,5.3,3.1,2,2.3-3.1,2.3-5,0-3.1-1.5,1.2-2,1.1-2.4-.8-.3-.4-.3-.6-.4-.6Zm390.2.2a1.3,1.3,0,1,1-1.3,1.3A1.32,1.32,0,0,1,464,516.5Zm15.7,0c.8,0,1.1.9.7,2s-.1,2,.7,2a1.74,1.74,0,0,0,1.6-1.7c.1-.9.5-.6,1,.7.9,2.2,1.1,2.2,3.8-.3,1.6-1.5,3.4-2.7,3.9-2.7s-1.2,2.1-4,4.6c-3.8,3.4-4.8,5.2-4.2,7.2.5,1.6.3,2.7-.6,2.7s-1.3-.4-1.3-1a8.62,8.62,0,0,0-.1-1.7c-.1-.4-.4-1.6-.7-2.6s-.8-3.6-1.4-5.6C478.6,517.8,478.8,516.5,479.7,516.5Zm-333.6.1c.2,0,.3.1.5.2.5.5,0,2-1.2,3.2-2.4,2.4-3,1-1-2.3A2.08,2.08,0,0,1,146.1,516.6Zm374.2.1c1.4-.1,7.1,5.1,7.1,6.6a1.23,1.23,0,0,1-1.3,1.1c-.7,0-1.3-.9-1.3-1.9a3.52,3.52,0,0,0-1.3-2.7c-.7-.5-1,0-.6,1.1s.2,2.3-.5,2.7c-1.4.8-3.5-5.6-2.3-6.8,0-.1.1-.1.2-.1Zm-4.4.2c.1-.1.5.5,1.1,1.9,1.1,2.2,1.1,3.4-.2,5-2.1,2.5-4.5,2.6-3.5.1a1.94,1.94,0,0,0-.8-2.5c-.9-.3-1.1-1-.6-1.6s1.9.1,3.1,1.5c2,2.4,2,2.3,1.3-1.4A15.31,15.31,0,0,1,515.9,516.9Zm-240.3.2c.8,0,2,3.2,2.5,7.1.8,5.8,3.1,12,7.3,20.3.3.5-6.7,1-15.6,1-18.4,0-17.5,1.1-9.8-12.7C264.3,525.2,272.3,517.1,275.6,517.1Zm-208.4.7c-.3,0-1,.6-1.4,1.3s-.2,1.3.6,1.3a1.35,1.35,0,0,0,1.4-1.3C67.8,518.4,67.5,517.8,67.2,517.8Zm54.7,0a1.3,1.3,0,1,0,1.3,1.3A1.26,1.26,0,0,0,121.9,517.8Zm-39.9.4c-.5.1-1.7,1-3.6,2.9-2.2,2.1-4,4.4-4,5.2s1.8-.5,4-2.8C81.6,520,82.8,518,82,518.2Zm106.8.1c-.7-.1-2.4,1-4.1,2.7-2.4,2.4-3.2,4.3-2.6,6.2.7,2.2,1.2,2.4,2.8,1.1a4.09,4.09,0,0,0,1.3-4,3.23,3.23,0,0,1,1.5-3.6c1.2-.7,1.8-1.6,1.3-2.1C189,518.3,188.9,518.3,188.8,518.3Zm-93.6.1c.6.1.2,1.1-1.6,2.8-2.1,2.1-3.4,2.4-3.4.9,0-.6,1.2-1.7,2.6-2.7A6.17,6.17,0,0,1,95.2,518.4Zm269.6.5a1.35,1.35,0,0,1,.9.5c.4.4.6,2.2.3,3.9l-.5,3.1-.9-3.2C364,520.7,364.1,519,364.8,518.9Zm96.6.1c.6,0,1.1,1.2,1.9,3.8.5,1.6.4,3-.3,3-1.3,0-3.2-5.4-2.2-6.4A.72.72,0,0,1,461.4,519Zm-400.6.1c2.4,0,3.3,6.5,1.2,8.6-2.5,2.5-3.9,2.5-3-.1.4-1.1.1-2-.7-2s-.5-1,.7-2.4,1.8-2.8,1.3-3.3S60,519.1,60.8,519.1Zm9.6,0a1.3,1.3,0,1,0,1.3,1.3A1.32,1.32,0,0,0,70.4,519.1Zm27.8,0a1.3,1.3,0,1,1-1.3,1.3A1.26,1.26,0,0,1,98.2,519.1Zm96.8,0c.8,0,.1,1.2-1.5,2.6s-3.2,2.6-3.8,2.6.2-1.2,1.5-2.6S194.3,519.1,195,519.1Zm174.4.5c.5,0,.8.5.8,1.4,0,1.1-.6,2.1-1.3,2.1a1.31,1.31,0,0,1-1.3-1.2,3.24,3.24,0,0,1,1.3-2.1A1.69,1.69,0,0,1,369.4,519.6Zm76.9.4c.4.1.7.7,1,2,.4,1.6.2,3.6-.5,4.4-.8,1-.8,2.8.1,5.1a36.14,36.14,0,0,1,1.3,4.1c0,.3-.5.6-1.1.6s-1.7-2-2.5-4.5c-1.1-3.7-1-4.9.8-6.8,2-2.1,2-2.2-.2-1.5-2.8,1-3,0-.5-2.5a4,4,0,0,1,1.3-1,.37.37,0,0,0,.3.1Zm-146.3.4,3.3,4a28.28,28.28,0,0,1,4.2,6.7c.9,2.7.3,3.7-5.8,10.8-3.4,3.9-6.5,4.7-7.3,2a64.06,64.06,0,0,1-1.3-7.7c-.7-5.3-.3-6.6,3.1-10.9Zm-183.4,0a1.3,1.3,0,1,1-1.3,1.3A1.32,1.32,0,0,1,116.6,520.4Zm307.6,0c2.2,0,2.8,5.8.7,7-1.5.8-1.6,1.6-.6,2.9s1,2,.1,2.6-1.4.2-1.4-.5a1.37,1.37,0,0,0-1.4-1.4c-.8,0-1.1,1.1-.6,2.6s.5,2.6.2,2.6-1.1-1.2-1.5-2.8c-.6-2-.1-3.3,2-4.8s2.7-2.8,2.1-5.2C423.4,521.8,423.6,520.4,424.2,520.4Zm41.1,0a1.3,1.3,0,1,1-1.3,1.3A1.32,1.32,0,0,1,465.3,520.4Zm-11.5.2c.2,0,.4.1.7.4,1,1,1.2,1.7,1.5,5.4.1,1.1.8,2,1.5,2s1-1.4.5-3.3c-.5-2.2-.3-3.3.8-3.3.9,0,1.3.9.9,1.9a2.11,2.11,0,0,0,.8,2.6c1.1.5.8,1.1-.7,2.1s-2.1,2.4-1.5,4.7c.8,3.3,0,4.3-1.5,1.9-.4-.7-.5-1.3-.1-1.3s-.2-2.5-1.2-5.5C453.7,523.3,453.1,520.6,453.8,520.6Zm53.2.5c.4.1.7.8,1,2.2.9,3.6-.1,5-1.8,2.4-.9-1.5-1.2-1.1-1.2,1.7,0,2,.6,3.6,1.3,3.6a1.32,1.32,0,0,0,1.3-1.3,1.35,1.35,0,0,1,1.4-1.3c.7,0,.3,1.6-1,3.6-2.1,3.3-2.1,3.5-.1,2.7a2.29,2.29,0,0,1,2.9.7c.5,1.1,1,1,2-.4.9-1.2,1.4-1.4,1.4-.4a2.91,2.91,0,0,1-1.4,2.4c-.8.5-1.1,2.1-.7,3.7.6,2.3.4,2.2-.9-.4-.9-1.8-1.7-3.5-1.9-3.8s-1.2.3-2.2,1.3a12.89,12.89,0,0,0-2.6,3.8c-.5,1.3-.8,1-.9-1-.1-1.6.6-3,1.4-3s1.1-.9.5-2.3c-2.8-6.7-3-10.8-.7-12.9C506,521.5,506.6,521,507,521.1Zm-30.7.2c.5,0,.9.4,1.3,1.3a4.43,4.43,0,0,1,.4,3.5c-.6,1.5-1.3.1-1-2,.3-1.7-2.2-1.1-2.9.7-.3.9-1.1,1.2-1.7.6s.1-1.8,1.5-2.9A5.6,5.6,0,0,1,476.3,521.3Zm-408.5.4a1.3,1.3,0,1,0,1.3,1.3A1.32,1.32,0,0,0,67.8,521.7Zm27.7,0a1.3,1.3,0,1,1-1.3,1.3A1.32,1.32,0,0,1,95.5,521.7Zm307.8,0c.8,0,1,.6.6,1.3s-1.1,1.3-1.4,1.3-.6-.6-.6-1.3A1.42,1.42,0,0,1,403.3,521.7Zm79.3,0a1.35,1.35,0,0,0-1.4,1.3c0,.7.3,1.3.6,1.3s.9-.6,1.4-1.3S483.4,521.7,482.6,521.7Zm12.7,0c.6,0,1.3,1.5,1.4,3.3s0,3.3-.4,3.3-.6-.5-.6-1.2a13,13,0,0,0-.8-3.3C494.5,522.7,494.6,521.7,495.3,521.7Zm15.7,0c.3,0,.6.6.6,1.3a1.35,1.35,0,0,1-1.4,1.3c-.8,0-1-.6-.6-1.3S510.7,521.7,511,521.7Zm-400.4.5c.4.1.8.8.8,1.8,0,2,.2,2.1,1.2.4.7-1.1,1.6-1.5,2.2-1s.2,1.8-.8,2.9-2.1,2-2.7,2c-1.5,0-2.6-5.2-1.2-6a.31.31,0,0,1,.2-.1Zm266.4.2c.6.1,1.5,1.8,2.2,4,.8,2.5,1,4.8.4,5.2s-1.6-1.4-2.4-4-1-4.8-.4-5.2Zm-315.7.7a1.35,1.35,0,0,0-1.4,1.3c0,.7.3,1.3.6,1.3s.9-.6,1.4-1.3S62,523.1,61.3,523.1Zm123.4,0c.3,0,.6.6.6,1.3a1.35,1.35,0,0,1-1.4,1.3c-.8,0-1-.6-.6-1.3S184.4,523.1,184.7,523.1Zm237.1,0a1.3,1.3,0,1,1-1.3,1.3A1.26,1.26,0,0,1,421.8,523.1Zm-322.1.1a.9.9,0,0,1,.5.1c.4.4-.6,1.7-2,3s-2.7,1.8-2.7,1C95.5,525.9,98.4,523.2,99.7,523.2Zm-11.6.2a2.54,2.54,0,0,1,.7.2,1.75,1.75,0,0,1,.8,2.2c-.4.7-.1,1.2.6,1.2a1.42,1.42,0,0,0,1.4-1.3,1.24,1.24,0,0,1,1.2-1.3c1.7,0,1.4,7.1-.3,8.2-.8.5-1.1,1.3-.6,1.8s2.1-.4,3.6-1.9,2.7-2.3,2.7-1.8-2,2.9-4.5,5.3c-3.1,3-4.3,5.2-3.8,6.9.4,1.4.4,2.6,0,2.6-1.8,0-1.9-5.9-.1-7.6,1.1-1.1,1.5-2.4.9-2.8a4.34,4.34,0,0,1-1.3-2.8,40,40,0,0,0-1.2-5.8C87.7,524.4,87.6,523.5,88.1,523.4Zm17.4,1c-.3,0-1,.6-1.4,1.3s-.2,1.3.6,1.3a1.35,1.35,0,0,0,1.4-1.3C106.1,525,105.8,524.4,105.5,524.4Zm12.5,0a1.3,1.3,0,1,1-1.3,1.3A1.26,1.26,0,0,1,118,524.4Zm28.4,0c-.3,0-1,.6-1.4,1.3s-.2,1.3.6,1.3a1.35,1.35,0,0,0,1.4-1.3C147,525,146.8,524.4,146.4,524.4Zm27,0a1.3,1.3,0,1,1-1.3,1.3A1.32,1.32,0,0,1,173.4,524.4Zm267.6,0c.3,0,.6.6.6,1.3a1.35,1.35,0,0,1-1.4,1.3c-.8,0-1-.6-.6-1.3S440.7,524.4,441,524.4Zm-70.2.2c.1,0,.1,0,.2.1.3.3-.6,1.7-2,3s-2.7,2-2.7,1.4c0-1.3,3.5-4.7,4.5-4.5Zm-248.4.3c.5,0,.8.5.8,1.4,0,1.1-.6,2.1-1.3,2.1a1.31,1.31,0,0,1-1.3-1.2,3,3,0,0,1,1.3-2.1A.65.65,0,0,1,122.4,524.9Zm405.4,0c2-.2,6.3,5,5.5,7.1-.3.9.3,1.7,1.4,1.7,2.5,0,2.5,2.1,0,3.1-1.2.5-2,0-2-1.2s-.6-1.9-1.3-1.9c-1.6,0-1.7,3.9-.2,6.3.9,1.4,1.4,1.3,2.8-.3,2.3-2.8,3.3-2.6,5.1,1.3s1,4.4-1,1q-1.35-2.25-2.4-.9c-.6.7-2.9,1.4-5.3,1.4-2.9,0-3.8-.4-3-1.3,2.1-2.1,1.5-3.9-.7-2.1-3.2,2.7-2.2-.2,1.4-4,3.5-3.6,3.3-8.7-.2-7.3-2.1.8-2.5-1.3-.5-2.5C527.6,525,527.7,524.9,527.8,524.9Zm-108.7.8a1.3,1.3,0,1,1-1.3,1.3A1.32,1.32,0,0,1,419.1,525.7Zm92.5,0a1.3,1.3,0,1,1-1.3,1.3A1.26,1.26,0,0,1,511.6,525.7Zm10.8.9c.6,0,1,.8,1.7,2.5,1.1,2.5,1.7,2.9,3,1.6.9-.9,1.6-1,1.6-.3,0,1.6-2.7,4.5-4.2,4.5-.6,0-1.1-1.5-1.1-3.3s-.6-3.3-1.3-3.3-1,1.4-.5,3.3c.5,2.2.3,3.3-.8,3.3-.9,0-1.3-.9-.9-1.9a1.94,1.94,0,0,0-.8-2.5c-1-.4-.7-1.3,1.1-2.7a6.43,6.43,0,0,1,2-1.3A.31.31,0,0,0,522.4,526.6Zm-88.8.4a1.3,1.3,0,1,1-1.3,1.3A1.32,1.32,0,0,1,433.6,527Zm41.1,0c.8,0,1,.6.6,1.3s-1.1,1.3-1.4,1.3-.6-.6-.6-1.3A1.35,1.35,0,0,1,474.7,527Zm-70.8.2c1.2-.1,2,1.1,2,3.5,0,.9-.6,1.7-1.3,1.7a1.32,1.32,0,0,1-1.3-1.3c0-.7-1-.9-2.3-.5-2,.7-1.9.4.3-1.8A5.06,5.06,0,0,1,403.9,527.2Zm-288.5.1c.7-.1,1.1,1,1.9,3.4.6,1.8.4,3-.5,3a1.37,1.37,0,0,1-1.4-1.4c0-.8-.7-1-1.5-.5s-1,1.3-.3,1.7c1,.7,1.6,3,2.2,9.3.1,1.3-1.2,2-4.1,2.2-3.4.2-3.9-.1-2.6-1.2a30.93,30.93,0,0,0,3.7-4.1c1.7-2.3,1.7-2.5-.4-1.7-1.3.5-2.3.3-2.3-.4a1.32,1.32,0,0,1,1.3-1.3,1.44,1.44,0,0,0,1.3-1.5c0-.8-.8-1.1-1.9-.7a2,2,0,0,1-2.6-1.3c-1.2-3-.9-4.4.7-4.4.8,0,1.1.9.7,2-1.1,2.8.4,2.4,3.3-.9C114.1,528.1,114.8,527.3,115.4,527.3Zm38.6,0c-1.7-.2-4.1,3.6-3.4,6.2.4,1.5,1,2.8,1.4,2.8s.3-1.2,0-2.6a3.33,3.33,0,0,1,1.5-3.9c1.2-.7,1.8-1.6,1.3-2.1a1.2,1.2,0,0,0-.8-.4Zm-106.5.3a5.72,5.72,0,0,0-2.8,2.1c-1.3,1.5-2,2.6-1.4,2.6,1.4,0,5.2-4,4.4-4.7Zm415.4,0c.2-.1.7.7,1.2,2,.7,1.7,1,3.4.7,3.7-.7.7-2.2-3.2-2.1-5.3C462.8,527.7,462.8,527.6,462.9,527.6Zm-14.5.1c.6,0,1.3,1.1,1.7,2.7.5,1.9,1.4,3,2.3,2.5s.9-1.2-.2-1.9-1.1-1.3-.2-1.8,1.8.4,2.3,2,.3,3.2-.4,3.7-1.3,2.5-1.3,4.6c0,2.7.4,3.3,1.4,2.3,1.7-1.7,3.5-1.8,3.5-.3,0,1.8-5.4,2.8-5.9,1-.3-.9-1.4-4.4-2.5-7.8s-1.5-6.6-.9-6.9C448.2,527.7,448.3,527.7,448.4,527.7Zm68.1,0c.6.1.2,1.1-1.6,2.8-2.1,2.1-3.4,2.4-3.4.9,0-.6,1.2-1.7,2.6-2.7C515.4,527.9,516.1,527.6,516.5,527.7Zm-108.8,0a7.35,7.35,0,0,1,1,1.6c1.3,2.6,1.1,3.3-1.5,5.6-4.2,3.6-5.1,3.3-1.5-.5,1.8-1.9,2.6-4.1,2.2-5.6C407.6,528,407.6,527.6,407.7,527.7Zm19.2.5a1.35,1.35,0,0,1,.9.5c.4.4.6,2.2.3,3.9l-.5,3.1-.9-3.2C426,529.9,426.2,528.3,426.9,528.2Zm-373.6.2c.8,0,1,.6.6,1.3s-1.1,1.3-1.4,1.3-.6-.6-.6-1.3A1.42,1.42,0,0,1,53.3,528.4Zm10.5,0a1.3,1.3,0,1,1-1.3,1.3A1.32,1.32,0,0,1,63.8,528.4Zm27.8,0a1.3,1.3,0,1,0,1.3,1.3A1.32,1.32,0,0,0,91.6,528.4Zm27.7,0a1.3,1.3,0,1,1-1.3,1.3A1.32,1.32,0,0,1,119.3,528.4Zm55.5,0a1.3,1.3,0,1,1-1.3,1.3A1.26,1.26,0,0,1,174.8,528.4Zm267.5,0c.3,0,.6.6.6,1.3a1.35,1.35,0,0,1-1.4,1.3c-.8,0-1-.6-.6-1.3S442,528.4,442.3,528.4Zm37,0c.3.1.5.4.5.9s-1.2,1.7-2.6,2.7c-3.1,1.9-3.5,1-.8-1.8C477.8,528.9,478.8,528.3,479.3,528.4Zm-11.8.2c.3.1.5.6.5,1.5,0,2.5,2.6,3.1,2.7.6,0-.9.7-.2,1.3,1.5s1,3.5.6,3.9-.7,0-.7-.9a1.37,1.37,0,0,0-1.2-1.5c-.7,0-.9,1.2-.5,2.6,1.1,4.4-.3,3-2.1-2.1-.9-2.6-1.4-5.1-.9-5.5.1-.1.2-.2.3-.1Zm26.6.2c.7-.1-.3,1.6-3,4.3-1.8,1.8-3.7,3.2-4.2,3.2s-.5-.4-.1-.9.2-1.6-.5-2.5c-1-1.1-.9-1.9,0-2.5s1.4.2,1.4,1.4c0,2,.5,1.8,3.3-.8,1.7-1.5,2.7-2.2,3.1-2.2Zm-33.9.2,1.9,5.1c1,2.8,1.6,5.6,1.2,6.3s0,1.2.8,1.2,1.3-1.1.9-2.6-.1-3,.6-3.4,1.1.7.9,2.9c-.4,3.7-2.9,5.7-4.3,3.4a32.45,32.45,0,0,1-1.4-7Zm-281.4.7c.8,0,1,.6.6,1.3s-1.1,1.3-1.4,1.3-.6-.6-.6-1.3A1.35,1.35,0,0,1,178.8,529.7Zm252.2,0a1.3,1.3,0,1,1-1.3,1.3A1.32,1.32,0,0,1,431,529.7Zm-363.2.1c1,0,1.8,1.5,2.1,4.2a15.9,15.9,0,0,0,.5,3c1.1,0,1,6.7-.1,8.1a4.86,4.86,0,0,1-3,1.8c-.8,0-.4-.9,1-1.9,2.1-1.6,2.3-2.5,1-6.1-.8-2.3-1.2-4.7-.8-5.2s-.1-1.3-1-1.6-1.2-1.1-.7-1.7A1.11,1.11,0,0,1,67.8,529.8Zm296.6.1c.4-.1,1,.6,1.4,1.7s.6,2.5.2,2.9-1-.3-1.5-1.6-.6-2.5-.1-3ZM61.2,531a1.3,1.3,0,1,1-1.3,1.3A1.26,1.26,0,0,1,61.2,531Zm332.5,0c.7,0,1.6,1.2,2,2.6s.2,3-.5,3.4-1.2.2-1.2-.5a14.62,14.62,0,0,0-.8-3.4C392.8,531.9,393,531,393.7,531Zm-292.5.3a9.33,9.33,0,0,1,1.2,2c1.3,2.6,1.1,3.5-2.2,6.9-3.5,3.6-3.1,5.9.4,2.3,1.2-1.2,1.6-1.2,1.6,0,0,.9-.4,1.7-1,1.7-6.4,1-8.1.8-8.8-1.1-.9-2.3,1.4-5.7,3.7-5.6.9.1.9.4-.2.8a3.24,3.24,0,0,0-1.7,2.8c0,1.6,1,1.1,4-1.7,2.7-2.6,3.8-4.7,3.3-6.5C101.2,531.9,101.1,531.3,101.2,531.3Zm-66.1.4c.2-.1.6.6,1.1,1.9.7,1.8,1.1,3.8.8,4.6-.6,1.7-2.3-2.6-2.2-5.5C34.9,532,34.9,531.7,35.1,531.7Zm340.4,0,1.4,3.6c1.1,2.9,1,4-.6,5.6-2.3,2.3-3.5,2.5-3.5.8,0-.6.9-1.5,2-2,1.4-.5,1.8-1.9,1.3-4.4Zm141.4,0c.5,0,1,1,1,2.6a7.2,7.2,0,0,1-1.8,4.8c-1.3,1.1-1.8,1.1-1.8,0a1.45,1.45,0,0,1,1.4-1.5c.8,0,1.1-1.1.6-2.5s-.3-2.9.4-3.3C516.7,531.7,516.8,531.7,516.9,531.7Zm-451.3.6c.5-.1.8.2.8,1-.1,1.2-7.9,7.5-7.9,6.4,0-.4,1.3-2.2,2.9-4.1C63.2,533.6,64.7,532.4,65.6,532.3Zm336.3,0a1.3,1.3,0,1,1-1.3,1.3A1.32,1.32,0,0,1,401.9,532.3Zm41,0a1.73,1.73,0,0,1,1.5,1.7c.1.9.3,3,.4,4.6.6,5.1-.9,3.4-2.4-2.6C441.9,533.8,442.1,532.3,442.9,532.3Zm36.7,0c.7,0,1.6,2.2,2.1,4.9.9,5.6.3,7.4-.9,2.6a50.13,50.13,0,0,0-1.6-5.3C478.6,533.3,478.8,532.3,479.6,532.3Zm4.2,0c.7,0,1.3.9,1.3,2s-.6,2-1.3,2-1.3-.9-1.3-2S483.1,532.3,483.8,532.3Zm-92.6,1.2a1.35,1.35,0,0,1,.9.5c.4.4.6,2.2.3,3.9l-.5,3.1-.9-3.2C390.4,535.2,390.5,533.6,391.2,533.5Zm-252,0c.7.2,1.1,2,1.9,6.4.8,4.9.6,5.6-1.5,5.6-1.9,0-2-.3-.6-1.2s1.5-2,.3-5.5c-.8-2.4-1.2-4.6-.8-5A.91.91,0,0,1,139.2,533.5Zm-93.9.1a1.3,1.3,0,1,0,1.3,1.3A1.32,1.32,0,0,0,45.3,533.6Zm27.8,0a1.3,1.3,0,1,1-1.3,1.3A1.26,1.26,0,0,1,73.1,533.6Zm107,0c.8,0,1,.6.6,1.3s-1.1,1.3-1.4,1.3-.6-.6-.6-1.3A1.42,1.42,0,0,1,180.1,533.6Zm252.3,0c.8,0,1,.6.6,1.3s-1.1,1.3-1.4,1.3-.6-.6-.6-1.3A1.35,1.35,0,0,1,432.4,533.6Zm3,.5c.1,0,.3.2.4.6a2.62,2.62,0,0,1-.1,2.5c-.4.4-.8-.3-.7-1.7C435.1,534.5,435.2,534.1,435.4,534.1Zm63.5.3c.6-.1.7.3.7,1.2,0,1.2-.6,1.8-1.3,1.3s-1.3-.3-1.3.3-1.2,1.8-2.6,2.7c-4,2.5-3,.1,1.4-3.4A14.48,14.48,0,0,1,498.9,534.4ZM88.1,535c.5-.1.8.2.8,1-.1,1.2-7.9,7.5-7.9,6.4,0-.4,1.3-2.2,2.9-4.1S87.2,535.1,88.1,535Zm-10.9,0c.8,0,1.1.9.7,2s-.3,2,.4,2,1.1,1.5,1.1,3.3c0,4.3-.4,4.2-2.2-.9-1.9-5.3-1.9-6.4,0-6.4Zm65.9,0a1.3,1.3,0,1,1-1.3,1.3A1.26,1.26,0,0,1,143.1,535Zm226.6,0c.3,0,.6.6.6,1.3a1.35,1.35,0,0,1-1.4,1.3c-.8,0-1-.6-.6-1.3S369.3,535,369.7,535Zm29.6,0a1.3,1.3,0,1,1-1.3,1.3A1.32,1.32,0,0,1,399.3,535Zm92.4,0a1.35,1.35,0,0,1,1.4,1.3c0,.7-.3,1.3-.6,1.3s-1-.6-1.4-1.3S490.9,535,491.7,535Zm-15.2.3c.4.2,1.1,1.7,1.9,3.7.8,2.3,1.2,4.5,1,4.8s-1.2-1.4-2-3.7-1.2-4.5-.9-4.8Zm-278.5.2a.55.55,0,0,1,.5.2,1.64,1.64,0,0,1,.6,2.1c-1.1,1.8-1.9,1.5-1.9-.8C197.2,536,197.6,535.5,198,535.5Zm325.2,0c.1,0,.2.1.2.3,0,.8-1.2,2.4-2.6,3.8s-2.6,2-2.6,1.5,1.2-2.2,2.6-3.8C521.9,536.1,522.8,535.5,523.2,535.5Zm-112.8.5q.15-.15.3.6a9,9,0,0,1,0,4c-.4.9-.6-.2-.6-2.3A5.64,5.64,0,0,1,410.4,536ZM40,536.3a1.3,1.3,0,1,1-1.3,1.3A1.32,1.32,0,0,1,40,536.3Zm41,0a1.3,1.3,0,1,1-1.3,1.3A1.32,1.32,0,0,1,81,536.3Zm53.6,0c-.3,0-1,.6-1.4,1.3s-.2,1.3.6,1.3a1.35,1.35,0,0,0,1.4-1.3C135.1,536.9,134.9,536.3,134.6,536.3Zm238.2,0a1.35,1.35,0,0,1,1.4,1.3c0,.7-.3,1.3-.6,1.3s-1-.6-1.4-1.3S372,536.3,372.8,536.3Zm16,0c.8,0,1,.6.6,1.3s-1.1,1.3-1.4,1.3-.6-.6-.6-1.3A1.35,1.35,0,0,1,388.8,536.3Zm24.9,0a1.35,1.35,0,0,1,1.4,1.3c0,.7-.3,1.3-.6,1.3s-1-.6-1.4-1.3S413,536.3,413.7,536.3Zm41.1,0a1.3,1.3,0,1,1-1.3,1.3A1.21,1.21,0,0,1,454.8,536.3Zm-332.1,0c.5,0,.2.8-1.2,2.4-1.2,1.4-1.9,3.4-1.4,4.6s.2,2.2-.7,2.2-1.2-.6-.8-1.2a1.58,1.58,0,0,0-.7-2.1c-.9-.6-.5-1.8,1.2-3.4A11.75,11.75,0,0,1,122.7,536.3Zm-55.7.2c.1,0,.1,0,.2.1.3.3-.6,1.7-2,3s-2.7,2-2.7,1.4c0-1.3,3.5-4.7,4.5-4.5Zm39.5.4c1,.2,2.2,2.7,2.2,4.8a1.16,1.16,0,0,1-1.2,1.2c-1.6,0-2.8-5.1-1.5-5.9.2-.1.3-.2.5-.1Zm341.5.5a1.35,1.35,0,0,1,.9.5c.4.4.6,2.2.3,3.9l-.5,3.1-.9-3.2C447.2,539.2,447.3,537.5,448,537.4Zm-374.6.1c.5,0,1.7,2.4,2,4.8.2,1.8.2,3.3-.1,3.3-.6,0-2.1-5.1-2.2-7.2C73.1,537.7,73.2,537.5,73.4,537.5Zm333.8.1a1.3,1.3,0,1,1-1.3,1.3A1.32,1.32,0,0,1,407.2,537.6Zm51.5,0a1.3,1.3,0,1,1-1.3,1.3A1.32,1.32,0,0,1,458.7,537.6Zm30.5,0c.8,0,1,.6.6,1.3s-1.1,1.3-1.4,1.3-.6-.6-.6-1.3A1.35,1.35,0,0,1,489.2,537.6Zm-434,.2h0c.4.2,1,1.4,1.8,3.8s.9,4.2.1,4.7-1.3.3-1.4-.3c-.7-5.4-.9-8.1-.5-8.2Zm151.6.1c.2,0,.4,0,.5.2.4.4-.5,2.1-2,3.7s-2.8,2.2-2.8,1.3C202.5,541.2,205.4,538,206.8,537.9Zm-156.1,1a1.35,1.35,0,0,0-1.4,1.3c0,.7.3,1.3.6,1.3s.9-.6,1.4-1.3S51.5,538.9,50.7,538.9Zm52.7,0a1.3,1.3,0,1,1-1.3,1.3A1.32,1.32,0,0,1,103.4,538.9Zm266.8,0a1.3,1.3,0,1,1-1.3,1.3A1.32,1.32,0,0,1,370.2,538.9Zm15.1.5c.1,0,.3.2.4.6a2.62,2.62,0,0,1-.1,2.5c-.4.4-.8-.3-.7-1.7C384.9,539.8,385.1,539.3,385.3,539.4Zm-185.4.5c.4-.1.7.6.7,1.7,0,3-.2,3.2-1.5,1.2a2.11,2.11,0,0,1,.3-2.6A.91.91,0,0,1,199.9,539.9Zm-158.1.4c.7.1.9.7.5,1.8a1.82,1.82,0,0,0,.8,2.4c1.1.4,1.1.8-.1,1.5-.9.5-1.6.3-1.6-.6s-.9-1.2-2-.8c-2.4.9-2.6-.7-.4-2.9,1.1-1,2.1-1.5,2.8-1.4Zm264.7.3a2.12,2.12,0,0,1,2.1,1.5c.5,1.4,0,2-1.9,2-1.5,0-2.5-.7-2.2-1.6A2.7,2.7,0,0,1,306.5,540.6Zm-128.6.2c.5,0,.8.5.8,1.4,0,2.3-.8,2.7-1.9.8a1.54,1.54,0,0,1,.6-2.1C177.6,540.8,177.7,540.7,177.9,540.8Zm222,.1c.4,0,.7.2.7.6,0,.6-.9,1.5-2,1.9s-2,.2-2-.4.9-1.5,2-1.9a2.35,2.35,0,0,1,.8-.2C399.6,540.9,399.7,540.8,399.9,540.9Zm-285.8.7a1.35,1.35,0,0,0-1.4,1.3c0,.7.3,1.3.6,1.3s.9-.6,1.4-1.3S114.9,541.6,114.1,541.6Zm52.9,0c.6,0,1.2.8,1.2,1.8a1.82,1.82,0,0,1-1.9,1.8,1.2,1.2,0,0,1-1.2-1.8C165.5,542.4,166.3,541.6,167,541.6Zm211.2,0a1.3,1.3,0,1,1-1.3,1.3A1.21,1.21,0,0,1,378.2,541.6Zm-333.4,0c.7-.1,1.8.7,2.3,2,.4,1.1.3,2-.3,2a3.11,3.11,0,0,1-2.8-2.9C44,542,44.3,541.6,44.8,541.6Zm163.1.1c1.1.1,2.6,1.4,2.6,2.5a1.22,1.22,0,0,1-1.2,1.2c-1.6,0-3.2-2.6-2.3-3.5A1.69,1.69,0,0,1,207.9,541.7Zm-122.1.7c.4.1.7.5,1,1.5.5,1.2.4,1.8-.1,1.3s-1.7-.3-2.7.5c-2.3,1.9-2.3.1.1-2.2C85,542.7,85.4,542.3,85.8,542.4Zm19,.5a1.3,1.3,0,1,1-1.3,1.3A1.26,1.26,0,0,1,104.8,542.9Zm40.9,0a1.3,1.3,0,1,1-1.3,1.3A1.32,1.32,0,0,1,145.7,542.9Zm-81,.4a.67.67,0,0,1,.5.7,2.84,2.84,0,0,1-1.3,2.1c-.7.4-1.3.2-1.3-.5a2.84,2.84,0,0,1,1.3-2.1,1.69,1.69,0,0,1,.5-.2Zm66,0c.2,0,.3.1.5.2.7.4,1.3,1.1,1.3,1.4s-.6.6-1.3.6a1.35,1.35,0,0,1-1.3-1.4C129.9,543.5,130.2,543.3,130.7,543.3Z"/></g></g></svg>