<?xml version="1.0" encoding="utf-8"?>
<!-- Generator: Adobe Illustrator 21.1.0, SVG Export Plug-In . SVG Version: 6.00 Build 0)  -->
<svg version="1.1" id="Layer_1" xmlns="http://www.w3.org/2000/svg" xmlns:xlink="http://www.w3.org/1999/xlink" x="0px" y="0px"
	 viewBox="0 0 1280 1024" style="enable-background:new 0 0 1280 1024;" xml:space="preserve">
<style type="text/css">
	.st0{fill:#527993;}
	.st1{fill:#8E4A4A;}
	.st2{fill:none;stroke:#527993;stroke-width:3;stroke-miterlimit:10;}
	.st3{fill:none;stroke:#8E4A4A;stroke-width:3;stroke-miterlimit:10;}
	.st4{opacity:0.25;fill:#FFFFFF;stroke:#000000;stroke-width:0.75;stroke-miterlimit:10;}
	.st5{opacity:0.25;fill:#F9F9F9;stroke:#000000;stroke-width:0.75;stroke-miterlimit:10;}
</style>
<g>
	<polygon class="st0" points="0,1024 0,0 1083,0 148,1024 	"/>
</g>
<g>
	<polygon class="st1" points="148,1024 1280,1024 1280,0 1083,0 	"/>
</g>
<line class="st2" x1="1096" y1="0" x2="653" y2="491"/>
<line class="st3" x1="585" y1="529" x2="135" y2="1020"/>
<path class="st4" d="M1047.3,519.9c-95.6,0-173,77.5-173,173s77.5,173,173,173s173-77.5,173-173S1142.9,519.9,1047.3,519.9z
	 M1047.3,873.8c-99.9,0-180.9-81-180.9-180.9s81-180.9,180.9-180.9c99.9,0,180.9,81,180.9,180.9S1147.2,873.8,1047.3,873.8z"/>
<polygon class="st4" points="1162.9,711.9 1162.9,794.7 941.9,794.7 941.9,711.9 1052.4,744.4 "/>
<path class="st4" d="M1154.8,659.2c0,2.7-2.2,4.9-4.9,4.9h-195c-2.7,0-4.9-2.2-4.9-4.9c0-2.7,2.2-4.9,4.9-4.9h23.2l25.5-89.4
	l48.7,32.5l48.7-19.5l28.6,76.4h20.1C1152.6,654.3,1154.8,656.5,1154.8,659.2z"/>
<path class="st4" d="M1122.3,689.1c0,9.8-8,17.9-17.9,17.9c-8.2,0-15.1-5.5-17.2-13h-18.6c-2.7,0-4.9-2.2-4.9-4.9
	c0-2.7,2.2-4.9,4.9-4.9h48.7C1120.1,684.3,1122.3,686.4,1122.3,689.1z"/>
<path class="st5" d="M1041,688.5c0,9.8-8,17.9-17.9,17.9c-8.2,0-15.1-5.5-17.2-13h-18.6c-2.7,0-4.9-2.2-4.9-4.9
	c0-2.7,2.2-4.9,4.9-4.9h48.7C1038.9,683.6,1041,685.8,1041,688.5z"/>
<path class="st4" d="M1205.9,967.9c10.1,0,15.5-6,15.5-16.7c0-8.1-2.7-13.4-11.3-21c-6.7-5.9-8.9-9.4-8.9-14.1
	c0-4.5,1.9-6.3,5.1-6.3c3.3,0,5.1,1.8,5.1,6.5v3.4h9.7V917c0-10.5-5-16.5-15-16.5c-10,0-15.3,6-15.3,16.3c0,7.5,2.8,12.8,11.4,20.4
	c6.7,5.9,8.8,9.4,8.8,14.8c0,4.9-2.1,6.5-5.3,6.5s-5.3-1.7-5.3-6.4v-4.5h-9.7v3.7C1190.8,961.9,1195.8,967.9,1205.9,967.9z"/>
<polygon class="st4" points="1158.4,967 1186.5,967 1186.5,957.6 1168.7,957.6 1168.7,937.5 1182.8,937.5 1182.8,928.1 
	1168.7,928.1 1168.7,910.8 1186.5,910.8 1186.5,901.5 1158.4,901.5 "/>
<polygon class="st4" points="1108,967 1117,967 1117,917.4 1117.2,917.4 1124.7,967 1133.3,967 1140.8,917.4 1141,917.4 1141,967 
	1150.7,967 1150.7,901.5 1136,901.5 1129.5,948.3 1129.3,948.3 1122.7,901.5 1108,901.5 "/>
<path class="st5" d="M1078.5,901.5h13.9l10.7,65.5h-10.3l-1.9-13v0.2h-11.7l-1.9,12.8h-9.5L1078.5,901.5z M1089.7,945.3l-4.6-32.4
	h-0.2l-4.5,32.4H1089.7z"/>
<polygon class="st5" points="1030.6,967 1039.7,967 1039.7,919.1 1039.9,919.1 1052.3,967 1062.9,967 1062.9,901.5 1053.7,901.5 
	1053.7,940.7 1053.5,940.7 1043.5,901.5 1030.6,901.5 "/>
<polygon class="st4" points="996.6,967 1024.7,967 1024.7,957.6 1006.9,957.6 1006.9,937.5 1021,937.5 1021,928.1 1006.9,928.1 
	1006.9,910.8 1024.7,910.8 1024.7,901.5 996.6,901.5 "/>
<path class="st4" d="M958.6,901.5h15.7c10.3,0,15.3,5.7,15.3,16.2v33.1c0,10.5-5.1,16.2-15.3,16.2h-15.7V901.5z M974.2,957.6
	c3.3,0,5.2-1.7,5.2-6.4v-34.1c0-4.7-2-6.4-5.2-6.4h-5.2v46.8H974.2z"/>
<path class="st4" d="M920.5,951.4V917c0-10.5,5.5-16.5,15.6-16.5c10.1,0,15.6,6,15.6,16.5v34.4c0,10.5-5.5,16.5-15.6,16.5
	C926,967.9,920.5,961.9,920.5,951.4z M941.4,952.1v-35.7c0-4.7-2.1-6.5-5.3-6.5c-3.3,0-5.3,1.8-5.3,6.5v35.7c0,4.7,2.1,6.5,5.3,6.5
	C939.4,958.5,941.4,956.8,941.4,952.1z"/>
<path class="st4" d="M899.7,967.9c9.9,0,15.2-6,15.2-16.1v-9.3h-9.7v10c0,4.3-2.1,6-5.1,6c-3.1,0-5.1-1.7-5.1-6V916
	c0-4.3,2.1-6.1,5.1-6.1c3.1,0,5.1,1.8,5.1,6.1v7.6h9.7v-6.9c0-10.1-5.2-16.1-15.2-16.1c-9.9,0-15.2,6-15.2,16.1v35.2
	C884.5,961.9,889.8,967.9,899.7,967.9z"/>
</svg>
