<svg id="Layer_1" data-name="Layer 1" xmlns="http://www.w3.org/2000/svg" viewBox="0 0 1280 1024"><defs><style>.cls-1{fill:#527993;}.cls-2{fill:#8e4a4a;}.cls-3,.cls-4{fill:none;stroke-width:3px;}.cls-3{stroke:#527993;}.cls-3,.cls-4,.cls-5{stroke-miterlimit:10;}.cls-4{stroke:#8e4a4a;}.cls-5{fill:#8e6632;stroke:#000;stroke-width:0.75px;opacity:0.54;isolation:isolate;}</style></defs><title>Artboard 1</title><polygon class="cls-1" points="0 1024 0 0 1083 0 148 1024 0 1024"/><polygon class="cls-2" points="148 1024 1280 1024 1280 0 1083 0 148 1024"/><line class="cls-3" x1="1096" x2="768" y2="363"/><line class="cls-4" x1="494.31" y1="627.95" x2="135" y2="1020"/><path class="cls-5" d="M633.67,355.94A122.69,122.69,0,1,0,756.35,478.63,122.68,122.68,0,0,0,633.67,355.94Zm0,251A128.29,128.29,0,1,1,762,478.63,128.3,128.3,0,0,1,633.67,606.92Z"/><polygon class="cls-5" points="715.65 492.11 715.65 550.83 558.92 550.83 558.92 492.11 637.28 515.16 715.65 492.11"/><path class="cls-5" d="M709.9,454.73a3.48,3.48,0,0,1-3.48,3.48H568.14a3.48,3.48,0,1,1,0-7h16.45l18.08-63.4,34.54,23,34.54-13.83L692,451.26h14.25A3.51,3.51,0,0,1,709.9,454.73Z"/><path class="cls-5" d="M686.85,475.94A12.69,12.69,0,0,1,662,479.41H648.77a3.48,3.48,0,0,1,0-7h34.54A3.54,3.54,0,0,1,686.85,475.94Z"/><path class="cls-5" d="M629.2,475.51A12.69,12.69,0,0,1,604.31,479H591.11a3.48,3.48,0,1,1,0-7h34.54A3.45,3.45,0,0,1,629.2,475.51Z"/><path class="cls-5" d="M746.14,673.66c7.16,0,11-4.26,11-11.84,0-5.74-1.91-9.5-8-14.89-4.75-4.18-6.31-6.67-6.31-10s1.35-4.47,3.62-4.47,3.62,1.28,3.62,4.61v2.41h6.88v-1.91c0-7.45-3.55-11.7-10.64-11.7s-10.85,4.26-10.85,11.56c0,5.32,2,9.08,8.08,14.47,4.75,4.18,6.24,6.67,6.24,10.5,0,3.48-1.49,4.61-3.76,4.61s-3.76-1.21-3.76-4.54v-3.19h-6.88v2.62C735.43,669.4,739,673.66,746.14,673.66Z"/><polygon class="cls-5" points="712.46 673.02 732.38 673.02 732.38 666.35 719.76 666.35 719.76 652.1 729.76 652.1 729.76 645.43 719.76 645.43 719.76 633.16 732.38 633.16 732.38 626.57 712.46 626.57 712.46 673.02"/><polygon class="cls-5" points="676.71 673.02 683.1 673.02 683.1 637.84 683.24 637.84 688.56 673.02 694.65 673.02 699.97 637.84 700.12 637.84 700.12 673.02 707 673.02 707 626.57 696.57 626.57 691.96 659.76 691.82 659.76 687.14 626.57 676.71 626.57 676.71 673.02"/><path class="cls-5" d="M655.79,626.57h9.86L673.24,673h-7.3l-1.35-9.22v.14h-8.3L654.94,673H648.2Zm7.94,31.06-3.26-23h-.14l-3.19,23Z"/><polygon class="cls-5" points="621.82 673.02 628.28 673.02 628.28 639.05 628.42 639.05 637.21 673.02 644.73 673.02 644.73 626.57 638.2 626.57 638.2 654.37 638.06 654.37 630.97 626.57 621.82 626.57 621.82 673.02"/><polygon class="cls-5" points="597.71 673.02 617.64 673.02 617.64 666.35 605.01 666.35 605.01 652.1 615.01 652.1 615.01 645.43 605.01 645.43 605.01 633.16 617.64 633.16 617.64 626.57 597.71 626.57 597.71 673.02"/><path class="cls-5" d="M570.76,626.57H581.9c7.3,0,10.85,4,10.85,11.49v23.47c0,7.45-3.62,11.49-10.85,11.49H570.76Zm11.06,39.79c2.34,0,3.69-1.21,3.69-4.54V637.63c0-3.33-1.42-4.54-3.69-4.54h-3.69v33.19h3.69Z"/><path class="cls-5" d="M543.74,662v-24.4c0-7.45,3.9-11.7,11.06-11.7s11.06,4.26,11.06,11.7V662c0,7.45-3.9,11.7-11.06,11.7S543.74,669.4,543.74,662Zm14.82.5V637.14c0-3.33-1.49-4.61-3.76-4.61S551,633.8,551,637.14v25.32c0,3.33,1.49,4.61,3.76,4.61S558.56,665.79,558.56,662.45Z"/><path class="cls-5" d="M529,673.66c7,0,10.78-4.26,10.78-11.42v-6.6h-6.88v7.09c0,3-1.49,4.26-3.62,4.26s-3.62-1.21-3.62-4.26V636.85c0-3,1.49-4.33,3.62-4.33s3.62,1.28,3.62,4.33v5.39h6.88v-4.89c0-7.16-3.69-11.42-10.78-11.42s-10.78,4.26-10.78,11.42v25C518.21,669.4,522,673.66,529,673.66Z"/></svg>