<svg version="1.1" xmlns="http://www.w3.org/2000/svg" viewBox="0 0 1251.1758474815108 791.6917867288976" width="2502.3516949630216" height="1583.3835734577951">
  <!-- svg-source:excalidraw -->
  
  <defs>
    <style class="style-fonts">
      @font-face {
        font-family: "Virgil";
        src: url("https://excalidraw.com/Virgil.woff2");
      }
      @font-face {
        font-family: "Cascadia";
        src: url("https://excalidraw.com/Cascadia.woff2");
      }
    </style>
  </defs>
  <rect x="0" y="0" width="1251.1758474815108" height="791.6917867288976" fill="#ffffff"></rect><g stroke-linecap="round" transform="translate(460.3385416666665 288.85129193723094) rotate(0 128.82324218749994 50.297851562500014)"><path d="M128.07 -1.34 C181.93 20.86, 229.49 37.86, 257.89 50.59 M128.53 0.75 C157.23 10.26, 185.11 22.17, 258.19 51.29 M255.73 50.91 C218.64 65.22, 184.19 79.64, 129.15 101.25 M257.65 51.09 C218.74 66.2, 178.14 82.05, 128.03 101.54 M130.33 99.72 C92.55 83.81, 53.31 73.22, -0.9 49.51 M128.31 99.6 C102.55 89.63, 75.09 79.67, -0.46 51.16 M-0.24 51.09 C31.41 35.55, 67.04 22.18, 127.91 0.64 M-0.47 50.64 C48.39 32.34, 96.07 12.98, 128.28 -0.84" stroke="#e67700" stroke-width="1" fill="none"></path></g><g transform="translate(513.8294270833331 311.71457318723094) rotate(0 75.5 22.999999999999986)"><text x="75.5" y="19" font-family="Helvetica, Segoe UI Emoji" font-size="20px" fill="#e67700" text-anchor="middle" style="white-space: pre;" direction="ltr">event:</text><text x="75.5" y="42" font-family="Helvetica, Segoe UI Emoji" font-size="20px" fill="#e67700" text-anchor="middle" style="white-space: pre;" direction="ltr">host disconnects</text></g><g mask="url(#mask-rG6jSt-2nwVZoOMiqtNaO)" stroke-linecap="round"><g transform="translate(479.8016098455304 355.6961563699511) rotate(0 -114.93586407773279 34.410687404941086)"><path d="M0.04 -0.96 C-90.91 28.12, -181.69 56.16, -229.53 69.78 M0.19 0.72 C-55.22 15.97, -110.94 32, -230.06 67.95" stroke="#364fc7" stroke-width="1" fill="none"></path></g><g transform="translate(479.8016098455304 355.6961563699511) rotate(0 -114.93586407773279 34.410687404941086)"><path d="M-205.94 48.88 C-215.18 57.89, -223.73 65.84, -229.14 69.17 M-205.77 50.89 C-211.5 54.59, -217.85 58.33, -229.78 66.97" stroke="#364fc7" stroke-width="1" fill="none"></path></g><g transform="translate(479.8016098455304 355.6961563699511) rotate(0 -114.93586407773279 34.410687404941086)"><path d="M-200.06 68.54 C-211.81 69.73, -222.7 69.86, -229.14 69.17 M-199.88 70.55 C-206.93 69.51, -214.69 68.54, -229.78 66.97" stroke="#364fc7" stroke-width="1" fill="none"></path></g></g><mask id="mask-rG6jSt-2nwVZoOMiqtNaO"><rect x="0" y="0" fill="#fff" width="810.0898187328198" height="524.4632405945415"></rect><rect x="330.1575054018857" y="380.57969848224633" fill="#000" width="69" height="19" opacity="1"></rect></mask><g transform="translate(330.1575054018856 380.57969848224633) rotate(0 34.70824036591199 9.527145292645855)"><text x="34.5" y="15" font-family="Helvetica, Segoe UI Emoji" font-size="16px" fill="#e67700" text-anchor="middle" style="white-space: pre;" direction="ltr">don't wait</text></g><g stroke-linecap="round" transform="translate(434.68424479166663 138.24907839556434) rotate(0 157.87760416666663 30.226236979166664)"><path d="M156.09 0.88 C208.05 9.29, 257.22 20.33, 313.98 31.29 M158.47 0.66 C202.3 10.79, 248.23 19.27, 315.34 31.59 M317.47 29.77 C277.98 37.64, 235.93 44.97, 157.44 61.84 M316.65 31.93 C259.27 39.57, 204.54 50.19, 157.71 61.21 M158.01 60.76 C107.51 51.5, 59.25 42.15, 1.3 30.65 M157.38 60.99 C100.56 48.98, 44.61 37.61, 0.77 30.59 M1.9 29.17 C32.29 27.33, 64.13 21.33, 158.36 -1.3 M-0.19 30.38 C51.29 21.35, 103.47 11.21, 157.45 0.44" stroke="#e67700" stroke-width="1" fill="none"></path></g><g transform="translate(544.5618489583333 156.975315374731) rotate(0 48 11.5)"><text x="48" y="19" font-family="Helvetica, Segoe UI Emoji" font-size="20px" fill="#e67700" text-anchor="middle" style="white-space: pre;" direction="ltr">host exists</text></g><g stroke-linecap="round"><g transform="translate(417.8844459022729 168.83961549261204) rotate(0 -23.59942670336676 12.468678981194415)"><path d="M-1.31 1.72 C-20.16 11.55, -36.72 19.36, -45 23.29 M-0.9 0.99 C-10.42 4.98, -21.54 9.61, -46.3 23.95" stroke="#364fc7" stroke-width="1" fill="none"></path></g><g transform="translate(417.8844459022729 168.83961549261204) rotate(0 -23.59942670336676 12.468678981194415)"><path d="M-30.36 5.77 C-37.55 13.67, -42.42 19.57, -44.77 22.56 M-29.95 5.04 C-32.99 8.24, -37.63 11.81, -46.07 23.22" stroke="#364fc7" stroke-width="1" fill="none"></path></g><g transform="translate(417.8844459022729 168.83961549261204) rotate(0 -23.59942670336676 12.468678981194415)"><path d="M-21.61 21.51 C-32.39 23.13, -40.76 22.74, -44.77 22.56 M-21.2 20.78 C-26.17 20.42, -32.75 20.5, -46.07 23.22" stroke="#364fc7" stroke-width="1" fill="none"></path></g></g><mask></mask><g transform="translate(114.20572916666669 177.05767214556437) rotate(0 129.00000000000003 18.500000000000007)"><text x="0" y="15.5" font-family="Helvetica, Segoe UI Emoji" font-size="16px" fill="#364fc7" text-anchor="start" style="white-space: pre;" direction="ltr">host can manually 'promote' another</text><text x="0" y="34" font-family="Helvetica, Segoe UI Emoji" font-size="16px" fill="#364fc7" text-anchor="start" style="white-space: pre;" direction="ltr">player in the room to host position</text></g><g stroke-linecap="round"><g transform="translate(591.6230342746834 211.47740668910615) rotate(0 -2.4790129444759827 32.97264894310439)"><path d="M-0.5 -0.74 C-1.65 24.9, -1.81 49.75, -3.61 66.55 M-0.59 -0.56 C-0.42 18.01, -2.82 38.42, -4.46 66.68" stroke="#e67700" stroke-width="1" fill="none"></path></g><g transform="translate(591.6230342746834 211.47740668910615) rotate(0 -2.4790129444759827 32.97264894310439)"><path d="M-13.29 37.13 C-9.75 49.27, -5.56 60.54, -4.58 67.54 M-13.38 37.3 C-9.64 45.39, -8.65 55.24, -5.43 67.67" stroke="#e67700" stroke-width="1" fill="none"></path></g><g transform="translate(591.6230342746834 211.47740668910615) rotate(0 -2.4790129444759827 32.97264894310439)"><path d="M7.19 38.51 C3.19 49.98, -0.16 60.74, -4.58 67.54 M7.09 38.69 C4.98 46.24, 0.1 55.69, -5.43 67.67" stroke="#e67700" stroke-width="1" fill="none"></path></g></g><mask></mask><g stroke-linecap="round" transform="translate(10.000000000000057 440.51144818723094) rotate(0 211.66015624999997 37.43489583333334)"><path d="M148.75 2.22 C167.44 0.59, 192.4 0.54, 214.34 0.61 C236.28 0.68, 259.57 1.36, 280.37 2.66 C301.17 3.96, 321.89 6.32, 339.15 8.43 C356.4 10.54, 371.27 12.46, 383.89 15.33 C396.51 18.19, 408.29 21.85, 414.87 25.63 C421.46 29.4, 423.94 34.09, 423.41 37.97 C422.88 41.86, 418.86 45.17, 411.71 48.93 C404.56 52.69, 393.71 57.38, 380.52 60.51 C367.33 63.65, 350.35 65.46, 332.58 67.74 C314.81 70.03, 294.52 72.91, 273.9 74.2 C253.28 75.5, 230.63 75.74, 208.84 75.52 C187.05 75.3, 163.81 74.39, 143.15 72.88 C122.48 71.37, 102.16 68.79, 84.83 66.46 C67.5 64.12, 51.7 61.85, 39.16 58.86 C26.63 55.87, 16.31 52.15, 9.63 48.5 C2.95 44.84, -1.15 40.64, -0.93 36.93 C-0.7 33.22, 3.67 30.01, 10.99 26.23 C18.3 22.46, 29.73 17.64, 42.96 14.29 C56.19 10.94, 70.02 8.42, 90.37 6.15 C110.71 3.87, 150.05 1.59, 165.01 0.63 C179.96 -0.33, 179.52 -0.33, 180.12 0.41 M189.62 1.49 C209.79 0.58, 234.72 -1, 256.22 -0.27 C277.72 0.47, 300.04 3.58, 318.6 5.89 C337.16 8.2, 353.3 11.05, 367.58 13.6 C381.87 16.15, 395.26 17.78, 404.31 21.19 C413.37 24.6, 419.3 29.9, 421.9 34.06 C424.51 38.22, 424.46 42.26, 419.94 46.15 C415.43 50.04, 405.83 54.4, 394.81 57.4 C383.78 60.4, 369.75 61.94, 353.79 64.15 C337.83 66.37, 318.79 69.11, 299.04 70.67 C279.29 72.23, 257.05 73.13, 235.3 73.51 C213.55 73.9, 189.85 73.65, 168.55 72.97 C147.25 72.29, 126.74 71.15, 107.53 69.44 C88.31 67.73, 68.08 65.73, 53.28 62.73 C38.47 59.72, 27.54 55.02, 18.7 51.4 C9.85 47.78, 2.73 44.85, 0.21 41.02 C-2.31 37.19, -1.04 32.1, 3.56 28.42 C8.16 24.74, 16.65 21.9, 27.83 18.93 C39 15.95, 54.5 13.34, 70.59 10.59 C86.67 7.84, 104.76 4.25, 124.32 2.43 C143.88 0.61, 177.2 -0.12, 187.96 -0.31 C198.71 -0.51, 188.3 0.67, 188.87 1.25" stroke="#364fc7" stroke-width="1" fill="none"></path></g><g transform="translate(59.905598958333314 456.4131408955643) rotate(0 177.99999999999997 18.5)"><text x="0" y="15.5" font-family="Helvetica, Segoe UI Emoji" font-size="16px" fill="#364fc7" text-anchor="start" style="white-space: pre;" direction="ltr">display message to room that host has</text><text x="0" y="34" font-family="Helvetica, Segoe UI Emoji" font-size="16px" fill="#364fc7" text-anchor="start" style="white-space: pre;" direction="ltr">disconnected and this room should be abandoned</text></g><g transform="translate(98.72395833333326 325.70676068723094) rotate(0 110 18.5)"><text x="0" y="15.5" font-family="Helvetica, Segoe UI Emoji" font-size="16px" fill="#a61e4d" text-anchor="start" style="white-space: pre;" direction="ltr">(Players cannot rejoin a room</text><text x="0" y="34" font-family="Helvetica, Segoe UI Emoji" font-size="16px" fill="#a61e4d" text-anchor="start" style="white-space: pre;" direction="ltr">and pick up where they left off)</text></g><g mask="url(#mask-89maueoZ-RgOZ7WMK2LVq)" stroke-linecap="round"><g transform="translate(586.3151989967284 412.4809371443604) rotate(0 -0.006791674079011045 71.66228345677206)"><path d="M1.91 -1.33 C2.83 52.61, 0.32 108.19, -2.12 144.65 M-1 0.63 C-0.82 56.15, -0.55 111.78, -1.03 142.39" stroke="#364fc7" stroke-width="1" fill="none"></path></g><g transform="translate(586.3151989967284 412.4809371443604) rotate(0 -0.006791674079011045 71.66228345677206)"><path d="M-9.17 112.79 C-5.15 123.12, -3.72 135.07, -2.78 143.73 M-12.08 114.75 C-7.6 125.1, -3.23 135.61, -1.69 141.46" stroke="#364fc7" stroke-width="1" fill="none"></path></g><g transform="translate(586.3151989967284 412.4809371443604) rotate(0 -0.006791674079011045 71.66228345677206)"><path d="M11.35 112.95 C7.58 123.16, 1.24 135.04, -2.78 143.73 M8.44 114.91 C4.88 125.31, 1.19 135.77, -1.69 141.46" stroke="#364fc7" stroke-width="1" fill="none"></path></g></g><mask id="mask-89maueoZ-RgOZ7WMK2LVq"><rect x="0" y="0" fill="#fff" width="686.6954748105782" height="655.7967255528772"></rect><rect x="537.6250610898037" y="474.63883134861874" fill="#000" width="97" height="19" opacity="1"></rect></mask><g transform="translate(537.6250610898036 474.6388313486188) rotate(0 48.68334623284585 9.504389252513647)"><text x="48.5" y="15" font-family="Helvetica, Segoe UI Emoji" font-size="16px" fill="#e67700" text-anchor="middle" style="white-space: pre;" direction="ltr">wait for rejoin</text></g><g transform="translate(347.3346354166665 688.6917867288976) rotate(0 312.5 46.5)"><text x="0" y="14.600000000000001" font-family="Helvetica, Segoe UI Emoji" font-size="16px" fill="#364fc7" text-anchor="start" style="white-space: pre;" direction="ltr">in backend for room? or maybe what we already have in firebase?</text><text x="0" y="33.2" font-family="Helvetica, Segoe UI Emoji" font-size="16px" fill="#364fc7" text-anchor="start" style="white-space: pre;" direction="ltr">if that player with that id joins the room again (in the listener for players joining the room)</text><text x="0" y="51.800000000000004" font-family="Helvetica, Segoe UI Emoji" font-size="16px" fill="#364fc7" text-anchor="start" style="white-space: pre;" direction="ltr">see if they have the host id.</text><text x="0" y="70.4" font-family="Helvetica, Segoe UI Emoji" font-size="16px" fill="#364fc7" text-anchor="start" style="white-space: pre;" direction="ltr">if they do, give them the isHost to their redux</text><text x="0" y="89" font-family="Helvetica, Segoe UI Emoji" font-size="16px" fill="#364fc7" text-anchor="start" style="white-space: pre;" direction="ltr"></text></g><g stroke-linecap="round" transform="translate(471.07747395833326 576.0778544372308) rotate(0 129.1699218749999 53.67513020833326)"><path d="M102.46 1.23 C117.26 -0.99, 136.61 -0.73, 152.7 0.55 C168.78 1.84, 185.07 5.08, 198.95 8.94 C212.82 12.8, 226.45 18.24, 235.94 23.72 C245.44 29.2, 252.42 35.15, 255.92 41.8 C259.41 48.45, 259.79 56.73, 256.91 63.59 C254.03 70.46, 247.79 77.35, 238.64 83 C229.48 88.65, 215.76 93.65, 201.98 97.49 C188.2 101.33, 171.89 104.44, 155.97 106.07 C140.04 107.69, 122.7 108.45, 106.43 107.22 C90.16 105.99, 72.39 102.39, 58.33 98.68 C44.27 94.97, 31.16 90.62, 22.08 84.96 C12.99 79.31, 7.15 71.56, 3.83 64.77 C0.5 57.98, -0.71 51.02, 2.13 44.22 C4.96 37.42, 12.1 29.62, 20.85 23.95 C29.6 18.29, 37.03 14.08, 54.64 10.22 C72.25 6.35, 110.92 2.32, 126.51 0.78 C142.1 -0.76, 148.14 0.17, 148.18 0.98 M173.64 2.07 C189.14 3.32, 204.79 8.5, 216.85 13.24 C228.91 17.99, 239.35 24.3, 246.01 30.51 C252.66 36.73, 256.05 43.53, 256.76 50.54 C257.48 57.55, 255.77 66.15, 250.32 72.57 C244.87 78.99, 234.82 83.94, 224.04 89.08 C213.25 94.22, 200.65 100.2, 185.61 103.4 C170.58 106.6, 150.77 108.29, 133.82 108.29 C116.88 108.28, 99.25 105.67, 83.93 103.35 C68.61 101.03, 53.96 98.71, 41.89 94.37 C29.82 90.03, 18.69 83.83, 11.53 77.34 C4.36 70.84, -0.5 62.51, -1.1 55.38 C-1.69 48.25, 2.18 41.03, 7.95 34.53 C13.72 28.03, 22.7 21.18, 33.53 16.4 C44.37 11.62, 58.06 8.47, 72.97 5.87 C87.88 3.27, 106.15 1.29, 122.99 0.81 C139.82 0.32, 165.73 2.4, 173.98 2.96 C182.23 3.53, 173.59 3.18, 172.48 4.2" stroke="#364fc7" stroke-width="1" fill="none"></path></g><g transform="translate(499.41731770833326 611.5726461038976) rotate(0 104 18.5)"><text x="0" y="15.5" font-family="Helvetica, Segoe UI Emoji" font-size="16px" fill="#364fc7" text-anchor="start" style="white-space: pre;" direction="ltr">"The host has disconnected!"</text><text x="0" y="34" font-family="Helvetica, Segoe UI Emoji" font-size="16px" fill="#364fc7" text-anchor="start" style="white-space: pre;" direction="ltr">"Waiting for host to rejoin..."</text></g><g mask="url(#mask-qkJju5LMD3qIsuhTPxjFP)" stroke-linecap="round"><g transform="translate(707.0800781249998 368.6038961038976) rotate(0 110.01321808980964 32.49456817028286)"><path d="M0.54 -0.22 C67.02 23.38, 138.08 43, 218.84 65.4 M0.58 -0.83 C63.83 20.22, 124.98 39.07, 219.49 65.82" stroke="#364fc7" stroke-width="1" fill="none"></path></g><g transform="translate(707.0800781249998 368.6038961038976) rotate(0 110.01321808980964 32.49456817028286)"><path d="M190.19 67.6 C197.32 69.12, 209.85 67.49, 217.93 65.14 M190.24 66.89 C199.04 67.76, 205.75 67.25, 218.68 65.63" stroke="#364fc7" stroke-width="1" fill="none"></path></g><g transform="translate(707.0800781249998 368.6038961038976) rotate(0 110.01321808980964 32.49456817028286)"><path d="M195.88 47.89 C201.25 55.47, 212.02 59.96, 217.93 65.14 M195.92 47.17 C203.21 53.62, 208.31 58.73, 218.68 65.63" stroke="#364fc7" stroke-width="1" fill="none"></path></g></g><mask id="mask-qkJju5LMD3qIsuhTPxjFP"><rect x="0" y="0" fill="#fff" width="1027.2460937499998" height="534.5902242288976"></rect><rect x="782.6630859374998" y="392.0970601663976" fill="#000" width="69" height="19" opacity="1"></rect></mask><g transform="translate(782.6630859374998 392.0970601663976) rotate(0 34.43021027730964 9.00140410778286)"><text x="34.5" y="15" font-family="Helvetica, Segoe UI Emoji" font-size="16px" fill="#e67700" text-anchor="middle" style="white-space: pre;" direction="ltr">don't wait</text></g><g stroke-linecap="round" transform="translate(860.4850260416665 440.3226461038976) rotate(0 177.5927734375 33.64746093750003)"><path d="M234.81 1.21 C253.08 1.95, 272.02 5.42, 287.13 7.59 C302.25 9.76, 315.21 11.41, 325.49 14.25 C335.77 17.08, 344.07 21.03, 348.79 24.6 C353.51 28.17, 355.09 31.84, 353.81 35.69 C352.52 39.54, 348.62 44.4, 341.05 47.73 C333.48 51.05, 321.5 53.15, 308.38 55.65 C295.27 58.15, 279.18 60.98, 262.38 62.71 C245.57 64.43, 226.39 65.45, 207.55 66 C188.71 66.54, 168.43 66.32, 149.35 65.97 C130.28 65.63, 110.19 65.69, 93.1 63.94 C76.02 62.19, 59.98 58.16, 46.84 55.49 C33.71 52.81, 22.12 50.89, 14.27 47.87 C6.42 44.86, 1.21 41.25, -0.25 37.39 C-1.71 33.54, 0.63 28.25, 5.5 24.72 C10.37 21.19, 18.47 19.12, 28.97 16.19 C39.47 13.25, 53.48 9.62, 68.51 7.11 C83.54 4.6, 101.12 2.4, 119.15 1.13 C137.17 -0.14, 155.05 -0.89, 176.65 -0.51 C198.24 -0.12, 235.05 2.65, 248.7 3.45 C262.35 4.25, 259.7 3.89, 258.56 4.29 M118.62 0.91 C134.64 -0.75, 155.46 -0.01, 174.4 0.18 C193.34 0.36, 213.66 1.07, 232.28 2.04 C250.9 3, 270.54 4.05, 286.12 5.97 C301.71 7.88, 315.33 10.39, 325.79 13.52 C336.26 16.65, 344.13 21.23, 348.91 24.74 C353.69 28.26, 355.58 30.82, 354.48 34.61 C353.39 38.4, 349.86 43.98, 342.34 47.47 C334.82 50.96, 322.51 53.07, 309.36 55.56 C296.22 58.05, 280.46 60.44, 263.46 62.41 C246.46 64.38, 226.39 66.45, 207.36 67.38 C188.33 68.31, 167.94 68.82, 149.26 68 C130.58 67.17, 112.17 64.13, 95.29 62.42 C78.42 60.7, 61.08 60.08, 48.02 57.72 C34.96 55.36, 24.59 51.89, 16.93 48.24 C9.27 44.59, 4.09 39.52, 2.06 35.82 C0.02 32.12, 0.65 29.44, 4.74 26.04 C8.83 22.65, 16.43 18.33, 26.61 15.46 C36.79 12.59, 50.34 10.84, 65.81 8.8 C81.27 6.75, 110.26 4.32, 119.39 3.18 C128.52 2.05, 119.98 1.75, 120.59 1.98" stroke="#364fc7" stroke-width="1" fill="none"></path></g><g transform="translate(947.0703124999998 510.10129193723094) rotate(0 122 37)"><text x="0" y="15.5" font-family="Helvetica, Segoe UI Emoji" font-size="16px" fill="#364fc7" text-anchor="start" style="white-space: pre;" direction="ltr">immediately assign another player</text><text x="0" y="34" font-family="Helvetica, Segoe UI Emoji" font-size="16px" fill="#364fc7" text-anchor="start" style="white-space: pre;" direction="ltr">in the room the isHost.</text><text x="0" y="52.5" font-family="Helvetica, Segoe UI Emoji" font-size="16px" fill="#364fc7" text-anchor="start" style="white-space: pre;" direction="ltr">How this is assigned needs to be</text><text x="0" y="71" font-family="Helvetica, Segoe UI Emoji" font-size="16px" fill="#364fc7" text-anchor="start" style="white-space: pre;" direction="ltr">based on some logic</text></g><g transform="translate(934.3164062499998 454.8799377705643) rotate(0 107.5 18.5)"><text x="0" y="15.5" font-family="Helvetica, Segoe UI Emoji" font-size="16px" fill="#364fc7" text-anchor="start" style="white-space: pre;" direction="ltr">"Host 'rose' has disconnected!</text><text x="0" y="34" font-family="Helvetica, Segoe UI Emoji" font-size="16px" fill="#364fc7" text-anchor="start" style="white-space: pre;" direction="ltr">'heidi' is now the new host!"</text></g><g transform="translate(554.1557581957966 20.373883928571445) rotate(0 274.4977678571428 319.23828124999994)" stroke="none"><path fill="#2b8a3e" d="M 0,1.67 Q 0,1.67 -1.36,1.76 -2.72,1.84 -4.39,1.87 -6.07,1.89 -7.97,1.95 -9.86,2.00 -11.79,2.31 -13.72,2.63 -16.25,3.29 -18.77,3.95 -21.74,4.88 -24.70,5.80 -27.62,6.92 -30.54,8.04 -33.66,9.38 -36.78,10.72 -40.01,12.23 -43.23,13.74 -46.68,15.42 -50.13,17.09 -53.80,18.93 -57.47,20.76 -61.05,22.68 -64.62,24.60 -68.07,26.59 -71.51,28.58 -74.81,30.58 -78.11,32.58 -81.14,34.55 -84.17,36.53 -86.90,38.41 -89.63,40.28 -92.21,42.17 -94.79,44.06 -97.14,46.02 -99.50,47.99 -101.46,49.85 -103.43,51.72 -105.18,53.56 -106.94,55.40 -108.63,57.37 -110.32,59.34 -112.21,61.67 -114.10,64.00 -115.31,65.54 -116.53,67.09 -117.84,68.76 -119.15,70.43 -120.40,72.17 -121.65,73.91 -123.04,76.09 -124.43,78.27 -126.18,81.57 -127.93,84.86 -129.05,87.55 -130.18,90.24 -131.04,92.91 -131.90,95.58 -132.55,98.12 -133.20,100.66 -133.77,103.20 -134.33,105.75 -134.77,108.42 -135.22,111.09 -135.51,113.89 -135.79,116.69 -136.01,119.59 -136.22,122.48 -136.36,125.57 -136.50,128.66 -136.56,132.04 -136.62,135.41 -136.64,139.02 -136.67,142.64 -136.68,146.53 -136.69,150.42 -136.69,154.38 -136.70,158.34 -136.70,162.02 -136.70,165.71 -136.70,168.84 -136.70,171.98 -136.71,175.11 -136.71,178.24 -136.59,181.26 -136.47,184.29 -136.14,186.70 -135.81,189.12 -135.08,192.28 -134.36,195.44 -133.77,197.52 -133.19,199.61 -132.51,201.48 -131.84,203.35 -131.30,204.68 -130.76,206.00 -130.46,207.53 -130.16,209.06 -130.04,210.80 -129.93,212.55 -129.86,214.38 -129.79,216.21 -129.66,218.20 -129.53,220.19 -129.11,222.88 -128.69,225.57 -127.89,229.45 -127.09,233.32 -125.89,238.01 -124.69,242.69 -123.01,248.17 -121.33,253.65 -119.47,259.03 -117.62,264.41 -115.82,269.10 -114.03,273.79 -112.13,278.51 -110.23,283.23 -108.17,288.18 -106.11,293.12 -104.03,297.90 -101.96,302.68 -100.23,306.48 -98.50,310.28 -97.12,313.18 -95.75,316.08 -94.38,318.79 -93.01,321.51 -91.76,323.90 -90.52,326.30 -89.53,328.15 -88.55,330.00 -87.35,331.96 -86.16,333.91 -85.41,334.88 -84.66,335.85 -83.48,336.95 -82.31,338.05 -81.56,339.61 -80.81,341.16 -80.19,342.96 -79.58,344.77 -78.86,346.47 -78.14,348.17 -76.86,350.72 -75.58,353.26 -73.76,356.20 -71.94,359.14 -69.70,362.28 -67.45,365.41 -64.88,368.64 -62.31,371.87 -59.40,374.99 -56.49,378.10 -53.28,381.05 -50.06,384.01 -46.51,386.92 -42.96,389.82 -39.01,392.72 -35.05,395.61 -31.16,398.20 -27.28,400.79 -21.50,404.23 -15.72,407.67 -11.99,409.84 -8.25,412.00 -4.13,414.18 -0.02,416.37 4.09,418.42 8.21,420.48 12.10,422.32 15.99,424.16 19.70,425.66 23.41,427.16 26.41,428.26 29.40,429.36 31.88,430.33 34.36,431.30 36.64,432.24 38.92,433.18 40.38,433.66 41.84,434.13 43.91,435.08 45.99,436.03 47.65,437.25 49.31,438.48 51.69,440.06 54.07,441.64 57.16,443.46 60.26,445.27 64.25,447.46 68.24,449.64 73.72,452.49 79.20,455.34 86.20,458.95 93.20,462.55 101.42,466.84 109.63,471.13 118.62,475.87 127.62,480.62 135.79,484.87 143.96,489.13 150.85,492.75 157.74,496.37 164.46,500.01 171.19,503.64 177.81,507.15 184.43,510.65 192.25,514.76 200.08,518.88 203.88,520.78 207.68,522.68 210.66,524.04 213.63,525.40 216.40,526.64 219.17,527.87 221.12,528.65 223.08,529.43 224.63,529.92 226.17,530.40 228.26,531.25 230.34,532.10 233.18,533.07 236.01,534.04 239.88,535.25 243.75,536.46 248.88,538.02 254.01,539.57 260.24,541.41 266.48,543.24 273.77,545.40 281.06,547.55 289.07,550.01 297.07,552.46 305.46,555.23 313.85,557.99 322.34,561.06 330.83,564.14 339.29,567.50 347.75,570.87 355.99,574.33 364.23,577.79 371.49,580.95 378.76,584.11 385.41,587.02 392.06,589.93 398.80,592.92 405.53,595.90 412.18,599.07 418.83,602.24 424.91,605.14 430.99,608.05 436.36,610.50 441.74,612.95 449.24,616.31 456.73,619.67 461.20,621.68 465.66,623.69 470.03,625.55 474.40,627.42 478.50,629.07 482.61,630.72 486.52,632.39 490.42,634.07 494.22,635.64 498.01,637.21 501.68,638.49 505.35,639.77 509.10,640.88 512.85,641.99 516.57,642.89 520.29,643.79 523.85,644.45 527.41,645.11 530.86,645.59 534.31,646.08 537.71,646.44 541.10,646.81 544.58,647.01 548.05,647.22 551.62,647.14 555.18,647.07 558.81,646.49 562.43,645.91 566.23,644.84 570.02,643.76 574.16,642.29 578.31,640.82 582.71,638.95 587.11,637.08 591.44,635.02 595.77,632.95 599.34,631.10 602.91,629.26 606.32,627.31 609.73,625.35 613.23,623.17 616.73,620.98 619.61,618.92 622.49,616.87 624.98,614.85 627.47,612.84 630.57,609.96 633.67,607.09 635.58,605.18 637.49,603.27 639.47,601.09 641.45,598.91 643.34,596.65 645.23,594.40 647.08,592.09 648.94,589.79 650.79,587.47 652.63,585.15 654.47,582.82 656.31,580.49 658.36,577.56 660.40,574.62 662.62,570.68 664.83,566.74 667.08,561.92 669.33,557.09 671.28,551.77 673.23,546.46 674.76,540.78 676.29,535.11 677.62,527.46 678.95,519.80 680.11,509.31 681.27,498.81 682.21,486.21 683.15,473.62 683.81,458.82 684.47,444.03 684.82,428.85 685.18,413.68 685.33,399.40 685.48,385.12 685.54,370.05 685.61,354.98 685.21,339.23 684.81,323.47 683.86,310.49 682.91,297.50 681.56,287.95 680.20,278.40 678.15,269.53 676.09,260.67 673.21,251.92 670.33,243.17 665.64,234.13 660.94,225.09 657.09,219.54 653.24,213.99 648.89,209.66 644.54,205.33 640.50,202.91 636.46,200.48 632.21,199.00 627.96,197.53 624.36,196.79 620.77,196.05 618.54,195.73 616.31,195.42 615.01,195.40 613.71,195.39 612.20,195.32 610.68,195.26 608.22,194.71 605.77,194.17 601.40,192.75 597.02,191.32 589.56,188.58 582.10,185.83 571.74,181.80 561.39,177.77 548.71,172.73 536.04,167.69 521.41,161.87 506.78,156.05 492.70,150.48 478.61,144.90 465.86,139.96 453.11,135.01 436.85,129.25 420.60,123.49 402.51,117.63 384.42,111.77 369.28,107.22 354.13,102.67 340.69,99.06 327.24,95.44 314.20,92.54 301.17,89.65 290.20,87.54 279.24,85.44 267.80,83.95 256.36,82.46 249.26,81.55 242.16,80.63 236.32,79.96 230.47,79.30 226.18,78.90 221.88,78.51 217.95,78.13 214.01,77.75 210.95,77.41 207.89,77.07 205.96,76.88 204.02,76.69 202.38,76.58 200.73,76.46 198.55,75.83 196.37,75.19 193.87,74.02 191.38,72.85 188.20,71.01 185.02,69.17 180.49,66.40 175.96,63.63 170.12,60.08 164.29,56.53 157.27,52.29 150.25,48.06 142.12,43.26 133.99,38.47 125.35,33.62 116.71,28.77 108.83,24.68 100.96,20.60 94.24,17.34 87.52,14.08 81.23,11.16 74.94,8.25 69.66,5.92 64.38,3.59 60.33,1.87 56.28,0.14 52.66,-1.21 49.04,-2.58 45.95,-3.58 42.87,-4.57 40.37,-5.35 37.87,-6.12 35.77,-6.74 33.66,-7.36 32.05,-7.63 30.44,-7.91 29.04,-8.10 27.65,-8.29 26.48,-8.28 25.31,-8.28 24.23,-8.16 23.16,-8.04 22.06,-7.92 20.97,-7.80 19.62,-7.36 18.27,-6.93 17.22,-6.36 16.18,-5.80 14.94,-5.14 13.70,-4.48 12.75,-3.99 11.80,-3.50 10.58,-2.90 9.36,-2.31 8.35,-1.98 7.34,-1.66 5.83,-0.77 4.32,0.11 3.92,0.36 3.52,0.60 3.06,0.70 2.61,0.80 2.14,0.75 1.68,0.70 1.25,0.50 0.83,0.31 0.48,-0.01 0.14,-0.33 -0.06,-0.74 -0.28,-1.16 -0.36,-1.62 -0.44,-2.08 -0.36,-2.54 -0.28,-3.00 -0.07,-3.42 0.14,-3.83 0.48,-4.15 0.82,-4.48 1.25,-4.67 1.67,-4.87 2.14,-4.92 2.60,-4.97 3.06,-4.87 3.52,-4.77 3.92,-4.53 4.32,-4.29 4.62,-3.93 4.93,-3.57 5.10,-3.14 5.28,-2.70 5.30,-2.24 5.33,-1.77 5.20,-1.32 5.08,-0.87 4.81,-0.48 4.55,-0.09 4.18,0.18 3.80,0.47 3.36,0.62 2.92,0.77 2.45,0.77 1.98,0.77 1.54,0.62 1.09,0.47 0.72,0.18 0.35,-0.09 0.08,-0.48 -0.17,-0.87 -0.29,-1.32 -0.42,-1.77 -0.39,-2.24 -0.37,-2.70 -0.20,-3.14 -0.02,-3.57 0.27,-3.93 0.57,-4.29 0.57,-4.29 0.57,-4.29 2.90,-6.19 5.23,-8.08 6.39,-8.31 7.54,-8.54 8.80,-9.07 10.05,-9.60 11.15,-10.06 12.24,-10.52 13.50,-11.10 14.76,-11.68 16.12,-12.20 17.48,-12.73 19.23,-12.84 20.98,-12.94 22.10,-12.81 23.22,-12.69 24.46,-12.50 25.71,-12.30 27.02,-11.95 28.34,-11.59 29.72,-11.20 31.09,-10.81 32.74,-10.35 34.40,-9.88 36.52,-9.26 38.65,-8.63 41.16,-7.85 43.68,-7.08 46.82,-6.06 49.97,-5.04 53.64,-3.65 57.31,-2.27 61.38,-0.54 65.45,1.18 70.75,3.52 76.05,5.85 82.36,8.77 88.67,11.69 95.43,14.97 102.19,18.24 110.10,22.34 118.01,26.44 126.68,31.30 135.35,36.16 143.50,40.95 151.64,45.75 158.67,49.97 165.70,54.20 171.55,57.73 177.39,61.27 181.91,64.00 186.42,66.73 189.51,68.48 192.59,70.23 194.88,71.27 197.18,72.32 199.15,72.84 201.11,73.37 202.73,73.64 204.34,73.92 206.27,74.19 208.19,74.46 211.23,74.80 214.26,75.14 218.19,75.52 222.12,75.89 226.45,76.29 230.77,76.68 236.63,77.35 242.50,78.02 249.60,78.94 256.70,79.85 268.22,81.35 279.73,82.85 290.74,84.96 301.74,87.07 314.83,89.98 327.93,92.89 341.41,96.51 354.89,100.13 370.07,104.69 385.24,109.24 403.37,115.10 421.49,120.97 437.79,126.74 454.08,132.51 466.85,137.44 479.61,142.38 493.70,147.94 507.80,153.50 522.43,159.30 537.07,165.10 549.74,170.11 562.42,175.11 572.76,179.09 583.10,183.07 590.52,185.74 597.95,188.41 602.17,189.71 606.40,191.02 608.71,191.43 611.01,191.84 612.52,192.07 614.04,192.29 615.36,192.56 616.68,192.82 618.99,193.15 621.30,193.48 625.06,194.26 628.83,195.05 633.32,196.64 637.82,198.23 642.10,200.85 646.38,203.46 650.89,207.98 655.39,212.49 659.33,218.18 663.27,223.88 668.05,233.11 672.83,242.34 675.74,251.21 678.65,260.08 680.73,269.05 682.80,278.03 684.17,287.67 685.53,297.31 686.48,310.36 687.43,323.40 687.83,339.20 688.23,354.99 688.17,370.07 688.11,385.15 687.95,399.45 687.80,413.75 687.45,428.94 687.09,444.14 686.43,458.98 685.77,473.81 684.83,486.46 683.88,499.10 682.71,509.68 681.53,520.25 680.18,528.02 678.82,535.79 677.26,541.58 675.69,547.36 673.70,552.78 671.71,558.20 669.41,563.11 667.12,568.03 664.84,572.08 662.56,576.12 660.47,579.12 658.38,582.12 656.53,584.45 654.69,586.78 652.84,589.11 650.99,591.44 649.11,593.76 647.24,596.08 645.32,598.38 643.39,600.68 641.37,602.90 639.34,605.13 637.40,607.07 635.46,609.01 632.29,611.95 629.12,614.88 626.57,616.94 624.02,619.00 621.07,621.10 618.12,623.21 614.58,625.42 611.03,627.63 607.58,629.61 604.12,631.59 600.51,633.46 596.91,635.32 592.52,637.41 588.14,639.50 583.66,641.40 579.19,643.30 574.96,644.80 570.73,646.29 566.79,647.40 562.84,648.51 559.04,649.10 555.24,649.69 551.57,649.77 547.89,649.85 544.36,649.63 540.82,649.42 537.38,649.05 533.94,648.68 530.44,648.18 526.93,647.69 523.30,647.02 519.68,646.35 515.89,645.43 512.10,644.51 508.29,643.38 504.48,642.25 500.74,640.94 497.01,639.64 493.20,638.06 489.39,636.48 485.51,634.82 481.63,633.16 477.50,631.50 473.36,629.84 468.97,627.96 464.58,626.08 460.12,624.08 455.66,622.07 448.15,618.71 440.65,615.35 435.25,612.88 429.86,610.42 423.78,607.52 417.70,604.61 411.08,601.46 404.47,598.30 397.74,595.33 391.01,592.35 384.36,589.44 377.71,586.53 370.46,583.38 363.21,580.22 354.99,576.77 346.77,573.32 338.35,569.97 329.92,566.63 321.47,563.57 313.03,560.51 304.66,557.76 296.29,555.01 288.30,552.57 280.31,550.12 273.01,547.98 265.72,545.84 259.47,544.01 253.22,542.19 248.08,540.65 242.94,539.11 239.02,537.92 235.11,536.72 232.20,535.76 229.28,534.80 227.19,534.00 225.11,533.21 223.61,532.54 222.11,531.87 220.10,531.08 218.09,530.28 215.32,529.04 212.54,527.80 209.52,526.42 206.50,525.05 202.67,523.13 198.85,521.22 191.02,517.11 183.19,513.00 176.56,509.50 169.92,505.99 163.21,502.37 156.49,498.74 149.60,495.13 142.71,491.52 134.53,487.28 126.35,483.04 117.35,478.31 108.35,473.59 100.13,469.33 91.92,465.07 84.89,461.49 77.87,457.92 72.34,455.10 66.82,452.28 62.76,450.15 58.70,448.01 55.49,446.24 52.29,444.46 49.77,442.95 47.26,441.44 45.56,440.34 43.87,439.24 42.28,438.10 40.70,436.96 39.31,436.29 37.91,435.61 35.66,434.68 33.40,433.76 30.95,432.79 28.49,431.83 25.46,430.72 22.42,429.61 18.64,428.08 14.86,426.55 10.94,424.71 7.03,422.86 2.88,420.79 -1.27,418.72 -5.43,416.52 -9.59,414.32 -13.35,412.16 -17.10,410.00 -22.95,406.53 -28.79,403.07 -32.73,400.46 -36.68,397.85 -40.71,394.94 -44.75,392.02 -48.38,389.09 -52.01,386.16 -55.34,383.16 -58.67,380.17 -61.71,377.02 -64.75,373.86 -67.44,370.63 -70.13,367.40 -72.55,364.26 -74.97,361.11 -77.00,358.15 -79.04,355.19 -80.59,352.66 -82.14,350.12 -83.15,348.26 -84.17,346.39 -84.62,345.01 -85.06,343.63 -85.17,342.14 -85.28,340.64 -86.31,339.08 -87.33,337.52 -87.88,336.41 -88.42,335.30 -89.66,333.27 -90.90,331.24 -91.88,329.38 -92.86,327.52 -94.11,325.11 -95.37,322.70 -96.76,319.96 -98.14,317.21 -99.53,314.30 -100.92,311.39 -102.67,307.57 -104.41,303.75 -106.50,298.96 -108.59,294.16 -110.67,289.20 -112.75,284.25 -114.67,279.51 -116.59,274.78 -118.43,270.05 -120.26,265.33 -122.16,259.92 -124.07,254.50 -125.81,248.97 -127.55,243.44 -128.82,238.71 -130.09,233.98 -130.99,230.06 -131.88,226.14 -132.43,223.32 -132.98,220.50 -133.22,218.42 -133.46,216.34 -133.52,214.53 -133.58,212.71 -133.62,211.11 -133.65,209.51 -133.71,208.23 -133.78,206.95 -134.09,205.60 -134.40,204.25 -135.06,202.28 -135.72,200.31 -136.32,198.17 -136.92,196.03 -137.66,192.75 -138.41,189.47 -138.75,186.93 -139.09,184.39 -139.21,181.31 -139.33,178.24 -139.33,175.11 -139.33,171.98 -139.33,168.84 -139.33,165.71 -139.33,162.02 -139.33,158.34 -139.32,154.37 -139.32,150.41 -139.31,146.51 -139.30,142.62 -139.27,138.99 -139.25,135.37 -139.19,131.96 -139.13,128.54 -138.99,125.42 -138.85,122.29 -138.63,119.36 -138.41,116.42 -138.11,113.54 -137.82,110.66 -137.36,107.92 -136.91,105.18 -136.33,102.59 -135.76,100.00 -135.09,97.38 -134.42,94.77 -133.52,91.99 -132.63,89.21 -131.46,86.41 -130.29,83.62 -128.49,80.22 -126.69,76.83 -125.27,74.58 -123.85,72.34 -122.58,70.55 -121.31,68.75 -120.00,67.04 -118.68,65.33 -117.41,63.84 -116.14,62.34 -114.23,59.99 -112.32,57.63 -110.58,55.61 -108.84,53.58 -107.04,51.69 -105.24,49.81 -103.21,47.89 -101.19,45.97 -98.77,43.95 -96.35,41.93 -93.74,40.02 -91.13,38.11 -88.38,36.21 -85.62,34.31 -82.56,32.31 -79.50,30.31 -76.17,28.29 -72.85,26.27 -69.37,24.25 -65.90,22.24 -62.29,20.29 -58.69,18.34 -55.01,16.48 -51.33,14.62 -47.88,12.92 -44.43,11.22 -41.18,9.66 -37.92,8.10 -34.77,6.70 -31.61,5.30 -28.63,4.10 -25.65,2.90 -22.65,1.87 -19.65,0.85 -17.00,0.05 -14.35,-0.74 -12.19,-1.20 -10.03,-1.66 -8.05,-1.77 -6.07,-1.89 -4.39,-1.87 -2.72,-1.84 -1.36,-1.76 0,-1.67 0.20,-1.65 0.40,-1.63 0.59,-1.55 0.78,-1.48 0.94,-1.37 1.11,-1.25 1.24,-1.10 1.38,-0.95 1.47,-0.77 1.57,-0.59 1.61,-0.39 1.66,-0.20 1.66,0.00 1.66,0.20 1.61,0.39 1.57,0.59 1.47,0.77 1.38,0.95 1.24,1.10 1.11,1.25 0.94,1.37 0.78,1.48 0.59,1.55 0.40,1.63 0.20,1.65 -0.00,1.67 -0.00,1.67 L 0,1.67 Z"></path></g></svg>