<svg version="1.1" xmlns="http://www.w3.org/2000/svg" viewBox="0 0 1947.5686891233768 944.655691964286" width="3895.1373782467535" height="1889.311383928572">
  <!-- svg-source:excalidraw -->
  
  <defs>
    <style class="style-fonts">
      @font-face {
        font-family: "Virgil";
        src: url("https://excalidraw.com/Virgil.woff2");
      }
      @font-face {
        font-family: "Cascadia";
        src: url("https://excalidraw.com/Cascadia.woff2");
      }
    </style>
  </defs>
  <rect x="0" y="0" width="1947.5686891233768" height="944.655691964286" fill="#ffffff"></rect><g stroke-linecap="round" transform="translate(10 42.72377232142844) rotate(0 165.59375 153.93282645089278)"><path d="M-1.14 1.25 C69.86 1.18, 140.69 0.11, 331.9 0.18 M-0.18 -0.19 C126 -0.62, 252.7 -0.34, 331.8 -0.35 M331.44 -0.62 C333.45 113.3, 332.79 227.29, 331.68 307.26 M330.87 0.69 C331.48 80.75, 331.46 161.5, 331.06 308.25 M331.03 308.29 C251.87 307.64, 173.79 307.51, -1.15 307.24 M331.25 308.43 C255.3 306.92, 180.68 307.8, 0.23 307.74 M-0.95 308.41 C0.33 194.75, 1.49 81.18, -0.31 -0.43 M-0.1 307.21 C1.4 238.33, 1.15 168.78, -0.63 -0.49" stroke="#e67700" stroke-width="1" fill="none"></path></g><g transform="translate(118.2578125 167.1060267857133) rotate(0 48.5 9.5)"><text x="0" y="15" font-family="Helvetica, Segoe UI Emoji" font-size="16px" fill="#e67700" text-anchor="start" style="white-space: pre;" direction="ltr">Create Room</text></g><g stroke-linecap="round" transform="translate(67.89453124999997 155.7935267857141) rotate(0 92.66601562500001 22.806640624999943)"><path d="M61.18 1.01 C72.67 -0.45, 89.63 -1.32, 102.95 -0.77 C116.27 -0.22, 129.91 2.27, 141.08 4.3 C152.26 6.33, 162.66 8.89, 170 11.43 C177.34 13.97, 183.55 16.26, 185.12 19.53 C186.69 22.8, 183.7 27.99, 179.44 31.05 C175.17 34.11, 168.97 35.84, 159.52 37.9 C150.08 39.97, 135.69 42.03, 122.77 43.43 C109.85 44.83, 95.21 46.49, 82 46.31 C68.78 46.12, 54.68 44.04, 43.49 42.32 C32.31 40.59, 21.96 38.7, 14.88 35.96 C7.79 33.21, 2.77 29.17, 0.99 25.87 C-0.8 22.57, -0.2 19.21, 4.17 16.14 C8.54 13.07, 17.25 9.8, 27.19 7.45 C37.12 5.11, 57.04 3.08, 63.78 2.05 C70.52 1.03, 67.08 1.22, 67.64 1.33 M87.82 -0.38 C100.82 -0.83, 118.23 -0.39, 130.9 0.88 C143.57 2.15, 155.38 4.36, 163.83 7.27 C172.28 10.17, 178.44 14.93, 181.61 18.31 C184.78 21.68, 185.3 24.42, 182.84 27.53 C180.38 30.64, 174.65 34.6, 166.85 36.97 C159.06 39.34, 147.6 40.48, 136.09 41.73 C124.59 42.99, 111.14 44.3, 97.84 44.51 C84.54 44.73, 68.88 44.06, 56.32 43 C43.76 41.94, 31.4 40.78, 22.48 38.16 C13.56 35.54, 6.49 30.65, 2.77 27.29 C-0.95 23.92, -2.5 21.04, 0.16 17.96 C2.81 14.89, 10.75 11.26, 18.71 8.83 C26.66 6.4, 36.08 4.9, 47.88 3.37 C59.67 1.85, 82.83 0.25, 89.49 -0.31 C96.15 -0.87, 87.83 -0.4, 87.84 0.01" stroke="#e67700" stroke-width="1" fill="none"></path></g><g transform="translate(133.2421875 82.76618303571445) rotate(0 36.5 9.5)"><text x="0" y="15" font-family="Helvetica, Segoe UI Emoji" font-size="16px" fill="#e67700" text-anchor="start" style="white-space: pre;" direction="ltr">Welcome!</text></g><g stroke-linecap="round"><g transform="translate(264.9540385890574 172.8480821020804) rotate(0 65.69278432907754 -26.32747858135474)"><path d="M0.69 -0.9 C30.57 -9.65, 57.68 -22.19, 130.01 -50.71 M0.45 0.45 C42.39 -16.07, 84.55 -32.4, 130.94 -53.11" stroke="#e67700" stroke-width="1" fill="none"></path></g><g transform="translate(264.9540385890574 172.8480821020804) rotate(0 65.69278432907754 -26.32747858135474)"><path d="M109.81 -33.42 C115.51 -36.13, 118.73 -41.6, 130.75 -51.15 M109.57 -32.06 C116.58 -38.83, 123.67 -44.79, 131.68 -53.54" stroke="#e67700" stroke-width="1" fill="none"></path></g><g transform="translate(264.9540385890574 172.8480821020804) rotate(0 65.69278432907754 -26.32747858135474)"><path d="M101.68 -52.26 C108.99 -50.74, 114.01 -52.06, 130.75 -51.15 M101.44 -50.9 C111.16 -51.53, 120.88 -51.39, 131.68 -53.54" stroke="#e67700" stroke-width="1" fill="none"></path></g></g><mask></mask><g transform="translate(18.362723214285694 10) rotate(0 52.499999999999986 9.5)"><text x="0" y="15" font-family="Helvetica, Segoe UI Emoji" font-size="16px" fill="#e67700" text-anchor="start" style="white-space: pre;" direction="ltr">localhost 3000</text></g><g transform="translate(674.8615678921822 227.79421134152562) rotate(0.7179249286652166 87 28)"><text x="0" y="14.666666666666668" font-family="Helvetica, Segoe UI Emoji" font-size="16px" fill="#e67700" text-anchor="start" style="white-space: pre;" direction="ltr">signInAnonymously()</text><text x="0" y="33.333333333333336" font-family="Helvetica, Segoe UI Emoji" font-size="16px" fill="#e67700" text-anchor="start" style="white-space: pre;" direction="ltr">- query our player model</text><text x="0" y="52" font-family="Helvetica, Segoe UI Emoji" font-size="16px" fill="#e67700" text-anchor="start" style="white-space: pre;" direction="ltr">with the user.uid</text></g><g stroke-linecap="round"><g transform="translate(840.8930507657027 216.35236974407644) rotate(0 77.71486235025327 -51.84216481165811)"><path d="M-1.33 1.3 C39.62 -28.04, 76.4 -54.16, 156.76 -104.55 M-0.44 0.38 C52.54 -35.02, 108.02 -72.02, 155.71 -104.99" stroke="#e67700" stroke-width="1" fill="none"></path></g><g transform="translate(840.8930507657027 216.35236974407644) rotate(0 77.71486235025327 -51.84216481165811)"><path d="M136.91 -79.3 C143.72 -88.05, 145.64 -93.53, 157.38 -103.64 M137.8 -80.22 C143.28 -88.25, 151.27 -97.12, 156.34 -104.08" stroke="#e67700" stroke-width="1" fill="none"></path></g><g transform="translate(840.8930507657027 216.35236974407644) rotate(0 77.71486235025327 -51.84216481165811)"><path d="M125.32 -96.24 C135.21 -100.7, 140.07 -101.88, 157.38 -103.64 M126.21 -97.16 C135.69 -99.28, 147.68 -102.3, 156.34 -104.08" stroke="#e67700" stroke-width="1" fill="none"></path></g></g><mask></mask><g stroke-linecap="round"><g transform="translate(835.4145715060134 311.88120678589485) rotate(0 63.024165641162654 43.45117668123555)"><path d="M0.66 -0.46 C40.3 29.43, 76.82 58.2, 123.9 87.03 M0.9 0.23 C42.56 30.28, 87.17 61.88, 125.39 87.37" stroke="#e67700" stroke-width="1" fill="none"></path></g><g transform="translate(835.4145715060134 311.88120678589485) rotate(0 63.024165641162654 43.45117668123555)"><path d="M96.97 79.54 C106.89 83.12, 113.18 86.48, 124.19 86.34 M97.21 80.24 C105.75 81.9, 117.23 85.66, 125.68 86.68" stroke="#e67700" stroke-width="1" fill="none"></path></g><g transform="translate(835.4145715060134 311.88120678589485) rotate(0 63.024165641162654 43.45117668123555)"><path d="M108.5 62.57 C114.69 71.38, 117.35 80.08, 124.19 86.34 M108.74 63.27 C113.3 70.71, 120.81 80.33, 125.68 86.68" stroke="#e67700" stroke-width="1" fill="none"></path></g></g><mask></mask><g transform="translate(853.8141741071424 137.03627232142856) rotate(0 27.000000000000057 9.5)"><text x="0" y="15" font-family="Helvetica, Segoe UI Emoji" font-size="16px" fill="#e67700" text-anchor="start" style="white-space: pre;" direction="ltr">if found</text></g><g transform="translate(807.3844866071429 365.17354910714266) rotate(0 40.50000000000006 9.5)"><text x="0" y="15" font-family="Helvetica, Segoe UI Emoji" font-size="16px" fill="#e67700" text-anchor="start" style="white-space: pre;" direction="ltr">if not found</text></g><g stroke-linecap="round" transform="translate(1007.5502232142857 26.46595982142844) rotate(0 150.095703125 116.94140625)"><path d="M-1.43 0.22 C93.38 0.18, 183.74 -0.29, 299.11 0 M-0.45 0.55 C111.64 -1.14, 222.66 -1.52, 300.41 0.34 M300.27 -1.43 C299.51 74.28, 299.28 152.25, 300.08 233.15 M300.69 -0.05 C300.62 81.25, 301.3 163.23, 300.71 234.57 M300.99 232.52 C215.11 232.02, 132.74 232.21, 0.94 234.21 M299.89 233.19 C182.58 232.23, 64.69 233.21, -0.46 234.58 M-0.28 235.4 C1.57 160.93, 2.6 87.85, 0.77 -0.97 M0.57 233.97 C-0.41 170.48, -0.2 108.18, 0.83 -0.77" stroke="#e67700" stroke-width="1" fill="none"></path></g><g stroke-linecap="round" transform="translate(969.8973214285714 357.679129464286) rotate(0 170.447265625 288.48828125)"><path d="M1.23 -0.28 C76.7 1.23, 152.05 0.75, 341.1 -0.17 M-0.6 0.56 C97.72 -0.87, 196.45 -0.67, 341.01 -0.53 M340.25 -0.69 C343.32 187.91, 342.82 373.69, 341.53 577.67 M340.91 -0.32 C339.95 209.68, 339.69 419.04, 340.9 576.71 M340.69 577.53 C253.99 575.51, 169.65 575.61, 0.12 576.66 M340.73 577.5 C218.62 577.53, 97.75 577.42, 0.05 577.21 M-0.67 576.31 C2.46 353.19, 2.46 130.51, -0.73 -0.39 M0.02 577.24 C0.95 382.58, 0.86 188.49, -0.29 0.15" stroke="#e67700" stroke-width="1" fill="none"></path></g><g transform="translate(1037.3309151785716 379.272879464286) rotate(0 108.5 9.5)"><text x="0" y="15" font-family="Helvetica, Segoe UI Emoji" font-size="16px" fill="#e67700" text-anchor="start" style="white-space: pre;" direction="ltr">hi new user, enter a username</text></g><g transform="translate(1066.8934151785716 404.339285714286) rotate(0 64.5 9.5)"><text x="0" y="15" font-family="Helvetica, Segoe UI Emoji" font-size="16px" fill="#e67700" text-anchor="start" style="white-space: pre;" direction="ltr">&lt;.     textfield.    /&gt;</text></g><g transform="translate(1096.6981026785716 481.616629464286) rotate(0 31 9.5)"><text x="0" y="15" font-family="Helvetica, Segoe UI Emoji" font-size="16px" fill="#e67700" text-anchor="start" style="white-space: pre;" direction="ltr">continue</text></g><g stroke-linecap="round" transform="translate(1058.5184151785716 474.382254464286) rotate(0 74.025390625 19.060546875)"><path d="M56.06 0.76 C67.29 -0.2, 83.39 -0.5, 95.18 0.2 C106.96 0.89, 118.32 2.56, 126.77 4.93 C135.22 7.29, 142.73 11.32, 145.89 14.4 C149.04 17.47, 148.97 20.42, 145.7 23.38 C142.42 26.33, 135.21 29.91, 126.21 32.12 C117.21 34.34, 103.95 35.86, 91.7 36.67 C79.45 37.48, 64.48 37.62, 52.71 36.99 C40.94 36.35, 29.42 35.12, 21.06 32.88 C12.71 30.64, 5.74 26.56, 2.58 23.54 C-0.57 20.52, -1.06 17.71, 2.15 14.77 C5.35 11.83, 12.14 8.29, 21.81 5.88 C31.48 3.48, 53.2 1.39, 60.15 0.36 C67.09 -0.66, 63.13 -0.53, 63.45 -0.28 M74.97 -0.22 C86.74 -0.83, 102.42 0.12, 112.89 1.9 C123.36 3.69, 131.73 7.4, 137.79 10.5 C143.86 13.61, 149.18 17.72, 149.31 20.53 C149.45 23.34, 145.26 24.84, 138.61 27.34 C131.96 29.84, 120.26 33.79, 109.42 35.51 C98.59 37.24, 85.75 37.74, 73.61 37.7 C61.47 37.66, 47.36 36.79, 36.58 35.28 C25.8 33.78, 15 31.34, 8.93 28.67 C2.86 26.01, -0.04 22.71, 0.15 19.32 C0.34 15.93, 4.01 10.89, 10.06 8.32 C16.12 5.75, 25.61 5.47, 36.48 3.9 C47.34 2.34, 68.71 -0.46, 75.27 -1.07 C81.82 -1.69, 75.73 -0.17, 75.81 0.2" stroke="#e67700" stroke-width="1" fill="none"></path></g><g transform="translate(1020.6088169642857 55.92299107142844) rotate(0 141.5 28)"><text x="141.5" y="14.666666666666668" font-family="Helvetica, Segoe UI Emoji" font-size="16px" fill="#e67700" text-anchor="middle" style="white-space: pre;" direction="ltr">welcome back &lt;username&gt;</text><text x="141.5" y="33.333333333333336" font-family="Helvetica, Segoe UI Emoji" font-size="16px" fill="#e67700" text-anchor="middle" style="white-space: pre;" direction="ltr"></text><text x="141.5" y="52" font-family="Helvetica, Segoe UI Emoji" font-size="16px" fill="#e67700" text-anchor="middle" style="white-space: pre;" direction="ltr">do you want to change your username?</text></g><g transform="translate(1014.4291294642857 130.05580357142844) rotate(0 146 9.5)"><text x="0" y="15" font-family="Helvetica, Segoe UI Emoji" font-size="16px" fill="#e67700" text-anchor="start" style="white-space: pre;" direction="ltr">&lt;.     textfield. placeholder=username   /&gt;</text></g><g transform="translate(1109.3295200892858 176.93275669642776) rotate(0 31 9.5)"><text x="0" y="15" font-family="Helvetica, Segoe UI Emoji" font-size="16px" fill="#e67700" text-anchor="start" style="white-space: pre;" direction="ltr">continue</text></g><g stroke-linecap="round" transform="translate(1065.9779575892858 165.03822544642856) rotate(0 74.025390625 19.060546875000057)"><path d="M51.74 1.73 C62.55 0.63, 78.21 0.87, 90.44 1.34 C102.66 1.8, 116.15 2.55, 125.11 4.53 C134.08 6.51, 140.79 9.97, 144.21 13.21 C147.63 16.45, 148.4 20.8, 145.64 23.98 C142.87 27.16, 135.85 30.17, 127.64 32.3 C119.42 34.44, 107.96 35.94, 96.34 36.79 C84.73 37.63, 70.04 37.95, 57.92 37.36 C45.8 36.76, 32.86 35.38, 23.64 33.21 C14.42 31.05, 6.09 27.42, 2.61 24.38 C-0.88 21.35, -0.29 18.02, 2.73 14.98 C5.75 11.95, 10.6 8.6, 20.72 6.16 C30.85 3.72, 54.83 1.2, 63.5 0.35 C72.17 -0.49, 72.65 0.86, 72.74 1.1 M93.38 1.22 C104.95 1.73, 117.43 3.33, 125.98 5.38 C134.52 7.43, 141.63 10.51, 144.65 13.54 C147.67 16.58, 147.34 20.27, 144.09 23.57 C140.84 26.88, 133.46 31.01, 125.15 33.39 C116.84 35.76, 105.89 37.15, 94.24 37.82 C82.59 38.48, 67.36 38.38, 55.24 37.37 C43.11 36.36, 30.13 33.82, 21.48 31.76 C12.83 29.71, 6.56 27.76, 3.35 25.04 C0.13 22.31, -0.64 18.61, 2.21 15.4 C5.06 12.18, 11.68 7.95, 20.43 5.74 C29.18 3.52, 42.48 3.01, 54.69 2.08 C66.91 1.15, 87.43 0.41, 93.74 0.15 C100.04 -0.1, 93.01 0.38, 92.54 0.56" stroke="#e67700" stroke-width="1" fill="none"></path></g><g transform="translate(987.4949776785714 723.479910714286) rotate(0 105 28)"><text x="0" y="14.666666666666668" font-family="Helvetica, Segoe UI Emoji" font-size="16px" fill="#364fc7" text-anchor="start" style="white-space: pre;" direction="ltr">had an account that you lost?</text><text x="0" y="33.333333333333336" font-family="Helvetica, Segoe UI Emoji" font-size="16px" fill="#364fc7" text-anchor="start" style="white-space: pre;" direction="ltr">Enter your email below:</text><text x="0" y="52" font-family="Helvetica, Segoe UI Emoji" font-size="16px" fill="#364fc7" text-anchor="start" style="white-space: pre;" direction="ltr">&lt;text field&gt;</text></g><g stroke-linecap="round" transform="translate(1147.5184151785716 753.206473214286) rotate(0 59.59375 15.263671875)"><path d="M72.92 1.05 C83.28 1.52, 95.84 3.13, 103.4 5 C110.96 6.87, 116.27 9.7, 118.29 12.28 C120.3 14.85, 119.46 17.97, 115.49 20.43 C111.52 22.9, 103.48 25.45, 94.48 27.06 C85.48 28.67, 72.41 29.95, 61.5 30.09 C50.58 30.23, 38.24 29.08, 29 27.92 C19.76 26.76, 10.78 25.5, 6.04 23.13 C1.3 20.77, -0.54 16.59, 0.54 13.71 C1.62 10.83, 5.78 8.05, 12.53 5.86 C19.28 3.67, 29.29 1.36, 41.05 0.58 C52.8 -0.19, 74.35 0.97, 83.04 1.21 C91.73 1.45, 93.29 1.87, 93.16 2.04 M68.56 -0.18 C78.88 -0.25, 90.59 1.45, 98.65 3.24 C106.72 5.03, 113.81 7.72, 116.95 10.55 C120.09 13.37, 120.32 17.26, 117.48 20.18 C114.63 23.11, 108.03 26.31, 99.88 28.12 C91.72 29.93, 79.19 30.82, 68.54 31.04 C57.88 31.27, 45.74 30.58, 35.94 29.47 C26.14 28.37, 15.64 26.56, 9.74 24.43 C3.84 22.29, 0.58 19.32, 0.54 16.65 C0.51 13.98, 3.68 10.86, 9.54 8.42 C15.4 5.97, 26.14 3.2, 35.68 2 C45.23 0.8, 61.32 1.39, 66.8 1.21 C72.29 1.04, 68.54 0.74, 68.6 0.92" stroke="#364fc7" stroke-width="1" fill="none"></path></g><g transform="translate(1188.1121651785716 758.970145089286) rotate(0 19 9.5)"><text x="19" y="15" font-family="Helvetica, Segoe UI Emoji" font-size="16px" fill="#364fc7" text-anchor="middle" style="white-space: pre;" direction="ltr">enter</text></g><g transform="translate(988.1707589285714 808.319754464286) rotate(0 158.5 9.5)"><text x="0" y="15" font-family="Helvetica, Segoe UI Emoji" font-size="16px" fill="#364fc7" text-anchor="start" style="white-space: pre;" direction="ltr">&lt;displays the uid associated with this email&gt;</text></g><g transform="translate(982.4598214285714 536.093191964286) rotate(0 75.5 9.5)"><text x="0" y="15" font-family="Helvetica, Segoe UI Emoji" font-size="16px" fill="#364fc7" text-anchor="start" style="white-space: pre;" direction="ltr">login with uid instead</text></g><g stroke-linecap="round"><g transform="translate(968.9559151785714 522.936941964286) rotate(0 171.5335105807609 -0.3303725124428638)"><path d="M-0.26 -0.54 C123.59 1.22, 249.95 -0.13, 343.5 -0.83 M-0.43 0.09 C77.83 -0.97, 156.04 -2.09, 342.47 0.44" stroke="#e67700" stroke-width="1" fill="none"></path></g></g><mask></mask><g transform="translate(996.6004464285714 584.472098214286) rotate(0 64.5 9.5)"><text x="0" y="15" font-family="Helvetica, Segoe UI Emoji" font-size="16px" fill="#364fc7" text-anchor="start" style="white-space: pre;" direction="ltr">&lt;.     textfield.    /&gt;</text></g><g stroke-linecap="round" transform="translate(1062.0398995535716 614.856863839286) rotate(0 74.025390625 19.060546875)"><path d="M85.14 0.13 C97 0.32, 111.13 2.13, 120.86 4.23 C130.59 6.32, 139.22 9.86, 143.51 12.71 C147.8 15.55, 148.7 18.34, 146.61 21.29 C144.52 24.23, 138.68 27.7, 130.99 30.38 C123.31 33.07, 111.95 36.31, 100.5 37.4 C89.05 38.49, 74.37 37.37, 62.31 36.92 C50.24 36.47, 37.69 36.65, 28.11 34.72 C18.53 32.79, 9.26 28.56, 4.84 25.35 C0.42 22.14, -0.51 18.56, 1.59 15.46 C3.69 12.36, 9.6 9.18, 17.44 6.74 C25.28 4.3, 36.06 1.85, 48.62 0.82 C61.17 -0.21, 84.25 0.29, 92.79 0.58 C101.32 0.87, 100.12 2.31, 99.81 2.55 M59.9 0.72 C71.58 0.08, 87.96 1.65, 99.98 2.57 C112.01 3.5, 124.46 4.32, 132.04 6.27 C139.63 8.22, 143.65 10.93, 145.51 14.28 C147.37 17.62, 147.32 23.17, 143.2 26.33 C139.07 29.49, 130.16 31.33, 120.78 33.23 C111.4 35.13, 98.88 37.22, 86.93 37.71 C74.97 38.21, 60.85 37.44, 49.06 36.18 C37.28 34.92, 24.12 32.45, 16.22 30.15 C8.31 27.85, 3.52 25.3, 1.62 22.37 C-0.28 19.44, 0.45 15.47, 4.81 12.56 C9.17 9.65, 18.65 6.91, 27.79 4.9 C36.92 2.9, 54.18 1.09, 59.62 0.54 C65.06 0, 59.78 1.4, 60.43 1.65" stroke="#364fc7" stroke-width="1" fill="none"></path></g><g transform="translate(1092.8113839285716 623.233816964286) rotate(0 31 9.5)"><text x="0" y="15" font-family="Helvetica, Segoe UI Emoji" font-size="16px" fill="#364fc7" text-anchor="start" style="white-space: pre;" direction="ltr">continue</text></g><g stroke-linecap="round"><g transform="translate(975.7918526785714 692.952566964286) rotate(0 166.76048236689576 -0.14959799788709915)"><path d="M1.34 1.01 C86.68 0.05, 174.97 -0.57, 332.7 -0.22 M0.62 -0.39 C130.35 -1.18, 259.37 -2.25, 332.9 0.23" stroke="#364fc7" stroke-width="1" fill="none"></path></g></g><mask></mask><g stroke-linecap="round"><g transform="translate(259.748046875 332.2183314732124) rotate(0 63.19234791909963 24.91429739030366)"><path d="M-1.18 -0.9 C26.89 10.81, 54.31 23.39, 127.56 50.73 M0.06 -0.67 C50.3 17.45, 100.23 36.78, 126.39 49.1" stroke="#e67700" stroke-width="1" fill="none"></path></g><g transform="translate(259.748046875 332.2183314732124) rotate(0 63.19234791909963 24.91429739030366)"><path d="M95.27 46.36 C102.01 46.85, 107.81 48.96, 126.69 50.85 M96.51 46.59 C108.56 47.34, 120.68 48.35, 125.52 49.23" stroke="#e67700" stroke-width="1" fill="none"></path></g><g transform="translate(259.748046875 332.2183314732124) rotate(0 63.19234791909963 24.91429739030366)"><path d="M103.46 27.55 C108.26 32.15, 112.25 38.44, 126.69 50.85 M104.7 27.77 C113.71 35.91, 122.65 44.24, 125.52 49.23" stroke="#e67700" stroke-width="1" fill="none"></path></g></g><mask></mask><g transform="translate(400.4054724277497 357.594648976823) rotate(1.1106276226582006 79.5 28)"><text x="0" y="14.666666666666668" font-family="Helvetica, Segoe UI Emoji" font-size="16px" fill="#e67700" text-anchor="start" style="white-space: pre;" direction="ltr">- find room in backend</text><text x="0" y="33.333333333333336" font-family="Helvetica, Segoe UI Emoji" font-size="16px" fill="#e67700" text-anchor="start" style="white-space: pre;" direction="ltr">where name is</text><text x="0" y="52" font-family="Helvetica, Segoe UI Emoji" font-size="16px" fill="#e67700" text-anchor="start" style="white-space: pre;" direction="ltr">jolly-panda</text></g><g transform="translate(404.143275669643 86.52078683035711) rotate(0 91.5 28)"><text x="0" y="14.666666666666668" font-family="Helvetica, Segoe UI Emoji" font-size="16px" fill="#e67700" text-anchor="start" style="white-space: pre;" direction="ltr">generate 3 random words</text><text x="0" y="33.333333333333336" font-family="Helvetica, Segoe UI Emoji" font-size="16px" fill="#e67700" text-anchor="start" style="white-space: pre;" direction="ltr">for room name</text><text x="0" y="52" font-family="Helvetica, Segoe UI Emoji" font-size="16px" fill="#e67700" text-anchor="start" style="white-space: pre;" direction="ltr">create room model in DB</text></g><g transform="translate(48.693359375 272.5503627232124) rotate(0 131 9.5)"><text x="0" y="15" font-family="Helvetica, Segoe UI Emoji" font-size="16px" fill="#e67700" text-anchor="start" style="white-space: pre;" direction="ltr">Join Room &lt;textfield for jolly-panda&gt;</text></g><g transform="translate(138.5322265625 312.8872767857124) rotate(0 39 9.5)"><text x="0" y="15" font-family="Helvetica, Segoe UI Emoji" font-size="16px" fill="#e67700" text-anchor="start" style="white-space: pre;" direction="ltr">Join Room</text></g><g stroke-linecap="round" transform="translate(114.8310546875 304.3032924107124) rotate(0 61.60400390625 19.1845703125)"><path d="M31.88 3.02 C40.84 1.13, 55.98 -0.51, 67.07 -0.52 C78.17 -0.53, 89.68 0.63, 98.45 2.95 C107.23 5.28, 115.79 10.07, 119.71 13.45 C123.63 16.83, 124.37 19.92, 121.96 23.24 C119.56 26.55, 113.21 30.85, 105.29 33.32 C97.37 35.78, 85.22 37.32, 74.42 38.05 C63.62 38.78, 50.99 38.95, 40.48 37.68 C29.97 36.41, 18.17 33.38, 11.36 30.43 C4.56 27.47, 0.33 23.31, -0.34 19.95 C-1.01 16.59, 0.62 13.4, 7.33 10.26 C14.03 7.13, 32.89 2.68, 39.9 1.15 C46.91 -0.38, 49.02 0.93, 49.4 1.08 M49.2 1.23 C59.73 0.73, 75.12 1.28, 85.44 2.43 C95.76 3.58, 104.61 5.38, 111.12 8.11 C117.63 10.84, 123.73 15.34, 124.51 18.84 C125.29 22.34, 121.28 26.16, 115.79 29.11 C110.31 32.05, 101.64 34.87, 91.6 36.51 C81.56 38.16, 66.97 39.29, 55.55 38.98 C44.13 38.67, 31.95 37.1, 23.08 34.66 C14.22 32.21, 5.81 27.41, 2.36 24.32 C-1.09 21.22, -0.26 19.19, 2.38 16.1 C5.03 13, 10.59 8.15, 18.24 5.77 C25.9 3.39, 43.19 2.44, 48.29 1.83 C53.4 1.23, 48.48 2.16, 48.86 2.13" stroke="#e67700" stroke-width="1" fill="none"></path></g><g mask="url(#mask-VugUiMo-gO4efhGmozcxK)" stroke-linecap="round"><g transform="translate(603.2934380073052 135.00227019074646) rotate(0 47.59950089467952 36.216392433935994)"><path d="M0.29 -0.37 C24.49 19.49, 52.98 42.54, 92.4 72.77 M0.61 0.81 C21.07 16.23, 39.72 31.18, 94.91 72.81" stroke="#e67700" stroke-width="1" fill="none"></path></g><g transform="translate(603.2934380073052 135.00227019074646) rotate(0 47.59950089467952 36.216392433935994)"><path d="M66.54 63.56 C73.25 65.26, 83.7 70.45, 93.26 71.96 M66.86 64.75 C73.2 66.47, 77.79 67.51, 95.76 72" stroke="#e67700" stroke-width="1" fill="none"></path></g><g transform="translate(603.2934380073052 135.00227019074646) rotate(0 47.59950089467952 36.216392433935994)"><path d="M78.95 47.22 C82.1 53.37, 89.12 63.07, 93.26 71.96 M79.27 48.4 C82.95 53.68, 84.88 58.23, 95.76 72" stroke="#e67700" stroke-width="1" fill="none"></path></g></g><mask id="mask-VugUiMo-gO4efhGmozcxK"><rect x="0" y="0" fill="#fff" width="797.3447772930194" height="308.6183416193178"></rect><rect x="555.3191076501624" y="162.310305905032" fill="#000" width="190" height="19" opacity="1"></rect></mask><g transform="translate(555.3191076501622 162.31030590503212) rotate(0 95.57383125182241 8.908356719650328)"><text x="95" y="15" font-family="Helvetica, Segoe UI Emoji" font-size="16px" fill="#a61e4d" text-anchor="middle" style="white-space: pre;" direction="ltr">useNavigate('/jolly-panda')</text></g><g stroke-linecap="round"><g transform="translate(554.903043655412 356.7711469545013) rotate(0 50.31816641363497 -33.70154449671202)"><path d="M-0.18 -0.99 C36.74 -24.62, 69.02 -50.3, 100.93 -67.8 M-0.3 0.39 C34.5 -22.93, 68.99 -48.19, 99.89 -67.71" stroke="#e67700" stroke-width="1" fill="none"></path></g><g transform="translate(554.903043655412 356.7711469545013) rotate(0 50.31816641363497 -33.70154449671202)"><path d="M81.83 -44.62 C89.86 -52.49, 93.2 -62.43, 101.31 -67.03 M81.7 -43.23 C88.06 -51.11, 93.76 -60.71, 100.27 -66.94" stroke="#e67700" stroke-width="1" fill="none"></path></g><g transform="translate(554.903043655412 356.7711469545013) rotate(0 50.31816641363497 -33.70154449671202)"><path d="M70.53 -61.76 C82.58 -63.55, 89.93 -67.42, 101.31 -67.03 M70.41 -60.37 C80.88 -62.17, 90.56 -65.73, 100.27 -66.94" stroke="#e67700" stroke-width="1" fill="none"></path></g></g><mask></mask><g transform="translate(959.8782594358767 541.8940112621751) rotate(0 -37.89620535714289 135.99888392857144)" stroke="none"><path fill="#364fc7" d="M 0,2.58 Q 0,2.58 -1.29,2.59 -2.58,2.60 -4.01,2.40 -5.44,2.20 -6.68,2.26 -7.93,2.32 -9.74,3.16 -11.56,4.00 -12.85,4.82 -14.14,5.64 -15.39,6.88 -16.64,8.12 -17.99,9.78 -19.35,11.44 -20.50,13.18 -21.66,14.93 -22.73,16.75 -23.81,18.57 -24.86,20.65 -25.91,22.74 -26.96,24.97 -28.01,27.20 -28.97,29.04 -29.94,30.88 -30.41,32.41 -30.88,33.94 -31.21,35.42 -31.54,36.90 -31.82,38.37 -32.10,39.84 -32.32,41.08 -32.55,42.33 -32.71,43.48 -32.87,44.63 -32.92,46.81 -32.98,48.98 -32.96,50.20 -32.93,51.42 -32.90,52.52 -32.87,53.62 -32.85,54.93 -32.84,56.24 -32.84,57.63 -32.84,59.03 -32.90,60.79 -32.96,62.56 -32.98,64.15 -33.00,65.74 -32.96,67.00 -32.93,68.26 -32.89,69.39 -32.85,70.51 -32.84,71.82 -32.83,73.14 -32.80,74.29 -32.77,75.43 -32.74,76.51 -32.71,77.58 -33.29,79.89 -33.87,82.20 -34.64,84.49 -35.41,86.77 -35.92,88.03 -36.44,89.29 -36.95,90.43 -37.47,91.56 -37.97,92.64 -38.48,93.71 -39.59,95.22 -40.70,96.73 -42.23,98.14 -43.76,99.55 -44.54,101.00 -45.33,102.44 -46.05,103.48 -46.78,104.51 -47.95,106.06 -49.13,107.61 -49.91,109.04 -50.69,110.46 -52.42,112.85 -54.14,115.25 -55.12,116.44 -56.09,117.64 -56.97,118.67 -57.84,119.70 -58.94,120.97 -60.04,122.23 -60.96,123.29 -61.88,124.35 -63.03,125.39 -64.17,126.42 -65.72,127.54 -67.28,128.65 -68.69,129.91 -70.11,131.18 -71.39,132.05 -72.67,132.93 -73.53,133.46 -74.39,133.99 -74.72,134.08 -75.04,134.17 -75.38,134.18 -75.71,134.19 -76.04,134.12 -76.37,134.05 -76.67,133.90 -76.97,133.75 -77.23,133.54 -77.49,133.32 -77.68,133.05 -77.88,132.78 -78.01,132.47 -78.14,132.16 -78.19,131.83 -78.24,131.50 -78.21,131.16 -78.18,130.83 -78.07,130.51 -77.96,130.19 -77.78,129.91 -77.59,129.63 -77.35,129.40 -77.10,129.17 -76.81,129.01 -76.52,128.84 -75.03,129.15 -73.54,129.47 -72.37,129.36 -71.21,129.26 -68.87,130.49 -66.54,131.72 -65.41,132.19 -64.28,132.66 -62.95,133.47 -61.62,134.28 -60.54,135.10 -59.47,135.92 -58.01,137.64 -56.54,139.36 -55.49,140.43 -54.43,141.50 -53.71,142.40 -52.99,143.30 -51.97,145.28 -50.95,147.26 -50.45,148.28 -49.96,149.30 -49.40,150.64 -48.84,151.98 -48.42,153.83 -48.00,155.67 -47.47,156.98 -46.93,158.29 -46.60,160.01 -46.27,161.73 -45.87,163.05 -45.47,164.38 -45.12,166.20 -44.77,168.03 -44.49,169.90 -44.20,171.77 -43.78,173.57 -43.35,175.37 -42.82,176.95 -42.30,178.53 -41.86,180.13 -41.41,181.73 -41.19,183.37 -40.96,185.00 -40.84,187.08 -40.71,189.16 -40.61,190.93 -40.50,192.69 -40.28,194.18 -40.05,195.68 -39.92,197.25 -39.79,198.83 -39.57,200.23 -39.35,201.62 -39.07,203.06 -38.80,204.49 -38.63,205.78 -38.46,207.08 -38.39,208.49 -38.31,209.91 -38.39,211.94 -38.47,213.97 -38.43,215.41 -38.39,216.85 -38.34,218.05 -38.29,219.25 -38.26,220.60 -38.23,221.95 -38.19,223.11 -38.15,224.27 -38.06,226.03 -37.96,227.79 -37.95,229.03 -37.94,230.27 -37.92,231.38 -37.90,232.49 -37.85,234.28 -37.80,236.07 -37.72,237.51 -37.64,238.95 -37.55,241.20 -37.47,243.45 -37.46,244.68 -37.44,245.92 -36.71,248.02 -35.97,250.12 -35.49,251.84 -35.01,253.56 -34.58,254.67 -34.14,255.78 -33.69,256.77 -33.23,257.77 -32.60,259.35 -31.97,260.94 -30.51,262.35 -29.04,263.77 -28.13,264.61 -27.22,265.45 -25.52,265.71 -23.82,265.96 -22.63,266.00 -21.45,266.04 -19.92,266.11 -18.39,266.18 -17.14,266.14 -15.90,266.09 -13.68,266.95 -11.46,267.80 -9.81,268.37 -8.17,268.94 -6.84,269.25 -5.52,269.55 -5.05,269.73 -4.59,269.90 -4.21,270.22 -3.82,270.53 -3.56,270.95 -3.29,271.37 -3.18,271.86 -3.06,272.34 -3.11,272.84 -3.15,273.33 -3.35,273.78 -3.56,274.24 -3.89,274.61 -4.23,274.97 -4.66,275.21 -5.10,275.45 -5.58,275.54 -6.07,275.63 -6.56,275.56 -7.06,275.49 -7.50,275.26 -7.94,275.04 -8.29,274.68 -8.64,274.33 -8.85,273.88 -9.07,273.43 -9.13,272.94 -9.20,272.45 -9.10,271.96 -9.00,271.47 -8.75,271.04 -8.50,270.61 -8.13,270.29 -7.76,269.96 -7.30,269.77 -6.84,269.57 -6.34,269.54 -5.85,269.50 -5.37,269.63 -4.89,269.75 -4.47,270.02 -4.05,270.29 -3.75,270.69 -3.44,271.08 -3.27,271.54 -3.11,272.01 -3.10,272.51 -3.09,273.00 -3.24,273.48 -3.39,273.95 -3.68,274.35 -3.98,274.75 -4.38,275.04 -4.79,275.32 -5.27,275.47 -5.74,275.61 -6.24,275.59 -6.74,275.57 -6.73,275.57 -6.73,275.57 -9.12,274.82 -11.51,274.06 -13.72,273.08 -15.93,272.10 -17.17,272.05 -18.41,271.99 -19.97,272.05 -21.52,272.12 -23.78,272.07 -26.05,272.03 -27.27,271.80 -28.50,271.56 -29.84,270.67 -31.18,269.78 -32.00,269.04 -32.81,268.31 -33.92,267.41 -35.03,266.51 -36.12,265.23 -37.20,263.95 -37.72,262.26 -38.25,260.57 -38.75,259.18 -39.25,257.78 -39.99,255.55 -40.73,253.32 -41.06,251.37 -41.40,249.41 -41.99,247.75 -42.58,246.09 -42.58,244.79 -42.58,243.49 -42.58,241.35 -42.58,239.20 -42.64,237.85 -42.70,236.51 -42.99,234.50 -43.28,232.49 -43.25,231.38 -43.23,230.27 -43.22,229.03 -43.21,227.79 -43.12,226.03 -43.03,224.28 -42.99,223.12 -42.95,221.96 -42.92,220.61 -42.90,219.27 -42.85,218.07 -42.80,216.88 -42.78,215.45 -42.76,214.01 -42.88,212.04 -43.00,210.07 -43.01,208.78 -43.03,207.48 -43.07,206.36 -43.12,205.23 -43.36,203.72 -43.59,202.21 -43.78,200.64 -43.96,199.08 -44.01,197.64 -44.05,196.20 -44.24,194.55 -44.42,192.90 -44.51,191.24 -44.59,189.57 -44.90,187.53 -45.21,185.48 -45.33,184.13 -45.44,182.78 -45.80,181.31 -46.17,179.83 -46.74,178.14 -47.31,176.45 -47.91,174.51 -48.50,172.57 -48.89,170.79 -49.28,169.00 -49.68,167.39 -50.07,165.78 -50.56,164.18 -51.05,162.58 -51.25,161.37 -51.44,160.15 -52.14,158.52 -52.83,156.90 -53.24,155.45 -53.65,154.01 -54.18,152.77 -54.72,151.52 -55.21,150.41 -55.71,149.31 -56.13,148.26 -56.56,147.21 -57.17,145.99 -57.78,144.77 -58.83,143.69 -59.89,142.61 -62.13,140.67 -64.36,138.73 -65.36,138.11 -66.36,137.48 -67.55,136.96 -68.75,136.44 -70.31,135.84 -71.88,135.24 -73.04,135.00 -74.21,134.76 -75.62,134.22 -77.03,133.68 -75.71,133.83 -74.39,133.99 -74.72,134.08 -75.04,134.17 -75.38,134.18 -75.71,134.19 -76.04,134.12 -76.37,134.05 -76.67,133.90 -76.97,133.75 -77.23,133.54 -77.49,133.32 -77.68,133.05 -77.88,132.78 -78.01,132.47 -78.14,132.16 -78.19,131.83 -78.24,131.50 -78.21,131.16 -78.18,130.83 -78.07,130.51 -77.96,130.19 -77.78,129.91 -77.59,129.63 -77.35,129.40 -77.10,129.17 -76.81,129.01 -76.52,128.84 -76.30,128.69 -76.08,128.54 -74.72,128.01 -73.37,127.48 -71.69,126.28 -70.01,125.09 -68.65,123.97 -67.30,122.85 -66.32,122.03 -65.35,121.20 -64.45,120.26 -63.55,119.31 -62.46,117.93 -61.36,116.55 -60.51,115.66 -59.66,114.76 -58.64,113.49 -57.62,112.22 -56.19,110.29 -54.75,108.36 -53.93,106.68 -53.10,105.01 -52.08,103.21 -51.07,101.42 -49.90,99.84 -48.73,98.26 -47.97,97.19 -47.20,96.12 -46.10,94.92 -44.99,93.71 -44.21,92.51 -43.43,91.30 -42.92,90.29 -42.42,89.27 -41.93,88.24 -41.45,87.22 -41.00,86.15 -40.55,85.08 -40.12,83.69 -39.69,82.30 -39.27,81.12 -38.84,79.95 -38.41,78.76 -37.98,77.58 -37.95,76.51 -37.92,75.43 -37.89,74.29 -37.87,73.14 -37.85,71.82 -37.84,70.51 -37.80,69.39 -37.76,68.26 -37.73,67.00 -37.70,65.74 -37.71,64.15 -37.73,62.56 -37.79,60.79 -37.85,59.02 -37.85,57.62 -37.84,56.22 -37.82,54.91 -37.81,53.59 -37.76,52.47 -37.71,51.35 -37.65,50.10 -37.59,48.85 -37.36,46.32 -37.12,43.78 -36.82,42.58 -36.51,41.37 -36.15,40.18 -35.79,38.99 -35.38,37.48 -34.98,35.98 -34.49,34.41 -34.00,32.84 -33.34,31.15 -32.68,29.46 -31.77,27.70 -30.87,25.93 -29.89,23.63 -28.92,21.32 -27.94,19.10 -26.97,16.87 -26.01,14.90 -25.05,12.94 -24.00,10.92 -22.95,8.90 -21.70,6.88 -20.45,4.85 -19.00,2.93 -17.54,1.02 -16.10,-0.14 -14.65,-1.30 -12.69,-2.35 -10.72,-3.40 -9.31,-3.49 -7.90,-3.59 -6.24,-3.42 -4.58,-3.25 -3.56,-2.92 -2.55,-2.60 -1.27,-2.59 0,-2.58 0.30,-2.55 0.61,-2.51 0.91,-2.40 1.20,-2.29 1.45,-2.11 1.71,-1.93 1.92,-1.70 2.12,-1.46 2.27,-1.19 2.41,-0.91 2.49,-0.61 2.56,-0.31 2.56,0.00 2.56,0.31 2.49,0.61 2.41,0.91 2.27,1.19 2.12,1.47 1.92,1.70 1.71,1.93 1.45,2.11 1.20,2.29 0.91,2.40 0.61,2.51 0.30,2.55 -0.00,2.58 -0.00,2.58 L 0,2.58 Z"></path></g><g transform="translate(705.1740183644479 658.2891005478891) rotate(0 83.49999999999994 30)"><text x="0" y="14" font-family="Virgil, Segoe UI Emoji" font-size="16px" fill="#364fc7" text-anchor="start" style="white-space: pre;" direction="ltr">bonus stuff we might</text><text x="0" y="34" font-family="Virgil, Segoe UI Emoji" font-size="16px" fill="#364fc7" text-anchor="start" style="white-space: pre;" direction="ltr">want to tackle</text><text x="0" y="54" font-family="Virgil, Segoe UI Emoji" font-size="16px" fill="#364fc7" text-anchor="start" style="white-space: pre;" direction="ltr">later!</text></g><g mask="url(#mask-XmtkDMjzeALNPnNSVlUO3)" stroke-linecap="round"><g transform="translate(1328.5257203733768 143.46209161931802) rotate(0 100.37706527526632 79.92366846327008)"><path d="M1.07 -1.42 C62.61 50.28, 124.72 99.53, 200.58 160.01 M0.18 0.58 C76.38 61.66, 153.91 123.21, 198.76 161.27" stroke="#e67700" stroke-width="1" fill="none"></path></g><g transform="translate(1328.5257203733768 143.46209161931802) rotate(0 100.37706527526632 79.92366846327008)"><path d="M171.83 149.44 C179.96 154.77, 189.39 157.4, 200.27 160.32 M170.72 151.92 C180.96 154.88, 192.35 157.94, 198.02 161.88" stroke="#e67700" stroke-width="1" fill="none"></path></g><g transform="translate(1328.5257203733768 143.46209161931802) rotate(0 100.37706527526632 79.92366846327008)"><path d="M184.92 133.63 C189.07 143.81, 194.46 151.32, 200.27 160.32 M183.8 136.11 C188.93 145.23, 195.25 154.4, 198.02 161.88" stroke="#e67700" stroke-width="1" fill="none"></path></g></g><mask id="mask-XmtkDMjzeALNPnNSVlUO3"><rect x="0" y="0" fill="#fff" width="1627.8811891233768" height="404.233575994318"></rect><rect x="1365.2034547483768" y="204.84783380681802" fill="#000" width="126" height="38" opacity="1"></rect></mask><g transform="translate(1365.2034547483768 204.84783380681802) rotate(0 63.69933090026632 18.537926275770076)"><text x="63" y="15" font-family="Helvetica, Segoe UI Emoji" font-size="16px" fill="#e67700" text-anchor="middle" style="white-space: pre;" direction="ltr">update username</text><text x="63" y="34" font-family="Helvetica, Segoe UI Emoji" font-size="16px" fill="#e67700" text-anchor="middle" style="white-space: pre;" direction="ltr">of player model</text></g><g mask="url(#mask-WN_1mLx3wZ69qWTV42IRf)" stroke-linecap="round"><g transform="translate(1321.0843141233768 454.892755681818) rotate(0 105.21824994034353 -50.913357394659215)"><path d="M-0.11 0.65 C59.74 -28.84, 117.36 -54.93, 210.25 -102.47 M-0.53 0.09 C64.01 -30.67, 127.24 -60.79, 210.97 -102.12" stroke="#e67700" stroke-width="1" fill="none"></path></g><g transform="translate(1321.0843141233768 454.892755681818) rotate(0 105.21824994034353 -50.913357394659215)"><path d="M190.03 -79.74 C197.44 -87.49, 201.79 -90.73, 209.55 -102.49 M189.53 -80.4 C197.08 -87.83, 202.67 -93.51, 210.4 -102.07" stroke="#e67700" stroke-width="1" fill="none"></path></g><g transform="translate(1321.0843141233768 454.892755681818) rotate(0 105.21824994034353 -50.913357394659215)"><path d="M181.01 -98.16 C191.02 -100.77, 197.88 -98.89, 209.55 -102.49 M180.51 -98.83 C190.86 -100.65, 199.18 -100.77, 210.4 -102.07" stroke="#e67700" stroke-width="1" fill="none"></path></g></g><mask id="mask-WN_1mLx3wZ69qWTV42IRf"><rect x="0" y="0" fill="#fff" width="1632.5247438108768" height="657.060724431818"></rect><rect x="1400.3045289671268" y="375.308771306818" fill="#000" width="53" height="57" opacity="1"></rect></mask><g transform="translate(1400.3045289671268 375.308771306818) rotate(0 25.998035096593526 28.670626980340785)"><text x="26.5" y="15" font-family="Helvetica, Segoe UI Emoji" font-size="16px" fill="#e67700" text-anchor="middle" style="white-space: pre;" direction="ltr">creates</text><text x="26.5" y="34" font-family="Helvetica, Segoe UI Emoji" font-size="16px" fill="#e67700" text-anchor="middle" style="white-space: pre;" direction="ltr">player </text><text x="26.5" y="53" font-family="Helvetica, Segoe UI Emoji" font-size="16px" fill="#e67700" text-anchor="middle" style="white-space: pre;" direction="ltr">model</text></g><g stroke-linecap="round" transform="translate(1540.9964234983768 202.44646661931802) rotate(0 198.2861328125 206.57470703125)"><path d="M-0.55 0.95 C111.67 -1.25, 220.83 0.06, 396.86 0.17 M0.54 0.23 C130.62 -0.13, 260.02 0.37, 396.8 -0.22 M397.42 0.75 C398.91 83.99, 398.48 166.53, 396.33 413.91 M396.77 0.53 C397.33 85.17, 397.85 170.32, 397 413.56 M395.47 412.48 C254.53 414.65, 113 414.27, 0.13 413.75 M396.98 413.47 C247.53 412.21, 99.13 411.91, 0 413.02 M0.25 414.06 C-0.33 320.06, -0.46 226.77, 0.39 -0.51 M-0.13 412.73 C-1.83 310.94, -1.9 209.01, -0.42 -0.21" stroke="#e67700" stroke-width="1" fill="none"></path></g><g transform="translate(1546.7532594358768 175.80779474431802) rotate(0 91.5 9.5)"><text x="0" y="15" font-family="Helvetica, Segoe UI Emoji" font-size="16px" fill="#e67700" text-anchor="start" style="white-space: pre;" direction="ltr">localhost3000/jolly-panda</text></g><g stroke-linecap="round" transform="translate(122.2247996144481 812.0007355925322) rotate(0 194.5647321428571 21.247209821428328)"><path d="M0.3 -0.55 C143.18 -0.56, 287.69 -1.29, 389.01 -0.39 M0.25 -0.08 C153.27 1.71, 304.98 2.46, 388.72 0.25 M387.29 1.17 C388.65 13.22, 388.79 23.03, 388.68 42 M389.49 0.01 C387.93 7.83, 388.03 16.96, 388.58 42.03 M389.97 41.62 C305.99 41.19, 221.87 42.52, -0.09 42.63 M388.83 43.04 C307.2 41.13, 225.35 42.09, -0.18 42.33 M-1.12 42.39 C0.5 28.43, -1.37 15.64, 0.23 -0.3 M-0.72 41.65 C-0.33 26.74, -0.22 9.29, -0.17 -0.62" stroke="#a61e4d" stroke-width="1" fill="none"></path></g><g transform="translate(136.5427559636541 824.8178858901504) rotate(0 91.5 9.5)"><text x="0" y="15" font-family="Helvetica, Segoe UI Emoji" font-size="16px" fill="#a61e4d" text-anchor="start" style="white-space: pre;" direction="ltr">localhost3000/jolly-panda</text></g><g stroke-linecap="round"><g transform="translate(348.6745390906799 808.242240081561) rotate(0 53.63154830768349 -196.9198200532819)"><path d="M0.5 -0.44 C39.45 -147.91, 80.42 -295.07, 106.93 -393.4 M0.33 -0.48 C31.81 -123.53, 64.61 -246.21, 106.88 -393.22" stroke="#a61e4d" stroke-width="1" fill="none"></path></g><g transform="translate(348.6745390906799 808.242240081561) rotate(0 53.63154830768349 -196.9198200532819)"><path d="M110 -364.1 C106.68 -374.49, 107.54 -384.54, 107.45 -392.79 M109.69 -364.16 C108.37 -373.45, 106.77 -382.28, 107.35 -392.46" stroke="#a61e4d" stroke-width="1" fill="none"></path></g><g transform="translate(348.6745390906799 808.242240081561) rotate(0 53.63154830768349 -196.9198200532819)"><path d="M90.25 -369.68 C94.34 -378.01, 102.62 -385.96, 107.45 -392.79 M89.94 -369.74 C94.83 -377.33, 99.4 -384.41, 107.35 -392.46" stroke="#a61e4d" stroke-width="1" fill="none"></path></g></g><mask></mask><g transform="translate(291.6090227047254 619.3809904288403) rotate(0 46.99999999999997 9.5)"><text x="0" y="15" font-family="Helvetica, Segoe UI Emoji" font-size="16px" fill="#a61e4d" text-anchor="start" style="white-space: pre;" direction="ltr">useParams()</text></g><g transform="translate(88.74443937139208 749.4403747294352) rotate(0 95.50000000000001 12.5)"><text x="0" y="18" font-family="Virgil, Segoe UI Emoji" font-size="20px" fill="#a61e4d" text-anchor="start" style="white-space: pre;" direction="ltr">Enters in URL Bar:</text></g><g stroke-linecap="round" transform="translate(1549.2125848327014 283.5692809794357) rotate(0 49.45963541666674 74.79166666666674)"><path d="M0.23 0.31 C24.5 0.18, 50.94 -1, 97.21 1.49 M0.02 0.33 C24.21 0.7, 47.88 -0.12, 98.62 -0.46 M99.58 0.52 C100.42 35.49, 99.52 74.99, 100.87 151.14 M98.54 -0.25 C97.93 38.14, 97.23 74.22, 99.31 148.74 M99.98 147.79 C68.57 148.31, 36.92 150.18, -1.87 148.32 M99.53 149.87 C76.62 149.2, 51.74 149.08, -0.12 150.11 M1.05 150.56 C-1.84 98.24, -0.98 45.06, -0.74 0.7 M-0.42 149.85 C-0.76 99.97, -0.28 49.6, -0.99 -0.21" stroke="#e67700" stroke-width="1" fill="none"></path></g><g stroke-linecap="round" transform="translate(1827.656595249368 278.3479268127692) rotate(0 51.269531249999886 84.19596354166663)"><path d="M-0.99 0.76 C35.02 0.04, 72.14 0.18, 103.53 -0.85 M0.35 -0.85 C32.53 -0.17, 67.76 -0.75, 101.71 -0.78 M104.46 1.32 C101.53 65.79, 99.49 128.62, 102.49 169.22 M103 -0.92 C103.98 43.11, 102.85 85.23, 102.13 167.75 M102.61 168.72 C79.42 168.14, 56.68 167.12, -1.49 169.6 M103.4 169.16 C71.72 166.92, 39.58 167.75, -0.28 168.55 M-0.47 170.23 C-0.92 106.47, 0.19 50.06, -1.07 -0.93 M0.56 167.52 C1.51 105.23, 1.54 43.85, 0.12 0.03" stroke="#e67700" stroke-width="1" fill="none"></path></g><g stroke-linecap="round" transform="translate(1656.5446160827014 237.32579139610243) rotate(0 81.21419270833337 165.31575520833337)"><path d="M1.21 -1.05 C59.6 0.9, 119.02 -1.47, 164.22 -0.15 M-0.01 -0.09 C51.08 -0.63, 103.11 -0.7, 161.85 -0.73 M161.51 -1.06 C163.03 127.84, 162.62 253.46, 162.01 330.12 M162.81 0.35 C160.78 69.89, 161.55 139.26, 163.05 330.26 M163.98 330.23 C129.33 333.67, 97 333.65, 0.87 330.13 M162.45 330.74 C125.32 329.49, 87.72 331.02, 0.47 329.91 M-0.7 331.11 C-1.45 219.21, 0.61 107.06, -0.84 -0.36 M-0.23 330.62 C2.34 210.7, 1.39 89.63, 0.29 0.27" stroke="#e67700" stroke-width="1" fill="none"></path></g></svg>