<svg version="1.1" xmlns="http://www.w3.org/2000/svg" viewBox="0 0 1528.616520957342 1094.780020093161" width="3057.233041914684" height="2189.560040186322">
  <!-- svg-source:excalidraw -->
  
  <defs>
    <style class="style-fonts">
      @font-face {
        font-family: "Virgil";
        src: url("https://excalidraw.com/Virgil.woff2");
      }
      @font-face {
        font-family: "Cascadia";
        src: url("https://excalidraw.com/Cascadia.woff2");
      }
    </style>
  </defs>
  <rect x="0" y="0" width="1528.616520957342" height="1094.780020093161" fill="#ffffff"></rect><g stroke-linecap="round" transform="translate(1016.5366598462306 373.09390500992066) rotate(0 86.20442708333337 49.34787326388886)"><path d="M1.95 1.75 C33.91 -2.23, 70.02 -3.31, 171.99 -0.78 M0.96 0.41 C66.85 -0.21, 132.45 -1.24, 173.2 -0.92 M170.71 0.97 C173.39 24.64, 173.52 44.68, 172.55 97.29 M171.45 -0.43 C172.73 25.68, 172.66 52.33, 173.31 99.5 M172.79 96.89 C123.09 100.79, 78.59 100.15, 1.32 100.26 M171.55 99.39 C122 97.47, 71.53 98.63, -0.25 98.25 M0.58 96.96 C-1.57 75.94, -2.83 53.01, 0.91 -0.86 M-0.94 98.55 C-0.3 75.3, -0.12 50.67, 0.96 0.06" stroke="#000000" stroke-width="1" fill="none"></path></g><g stroke-linecap="round" transform="translate(985.8269469246036 546.0551060267858) rotate(0 124.17534722222229 92.81087239583334)"><path d="M-1.45 1.04 C65.62 -1.52, 132.82 -1.35, 247.66 0.03 M-0.56 0.24 C75.71 -2.34, 149.54 -2.13, 249.03 0.36 M248.48 -1.6 C247.62 70.51, 248.43 141.39, 247.13 185.28 M248.9 -0.33 C248.47 69.55, 248.61 140.29, 248.95 184.94 M247.5 186.17 C162.6 183.14, 79.14 185.58, -1.08 186.34 M248.07 185.95 C173.33 185.24, 100.31 184.89, 0.32 186.09 M-0.47 184.09 C-0.09 124.77, 1.43 67.52, -1.01 -1.3 M-0.04 184.84 C2.12 144.97, 1.94 103.38, 0.62 -0.36" stroke="#000000" stroke-width="1" fill="none"></path></g><g transform="translate(1022.9038473462306 343.9315786210317) rotate(0 24.5 11.5)"><text x="0" y="19" font-family="Helvetica, Segoe UI Emoji" font-size="20px" fill="#000000" text-anchor="start" style="white-space: pre;" direction="ltr">Word</text></g><g transform="translate(1033.5288473462306 386.6242869543651) rotate(0 52.50000000000003 37)"><text x="0" y="15.5" font-family="Helvetica, Segoe UI Emoji" font-size="16px" fill="#000000" text-anchor="start" style="white-space: pre;" direction="ltr">id</text><text x="0" y="34" font-family="Helvetica, Segoe UI Emoji" font-size="16px" fill="#000000" text-anchor="start" style="white-space: pre;" direction="ltr">word: STRING</text><text x="0" y="52.5" font-family="Helvetica, Segoe UI Emoji" font-size="16px" fill="#000000" text-anchor="start" style="white-space: pre;" direction="ltr"></text><text x="0" y="71" font-family="Helvetica, Segoe UI Emoji" font-size="16px" fill="#000000" text-anchor="start" style="white-space: pre;" direction="ltr">wordPackId</text></g><g stroke-linecap="round" transform="translate(1046.4065600198417 194.22096664186535) rotate(0 70.14409722222229 42.628038194444414)"><path d="M0.17 0.1 C44.09 0.75, 84.39 1.33, 139.59 1.1 M0.87 0.34 C39.91 0.74, 80.71 1.07, 139.91 -0.84 M141.4 -0.14 C141.57 31.94, 139.02 67.01, 138.85 86.07 M139.86 -0.85 C138.8 27.34, 140.35 53.95, 140.69 85.65 M140.96 83.88 C110.06 86.09, 80.4 86.54, 1.42 85.62 M139.7 85.03 C105.67 85.86, 70.85 86.4, 0.65 84.53 M0.29 85.43 C-0.18 52.33, 0.01 18.26, 0.62 0.15 M0.37 84.54 C-0.12 62.6, -0.34 38.14, -0.55 -0.42" stroke="#000000" stroke-width="1" fill="none"></path></g><g transform="translate(1057.982080853175 166.37548053075415) rotate(0 46 11.5)"><text x="0" y="19" font-family="Helvetica, Segoe UI Emoji" font-size="20px" fill="#000000" text-anchor="start" style="white-space: pre;" direction="ltr">Wordpack</text></g><g transform="translate(1062.4916294642862 219.38502914186543) rotate(0 55.5 18.5)"><text x="0" y="15.5" font-family="Helvetica, Segoe UI Emoji" font-size="16px" fill="#000000" text-anchor="start" style="white-space: pre;" direction="ltr">id</text><text x="0" y="34" font-family="Helvetica, Segoe UI Emoji" font-size="16px" fill="#000000" text-anchor="start" style="white-space: pre;" direction="ltr">name: STRING</text></g><g transform="translate(995.4585968501989 517.1182570684525) rotate(0 22.5 11.5)"><text x="0" y="19" font-family="Helvetica, Segoe UI Emoji" font-size="20px" fill="#000000" text-anchor="start" style="white-space: pre;" direction="ltr">Card</text></g><g stroke-linecap="round" transform="translate(542.9290422712054 887.780020093161) rotate(0 170.5 98.5)"><path d="M-1.11 -1.27 C88.98 -0.9, 179.71 -2.57, 341.39 1.11 M-0.45 0.38 C111.61 1.86, 223.87 0.75, 341.49 0.47 M339.44 -1.18 C339.43 49.07, 341.34 97.47, 341.1 196.95 M340.12 0.91 C342.97 43.23, 341.55 86.45, 341.13 197.75 M341.67 197.14 C240.78 197.21, 142.71 199.2, -0.03 197.25 M340.53 197.62 C239.8 195.63, 139.19 195.15, -0.04 196.87 M-0.26 198.66 C2.74 149.55, 2.48 98.32, -1.98 1.75 M-0.72 197.13 C0.81 144.12, 0.3 93.42, 0.06 -0.62" stroke="#000000" stroke-width="1" fill="none"></path></g><g transform="translate(547.9290422712054 919.780020093161) rotate(0 138 66.5)"><text x="0" y="15" font-family="Helvetica, Segoe UI Emoji" font-size="16px" fill="#000000" text-anchor="start" style="white-space: pre;" direction="ltr">id: STRING (uid from firebase)</text><text x="0" y="34" font-family="Helvetica, Segoe UI Emoji" font-size="16px" fill="#000000" text-anchor="start" style="white-space: pre;" direction="ltr">username: STRING</text><text x="0" y="53" font-family="Helvetica, Segoe UI Emoji" font-size="16px" fill="#000000" text-anchor="start" style="white-space: pre;" direction="ltr">role: ['spymaster', 'op']</text><text x="0" y="72" font-family="Helvetica, Segoe UI Emoji" font-size="16px" fill="#000000" text-anchor="start" style="white-space: pre;" direction="ltr">wins: INT (this is number of times won)</text><text x="0" y="91" font-family="Helvetica, Segoe UI Emoji" font-size="16px" fill="#000000" text-anchor="start" style="white-space: pre;" direction="ltr"></text><text x="0" y="110" font-family="Helvetica, Segoe UI Emoji" font-size="16px" fill="#000000" text-anchor="start" style="white-space: pre;" direction="ltr">teamId</text><text x="0" y="129" font-family="Helvetica, Segoe UI Emoji" font-size="16px" fill="#000000" text-anchor="start" style="white-space: pre;" direction="ltr">roomId</text></g><g transform="translate(553.6935511997767 864.3849308074471) rotate(0 29.5 11.5)"><text x="0" y="19" font-family="Helvetica, Segoe UI Emoji" font-size="20px" fill="#000000" text-anchor="start" style="white-space: pre;" direction="ltr">Player</text></g><g stroke-linecap="round" transform="translate(1023.7769070800069 879.8860496972377) rotate(0 69.28222656250006 49.20979817708337)"><path d="M-0.72 1.69 C42.89 0.85, 81.86 1.07, 140.37 0.73 M0.15 -0.57 C46.35 -0.04, 90.27 1, 137.57 -0.49 M140.16 -1.53 C141.1 20.52, 139.94 38.63, 137.86 97 M138.1 -0.82 C139.49 37.59, 138.19 74.71, 139.43 98.36 M137.88 97.33 C90.43 100.2, 41.68 98.49, -1.17 97.33 M137.78 99 C94.07 96.87, 47.5 97.36, -0.09 97.66 M0.01 96.46 C-2.82 67.57, -1.45 36.5, 0.34 1.33 M-0.9 98.23 C0.16 59.56, -0.71 21.07, 0.09 0.83" stroke="#000000" stroke-width="1" fill="none"></path></g><g transform="translate(1038.8989773925068 849.8245262597377) rotate(0 25.5 11.5)"><text x="0" y="19" font-family="Helvetica, Segoe UI Emoji" font-size="20px" fill="#000000" text-anchor="start" style="white-space: pre;" direction="ltr">Team</text></g><g transform="translate(1036.1646023925068 897.2620262597377) rotate(0 55 37)"><text x="0" y="15.5" font-family="Helvetica, Segoe UI Emoji" font-size="16px" fill="#000000" text-anchor="start" style="white-space: pre;" direction="ltr">id</text><text x="0" y="34" font-family="Helvetica, Segoe UI Emoji" font-size="16px" fill="#000000" text-anchor="start" style="white-space: pre;" direction="ltr">name: STRING</text><text x="0" y="52.5" font-family="Helvetica, Segoe UI Emoji" font-size="16px" fill="#000000" text-anchor="start" style="white-space: pre;" direction="ltr"></text><text x="0" y="71" font-family="Helvetica, Segoe UI Emoji" font-size="16px" fill="#000000" text-anchor="start" style="white-space: pre;" direction="ltr">roomId</text></g><g stroke-linecap="round" transform="translate(376.12081068074673 538.0521230986626) rotate(0 171.91406249999994 116.80989583333337)"><path d="M-1.14 -1.1 C120.78 -1.04, 244.05 -3.19, 344.17 0.25 M0.4 0.08 C75.9 -0.48, 152.72 -1.54, 344.42 0.08 M344.56 -0.43 C345.12 66.68, 344.4 135.53, 343.33 234.24 M343.29 -0.26 C344.42 92.6, 344.63 184.76, 343.6 234.01 M343.97 233.68 C255.26 233.26, 166.97 231.46, -0.36 233.17 M344.12 233.64 C237.77 232.65, 130.63 232.63, -0.02 234.22 M0.29 231.96 C-2.13 171.26, -0.84 111.15, 1.39 0.61 M-0.06 234.06 C-0.58 176.28, -0.75 120.64, -0.22 -0.63" stroke="#000000" stroke-width="1" fill="none"></path></g><g transform="translate(389.76664401408 507.9792064319959) rotate(0 27.5 11.5)"><text x="0" y="19" font-family="Helvetica, Segoe UI Emoji" font-size="20px" fill="#000000" text-anchor="start" style="white-space: pre;" direction="ltr">Room</text></g><g stroke-linecap="round" transform="translate(802.1759322085243 611.1678690064009) rotate(0 48.64986359126988 26.74386160714289)"><path d="M-0.36 -0.79 C25.52 -0.65, 51.09 1.61, 99.08 1.96 M0.98 -0.63 C36.88 -0.06, 72.68 -0.45, 96.36 -0.88 M99 -0.73 C95.99 13.04, 96.17 26.23, 96.67 53.71 M97.46 0.23 C98.08 14.77, 97.41 30.61, 96.63 54.48 M98.39 54.14 C67.68 52.77, 34.42 53.6, 1.67 53.78 M98.16 53.35 C75.22 54.52, 53.66 54.5, -0.42 52.53 M0.8 54.19 C0.19 34.1, 0.77 11.14, -0.34 0.15 M0.16 52.74 C0.79 36.09, 0.78 18.83, 0.91 0.15" stroke="#000000" stroke-width="1" fill="none"></path></g><g transform="translate(813.1066117720162 581.5810634508454) rotate(0 27.5 11.499999999999972)"><text x="0" y="19" font-family="Helvetica, Segoe UI Emoji" font-size="20px" fill="#000000" text-anchor="start" style="white-space: pre;" direction="ltr">Board</text></g><g stroke-linecap="round"><g transform="translate(1114.7483568948417 282.2032800099206) rotate(0 0.19371285061350818 45.2113003248209)"><path d="M0.05 0.12 C0.1 15.37, -0.77 76.09, -0.62 91.29 M-1.38 -0.86 C-0.85 14.11, 1.42 74.72, 1.77 89.79" stroke="#000000" stroke-width="2" fill="none"></path></g></g><mask></mask><g stroke-linecap="round"><g transform="translate(1114.1477709573417 330.0226159474206) rotate(0 -6.82814564910251 20.635704261446364)"><path d="M0.46 -0.05 C-1.62 6.63, -11 34.32, -13.07 41.04 M-0.76 -1.13 C-2.97 5.65, -12.2 35.38, -14.12 42.4" stroke="#000000" stroke-width="2" fill="none"></path></g></g><mask></mask><g stroke-linecap="round"><g transform="translate(1116.7063647073417 332.8429284474206) rotate(0 8.427437285333838 21.09264196996577)"><path d="M-1.16 0.33 C1.91 7.13, 14.96 34.67, 18.01 41.56 M0.43 -0.55 C3.39 6.34, 13.89 35.53, 17.09 42.73" stroke="#000000" stroke-width="2" fill="none"></path></g></g><mask></mask><g transform="translate(819.5139818948417 620.4230065724207) rotate(0 26 18.5)"><text x="0" y="15.5" font-family="Helvetica, Segoe UI Emoji" font-size="16px" fill="#000000" text-anchor="start" style="white-space: pre;" direction="ltr">id</text><text x="0" y="34" font-family="Helvetica, Segoe UI Emoji" font-size="16px" fill="#000000" text-anchor="start" style="white-space: pre;" direction="ltr">roomId</text></g><g transform="translate(395.5350322420638 561.5126333085318) rotate(0 152 65)"><text x="0" y="14.571428571428573" font-family="Helvetica, Segoe UI Emoji" font-size="16px" fill="#000000" text-anchor="start" style="white-space: pre;" direction="ltr">id</text><text x="0" y="33.142857142857146" font-family="Helvetica, Segoe UI Emoji" font-size="16px" fill="#000000" text-anchor="start" style="white-space: pre;" direction="ltr">name: STRING (word slug like jolly-panda)</text><text x="0" y="51.71428571428572" font-family="Helvetica, Segoe UI Emoji" font-size="16px" fill="#000000" text-anchor="start" style="white-space: pre;" direction="ltr"></text><text x="0" y="70.28571428571429" font-family="Helvetica, Segoe UI Emoji" font-size="16px" fill="#000000" text-anchor="start" style="white-space: pre;" direction="ltr">team1id: teamPK</text><text x="0" y="88.85714285714286" font-family="Helvetica, Segoe UI Emoji" font-size="16px" fill="#000000" text-anchor="start" style="white-space: pre;" direction="ltr">team2id: teamPK</text><text x="0" y="107.42857142857144" font-family="Helvetica, Segoe UI Emoji" font-size="16px" fill="#000000" text-anchor="start" style="white-space: pre;" direction="ltr">team3id: teamPK</text><text x="0" y="126" font-family="Helvetica, Segoe UI Emoji" font-size="16px" fill="#000000" text-anchor="start" style="white-space: pre;" direction="ltr">team4id: teamPK</text></g><g transform="translate(10 381.2831566220239) rotate(0 148.5 110)"><text x="0" y="14" font-family="Virgil, Segoe UI Emoji" font-size="16px" fill="#1864ab" text-anchor="start" style="white-space: pre;" direction="ltr">these fields are used for</text><text x="0" y="34" font-family="Virgil, Segoe UI Emoji" font-size="16px" fill="#1864ab" text-anchor="start" style="white-space: pre;" direction="ltr">generating the card layout,</text><text x="0" y="54" font-family="Virgil, Segoe UI Emoji" font-size="16px" fill="#1864ab" text-anchor="start" style="white-space: pre;" direction="ltr">where:</text><text x="0" y="74" font-family="Virgil, Segoe UI Emoji" font-size="16px" fill="#1864ab" text-anchor="start" style="white-space: pre;" direction="ltr"> - team1 is the team to go</text><text x="0" y="94" font-family="Virgil, Segoe UI Emoji" font-size="16px" fill="#1864ab" text-anchor="start" style="white-space: pre;" direction="ltr">   first (gets 9 cards),</text><text x="0" y="114" font-family="Virgil, Segoe UI Emoji" font-size="16px" fill="#1864ab" text-anchor="start" style="white-space: pre;" direction="ltr"> - team2 goes second, gets 8 cards,</text><text x="0" y="134" font-family="Virgil, Segoe UI Emoji" font-size="16px" fill="#1864ab" text-anchor="start" style="white-space: pre;" direction="ltr"> - team3 is the bystander team,</text><text x="0" y="154" font-family="Virgil, Segoe UI Emoji" font-size="16px" fill="#1864ab" text-anchor="start" style="white-space: pre;" direction="ltr">   so they get 7 cards. </text><text x="0" y="174" font-family="Virgil, Segoe UI Emoji" font-size="16px" fill="#1864ab" text-anchor="start" style="white-space: pre;" direction="ltr">   this team has no players.</text><text x="0" y="194" font-family="Virgil, Segoe UI Emoji" font-size="16px" fill="#1864ab" text-anchor="start" style="white-space: pre;" direction="ltr"> - team4 is the assassin team .</text><text x="0" y="214" font-family="Virgil, Segoe UI Emoji" font-size="16px" fill="#1864ab" text-anchor="start" style="white-space: pre;" direction="ltr">   they get 1 card, and no players.</text></g><g transform="translate(1007.1664341517856 569.7873728918651) rotate(0 73.5 65)"><text x="0" y="14.571428571428573" font-family="Helvetica, Segoe UI Emoji" font-size="16px" fill="#000000" text-anchor="start" style="white-space: pre;" direction="ltr">id</text><text x="0" y="33.142857142857146" font-family="Helvetica, Segoe UI Emoji" font-size="16px" fill="#000000" text-anchor="start" style="white-space: pre;" direction="ltr">isVisibleToAll: BOOL</text><text x="0" y="51.71428571428572" font-family="Helvetica, Segoe UI Emoji" font-size="16px" fill="#000000" text-anchor="start" style="white-space: pre;" direction="ltr"></text><text x="0" y="70.28571428571429" font-family="Helvetica, Segoe UI Emoji" font-size="16px" fill="#000000" text-anchor="start" style="white-space: pre;" direction="ltr"></text><text x="0" y="88.85714285714286" font-family="Helvetica, Segoe UI Emoji" font-size="16px" fill="#000000" text-anchor="start" style="white-space: pre;" direction="ltr">wordId</text><text x="0" y="107.42857142857144" font-family="Helvetica, Segoe UI Emoji" font-size="16px" fill="#000000" text-anchor="start" style="white-space: pre;" direction="ltr">teamId</text><text x="0" y="126" font-family="Helvetica, Segoe UI Emoji" font-size="16px" fill="#000000" text-anchor="start" style="white-space: pre;" direction="ltr">boardId</text></g><g transform="translate(1008.0449063740085 606.5508277529766) rotate(0 71.5 9.5)"><text x="0" y="15" font-family="Helvetica, Segoe UI Emoji" font-size="16px" fill="#e67700" text-anchor="start" style="white-space: pre;" direction="ltr">isSuggested: BOOL</text></g><g stroke-linecap="round"><g transform="translate(1268.350895957342 602.3338838212157) rotate(0 -58.92929721827153 6.317482279354863)"><path d="M0.54 -0.1 C-19.19 2.4, -98.12 11.67, -117.72 13.83 M-0.63 -1.2 C-20.54 1.1, -98.97 9.71, -118.4 12.29" stroke="#e67700" stroke-width="1" fill="none"></path></g><g transform="translate(1268.350895957342 602.3338838212157) rotate(0 -58.92929721827153 6.317482279354863)"><path d="M-91.8 -0.39 C-99.49 5.66, -110.65 7.74, -117.27 12.99 M-90.81 -1.03 C-99.25 1.97, -106.19 5.85, -118.52 12.23" stroke="#e67700" stroke-width="1" fill="none"></path></g><g transform="translate(1268.350895957342 602.3338838212157) rotate(0 -58.92929721827153 6.317482279354863)"><path d="M-89.36 19.98 C-97.72 18.76, -109.76 13.56, -117.27 12.99 M-88.37 19.34 C-97.36 16.91, -104.95 15.33, -118.52 12.23" stroke="#e67700" stroke-width="1" fill="none"></path></g></g><mask></mask><g transform="translate(1274.616520957342 544.4355933779764) rotate(0 122 90)"><text x="0" y="14" font-family="Virgil, Segoe UI Emoji" font-size="16px" fill="#e67700" text-anchor="start" style="white-space: pre;" direction="ltr">not implemented yet,</text><text x="0" y="34" font-family="Virgil, Segoe UI Emoji" font-size="16px" fill="#e67700" text-anchor="start" style="white-space: pre;" direction="ltr">would like to as an</text><text x="0" y="54" font-family="Virgil, Segoe UI Emoji" font-size="16px" fill="#e67700" text-anchor="start" style="white-space: pre;" direction="ltr">additional feature.</text><text x="0" y="74" font-family="Virgil, Segoe UI Emoji" font-size="16px" fill="#e67700" text-anchor="start" style="white-space: pre;" direction="ltr">This would allow cards</text><text x="0" y="94" font-family="Virgil, Segoe UI Emoji" font-size="16px" fill="#e67700" text-anchor="start" style="white-space: pre;" direction="ltr">to be 'suggested' as possible</text><text x="0" y="114" font-family="Virgil, Segoe UI Emoji" font-size="16px" fill="#e67700" text-anchor="start" style="white-space: pre;" direction="ltr">cards that fit the clue</text><text x="0" y="134" font-family="Virgil, Segoe UI Emoji" font-size="16px" fill="#e67700" text-anchor="start" style="white-space: pre;" direction="ltr">while operatives are</text><text x="0" y="154" font-family="Virgil, Segoe UI Emoji" font-size="16px" fill="#e67700" text-anchor="start" style="white-space: pre;" direction="ltr">deciding which cards to finalize</text><text x="0" y="174" font-family="Virgil, Segoe UI Emoji" font-size="16px" fill="#e67700" text-anchor="start" style="white-space: pre;" direction="ltr">as their clicks.</text></g><g stroke-linecap="round" transform="translate(365.7867683531745 598.5818607390875) rotate(0 92.62803819444439 58.93012152777783)"><path d="M105.32 0.77 C117.38 1.11, 130.62 5, 141.18 9.08 C151.74 13.15, 161.57 18.75, 168.67 25.23 C175.78 31.7, 181.56 39.87, 183.8 47.93 C186.04 55.99, 185.29 65.84, 182.11 73.61 C178.93 81.38, 172.44 88.31, 164.73 94.53 C157.02 100.76, 146.67 107.18, 135.84 110.98 C125.01 114.78, 112.13 116.83, 99.77 117.33 C87.4 117.82, 73.62 116.69, 61.64 113.96 C49.65 111.23, 37.04 106.38, 27.85 100.93 C18.66 95.47, 11.15 88.74, 6.5 81.25 C1.84 73.76, -0.6 64.02, -0.06 55.99 C0.47 47.95, 4.05 40.06, 9.73 33.06 C15.4 26.06, 24.4 19.06, 33.99 13.98 C43.57 8.89, 53.98 4.73, 67.23 2.54 C80.48 0.34, 104.15 0.53, 113.51 0.81 C122.87 1.08, 123.57 3, 123.41 4.19 M135.98 8.25 C146.96 10.97, 158.14 15.41, 166.1 21.72 C174.05 28.03, 180.67 38.08, 183.68 46.14 C186.7 54.2, 186.67 62.52, 184.18 70.07 C181.69 77.63, 176.04 85.03, 168.76 91.46 C161.47 97.9, 150.93 104.33, 140.47 108.68 C130.01 113.03, 118.58 116.63, 106 117.56 C93.42 118.48, 77.31 116.54, 64.98 114.24 C52.65 111.93, 41.56 108.73, 32.03 103.74 C22.5 98.75, 12.95 91.37, 7.79 84.29 C2.63 77.21, 1.32 69.15, 1.06 61.26 C0.81 53.37, 1.56 44.63, 6.27 36.96 C10.98 29.29, 19.87 20.88, 29.34 15.26 C38.8 9.64, 51.47 5.63, 63.07 3.23 C74.67 0.83, 86.75 0.39, 98.96 0.85 C111.16 1.31, 129.9 4.85, 136.32 6 C142.74 7.16, 138.29 6.65, 137.48 7.77" stroke="#1864ab" stroke-width="4" fill="none"></path></g><g stroke-linecap="round"><g transform="translate(371.5376364087301 636.1903676835318) rotate(0 -55.90912956908193 -43.048274722683544)"><path d="M0.17 -0.43 C-18.16 -14.59, -92.34 -71.56, -111.06 -85.67 M-1.2 -1.7 C-19.6 -15.68, -93.9 -70.97, -111.99 -84.68" stroke="#1864ab" stroke-width="4" fill="none"></path></g></g><mask></mask><g stroke-linecap="round"><g transform="translate(804.5980747767857 633.6263485863096) rotate(0 -40.59907634610775 0.16322135420978157)"><path d="M0.57 -0.91 C-12.91 -0.64, -67.51 0.93, -81.17 1.01 M-0.6 1.23 C-14.15 1.23, -68.21 -0.49, -81.76 -0.59" stroke="#000000" stroke-width="2" fill="none"></path></g></g><mask></mask><g stroke-linecap="round"><g transform="translate(644.9991164434523 772.610832093254) rotate(0 32.69009230602222 56.77316080624303)"><path d="M1.16 -0.78 C11.48 18.19, 52.47 94.05, 62.67 113.23 M0.31 1.42 C10.97 20.58, 54.34 95.29, 65.07 114.33" stroke="#000000" stroke-width="2" fill="none"></path></g></g><mask></mask><g stroke-linecap="round"><g transform="translate(681.7452101934523 836.083488343254) rotate(0 4.698922652653415 25.688298767851677)"><path d="M-0.69 -0.15 C0.67 8.44, 6.22 42.77, 7.85 51.26 M1.16 -1.28 C2.9 7.52, 8.86 43.81, 10.08 52.66" stroke="#000000" stroke-width="2" fill="none"></path></g></g><mask></mask><g stroke-linecap="round"><g transform="translate(683.0538039434523 834.634269593254) rotate(0 24.4605686379131 27.610830077910805)"><path d="M0.46 1.12 C8.56 10, 39.62 44.49, 47.59 53.1 M-0.76 0.66 C7.78 9.75, 41.69 45.69, 49.68 54.56" stroke="#000000" stroke-width="2" fill="none"></path></g></g><mask></mask><g stroke-linecap="round"><g transform="translate(899.5069289434523 635.106925843254) rotate(0 42.66550882235171 0.45743913321217633)"><path d="M-0.26 -1 C13.85 -0.87, 71.37 -0.08, 85.59 0.15 M1.8 1.09 C15.64 1.49, 70.16 2.24, 84.44 1.76" stroke="#000000" stroke-width="2" fill="none"></path></g></g><mask></mask><g stroke-linecap="round"><g transform="translate(948.6709914434523 632.935050843254) rotate(0 19.534238403937792 -6.404487894452188)"><path d="M0.22 -0.77 C6.94 -3.32, 33.67 -12.11, 40.19 -14.25 M-1.12 1.44 C5.53 -0.37, 33.15 -9.82, 39.78 -12.63" stroke="#000000" stroke-width="2" fill="none"></path></g></g><mask></mask><g stroke-linecap="round"><g transform="translate(950.4444289434523 634.591300843254) rotate(0 17.964949518642413 10.240869506048057)"><path d="M0.53 1.19 C6.72 4.17, 30.4 15.48, 36.59 18.39 M-0.66 0.76 C5.42 3.88, 29.24 16.53, 35.58 19.72" stroke="#000000" stroke-width="2" fill="none"></path></g></g><mask></mask><g stroke-linecap="round"><g transform="translate(1021.6788039434523 936.970207093254) rotate(0 -68.95295907631515 -0.33025007315535504)"><path d="M0.02 0.01 C-22.97 -0.13, -114.94 -0.59, -137.92 -0.76 M-1.43 -1.03 C-24.03 -1.04, -113.29 0.24, -135.61 0.37" stroke="#000000" stroke-width="2" fill="none"></path></g></g><mask></mask><g stroke-linecap="round"><g transform="translate(916.7217726934523 936.052238343254) rotate(0 -15.900724877086475 7.583754691863419)"><path d="M0.13 0.98 C-5.21 3.21, -25.76 11.07, -31.15 13.23 M-1.26 0.45 C-6.81 2.89, -27.18 12.81, -31.93 14.72" stroke="#000000" stroke-width="2" fill="none"></path></g></g><mask></mask><g stroke-linecap="round"><g transform="translate(915.8272414434523 936.415519593254) rotate(0 -17.591237011798654 -7.668515282995088)"><path d="M0.31 0.67 C-5.67 -1.74, -29.08 -11.59, -35.06 -13.99 M-0.98 -0.03 C-7.11 -2.87, -29.65 -13.37, -35.5 -16.01" stroke="#000000" stroke-width="2" fill="none"></path></g></g><mask></mask><g stroke-linecap="round"><g transform="translate(1113.7373976934523 878.560050843254) rotate(0 0.5651888943230574 -73.53883577957748)"><path d="M0.75 0.27 C0.6 -24.29, -0.37 -122.81, -0.63 -147.35 M-0.32 -0.64 C-0.09 -25.01, 1.42 -121.74, 1.76 -145.89" stroke="#000000" stroke-width="2" fill="none"></path></g></g><mask></mask><g stroke-linecap="round"><g transform="translate(1114.9952101934523 774.231925843254) rotate(0 -8.067413174477394 -22.755407698857596)"><path d="M0.99 -0.33 C-1.7 -7.39, -13.5 -36.04, -16.35 -43.28 M0.05 -1.55 C-2.75 -8.89, -14.35 -38.36, -17.12 -45.18" stroke="#000000" stroke-width="2" fill="none"></path></g></g><mask></mask><g stroke-linecap="round"><g transform="translate(1114.2217726934523 772.853019593254) rotate(0 8.455808093612973 -21.24985017403958)"><path d="M0.93 0.04 C3.3 -6.98, 12.36 -35.51, 14.85 -42.54 M-0.04 -0.98 C2.62 -7.78, 14.44 -34.51, 16.95 -41.14" stroke="#000000" stroke-width="2" fill="none"></path></g></g><mask></mask><g stroke-linecap="round"><g transform="translate(1109.5264601934523 470.98973834325403) rotate(0 0.026741823619204297 37.9838647989277)"><path d="M-0.25 0.58 C-0.19 13.15, -0.77 62.24, -0.53 74.58 M1.81 -0.17 C1.76 12.69, -1.63 63.43, -1.76 76.13" stroke="#000000" stroke-width="2" fill="none"></path></g></g><mask></mask><g stroke-linecap="round"><g transform="translate(1109.9405226934523 512.688957093254) rotate(0 -8.394256424275227 16.540878185522757)"><path d="M0.43 -0.73 C-2.35 4.63, -13.57 27.09, -16.13 32.85 M-0.8 1.5 C-3.81 6.92, -14.82 28.21, -17.22 33.81" stroke="#000000" stroke-width="2" fill="none"></path></g></g><mask></mask><g stroke-linecap="round"><g transform="translate(1111.2217726934523 512.294425843254) rotate(0 6.111545929959959 16.982624181234286)"><path d="M-0.45 0.9 C1.42 6.41, 8.7 28.34, 10.59 33.64 M1.51 0.32 C3.78 5.46, 10.7 26.39, 12.67 32.01" stroke="#000000" stroke-width="2" fill="none"></path></g></g><mask></mask><g transform="translate(1000.5238095238092 985.8359375000002) rotate(0 257 20)"><text x="0" y="14" font-family="Virgil, Segoe UI Emoji" font-size="16px" fill="#364fc7" text-anchor="start" style="white-space: pre;" direction="ltr">* Note: 'teams' are how we also decide the 'color' of the cards.</text><text x="0" y="34" font-family="Virgil, Segoe UI Emoji" font-size="16px" fill="#364fc7" text-anchor="start" style="white-space: pre;" direction="ltr">Meaning, there are teams for bystander and assassin, too!</text></g><g transform="translate(681.3686755952378 10) rotate(0 165 23)"><text x="0" y="32" font-family="Virgil, Segoe UI Emoji" font-size="36px" fill="#000000" text-anchor="start" style="white-space: pre;" direction="ltr">Codenames Schema</text></g></svg>